<svg xmlns="http://www.w3.org/2000/svg" width="205" height="23" viewBox="0 0 205 23"><g><g><g><path fill="#fff" d="M121.217 13l-3.787-6.549-.028-.053L113.668 13zm1.615-13L135 22.577h-8.442l-2.097-3.752h-14.027l-2.119 3.752h-8.824L112 0zm25.887 0l11.699 15.774V0h7.965v22.573h-12.44L144.458 7.415v15.162h-8.068V0zm-64.77 8.19h5.353c.698 0 1.23-.553 1.23-1.19 0-.675-.532-1.225-1.23-1.225H77.37v2.414h6.578zm5.665 8.11c.68 0 1.252-.551 1.252-1.206 0-.653-.574-1.183-1.252-1.183H77.368v2.39zM93 0c1.396 0 4 1.235 4.816 3.887.705 2.231.184 5.904-1.698 7.246 1.384.577 2.324 2.756 2.455 5.013V17a7.9 7.9 0 0 1-.158 1.191c-.498 2.495-2.415 4.384-4.02 4.384H70.181C70.16 15.063 70.16 7.531 70.133 0H93zM36.731 22.573V0h7.678v7.94h3.054L56.447 0h11.256L54.905 11.412l13.768 11.165H57.207l-9.82-8.11h-2.664v8.106zM21.687 13l-3.76-6.549-.027-.053L14.165 13zm1.727-13l12.163 22.577h-8.462L25 18.747H11l-2.172 3.83H0L12.5 0zM173 22.578V0h7.714v7.94h3.028L192.724 0H204l-12.79 11.412 13.737 11.165H193.48l-9.818-8.11H181v8.111z"/></g></g></g></svg>