<svg xmlns="http://www.w3.org/2000/svg" width="146" height="35" viewBox="0 0 146 35"><g><g><g><g><path fill="#e43225" d="M36.44 26.109V3.629h13.286v2.82H39.191v6.91h9.461v2.819h-9.46v7.045h11.272V26H36.44z"/></g><g><path fill="#e43225" d="M64.412 26.108l-4.563-5.972-4.563 5.972h-3.22l6.24-7.984L51.73 9.87h3.623L59.85 16l4.563-6.13H68l-6.272 8.254 5.905 7.984z"/></g><g><path fill="#e43225" d="M83.613 18c0 4.075-2.416 6-5.704 6-3.825 0-5.57-3.2-5.637-4.877-.272-5.123 2.819-6.644 4.832-6.71 4.16-.202 6.509 1.945 6.509 5.587zM72.07 23.685c1.074 2.08 3.929 3.02 6.106 3.02 4.429 0 8.32-3.556 8.32-8.705 0-5.32-3.824-8.54-8.924-8.54-5.032 0-8.253 4.54-8.253 8.723v16.574h2.751z"/></g><g><path fill="#e43225" d="M88.84 26.104V9.865h2.751v1.745c1.342-1.543 3.409-2.08 5.637-2.08v2.952c-.336-.067-3.624-.482-5.637 3.825v9.864H88.84z"/></g><g><path fill="#e43225" d="M105.754 12.211c3.489 0 5.246 2.349 5.246 4.789h-10c.124-2.507 2.137-4.789 4.754-4.789zM98 18c0 5.082 3.46 8.705 8.358 8.772 2.642 0 4.764-1.074 6.441-2.684L111 22.21c-1.354 1.342-2.63 1.88-4.508 1.946-2.55.067-5.301-1.543-5.492-4.63h12.873v-1.342c0-4.898-2.147-8.723-7.873-8.723-4.675 0-8 3.825-8 8.54z"/></g><g><path fill="#e43225" d="M115.28 23.827L117.293 22c-.067 0 1.007 1.089 1.14 1.156.47.403.94.67 1.567.844 1.722.43 4.875.297 5.144-2.119.134-1.342-.872-2.08-2.013-2.55-1.476-.537-3.131-.738-4.563-1.409-1.678-.738-2.751-2.013-2.751-3.922 0-4.868 6.978-5.673 10.132-3.392.134.134 1.678 1.543 1.61 1.543l-2.013 1.61C124.54 12.555 123.601 12 121.453 12c-1.073 0-2.55.42-2.818 1.56-.403 1.61 1.365 2.215 2.617 2.55 1.61.403 3.355.671 4.748 1.544 2 1.207 2.432 3.824 1.694 5.837-.806 2.215-3.221 3.087-5.368 3.154-2.55.134-4.765-.645-6.576-2.483-.134 0-.47-.335-.47-.335z"/></g><g><path fill="#e43225" d="M129.44 23.827L131.453 22c-.067 0 1.007 1.089 1.14 1.156.47.403.94.67 1.544.844 1.745.43 4.863.297 5.167-2.119.134-1.342-.872-2.08-2.013-2.55-1.476-.537-3.087-.738-4.563-1.409C131.05 17.184 130 15.91 130 14c0-4.868 7-5.673 10.11-3.392.133.134 1.677 1.543 1.61 1.543l-2.014 1.61C138.7 12.555 137.761 12 135.613 12c-1.073 0-2.55.42-2.818 1.56-.403 1.61 1.41 2.215 2.617 2.55 1.588.403 3.355.671 4.764 1.544 1.946 1.207 2.416 3.824 1.678 5.837-.854 2.215-3.221 3.087-5.368 3.154-2.55.134-4.765-.645-6.576-2.483-.135 0-.47-.335-.47-.335z"/></g><g><g><path fill="#e43225" d="M142.524 9.87V8.125h-.604V7.79h1.61v.335h-.603V9.87z"/></g><g><path fill="#e43225" d="M145.538 9.87V8.26l-.604 1.61h-.135l-.604-1.61v1.61h-.335V7.79h.537l.537 1.41.536-1.41h.53v2.08z"/></g></g></g><g><g><path fill="#f7971d" d="M14.628 18H6.106L10.2 6.85zm5.905 8.109l-8.656-22.48H8.723L0 26.11h2.885l2.013-5.368h10.87l2.014 5.368z"/></g><g><path fill="#f7971d" d="M22.34 26.109V3.629h2.818v22.48z"/></g><g><path fill="#f7971d" d="M29.39 26.103V10.2h2.818v15.903z"/></g><g><path fill="#f7971d" d="M34.89 5v-.097-.134A4.074 4.074 0 0 1 30.933.81h-.403A4.073 4.073 0 0 1 26.57 4.77V5c2.147.104 3.892 1.85 3.959 4h.403C31 6.85 32.743 5.104 34.89 5z"/></g></g></g></g></svg>