<svg xmlns="http://www.w3.org/2000/svg" width="176" height="45" viewBox="0 0 176 45"><defs><clipPath id="d6pda"><path d="M0 5.69h22.473v26.574H0z"/></clipPath><clipPath id="d6pdb"><path d="M165.85 4.84h9.863v26.921h-9.863z"/></clipPath><clipPath id="d6pdc"><path d="M129.13 0h3.177v9.57h-3.177z"/></clipPath></defs><g><g><g><g><g/><g clip-path="url(#d6pda)"><path fill="#040201" d="M6.614 27.39l-1.43 4.37h-2.94c.115-.76.193-2.436.193-6.42V10.138C2.437 9.21 2.282 9 1.779 9H0V6.076h3.096C5 6.077 6.808 5.882 7.659 5.69v10.792c1.16-2.553 3.341-4.062 6.575-4.062 5.068 0 8.24 3.907 8.24 9.903 0 5.995-3.327 9.94-8.474 9.94-3.75 0-6.303-1.856-7.386-4.873m10.444-4.758v-.58c0-4.178-1.857-6.344-4.72-6.344-2.784 0-4.68 2.128-4.68 6.344v.58c0 4.177 1.935 6.368 4.68 6.368 2.863 0 4.72-2.191 4.72-6.368"/></g></g></g><g><path fill="#040201" d="M156.067 12.429c3.984 0 6.111 2.32 6.111 7.04v8.393c0 .89.233 1.006.658 1.006h1.702v2.9h-9.747v-2.9h1.508c.426 0 .701-.116.701-1.006v-8.278c0-2.584-1-3.752-3.138-3.752-2.592 0-4.1 1.934-4.1 6.168v5.862c0 .89.238 1.006.658 1.006h1.508v2.9h-9.747v-2.9h1.702c.425 0 .657-.116.657-1.006V17c0-.936-.155-1.168-.657-1.168h-1.702v-2.9h3.017c1.895 0 3.636-.194 4.486-.387v3.752c1.2-2.592 3.316-3.868 6.383-3.868zm-35.275 9.902c0-5.88 4.06-9.903 10.134-9.903 5.918 0 9.902 3.985 9.902 9.903 0 5.918-4.023 9.94-10.057 9.94-5.996 0-9.98-3.983-9.98-9.94zm14.814-.232c0-4.526-1.509-6.576-4.758-6.576-3.288 0-4.796 2.05-4.796 6.576v.502c0 4.526 1.47 6.576 4.758 6.576 3.287 0 4.796-2.088 4.796-6.576zm-23.749-9.167v-1.354c0-4.578 1.741-6.228 5.957-6.228 1.508 0 2.786.387 3.288.65v2.87c-.31-.194-1.102-.348-1.624-.348-2.05 0-2.708.735-2.553 3.79v.62h3.442v2.9H117v12.03c0 .89.234 1.006.66 1.006h2.01v2.9h-10.171v-2.9h1.702c.425 0 .657-.116.657-1.006v-12.03h-2.552v-2.9zM85.324 22.33c0-5.956 3.405-9.902 8.432-9.902 3.173 0 5.3 1.354 6.383 3.79v-6.072c0-.928-.139-1.146-.657-1.146h-1.818V6.085h3.21c1.895 0 3.636-.194 4.487-.387v22.164c0 .89.232 1.006.639 1.006h1.643v2.901h-6.924c-.077-.464-.193-2.128-.27-3.675-1.084 2.592-3.25 4.178-6.654 4.178-5.144 0-8.47-3.946-8.47-9.941zm14.815-.27c0-4.178-1.934-6.344-4.68-6.344-2.863 0-4.719 2.166-4.719 6.344v.58c0 4.178 1.856 6.36 4.719 6.36 2.785 0 4.68-2.143 4.68-6.36zm-29.86-5.763c1.198-2.592 3.364-3.868 6.381-3.868 3.985 0 6.112 2.32 6.112 7.04v8.393c0 .89.228 1.006.657 1.006h1.702v2.9h-9.747v-2.9h1.509c.425 0 .657-.116.657-1.006v-8.278c0-2.584-.967-3.752-3.094-3.752-2.592 0-4.1 1.934-4.1 6.168v5.862c0 .89.232 1.006.644 1.006h1.522v2.9h-9.748v-2.9h1.702c.426 0 .657-.116.657-1.006V17c0-.936-.133-1.168-.657-1.168h-1.702v-2.9h3.017c1.896 0 3.636-.194 4.487-.387v3.752zM52.37 29.177c2.63 0 4.216-1.354 5.106-3.636l2.94 1.316c-1.045 3.017-3.598 5.415-8.472 5.415-6.846 0-10.289-4.14-10.289-9.941 0-5.88 3.985-9.903 9.787-9.903 5.957 0 9.244 3.714 9.244 9.941v.967H47c.11 3.52 1.85 5.841 5.37 5.841zm-5.454-8.471h8.51c-.077-3.83-1.238-5.3-3.984-5.3s-4.293 1.594-4.526 5.3zm-16.167-4.023c.89-3.017 2.862-4.255 5.106-4.255 2.785 0 4.525 1.78 4.525 4.572 0 2.43-1.47 4.054-3.674 4.054-1.432 0-2.63-1.16-2.63-2.553 0-1.044.695-2.127 1.856-2.501-.27-.206-.696-.361-1.276-.361-2.553 0-3.868 2.361-3.868 6.305v5.918c0 .89.212 1.006.657 1.006h1.818v2.9H23.206v-2.9h1.702c.426 0 .658-.116.658-1.006V17c0-.935-.155-1.168-.658-1.168H23.09v-2.9h3.133c1.895 0 3.636-.194 4.526-.388z"/></g><g><g><g/><g clip-path="url(#d6pdb)"><path fill="#040201" d="M165.85 28.861h1.74c.41 0 .62-.194.62-1.007V17.372c0-1.2-.21-1.547-.852-1.547h-1.508v-2.901h3.095c1.895 0 3.635-.193 4.525-.387v15.317c0 .813.193 1.006.62 1.006h1.624v2.901h-9.864zM167.552 8c0-1.729 1.276-3.16 3.25-3.16C172.697 4.84 174 6.27 174 8c0 1.751-1.303 3.183-3.199 3.183-1.973 0-3.249-1.431-3.249-3.183z"/></g></g></g><g><path fill="#040201" d="M173.5 37c1.065 0 1.731.659 1.731 1.725 0 .932-.562 1.554-1.405 1.554-.548 0-1.006-.444-1.006-.977 0-.399.266-.814.71-.947-.103-.088-.266-.147-.53-.147-.934 0-1.438.902-1.438 2.411v2.263c0 .34.09.385.252.385h.695v1.11h-3.846v-1.11h.651c.163 0 .25-.044.25-.385v-4.157c0-.354-.058-.444-.25-.444h-.695v-1.11h1.198c.725 0 1.39-.073 1.73-.171v1.607c.34-1.154 1.096-1.607 1.953-1.607zm-9.217 1.281h-.976v-.99l.562-.045c.503-.09.828-.246.888-.814l.147-1.302h1.376v2.042h1.435v1.11h-1.479v4.009c0 .784.281 1.05.918 1.05.31 0 .502-.059.68-.118v1.139a4.55 4.55 0 0 1-1.287.192c-1.628 0-2.264-.621-2.264-2.234zm-4.158 5.104c0-.68.489-1.168 1.214-1.168.661 0 1.213.488 1.213 1.168 0 .696-.552 1.184-1.213 1.184-.725 0-1.213-.488-1.213-1.184zM147 43.267c.193 0 .282-.044.282-.384v-4.158c0-.355-.06-.444-.282-.444h-.62v-1.109h1.154c.724 0 1.39-.074 1.715-.172v1.444c.445-.947 1.154-1.444 2.249-1.444 1.154 0 1.894.512 2.145 1.621C154 37.557 154.797 37 156 37c1.579 0 2.392.852 2.392 2.79v3.093c0 .34.09.384.252.384h.65v1.11h-3.698v-1.11h.548c.162 0 .251-.044.251-.384v-2.974c0-1.11-.395-1.598-1.184-1.598-.917 0-1.375.689-1.375 2.1v2.472c0 .34.09.384.251.384h.621v1.11H151v-1.11h.587c.163 0 .252-.044.252-.384v-3.108c0-.976-.415-1.464-1.184-1.464-.917 0-1.376.689-1.376 2.1v2.472c0 .34.09.384.252.384h.577v1.11h-3.728v-1.11zM141.777 37c2.223 0 3.787 1.503 3.787 3.767 0 2.233-1.564 3.802-3.847 3.802-2.292 0-3.816-1.569-3.816-3.802 0-2.249 1.554-3.767 3.876-3.767zm1.79 3.678c0-1.73-.567-2.515-1.82-2.515-1.257 0-1.834.784-1.834 2.515v.193c0 1.73.562 2.514 1.82 2.514 1.267 0 1.834-.799 1.834-2.514zm-7.975-1.893c-.222-.444-.71-.681-1.539-.681-1.332 0-2.053.896-2.053 2.47v.237c0 1.657.647 2.56 2 2.56 1 0 1.665-.444 2-1.371l1.131.483c-.444 1.198-1.376 2.086-3.226 2.086-2.544 0-3.905-1.406-3.905-3.817C130 38.4 131.45 37 133.935 37c2.065 0 3.313.941 3.313 2.435 0 .977-.606 1.565-1.45 1.565-.68 0-1.168-.44-1.168-1.062 0-.591.37-1.035.962-1.153"/></g><g><path fill="#0e86c8" d="M142.323 10c-1.323 1.738-2.946 2.758-3.65 2.238-.673-.52-.215-2.384 1.096-4.162 1.311-1.78 2.946-2.8 3.651-2.28.706.52.215 2.383-1.097 4.204"/></g><g><path fill="#00b4a3" d="M135 10.255c-.882-.255-.907-2.523-.105-5.041.803-2.518 2.105-4.344 2.965-4.078.835.266.861 2.523.058 5.042-.803 2.518-2.13 4.344-2.918 4.077z"/></g><g><g><g/><g clip-path="url(#d6pdc)"><path fill="#f9a21a" d="M132.304 4.757c.048 2.642-.624 4.797-1.5 4.813-.875.016-1.625-2.112-1.672-4.756-.048-2.643.624-4.814 1.5-4.814s1.625 2.114 1.672 4.758"/></g></g></g><g><path fill="#e75524" d="M126.923 6.312c.676 1.88.554 3.688-.27 3.94-.825.298-2.04-.987-2.716-2.87-.675-1.88-.554-3.644.27-3.94.793-.296 2.04.989 2.716 2.87"/></g></g></g></svg>