<svg xmlns="http://www.w3.org/2000/svg" width="106" height="51" viewBox="0 0 106 51"><g><g><path fill="#f27224" d="M11.307 18.817c.083 0 5.46.05 7.746-.21C21.094 18.398 21.408 18 21.88 16l.732-3h2.25l-.314 6.915.157 6.857h-2.25l-.628-2.721C21.355 22 20.466 21.59 19 21.486c-2-.157-7.694-.157-7.694-.157v11.934c0 2.25 1.256 3.298 3.874 3.298H23c2.597 0 5-.263 6.575-3.926L31.616 28h1.937c-.157.918-1.205 9.45-1.361 11.334 0 0-7.192-.261-10.26-.261H8.22L0 39.334v-2.197l2.775-.524C4.71 36.246 5.34 35.67 5.34 34.1c0 0 .157-5.182.157-13.818 0-8.637-.157-13.871-.157-13.871-.158-1.78-.629-2.199-2.565-2.565L0 3.322V1.124l8.219.262h15.335c3.036 0 8.166-.576 8.166-.576s-.314 3.298-.72 10.887h-2L28.318 9c-.837-3.322-1.989-5.103-4.083-5.103H12.25c-.89 0-.942.315-.942.838zm33.29-12.564v7.957l8.166-.315-.419 3.56-7.747-.576v14.185c0 3.936 1.256 5.548 3.559 5.548 2.094 0 3.768-1.309 4.292-2.199l1.1 1.414c-1.1 2.722-4.293 4.03-7.381 4.03-3.978 0-6.962-2.198-6.962-6.7v-16.07h-4.658V15.1a9.652 9.652 0 0 0 3.768-1.465C40.88 12 41.613 9.446 42.345 6.2zm15.757 28.432c.575 1.52 2.04 3.036 4.971 3.036 3.192 0 4.607-1.622 4.607-3.924 0-6.44-12.876-4.66-12.876-13.4 0-5.026 4.134-7.277 9.265-7.277 2.196 0 5.679.42 7.38 1.152-.315 1.937-.42 4.345-.577 6.439l-1.936.104-1.31-3.925c-.314-.996-1.878-1.676-3.768-1.676-2.408 0-4.606.942-4.606 3.402 0 5.916 13.19 4.607 13.19 13.384 0 5.145-4.344 7.762-9.788 7.762-4.03 0-8.009-1.464-8.009-1.464.103-.628.158-1.937.158-3.35 0-1.36-.055-2.827-.158-3.948l1.99-.082zm28.596 5.863c-2.68-6.9-4.723-12.31-8.95-22.027-.8-1.828-1.114-2.194-2.42-2.612l-.94-.313v-1.829l5.694.233 7.159-.233v1.829L87.769 16c-1.255.222-1.83.901-1.83 1.737 0 .263.061.523.158.837.486 1.506 3.55 9.845 5.826 15.584 1.871-4.145 5.473-12.906 6.138-14.593.262-.73.419-1.2.419-1.67 0-.895-.628-1.464-1.986-1.895l-1.358-.404v-1.83l5.33.234 4.963-.233v1.829l-1.097.404c-1.986.797-2.246 1-2.926 2.574L93 38.427C88 50.34 82.493 50.81 78.887 50.81c-1.724 0-3.887-.524-5.224-1.515.574-2.194.992-4.86 1.41-7.295l2.195-.073L78.05 46c.21 1 .889 1.622 2.3 1.622 2.815 0 5.889-1.554 8.599-7.074z"/></g></g></svg>