<svg xmlns="http://www.w3.org/2000/svg" width="90" height="31" viewBox="0 0 90 31"><g><g><g><path fill="#ff671d" d="M26.165 1.214c-.55-.505-.964-.535-1.683-.443-.061 0-.123.015-.184.015-.444.046-.98.122-1.622.214-6.09.49-12.105.23-18.211-.168C3.134.74 2 .709 1.145 1.429A2.636 2.636 0 0 0 .638 2c-.245.53-.153 1.158.23 1.51.321.29.765.383 1.131.566C3.945 5.086 3.577 6.387 3.838 8c.03 4.646-.031 9.268-.184 13.874-.046 1.224-.123 2.05-.765 3.126-.78 1.42-2.556.853-2.663 2.368-.168 2.449 3.29 2.571 7.36 2.571 2.694 0 5.525-.199 7.316-.566.704-.138 1.255-.321 1.576-.52.903-.567.597-2.403-.478-2.556-.761-.123-1.588-.297-2-.673-.644-.52-.873-1.439-1-3.689-.057-1.591-.18-3.366.111-4.453.169-.582.889-.826 1.653-.811.765.015 1.576.092 2.127.52.72.368 1.163 1.316 1.301 2.434.092.795.138 1.545.808 1.744 1.824.52 2.605-2.219 2.88-4.453.245-1.916.12-4.683-.352-6.244-.528-1.56-2.02-2.449-3.03-.949-.23.352-.498 2.005-.842 2.342-.826.841-2.448.935-3.963.428-.582-.183-.857-.918-.826-1.806.03-1.346.133-2.326.367-3.305.245-1.21.275-2.382 1.766-2.54 1.463-.154 3.697-.047 5.824.367 2.176.428 2.954 2.356 4.56 3.627.842.673 2.755.046 2.77-1.944C28.17 5.576 28 4.352 27.329 3c-.328-.699-.658-1.311-1.163-1.786z"/></g><g><path fill="#ff671d" d="M54.788 20c-.949-.327-1.27.163-1.346.316-.169.382-.322.78-.442 1.27-.477 1.414-1.135 2.54-2.481 3.336-.903.536-1.898.75-3.245.75-2.938.015-3.994-.872-4.147-3.06C43 21.065 43 19.381 43 17.652c0-2.464-.057-4.912-.057-7.361C43 7.935 43 5.41 44 4.921c1.07-.475 3.075-.921 2.08-2.617C45 .544 40.297.697 38.445.682c-2.112-.016-4.224.076-6.106.566-2.556.673-3.275 2.28-2.005 3.137.95.615 2.066.55 2.667 1.3.47.536.593 1.7.608 3.046.016 2.326.306 8.769.23 13.269-.03 2-.153 3.534-1.286 4.3-.245.168-.49.336-.765.474-.734.367-1.484.597-1.469 1.3.015.735.428 1.409 1.913 1.455.505.015 1.01.015 1.515.03 4.407.077 8.723.03 13.1.015 1.3-.015 2.555.154 3.856.337 1.423.184 2.464.689 3.474-.673.474-.643.934-1.5 1.316-2.311.949-2.005 1.508-4.805.077-6.504-.153-.199-.444-.337-.78-.423z"/></g><g><path fill="#ff671d" d="M73.348 25.166c-3.29 0-5.984-4.483-5.984-9.978 0-5.493 2.636-9.977 5.984-9.977 3.29 0 5.984 4.484 5.984 9.977 0 5.495-2.694 9.978-5.984 9.978zm0-25.036h-.046c-8.8 0-15.992 6.764-15.992 15.074 0 8.294 7.193 15.074 15.992 15.074h.046c8.784-.03 15.946-6.78 15.946-15.074C89.28 6.924 82.132.16 73.348.13z"/></g></g></g></svg>