<svg xmlns="http://www.w3.org/2000/svg" width="119" height="43" viewBox="0 0 119 43"><defs><linearGradient id="6rtua" x1="20.84" x2="51.76" y1="31.49" y2="20.24" gradientUnits="userSpaceOnUse"><stop offset=".15" stop-color="#ba0e0c"/><stop offset=".36" stop-color="#ce0b16"/><stop offset=".58" stop-color="#dd071d"/><stop offset=".72" stop-color="#e30520"/></linearGradient></defs><g><g><g><path fill="url(#6rtua)" d="M36.299 42.448c9.068 0 16.419-7.448 16.419-16.58 0-9.155-7.351-16.578-16.42-16.578-9.067 0-16.418 7.423-16.418 16.579 0 9.131 7.351 16.579 16.419 16.579z"/></g><g><path d="M5.06 22.352c1.35-1.99 3.18-2.79 5.466-2.607C13.11 20 15 21.14 15.168 24c.206 3.292.16 6.539.183 9.786 0 1.143-.48 1.51-1.944 1.6-.708.047-1.407 0-2.15-.16-.754-.16-.914-.8-.914-1.508 0-2.379-.023-4.718 0-7.112 0-.938-.091-1.807-1.075-2.196-1.029-.41-1.99-.091-2.812.59-.915.76-1.28 1.834-1.304 3-.023 1.784 0 3.59 0 5.397 0 1.487-.366 1.921-1.852 1.99-.64.023-1.3-.046-1.898-.137-.915-.138-1.235-.48-1.235-1.441-.023-4.07-.023-8.141 0-12.211 0-.87.412-1.395 1.258-1.487a7.431 7.431 0 0 1 2.332.023c.686.069 1.098.48 1.098 1.235.023.274.145.572.206.983z"/></g><g><path d="M98.43 23.4c1.28-2.057 2.926-3.498 5.373-3.658 2.584-.16 4.276 1.006 4.757 3.727.594-.731 1.075-1.469 1.669-2.012 1.771-1.715 3.865-2.173 6.174-1.35 1.738.618 2.447 2.15 2.516 3.842.16 3.293.137 6.61.183 9.902.023 1.006-.618 1.44-1.532 1.03-.206-.092-.366-.55-.366-.881-.023-2.893 0-5.843-.023-8.77 0-.64-.115-1.326-.343-1.944-.366-1.052-1.12-1.646-2.31-1.783-3.087-.39-4.78 2.058-5.397 4.116-.228.777-.32 1.623-.343 2.447a137.138 137.138 0 0 0 0 6.128c.023.732-.366.755-.914.755-.55 0-.874-.046-.874-.755 0-2.767.05-5.557 0-8.324-.064-1.006-.338-2.035-.636-3.018-.297-.852-1.074-1.212-1.989-1.35-3.133-.434-4.985 2.15-5.603 4.414a5.86 5.86 0 0 0-.16 1.418c-.023 2.15 0 4.299-.023 6.471 0 1.03-.503 1.441-1.486 1.098-.229-.091-.412-.572-.434-.903-.046-2.276-.023-4.562-.023-6.85 0-2.012.023-4.047 0-6.059 0-.732.251-1.029.983-1.029.709 0 .846.343.8.938-.045.8 0 1.6 0 2.4z"/></g><g><path d="M47.523 26.827v6.288c0 .526-.091 1.075-.137 1.601-.069.915-.595 1.395-1.464 1.532-1.532.275-2.922-.114-2.973-1.92 0-1.328-.045-2.63-.068-3.957v-5.58c-.023-1.623-.435-2.035-2.081-2.012-.732 0-1.35-.137-1.647-.869-.343-.823-.068-1.646.847-1.99 1.303-.548 2.56-1.188 3.681-2.149.412-.343 1.006-.526 1.532-.617 1.144-.229 2.127.457 2.15 1.578.069 2.675.023 5.374.023 8.072.023.023.068.023.137.023z"/></g><g><path d="M32.32 26.918V34c0 .83-.07 1.654-.938 2.065-.96.457-2.013.503-2.813-.137-.457-.343-.709-1.19-.732-1.83-.068-3.018-.023-6.014-.023-9.032 0-1.852-.411-2.264-2.24-2.287-1.19-.023-1.784-.572-1.574-1.67 0-.434.453-1.005.864-1.188 1.372-.572 2.63-1.235 3.774-2.196.708-.594 1.646-.617 2.515-.434.732.16 1.166.983 1.166 2.241.023 2.468 0 4.94 0 7.386z"/></g><g><path d="M45.744 12.125c-2.653-1.669-5.397-2.698-8.575-2.767v33.044c-1.075.16-1.075.16-1.075-.823.046-10.382.068-20.787.114-31.169v-.937c-1.806-.389-4.276.274-8.438 2.287.16-2.333 3.156-6.175 7.5-6.76 5.214-.627 9.4 2.598 10.474 7.125z"/></g><g><path d="M79.679 27.473c.023-3.473 2.607-6.128 5.923-6.128 3.315 0 5.968 2.79 5.9 6.288-.07 3.247-2.79 6.22-5.969 5.992-2.927.182-5.877-2.516-5.854-6.152zm-1.898-.023c.069 4.665 3.219 7.821 7.798 7.867 4.421.045 7.752-3.133 7.82-7.844.07-4.413-3.567-7.82-7.843-7.752-4.368.023-7.844 3.279-7.775 7.73z"/></g><g><path d="M69 19.72c2.281-.022 3.836.55 5.277 1.556.526.366.434.724.16 1.143-.252.366-.526.755-1.098.298-1.074-.824-2.339-1.35-3.658-1.373-2.813-.068-5.443 2.013-5.923 5.054-.457 2.95 1.166 6.175 3.956 6.975 2.172.627 4.162.183 5.968-1.144.39-.229.732-.548 1.052-.045.343.48.435 1.006-.137 1.395-1.597 1.166-3.384 1.76-5.42 1.669-1.6-.069-3.04-.48-4.344-1.372-1.578-1.075-2.447-2.63-2.833-4.437-.483-1.852-.3-3.658.454-5.373 1.19-2.607 3.934-4.391 6.546-4.345z"/></g><g><path d="M32.824 2.205c0 .869-.572 1.532-1.303 1.51-.664 0-1.281-.715-1.281-1.464 0-.938.457-1.44 1.303-1.44.824.022 1.258.502 1.281 1.394z"/></g><g><path d="M43 2.157c0 .843-.601 1.532-1.31 1.555-.69.023-1.464-.846-1.418-1.532.023-.663.728-1.35 1.303-1.35C42.467.809 43 1.289 43 2.158z"/></g><g><path d="M55.92 33.787c0-.846.527-1.44 1.281-1.394.71.022 1.327.708 1.304 1.44 0 .709-.71 1.44-1.35 1.418-.754-.023-1.257-.617-1.234-1.464z"/></g></g></g></svg>