<svg xmlns="http://www.w3.org/2000/svg" width="120" height="41" viewBox="0 0 120 41"><g><g><g><path fill="#2eb7eb" d="M61.334 13.431c.143 0 .286.003.429.002H64c.264 0 .55-.004.83.042.61.102 1.309.412 1.555 1.025.075.185.094.39.062.586l-3.128 22.246c-.026.185-.051.372-.107.552-.328 1.116-1.385 1.943-2.535 1.987h-3.134c-.543.012-1.033-.086-1.48-.338-.459-.26-.823-.714-.748-1.263 1.035-7.355 2.07-14.71 3.103-22.066.041-.262.061-.531.142-.787.311-1.035 1.27-1.844 2.346-1.967.094-.014.285-.018.428-.018zm20.175-.885c2.696-.002 5.383.693 7.654 2.182.416.272.613.45.837.874.556.847.5 2.015-.14 2.781-.46.617-.919 1.17-1.379 1.754-.416.533-.918 1.022-1.652.863-.676-.082-1.63-.83-2.34-1.142-1.758-.802-5.996-1.615-7.489.03a1.423 1.423 0 0 0-.39 1.298c.227 1.104 2.947 1.72 3.807 1.967 1.088.304 2.177.604 3.253.952 1.204.384 3.128 1.266 4.005 2.162 1.16 1.165 1.49 2.733 1.439 4.342-.114 4.244-2.691 7.453-6.526 9.1-3.191 1.373-6.874 1.357-10.203.527a16.162 16.162 0 0 1-2.9-.99c-.794-.358-3.134-1.623-3.654-2.297a1.253 1.253 0 0 1-.187-1.267c.075-.19.208-.349.356-.51.667-.914 1.359-1.829 2.053-2.742.455-.576 1.326-.766 1.947-.43.809.42 1.617.916 2.403 1.298 1.47.702 3.097 1.167 4.742 1.245 1.33.063 3.496-.016 4.15-1.435.162-.353.22-.778.053-1.108-.644-1.424-3.885-2.12-5.27-2.548C74.404 28.936 72.423 28.165 71 27c-1.7-1.322-2.186-3.253-1.948-5.386.47-4.195 3.808-7.135 7.679-8.332a16.048 16.048 0 0 1 4.778-.736zM3 2.443c.183.008.337.042.494.109C8.717 4.713 13.937 6.882 19.158 9a3.42 3.42 0 0 1 2.056 3.684l-1.942 13.962C19 28.57 20 30.454 21.895 31c.9.212 1.875.139 2.741-.198 1.885-.736 3.023-2.362 3.27-4.338.268-1.89.532-3.78.8-5.671.029-.185.046-.372.083-.555.32-1.174 1.387-2.103 2.594-2.238h3.858c.527 0 1.06.116 1.476.443.499.384.804.994.84 1.62.022.217-.031.43-.056.646l-.846 6.191c-.317 2.697 1.84 4.6 4.51 4.1 2.716-.416 3.835-2.549 4.22-5l1.322-9.6c.034-.237.056-.478.124-.708.352-1.248 1.553-2.213 2.854-2.253 1.198-.002 2.395 0 3.592 0 .723.005 1.616.248 2.095.862.211.27.31.622.255.961l-1.441 10.462c-.092.66-.186 1.276-.307 1.977-1.163 5.77-6.188 10.77-11.977 11.905-4.028.791-8.07-.08-11.019-3.084-2.518 2.052-5.414 3.244-8.663 3.343C15.284 40.077 10 35 10.375 28c.026-.507.087-1 .16-1.505C11 23 11.507 19.517 12 16c-3.194-1.282-6.378-2.595-9.561-3.907a4.283 4.283 0 0 1-.814-.367C.432 11-.24 9.521.079 8.168.382 7 .69 5.77 1 4.57c.222-.912 1-2.184 2-2.128zM64.46 2c2.621 0 4.231 2.154 3.633 4.833-.547 2.451-2.936 4.167-5.44 3.989-2.066-.178-3.49-1.822-3.37-3.925.143-2.49 2.144-4.648 4.638-4.897h.538zM101.786.81c.506.016 1.02.19 1.446.423.439.293.711.767.63 1.258-.661 4.572-1.323 9.144-1.982 13.715 2.546-2.206 5.215-3.046 8.514-3.078 2.194-.026 4.283.455 6.053 1.798 3.18 2.418 3.904 6.01 3.335 9.832-.632 4.093-1.263 8.186-1.895 12.242-.052.345-.074.662-.183 1-.374 1-1.423 1.833-2.56 1.87h-3.206c-.939.02-2.488-.512-2.238-1.723.51-3.518 1.017-7.035 1.526-10.554.171-1.218.37-2.355.309-3.593-.114-2.168-1.033-3.754-3.32-4-2.063-.29-3.948.42-5.491 1.772-1.582 1.4-2.159 3.228-2.439 5.228-.506 3.489-1.012 6.945-1.519 10.4-.193 1.41-1.416 2.548-2.862 2.507h-3.086c-1.245-.006-2.408-.565-2.176-1.966C92.34 26.347 94 14.753 95.738 3.159c.198-1.247 1.335-2.266 2.594-2.346 1.15-.006 2.303-.001 3.455-.003z"/></g></g></g></svg>