<svg xmlns="http://www.w3.org/2000/svg" width="135" height="23" viewBox="0 0 135 23"><g><g><g><path fill="#f219af" d="M14.513 4.89c.9.956 1.4 2.23 1.372 3.547.028 1.317-.471 2.563-1.386 3.563A4.668 4.668 0 0 1 11 13.398C9.732 13.426 8.471 12.9 7.57 12c-.942-1-1.454-2.246-1.427-3.563a4.84 4.84 0 0 1 1.414-3.52C8.47 4 9.732 3.45 11 3.478a4.644 4.644 0 0 1 3.513 1.413zM7.058 1.62a7.628 7.628 0 0 0-2.854 2.854A7.556 7.556 0 0 0 3.15 8.437a7.773 7.773 0 0 0 1.054 3.95 7.629 7.629 0 0 0 2.854 2.854A7.631 7.631 0 0 0 11 16.294a7.944 7.944 0 0 0 4-1.053 7.701 7.701 0 0 0 2.839-2.855 7.723 7.723 0 0 0 1.04-3.949 7.81 7.81 0 0 0-1.04-3.963A7.7 7.7 0 0 0 15 1.62a7.894 7.894 0 0 0-4-1.04 7.717 7.717 0 0 0-3.942 1.04z"/></g><g><path fill="#0136f4" d="M123.664 12a4.89 4.89 0 0 1-1.428-3.555 4.895 4.895 0 0 1 1.414-3.534c.914-.911 2.19-1.482 3.506-1.44 1.302-.028 2.563.529 3.478 1.427.9.956 1.366 2.23 1.366 3.547A5.194 5.194 0 0 1 130.62 12a4.582 4.582 0 0 1-3.464 1.42 4.693 4.693 0 0 1-3.492-1.42zm3.45 4.316a5.778 5.778 0 0 0 2.938-.762c.817-.416 1.482-1.081 1.948-1.899v2.411h3V8.431c0-1.431-.39-2.757-1.082-3.963A7.583 7.583 0 0 0 131 1.6c-1.142-.693-2.5-1.053-3.886-1.04a7.725 7.725 0 0 0-3.95 1.04 8.203 8.203 0 0 0-2.881 2.854 7.606 7.606 0 0 0-1.054 3.963c.014 4.365 3.534 7.899 7.885 7.899zM105.816 3.4a5.51 5.51 0 0 0-5.127-2.827A6.307 6.307 0 0 0 95.88 2.46C94.675 3.734 94.065 5.59 94.065 8v8.08h2.993V8c0-3 1.303-4.53 3.63-4.53 2.426 0 3.631 1.53 3.631 4.53v8.08h2.98V8c0-3 1.302-4.53 3.63-4.53 2.425 0 3.63 1.53 3.63 4.53v8.08h2.98V8c0-2.41-.596-4.28-1.802-5.541a6.258 6.258 0 0 0-4.794-1.885 5.536 5.536 0 0 0-5.127 2.827zM80.942 12a4.89 4.89 0 0 1-1.427-3.555 4.894 4.894 0 0 1 1.414-3.534c.914-.911 2.19-1.482 3.505-1.44C85.737 3.442 87 4 87.913 4.897c.9.956 1.4 2.23 1.371 3.547C89.312 9.761 88.814 11 87.9 12a4.6 4.6 0 0 1-3.465 1.42A4.642 4.642 0 0 1 80.943 12zm6.389 3.554a4.438 4.438 0 0 0 1.912-1.899v2.411h2.993V8.431a7.692 7.692 0 0 0-1.04-3.963A7.803 7.803 0 0 0 88.329 1.6 7.675 7.675 0 0 0 84.393.56a7.706 7.706 0 0 0-3.95 1.04 7.84 7.84 0 0 0-2.882 2.868 7.572 7.572 0 0 0-1.053 3.963c.014 4.351 3.492 7.885 7.885 7.885a5.778 5.778 0 0 0 2.938-.762zM72 8.099c0-2.994 1.252-4.462 3.441-4.462h.305V.74h-.305a6.154 6.154 0 0 0-4.67 1.844C69.594 3.817 69 5.66 69 8.084v7.982h3zM55.612 12a4.89 4.89 0 0 1-1.427-3.555 4.895 4.895 0 0 1 1.413-3.534c.915-.911 2.19-1.482 3.506-1.44 1.302-.028 2.563.529 3.478 1.427A5.133 5.133 0 0 1 64 8.445C64 9.761 63.483 11 62.568 12a4.582 4.582 0 0 1-3.464 1.42A4.714 4.714 0 0 1 55.612 12zm3.464 4.316A5.693 5.693 0 0 0 62 15.554a4.397 4.397 0 0 0 1.926-1.899v2.411h2.993V8.431a7.692 7.692 0 0 0-1.04-3.963A7.75 7.75 0 0 0 63 1.6 7.604 7.604 0 0 0 59.076.56a7.725 7.725 0 0 0-3.95 1.04 7.84 7.84 0 0 0-2.881 2.868 7.572 7.572 0 0 0-1.053 3.963 7.88 7.88 0 0 0 7.884 7.885zM50.457 3.72V.81H38.914v2.91h7.719s-7.525 8.674-7.968 9.395a1.875 1.875 0 0 0-.194.984 79.11 79.11 0 0 0 0 1.967h12.236v-2.91h-8.453zM25.667 12a4.89 4.89 0 0 1-1.427-3.555 4.895 4.895 0 0 1 1.413-3.534c.915-.911 2.19-1.482 3.506-1.44 1.302-.028 2.563.529 3.478 1.427.9.956 1.363 2.23 1.363 3.547A5.19 5.19 0 0 1 32.623 12a4.582 4.582 0 0 1-3.464 1.42A4.714 4.714 0 0 1 25.667 12zm3.464 4.316a5.779 5.779 0 0 0 2.938-.762A4.585 4.585 0 0 0 34 13.655v2.411h3V8.431a7.85 7.85 0 0 0-1.065-3.963A7.803 7.803 0 0 0 33.067 1.6 7.675 7.675 0 0 0 29.13.56a7.725 7.725 0 0 0-3.95 1.04A7.97 7.97 0 0 0 22.3 4.468a7.572 7.572 0 0 0-1.053 3.963 7.88 7.88 0 0 0 7.884 7.885zM8 13.42A4.72 4.72 0 0 1 4.549 12c-.929-1-1.441-2.239-1.414-3.555A4.895 4.895 0 0 1 4.55 4.911C5.449 4 6.71 3.43 8 3.471c1.343-.028 2.604.529 3.519 1.427a4.982 4.982 0 0 1 1.386 3.547c.027 1.316-.472 2.555-1.4 3.555A4.755 4.755 0 0 1 8 13.42zM3.19 22.19v-8.065A6.008 6.008 0 0 0 8 16.316c1.413 0 2.784-.316 4-1.053a7.92 7.92 0 0 0 2.845-2.869 7.602 7.602 0 0 0 1.053-3.949 7.823 7.823 0 0 0-1.053-3.963A7.92 7.92 0 0 0 12 1.614a7.935 7.935 0 0 0-4-1.04C3.69.574.17 4.094.17 8.431v13.76z"/></g><g><path fill="#f219af" d="M6.123 8.299H3.13A7.796 7.796 0 0 1 11 .58C15.296.54 18.816 4 18.858 8.3h-2.91a5.029 5.029 0 0 0-1.441-3.41c-.901-.941-2.162-1.454-3.507-1.426-1.274-.028-2.549.537-3.45 1.44C6.65 5.805 6.137 7 6.123 8.3z"/></g></g></g></svg>