<svg width="260" height="146" viewBox="0 0 260 146" fill="none" xmlns="http://www.w3.org/2000/svg">
<path d="M94.3992 57.58L59.892 37.6576L94.3992 17.7362L128.904 37.6576L94.3992 57.58Z" fill="#EFDA86"/>
<path d="M126.579 78.3766L94.3992 96.9611V59.8021L126.579 41.2276V78.3766Z" fill="#D1B66B"/>
<path d="M94.3992 96.9591L62.2261 78.3746V41.2276L94.3992 59.8021V96.9591Z" fill="#E2C979"/>
<path opacity="0.1" d="M62.2271 41.2276V50.9485L94.4002 69.3132V59.8461L62.2271 41.2276Z" fill="black"/>
<path opacity="0.1" d="M126.579 41.2276V51.6449L94.4062 69.3142L94.3992 59.8471L126.579 41.2276Z" fill="black"/>
<path d="M59.892 37.6576V47.963L94.3992 67.6156V57.579L59.892 37.6576Z" fill="#E2C979"/>
<path d="M94.3992 67.6146L128.906 48.7633V37.6576L94.3992 57.579V67.6146Z" fill="#D1B66B"/>
<path d="M53.1786 81.0713L18.6714 61.149L53.1786 41.2276L87.6858 61.149L53.1786 81.0713Z" fill="#EFDA86"/>
<path d="M85.3518 101.875L53.1786 120.449V83.3004L85.3518 64.726V101.875Z" fill="#D1B66B"/>
<path d="M53.1786 120.449L21.0055 101.875V64.726L53.1786 83.3004V120.449Z" fill="#E2C979"/>
<path opacity="0.1" d="M21.0065 64.726V74.4468L53.1796 92.8045V83.3374L21.0065 64.726Z" fill="black"/>
<path opacity="0.1" d="M85.3518 64.726V75.1373L53.1786 92.8065V83.3394L85.3518 64.726Z" fill="black"/>
<path d="M18.6714 61.149V71.4543L53.1786 91.107V81.0703L18.6714 61.149Z" fill="#E2C979"/>
<path d="M53.1796 91.1059L87.6868 72.2616V61.149L53.1796 81.0703V91.1059Z" fill="#D1B66B"/>
<path opacity="0.05" d="M53.0218 71.7681L36.3107 61.9014L54.4066 51.454L71.1176 61.3247L53.0218 71.7681Z" fill="black"/>
<path d="M55.1919 49.9013L37.0891 39.4501L55.1919 28.9958L73.2878 39.4501L55.1919 49.9013Z" fill="#EFDA86"/>
<path d="M72.0598 60.8122L55.1919 70.5481V51.0644L72.0598 41.3205V60.8122Z" fill="#D1B66B"/>
<path d="M55.1929 70.548L38.317 60.8122V41.3284L55.1929 51.0723V70.548Z" fill="#E2C979"/>
<path opacity="0.1" d="M38.317 41.3245V46.4203L55.1929 56.0522V51.0834L38.317 41.3245Z" fill="black"/>
<path opacity="0.1" d="M72.0598 41.3245V46.788L55.1919 56.0522V51.0834L72.0598 41.3245Z" fill="black"/>
<path d="M37.0891 39.454V44.8576L55.1919 55.163V49.9023L37.0891 39.454Z" fill="#E2C979"/>
<path d="M55.1919 55.1619L73.2878 45.2761V39.454L55.1919 49.9013V55.1619Z" fill="#D1B66B"/>
<path d="M27.593 113.887L0 97.9542L27.592 82.0215L55.1919 97.9542L27.593 113.887Z" fill="#EFDA86"/>
<path d="M53.3205 130.516L27.592 145.379V115.668L53.3205 100.806V130.516Z" fill="#D1B66B"/>
<path d="M27.593 145.379L1.86343 130.516V100.806L27.593 115.668V145.379Z" fill="#E2C979"/>
<path opacity="0.1" d="M1.86343 100.806V108.581L27.593 123.269V115.703L1.86343 100.806Z" fill="black"/>
<path opacity="0.1" d="M53.3205 100.806V109.135L27.592 123.264V115.703L53.3205 100.806Z" fill="black"/>
<path d="M0 97.9542V106.193L27.592 121.909V113.887L0 97.9542Z" fill="#E2C979"/>
<path d="M27.592 121.909L55.1919 106.837V97.9542L27.592 113.887V121.909Z" fill="#D1B66B"/>
<path d="M95.4174 108.319L69.8677 93.5459L88.3672 82.8668L113.917 97.6395L95.4174 108.319Z" fill="#EFDA86"/>
<path d="M112.667 119.47L95.4174 129.431V109.51L112.667 99.5558V119.47Z" fill="#D1B66B"/>
<path d="M95.4174 129.431L71.1176 115.377V95.4623L95.4174 109.51V129.431Z" fill="#E2C979"/>
<path opacity="0.1" d="M71.1176 95.4623V100.679L95.4174 114.606V109.533L71.1176 95.4623Z" fill="black"/>
<path opacity="0.1" d="M112.667 99.5558V105.139L95.4174 114.605V109.528L112.667 99.5558Z" fill="black"/>
<path d="M69.8677 93.5459V99.0693L95.4174 113.7V108.32L69.8677 93.5459Z" fill="#E2C979"/>
<path d="M95.4174 113.7L113.917 103.598V97.6394L95.4174 108.319V113.7Z" fill="#D1B66B"/>
<path d="M168.885 60.6993L139.796 43.9074L180.897 20.7527L209.986 37.5457L168.885 60.6993Z" fill="#EFDA86"/>
<path d="M208.017 71.874L168.885 93.8906V62.5708L208.017 40.5541V71.874Z" fill="#D1B66B"/>
<path d="M168.886 93.8916L141.765 78.2347V46.9158L168.886 62.5718V93.8916Z" fill="#E2C979"/>
<path opacity="0.1" d="M141.765 46.9158V55.109L168.886 70.5851V62.6077L141.765 46.9158Z" fill="black"/>
<path opacity="0.1" d="M208.017 40.5541V49.3398L168.885 70.5861V62.6087L208.017 40.5541Z" fill="black"/>
<path d="M139.796 43.9073V52.5881L168.885 69.1573V60.7003L139.796 43.9073Z" fill="#E2C979"/>
<path d="M168.885 69.1593L209.986 46.9178V37.5457L168.885 60.7003V69.1593Z" fill="#D1B66B"/>
<path d="M128.038 101.203L114.06 93.1352L133.809 82.0065L147.782 90.0738L128.038 101.203Z" fill="#EFDA86"/>
<path d="M146.833 106.568L128.039 117.142V102.1L146.833 91.5257V106.568Z" fill="#D1B66B"/>
<path d="M128.039 117.142L115.01 109.621V94.579L128.039 102.103V117.142Z" fill="#E2C979"/>
<path opacity="0.1" d="M115.01 94.579V98.5158L128.039 105.948V102.116L115.01 94.579Z" fill="black"/>
<path opacity="0.1" d="M146.833 91.5257V95.7391L128.039 105.947V102.115L146.833 91.5257Z" fill="black"/>
<path d="M114.06 93.1353V97.3038L128.038 105.266V101.203L114.06 93.1353Z" fill="#E2C979"/>
<path d="M128.039 105.266L147.782 94.5752V90.0739L128.039 101.203V105.266Z" fill="#D1B66B"/>
<path d="M230.911 86.4888L190.731 63.2592L219.82 46.4662L260 69.6958L230.911 86.4888Z" fill="#EFDA86"/>
<path d="M258.032 104.024L230.91 119.68V88.3683L258.032 72.7043V104.024Z" fill="#D1B66B"/>
<path d="M230.911 119.681L192.699 97.5896V66.2758L230.911 88.3673V119.681Z" fill="#E2C979"/>
<path opacity="0.1" d="M192.699 66.2758V74.4689L230.911 96.3736V88.3973L192.699 66.2758Z" fill="black"/>
<path opacity="0.1" d="M258.032 72.7043V81.483L230.91 96.3756V88.3982L258.032 72.7043Z" fill="black"/>
<path d="M190.731 63.2602V71.9529L230.911 94.9507V86.4938L190.731 63.2602Z" fill="#E2C979"/>
<path d="M230.91 94.9458L259.999 79.059V69.6968L230.91 86.4888V94.9458Z" fill="#D1B66B"/>
<path d="M178.929 27.2553L155.325 13.6206L178.929 0L202.536 13.6206L178.929 27.2553Z" fill="#EFDA86"/>
<path opacity="0.05" d="M176.339 55.5736L154.007 43.0681L177.619 29.4404L199.943 41.946L176.339 55.5736Z" fill="black"/>
<path d="M200.938 41.4864L178.929 54.1898V28.775L200.938 16.0677V41.4864Z" fill="#D1B66B"/>
<path d="M178.929 54.1898L156.919 41.4864V16.0677L178.929 28.775V54.1898Z" fill="#E2C979"/>
<path opacity="0.1" d="M156.919 16.0677V22.7211L178.929 35.2786V28.797L156.919 16.0677Z" fill="black"/>
<path opacity="0.1" d="M200.938 16.0677V23.1916L178.929 35.2817V28.797L200.938 16.0677Z" fill="black"/>
<path d="M155.325 13.6206V20.6707L178.929 34.1185V27.2562L155.325 13.6206Z" fill="#E2C979"/>
<path d="M178.929 34.1185L202.532 21.2243V13.6206L178.929 27.2562V34.1185Z" fill="#D1B66B"/>
<path d="M174.896 108.468L142.693 89.879L174.896 71.2895L207.091 89.879L174.896 108.468Z" fill="#EFDA86"/>
<path d="M204.912 127.874L174.895 145.206V110.542L204.912 93.2092V127.874Z" fill="#D1B66B"/>
<path d="M174.895 145.206L144.87 127.874V93.2092L174.895 110.542V145.206Z" fill="#E2C979"/>
<path opacity="0.1" d="M144.87 93.2092V102.28L174.895 119.41V110.58L144.87 93.2092Z" fill="black"/>
<path opacity="0.1" d="M204.912 93.2092V102.93L174.895 119.409V110.579L204.912 93.2092Z" fill="black"/>
<path d="M142.693 89.879V99.4879L174.896 117.831V108.473L142.693 89.879Z" fill="#E2C979"/>
<path d="M174.895 117.831L207.09 100.245V89.879L174.895 108.473V117.831Z" fill="#D1B66B"/>
</svg>
