<svg width="570" height="468" viewBox="0 0 570 468" fill="none" xmlns="http://www.w3.org/2000/svg">
<path d="M494.247 113.624H85.3686V382.418H494.247V113.624Z" fill="#E6E6E6"/>
<path d="M105.139 138.155C108.832 138.155 111.827 135.159 111.827 131.464C111.827 127.77 108.832 124.774 105.139 124.774C101.445 124.774 98.451 127.77 98.451 131.464C98.451 135.159 101.445 138.155 105.139 138.155Z" fill="#F9A21A"/>
<path d="M125.006 138.155C128.699 138.155 131.694 135.159 131.694 131.464C131.694 127.77 128.699 124.774 125.006 124.774C121.312 124.774 118.318 127.77 118.318 131.464C118.318 135.159 121.312 138.155 125.006 138.155Z" fill="#F9A21A"/>
<path d="M143.739 138.155C147.432 138.155 150.427 135.159 150.427 131.464C150.427 127.77 147.432 124.774 143.739 124.774C140.045 124.774 137.051 127.77 137.051 131.464C137.051 135.159 140.045 138.155 143.739 138.155Z" fill="#F9A21A"/>
<path opacity="0.08" d="M427.977 113.624L331.673 114.019L316.262 135.714L171.074 269.11L183.003 292.292L142.232 308.373H102.498L97.2379 382.422H143.698L150.269 339.188C189.162 334.003 214.797 298.34 214.797 298.34L384.217 225.86L362.707 176.288L391.314 162.594L392.895 171.574C392.895 171.574 408.362 167.309 407.713 152.89C407.064 138.472 405.724 120.569 427.977 113.624Z" fill="black"/>
<path d="M348.51 58.9843C346.139 77.9409 336.367 117.106 296.222 134.556L302.088 144.337C302.088 144.337 357.955 126.73 371.428 81.7361C377.47 61.4882 373.618 52.7089 367.517 49.1447C365.663 48.1216 363.586 47.5715 361.468 47.5434C359.351 47.5151 357.26 48.0098 355.38 48.9832C353.499 49.9567 351.889 51.3788 350.69 53.1237C349.492 54.8685 348.743 56.8819 348.51 58.9853V58.9843Z" fill="#F3C7B4"/>
<path d="M353.633 29.0134L363.234 40.7319L371.682 31.6545L356.528 18.1953L353.633 29.0134Z" fill="#F4A28C"/>
<path d="M346.867 7.49177C345.393 7.26387 343.886 7.40812 342.481 7.91138C341.077 8.41462 339.822 9.2609 338.829 10.3731C337.835 11.4854 337.137 12.8282 336.795 14.2795C336.454 15.7306 336.482 17.2441 336.875 18.682C338.653 25.5291 342.487 34.8603 349.8 31.6525C360.963 26.7613 355.099 12.0897 355.099 12.0897C352.868 9.78103 350.004 8.18162 346.867 7.49177V7.49177Z" fill="#F4A28C"/>
<path d="M361.708 99.2256L342.662 109.007C341.03 109.857 339.587 111.027 338.417 112.447C337.247 113.866 336.376 115.506 335.854 117.27C335.332 119.033 335.171 120.883 335.38 122.711C335.589 124.537 336.164 126.304 337.07 127.904L354.179 157.542L362.509 151.673L352.729 124.637C352.564 124.19 352.495 123.713 352.527 123.237C352.559 122.761 352.691 122.297 352.915 121.877C353.139 121.455 353.449 121.086 353.826 120.792C354.202 120.5 354.637 120.29 355.1 120.176L374.087 115.536L370.704 124.535C369.638 127.347 369.258 130.373 369.598 133.362C369.938 136.351 370.988 139.214 372.659 141.715L390.258 167.969L396.926 163.88L388.458 140.621C387.528 138.068 387.314 135.308 387.842 132.642C388.37 129.977 389.618 127.506 391.451 125.499L400.622 115.444L361.708 99.2256Z" fill="#2F2E41"/>
<path d="M546.222 338.01H431.83V410.392H546.222V338.01Z" fill="#F2F2F2"/>
<path opacity="0.08" d="M432.123 338.01H413.528V382.417H432.123V338.01Z" fill="black"/>
<path d="M332.612 9.97884C332.612 9.97884 329.522 19.9172 340.277 17.4716C351.032 15.026 350.211 11.6059 350.211 11.6059C350.211 11.6059 351.032 23.3432 356.41 20.7416C361.788 18.14 358.698 11.7422 356.41 7.36046C354.122 2.97874 352.773 1.66758 346.63 1.02187C340.488 0.376162 333.375 3.95421 332.612 9.97884Z" fill="#2F2E41"/>
<path d="M350.387 18.4501C350.387 18.4501 349.938 15.105 353.164 15.7507C356.39 16.3964 355.119 21.0526 353.164 21.3844C351.209 21.7161 350.387 18.4501 350.387 18.4501Z" fill="#F4A28C"/>
<path d="M66.9103 272.786L71.7014 287.165L60.341 294.383L56.2334 269.461L66.9103 272.786Z" fill="#F3C7B4"/>
<path d="M52.3422 255.572C52.9366 254.205 53.8633 253.009 55.0381 252.09C56.2128 251.172 57.5984 250.562 59.0689 250.315C60.5394 250.069 62.0484 250.193 63.4587 250.678C64.869 251.161 66.1359 251.99 67.1444 253.088C71.9741 258.252 77.8015 266.488 71.2115 270.948C61.1016 277.795 51.8335 265.08 51.8335 265.08C51.0555 261.93 51.2325 258.621 52.3422 255.572V255.572Z" fill="#F3C7B4"/>
<path d="M59.7334 264.395C59.7334 264.395 57.1324 262.223 55.9598 265.295C54.7872 268.366 59.362 269.873 60.7312 268.307C62.1004 266.741 59.7334 264.395 59.7334 264.395Z" fill="#F4A28C"/>
<path d="M361.2 38.2477L371.681 31.6553C371.681 31.6553 405.725 20.0158 416.48 30.7164C427.235 41.417 427.997 81.7944 400.621 115.438L361.708 99.2206C361.708 99.2206 362.49 79.8533 356.018 74.9621C349.545 70.071 341.587 55.4093 361.2 38.2477Z" fill="#F9A21A"/>
<path d="M356.135 156.074C356.135 156.074 354.004 165.973 357.815 165.621C361.626 165.268 362.51 151.575 362.51 151.575L356.135 156.074Z" fill="#2F2E41"/>
<path d="M390.266 167.94C390.266 167.94 388.038 177.38 392.025 177.062C396.012 176.744 396.911 163.64 396.911 163.64L390.266 167.94Z" fill="#2F2E41"/>
<path d="M444.462 108.674C444.462 108.674 437.891 111.511 440.313 114.758C442.734 118.005 451.048 113.624 451.048 113.624L451.557 108.674H444.462Z" fill="#F3C7B4"/>
<path d="M297.023 135.71C297.023 135.71 286.23 136.591 288.498 139.075C289.612 140.419 291.016 141.497 292.605 142.224C292.605 142.224 284.783 150.969 290.473 152.71C296.163 154.45 301.717 143.554 301.717 143.554L297.023 135.71Z" fill="#F3C7B4"/>
<path d="M319.17 130.716L128.481 218.676L163.381 294.251L354.07 206.289L319.17 130.716Z" fill="#F9A21A"/>
<path opacity="0.58" d="M303.525 161.805L211.974 203.881L217.685 216.291L309.235 174.216L303.525 161.805Z" fill="white"/>
<path opacity="0.58" d="M315.356 187.589L223.806 229.664L229.515 242.075L321.067 199.999L315.356 187.589Z" fill="white"/>
<path d="M184.841 262.086C196.85 262.086 206.585 252.347 206.585 240.332C206.585 228.319 196.85 218.579 184.841 218.579C172.832 218.579 163.097 228.319 163.097 240.332C163.097 252.347 172.832 262.086 184.841 262.086Z" fill="white"/>
<path d="M470.724 360.175L455.471 375.004L470.724 389.852" stroke="#A5A5A5" stroke-width="1.97574" stroke-linecap="round" stroke-linejoin="round"/>
<path d="M503.711 360.175L518.964 375.004L503.711 389.852" stroke="#A5A5A5" stroke-width="1.97574" stroke-linecap="round" stroke-linejoin="round"/>
<path opacity="0.58" d="M281.908 89.9131C281.908 89.9131 263.119 84.8659 259.068 67.416C259.068 67.416 288.107 61.4102 289.065 91.4197L281.908 89.9131Z" fill="#DE141B"/>
<path opacity="0.73" d="M284.196 88.0353C284.196 88.0353 270.993 67.3618 282.452 47.9314C282.452 47.9314 304.607 61.8793 294.908 88.0353H284.196Z" fill="#DE141B"/>
<path d="M287.579 88.0352C287.579 88.0352 294.404 66.1246 315.327 61.8792C315.327 61.8792 319.238 76.0817 301.874 88.0352H287.579Z" fill="#DE141B" fill-opacity="0.5"/>
<path d="M493.152 360.175L478.525 389.852" stroke="#A5A5A5" stroke-width="1.97574" stroke-linecap="round" stroke-linejoin="round"/>
<path opacity="0.63" d="M169.119 160.81H111.806V171.569H169.119V160.81Z" fill="#CECECE"/>
<path d="M57.7982 291.549C57.7982 291.549 24.2235 311.894 19.8236 359.624C19.4551 363.574 20.5178 367.523 22.8183 370.754C25.1188 373.986 28.504 376.284 32.3576 377.231L71.7005 386.915L57.7982 291.549Z" fill="#F3C7B4"/>
<path d="M273.969 87.6047L277.88 113.624H301.834L305.256 87.6047H273.969Z" fill="#24285B"/>
<path d="M61.1609 260.658C61.1609 260.658 66.5191 276.035 57.1521 275.073C47.7852 274.111 52.928 267.502 48.2742 260.658C43.6203 253.814 46.0841 249.194 53.1631 243.189C56.429 240.43 58.6191 239.158 59.9093 237.691C60.4578 237.042 61.1627 236.541 61.9574 236.238C62.7523 235.935 63.6111 235.839 64.4535 235.957C65.2957 236.077 66.0939 236.409 66.7732 236.92C67.4524 237.433 67.9904 238.108 68.3368 238.885C70.762 244.792 70.7808 252.696 61.1609 260.658Z" fill="#2F2E41"/>
<path opacity="0.08" d="M494.247 184.676H408.326V319.836H494.247V184.676Z" fill="black"/>
<path d="M64.8236 345.36L0 362.058L11.9838 408.531L76.8075 391.833L64.8236 345.36Z" fill="#2F2E41"/>
<path opacity="0.08" d="M38.2819 351.411L45.7126 382.417L43.7764 399.498L61.1629 394.999L66.3452 381.149L49.6503 348.459L38.2819 351.411Z" fill="black"/>
<path d="M50.0345 301.543C51.6283 298.004 53.9682 294.849 56.8943 292.297C59.8204 289.745 63.2636 287.854 66.9883 286.754C81.3411 282.431 108.599 273.393 116.656 286.754C127.685 305.143 110.79 377.349 110.79 377.349L62.5498 381.086C62.5498 381.086 35.9367 333.276 50.0345 301.543Z" fill="#F9A21A"/>
<path d="M110.71 377.41L104.358 460.376H94.3246L85.3686 395.916L63.1939 381.146L110.71 377.41Z" fill="#2F2E41"/>
<path d="M63.1939 381.146L49.3499 460.378H60.1049L83.3356 394.568L63.1939 381.146Z" fill="#2F2E41"/>
<path d="M87.8521 297.808C87.2009 295.773 87.0354 293.614 87.3687 291.503C87.702 289.392 88.5248 287.389 89.7715 285.653C91.0181 283.918 92.6539 282.498 94.5481 281.507C96.4421 280.516 98.5419 279.982 100.68 279.948C106.819 279.75 113.878 280.809 119.295 285.19C131.36 294.972 170.918 301.623 206.623 268.933L213.486 279.478C213.486 279.478 172.931 332.299 109.419 317.116C104.59 316.019 100.111 313.735 96.3884 310.469C92.6665 307.203 89.8198 303.059 88.107 298.414C88.0092 298.219 87.9311 298.004 87.8521 297.808Z" fill="#F3C7B4"/>
<path opacity="0.08" d="M71.1532 285.483C71.1532 285.483 48.5873 358.199 113.742 363.012L110.711 377.41L62.4708 381.146C51.3772 361.592 45.7508 339.415 46.1819 316.94C46.1819 316.94 46.5928 298.395 59.6544 290.198C63.1084 287.828 67.028 286.221 71.1522 285.483H71.1532Z" fill="black"/>
<path d="M51.3079 460.376L44.6398 465.286C44.3863 465.467 44.197 465.725 44.0993 466.02C44.0016 466.316 44.0006 466.635 44.0965 466.931C44.1923 467.227 44.38 467.486 44.6323 467.669C44.8847 467.851 45.1886 467.949 45.5002 467.947H56.6829C57.0705 467.942 57.4409 467.786 57.7149 467.512C57.989 467.237 58.145 466.867 58.1499 466.48V460.376H51.3079Z" fill="#2F2E41"/>
<path d="M104.082 460.376L110.359 465.286C110.604 465.477 110.783 465.739 110.871 466.037C110.96 466.334 110.953 466.652 110.852 466.945C110.751 467.238 110.56 467.493 110.306 467.673C110.053 467.852 109.75 467.948 109.44 467.947H101.482C100.354 467.943 99.2728 467.491 98.4763 466.692C97.6801 465.892 97.2333 464.81 97.2339 463.683V460.376H104.082Z" fill="#2F2E41"/>
<path d="M570 158.364H427.978V304.264H570V158.364Z" fill="#F2F2F2"/>
<path d="M541.138 194.36H453.633V199.603H541.138V194.36Z" fill="#A5A5A5"/>
<path d="M541.138 227.479H453.633V232.722H541.138V227.479Z" fill="#A5A5A5"/>
<path d="M541.138 260.6H453.633V265.843H541.138V260.6Z" fill="#A5A5A5"/>
<path d="M540.395 184.676H532.789C530.65 184.676 528.917 186.409 528.917 188.546V205.416C528.917 207.553 530.65 209.286 532.789 209.286H540.395C542.533 209.286 544.267 207.553 544.267 205.416V188.546C544.267 186.409 542.533 184.676 540.395 184.676Z" fill="#F9A21A"/>
<path d="M505.725 217.796H498.12C495.981 217.796 494.247 219.528 494.247 221.666V238.535C494.247 240.673 495.981 242.406 498.12 242.406H505.725C507.864 242.406 509.598 240.673 509.598 238.535V221.666C509.598 219.528 507.864 217.796 505.725 217.796Z" fill="#F9A21A"/>
<path d="M482.261 250.935H474.655C472.516 250.935 470.782 252.668 470.782 254.805V271.675C470.782 273.812 472.516 275.545 474.655 275.545H482.261C484.399 275.545 486.133 273.812 486.133 271.675V254.805C486.133 252.668 484.399 250.935 482.261 250.935Z" fill="#F9A21A"/>
<path d="M386.855 312.168H226.57V348.711H386.855V312.168Z" fill="white"/>
<path d="M386.855 312.168H332.201V348.711H386.855V312.168Z" fill="#F9A21A"/>
<path d="M211.688 276.759C211.688 276.759 220.058 279.498 221.837 267.174L207.62 270.519L211.688 276.759Z" fill="#F3C7B4"/>
<path opacity="0.08" d="M377.743 105.896C377.743 105.896 394.755 102.649 400.621 79.173C406.487 55.6975 393.992 37.054 406.054 34.1779C418.116 31.3019 423.125 61.9216 423.125 61.9216C423.125 61.9216 423.594 85.8671 400.618 115.485L377.743 105.896Z" fill="black"/>
<path d="M413.879 28.6233C423.891 32.1835 439.534 39.2656 450.094 51.2576C453.09 54.6699 455.308 58.6924 456.595 63.0465C457.881 67.4005 458.205 71.9821 457.544 76.4737L452.812 108.674H441.568L442.077 79.33C442.105 76.2297 441.132 73.2031 439.304 70.698C437.476 68.193 434.89 66.3425 431.929 65.4207C419.786 61.7034 401.151 53.4484 401.131 37.7974C401.109 36.2562 401.46 34.7325 402.152 33.3557C402.846 31.9788 403.861 30.7895 405.113 29.8888C406.365 28.9882 407.815 28.4027 409.341 28.1822C410.867 27.9618 412.425 28.1127 413.88 28.6223L413.879 28.6233Z" fill="#F3C7B4"/>
<path opacity="0.08" d="M386.171 285.483H313.175V294.365H386.171V285.483Z" fill="black"/>
</svg>
