<svg width="140" height="163" viewBox="0 0 140 163" fill="none" xmlns="http://www.w3.org/2000/svg">
<path opacity="0.4" d="M54.621 91.0496L43.332 84.5686L55.443 77.5796L66.732 84.0606L54.621 91.0496Z" fill="#D6D8E5"/>
<path d="M55.888 76.4965L43.78 69.5035L55.888 62.5115L67.999 69.5045L55.888 76.4965Z" fill="#EFDA86"/>
<path d="M67.179 83.7965L55.886 90.3165V77.2765L67.179 70.7595V83.7965Z" fill="#D1B66B"/>
<path d="M55.886 90.3165L44.597 83.7965V70.7595L55.886 77.2765V90.3165Z" fill="#E2C979"/>
<path opacity="0.1" d="M44.597 70.7595V74.1695L55.886 80.6145V77.2925L44.597 70.7595Z" fill="black"/>
<path opacity="0.1" d="M67.179 70.7595V74.4095L55.886 80.6095V77.2875L67.179 70.7595Z" fill="black"/>
<path d="M43.778 69.5045V73.1195L55.886 80.0195V76.4985L43.778 69.5045Z" fill="#E2C979"/>
<path d="M55.886 80.0175L67.997 73.4035V69.5036L55.886 76.4965V80.0175Z" fill="#D1B66B"/>
<path opacity="0.4" d="M100.081 120.621L63.986 99.8346C63.7792 99.7148 63.6084 99.5416 63.4916 99.3331C63.3747 99.1247 63.316 98.8887 63.3216 98.6498C63.3272 98.4109 63.397 98.1779 63.5235 97.9752C63.6501 97.7724 63.8288 97.6075 64.041 97.4976L68.582 95.1565C68.7802 95.0551 69.0006 95.0046 69.2232 95.0096C69.4458 95.0147 69.6636 95.0752 69.857 95.1855L107.169 116.671C107.377 116.79 107.548 116.963 107.666 117.172C107.783 117.38 107.842 117.617 107.837 117.856C107.831 118.095 107.761 118.329 107.634 118.531C107.507 118.734 107.327 118.899 107.114 119.008L103.814 120.708C103.234 121.008 102.589 121.157 101.936 121.141C101.284 121.126 100.646 120.947 100.081 120.621V120.621Z" fill="#D6D8E5"/>
<path d="M102.298 116.708L71.537 98.9485C68.929 97.4485 66.82 93.4065 66.82 89.9345V4.13454C66.83 0.652535 68.932 -0.938466 71.537 0.568534L102.298 18.3255C104.906 19.8315 107.015 23.8675 107.015 27.3395V113.139C107.016 116.616 104.903 118.211 102.298 116.708Z" fill="#B1B4C4"/>
<path d="M102.826 118.255L105.261 117.023L102.924 113.016L102.826 118.255Z" fill="#B1B4C4"/>
<path d="M66.344 1.42249L68.587 0.245483L68.134 3.55449L66.344 1.42249Z" fill="#B1B4C4"/>
<path d="M100.336 117.686L69.578 99.9265C66.97 98.4265 64.861 94.3845 64.861 90.9125V5.1155C64.874 1.6305 66.973 0.0425057 69.578 1.5455L100.336 19.3055C102.944 20.8115 105.056 24.8475 105.056 28.3195V114.119C105.057 117.594 102.944 119.192 100.336 117.686Z" fill="#616E84"/>
<path d="M104.727 28.5396V114.339C104.727 117.817 102.618 119.412 100.01 117.909L87.948 110.946L84.196 108.778L69.249 100.149C66.641 98.6436 64.535 94.6076 64.535 91.1356V5.33458C64.548 1.85658 66.644 0.261572 69.249 1.76458L100.01 19.5246C102.618 21.0316 104.727 25.0646 104.727 28.5396Z" fill="#20232D"/>
<path d="M102.506 27.6685V111.234C102.506 113.34 101.029 114.194 99.206 113.134L97.576 112.189L91.988 108.965L89.588 107.576L88.74 107.084L88.456 106.918L86.386 105.728L80.371 102.259L77.893 100.828L76.893 100.248L70.893 96.7865L70.075 96.3135C69.1134 95.687 68.3133 94.8423 67.7399 93.8482C67.1664 92.8541 66.8358 91.7385 66.775 90.5925V7.02348C66.775 4.91748 68.249 4.06348 70.075 5.11648L82.06 12.0585V12.0915C82.1081 12.9834 82.3657 13.8514 82.8121 14.6251C83.2584 15.3988 83.8809 16.0564 84.629 16.5445C86.05 17.3595 87.201 16.6975 87.201 15.0615V15.0255L99.214 21.9595C100.174 22.5842 100.973 23.427 101.545 24.4192C102.117 25.4114 102.446 26.5247 102.506 27.6685V27.6685Z" fill="white"/>
<path d="M85.6551 15.7368C86.0373 15.5171 86.0383 14.8019 85.6574 14.1392C85.2765 13.4765 84.658 13.1173 84.2759 13.3369C83.8938 13.5565 83.8928 14.2717 84.2736 14.9345C84.6545 15.5972 85.273 15.9564 85.6551 15.7368Z" fill="#2B303F"/>
<path opacity="0.1" d="M84.63 14.9485C84.5111 14.8712 84.4122 14.7668 84.3412 14.6439C84.2703 14.5211 84.2295 14.3832 84.222 14.2415C84.222 13.9805 84.405 13.8765 84.63 14.0065C84.7495 14.0835 84.849 14.1878 84.9204 14.3106C84.9919 14.4335 85.0332 14.5716 85.041 14.7135C85.04 14.9745 84.858 15.0785 84.63 14.9485Z" fill="white"/>
<path d="M105.975 39.8286C105.724 39.9756 105.522 39.8286 105.522 39.5026V35.8286C105.524 35.6587 105.566 35.4916 105.645 35.341C105.724 35.1904 105.837 35.0604 105.975 34.9616V34.9616C106.226 34.8146 106.428 34.9616 106.428 35.3036V38.9616C106.426 39.1315 106.384 39.2986 106.305 39.4492C106.226 39.5998 106.113 39.7298 105.975 39.8286V39.8286Z" fill="#757B89"/>
<path d="M105.975 45.8236C105.724 45.9666 105.522 45.8236 105.522 45.4816V41.8206C105.525 41.6508 105.567 41.484 105.646 41.3335C105.725 41.183 105.837 41.0529 105.975 40.9536V40.9536C106.226 40.8106 106.428 40.9536 106.428 41.2996V44.9576C106.425 45.1273 106.383 45.294 106.304 45.4444C106.226 45.5948 106.113 45.7247 105.975 45.8236Z" fill="#757B89"/>
<path d="M95.792 56.2426L72.646 42.8736C72.1049 42.4848 71.6622 41.9748 71.3531 41.3845C71.0441 40.7942 70.8773 40.1398 70.866 39.4736V13.3896C70.866 12.0896 71.666 11.4756 72.646 12.0436L95.792 25.4096C96.3331 25.7984 96.7759 26.3083 97.085 26.8986C97.394 27.489 97.5608 28.1434 97.572 28.8096V54.8896C97.572 56.2036 96.776 56.8066 95.792 56.2426Z" fill="#E9EAF2"/>
<path d="M95.792 91.1376L72.646 77.7716C72.1049 77.3828 71.6621 76.8729 71.353 76.2825C71.044 75.6922 70.8772 75.0378 70.866 74.3716V48.2916C70.866 46.9916 71.666 46.3776 72.646 46.9456L95.792 60.3116C96.3331 60.7004 96.7758 61.2104 97.0849 61.8007C97.3939 62.391 97.5607 63.0453 97.572 63.7116V89.7916C97.572 91.1016 96.776 91.7056 95.792 91.1376Z" fill="#E9EAF2"/>
<path d="M97.575 98.6025V112.194L89.591 107.581L88.743 107.089L88.459 106.927L86.389 105.737L80.374 102.268L77.88 100.83L76.88 100.25L70.88 96.7875V83.1895C70.88 81.8895 71.68 81.2795 72.66 81.8465L95.806 95.2125C96.3451 95.6001 96.786 96.1087 97.0932 96.6974C97.4004 97.2861 97.5654 97.9386 97.575 98.6025V98.6025Z" fill="#E9EAF2"/>
<path d="M91.185 34.7106L88.02 29.2236C87.8998 29.0052 87.726 28.8211 87.515 28.6886V28.6886C87.487 28.672 87.4575 28.6579 87.427 28.6466C87.3982 28.6246 87.3678 28.6049 87.336 28.5876L86.456 28.0786C86.215 27.9386 85.99 27.9486 85.856 28.1076C85.576 28.4336 84.943 28.4076 84.246 27.9996C83.5437 27.5933 82.982 26.9825 82.636 26.2486C82.5172 25.9511 82.3072 25.699 82.036 25.5286L81.172 25.0236C81.1441 25.0057 81.1146 24.9903 81.084 24.9776C81.0059 24.9046 80.9085 24.8556 80.8034 24.8364C80.6982 24.8173 80.5898 24.8288 80.491 24.8696L77.326 26.6986C77.046 26.8616 77.046 27.3796 77.326 27.8626L79.057 30.8626C79.1722 31.0784 79.3392 31.2622 79.543 31.3976C79.6155 31.4492 79.7003 31.4809 79.7889 31.4895C79.8776 31.4981 79.9669 31.4833 80.048 31.4466L80.448 31.2156V38.5506C80.4656 38.7968 80.5404 39.0355 80.6667 39.2477C80.7929 39.4599 80.967 39.6396 81.175 39.7726L87.336 43.3586C87.73 43.5866 88.047 43.4006 88.047 42.9476V35.6136L88.447 36.3046C88.5654 36.5215 88.7375 36.7044 88.947 36.8356V36.8356C89.0195 36.8873 89.1043 36.919 89.1929 36.9276C89.2816 36.9362 89.3709 36.9214 89.452 36.8846L91.183 35.8846C91.462 35.7116 91.462 35.2096 91.185 34.7106Z" fill="#D9DAE2"/>
<path d="M89.845 68.2205L78.645 61.7555C78.3491 62.7159 78.1921 63.7137 78.179 64.7185V71.7185L83.31 74.6815L84.246 69.2965L85.178 75.7615L90.299 78.7245V71.7255C90.2751 70.5442 90.1229 69.3689 89.845 68.2205Z" fill="#D9DAE2"/>
<path d="M89.845 66.0656L78.645 59.6006V61.2176L89.845 67.6826V66.0656Z" fill="#D9DAE2"/>
<path d="M91.987 108.969L89.587 107.58L88.739 107.088L88.455 106.922L86.385 105.732L80.37 102.263L77.892 100.832V97.3896C77.892 97.0476 78.13 96.9066 78.43 97.0636C78.6611 97.2196 78.8324 97.4495 78.916 97.7156L79.016 98.0416C79.3563 99.1064 80.0544 100.02 80.992 100.629C82.192 101.32 83.166 100.756 83.166 99.3716V98.9556C83.166 98.5316 83.466 98.3556 83.818 98.5676C83.9919 98.6744 84.1382 98.8207 84.245 98.9946L85.2 100.458L84.124 101.058L84.724 102.082L85.852 101.43L86.341 102.183L85.314 102.776L85.904 103.803L86.99 103.177L87.479 103.93L86.501 104.497L87.091 105.524L88.131 104.924C88.737 105.816 89.5244 106.571 90.442 107.138L90.631 107.238C91.2609 107.65 91.7375 108.259 91.987 108.969V108.969Z" fill="#D9DAE2"/>
<path opacity="0.1" d="M99.563 32.2296L70.663 15.6496V5.40955L99.563 21.9866V32.2296Z" fill="black"/>
<path d="M64.711 14.7766L61.151 12.7196L70.765 5.52759L74.325 7.57659L64.711 14.7766Z" fill="#E26161"/>
<path d="M68.274 16.8306L64.711 14.7756L74.325 7.58057L77.885 9.63757L68.274 16.8306Z" fill="#F4F5F9"/>
<path d="M71.834 18.8866L68.274 16.8296L77.884 9.63757L81.444 11.6916L71.834 18.8866Z" fill="#E26161"/>
<path d="M75.394 20.9405L71.834 18.8865L81.444 11.6915L85.004 13.7485L75.394 20.9405Z" fill="#F4F5F9"/>
<path d="M78.954 22.9975L75.394 20.9405L85.004 13.7485L88.564 15.8025L78.954 22.9975Z" fill="#E26161"/>
<path d="M82.514 25.0515L78.954 22.9975L88.564 15.8025L92.124 17.8595L82.514 25.0515Z" fill="#F4F5F9"/>
<path d="M86.073 27.1085L82.513 25.0515L92.123 17.8595L95.683 19.9135L86.073 27.1085Z" fill="#E26161"/>
<path d="M89.633 29.1626L86.073 27.1086L95.683 19.9136L99.246 21.9706L89.633 29.1626Z" fill="#F4F5F9"/>
<path d="M62.957 15.7765C63.935 16.3435 64.737 15.8845 64.737 14.7495L61.177 12.6925C61.2108 13.3102 61.3896 13.9112 61.6988 14.447C62.0081 14.9828 62.4391 15.4382 62.957 15.7765V15.7765Z" fill="#E26161"/>
<path d="M66.52 17.8305C67.498 18.4005 68.3 17.9385 68.3 16.8035L64.737 14.7495C64.7709 15.3671 64.9501 15.968 65.2599 16.5033C65.5697 17.0387 66.0014 17.4934 66.52 17.8305Z" fill="#F4F5F9"/>
<path d="M70.09 19.8876C71.068 20.4546 71.87 19.9956 71.87 18.8606L68.31 16.8036C68.3431 17.4214 68.5216 18.0228 68.8309 18.5586C69.1402 19.0945 69.5716 19.5499 70.09 19.8876Z" fill="#E26161"/>
<path d="M73.64 21.9445C74.618 22.5115 75.42 22.0445 75.42 20.9145L71.86 18.8605C71.8936 19.4782 72.0723 20.0794 72.3815 20.6152C72.6908 21.151 73.1219 21.6064 73.64 21.9445V21.9445Z" fill="#F4F5F9"/>
<path d="M77.2 23.9986C78.178 24.5656 78.98 24.1066 78.98 22.9716L75.42 20.9146C75.4531 21.5324 75.6316 22.1337 75.9409 22.6696C76.2502 23.2055 76.6816 23.6608 77.2 23.9986V23.9986Z" fill="#E26161"/>
<path d="M80.76 26.0556C81.738 26.6226 82.54 26.1636 82.54 25.0256L78.98 22.9716C79.0136 23.5893 79.1923 24.1904 79.5015 24.7262C79.8108 25.2621 80.2419 25.7175 80.76 26.0556V26.0556Z" fill="#F4F5F9"/>
<path d="M84.32 28.1085C85.298 28.6755 86.1 28.2165 86.1 27.0815L82.54 25.0245C82.5715 25.6428 82.7493 26.2447 83.0588 26.7808C83.3682 27.3169 83.8005 27.772 84.32 28.1085Z" fill="#E26161"/>
<path d="M87.879 30.1656C88.857 30.7326 89.659 30.2736 89.659 29.1356L86.099 27.0816C86.1326 27.6993 86.3113 28.3004 86.6205 28.8362C86.9298 29.372 87.3609 29.8275 87.879 30.1656V30.1656Z" fill="#F4F5F9"/>
<g opacity="0.15">
<path opacity="0.15" d="M62.957 15.7765C63.935 16.3435 64.737 15.8845 64.737 14.7495L61.177 12.6925C61.2108 13.3102 61.3896 13.9112 61.6988 14.447C62.0081 14.9828 62.4391 15.4382 62.957 15.7765V15.7765Z" fill="black"/>
<path opacity="0.15" d="M66.52 17.8305C67.498 18.4005 68.3 17.9385 68.3 16.8035L64.737 14.7495C64.7709 15.3671 64.9501 15.968 65.2599 16.5033C65.5697 17.0387 66.0014 17.4934 66.52 17.8305Z" fill="black"/>
<path opacity="0.15" d="M70.09 19.8875C71.068 20.4545 71.87 19.9955 71.87 18.8605L68.31 16.8035C68.3431 17.4213 68.5216 18.0226 68.8309 18.5585C69.1402 19.0944 69.5716 19.5497 70.09 19.8875Z" fill="black"/>
<path opacity="0.15" d="M73.64 21.9445C74.618 22.5115 75.42 22.0445 75.42 20.9145L71.86 18.8605C71.8936 19.4782 72.0723 20.0794 72.3815 20.6152C72.6908 21.151 73.1219 21.6064 73.64 21.9445V21.9445Z" fill="black"/>
<path opacity="0.15" d="M77.2 23.9986C78.178 24.5656 78.98 24.1066 78.98 22.9716L75.42 20.9146C75.4531 21.5324 75.6316 22.1337 75.9409 22.6696C76.2502 23.2055 76.6816 23.6608 77.2 23.9986V23.9986Z" fill="black"/>
<path opacity="0.15" d="M80.76 26.0556C81.738 26.6226 82.54 26.1636 82.54 25.0256L78.98 22.9716C79.0136 23.5893 79.1923 24.1904 79.5015 24.7262C79.8108 25.2621 80.2419 25.7175 80.76 26.0556V26.0556Z" fill="black"/>
<path opacity="0.15" d="M84.32 28.1095C85.298 28.6765 86.1 28.2175 86.1 27.0825L82.54 25.0255C82.5715 25.6437 82.7493 26.2457 83.0588 26.7818C83.3682 27.3179 83.8005 27.773 84.32 28.1095Z" fill="black"/>
<path opacity="0.15" d="M87.88 30.1665C88.858 30.7335 89.66 30.2745 89.66 29.1365L86.1 27.0825C86.1336 27.7003 86.3123 28.3014 86.6215 28.8372C86.9308 29.373 87.3619 29.8284 87.88 30.1665V30.1665Z" fill="black"/>
</g>
<path opacity="0.4" d="M124.134 128.61L111.26 121.177L112.874 120.241L125.751 127.671L124.134 128.61Z" fill="#D6D8E5"/>
<path d="M129.109 125.811L116.183 118.346L117.8 103.604L127.5 109.204L129.109 125.811Z" fill="#BA532C"/>
<path d="M125.751 127.673L112.822 120.211L114.442 105.469L124.142 111.069L125.751 127.673Z" fill="#F97B4B"/>
<path d="M125.754 127.671L129.112 125.806L127.498 109.196L124.137 111.064L125.754 127.671Z" fill="#CE663E"/>
<path d="M114.438 105.468L117.799 103.6L117.405 107.179L114.438 105.468Z" fill="#F98355"/>
<path d="M121.708 109.632L121.108 109.286C121.103 108.588 120.935 107.9 120.619 107.278C120.302 106.655 119.845 106.115 119.284 105.699C118.277 105.109 117.462 105.777 117.462 107.169L116.862 106.823C116.862 105.053 117.951 104.238 119.284 105.007C120.02 105.536 120.623 106.229 121.044 107.032C121.465 107.835 121.692 108.726 121.708 109.632V109.632Z" fill="#20232D"/>
<path d="M124.857 107.704L124.257 107.358C124.251 106.66 124.083 105.972 123.767 105.35C123.45 104.728 122.992 104.187 122.431 103.772C121.424 103.182 120.609 103.85 120.609 105.242L120.009 104.896C120.009 103.126 121.098 102.311 122.431 103.08C123.166 103.61 123.768 104.303 124.189 105.106C124.61 105.908 124.839 106.798 124.857 107.704V107.704Z" fill="#20232D"/>
<path opacity="0.4" d="M112.554 138.038L94.005 127.333L96.333 125.98L114.882 136.686L112.554 138.038Z" fill="#D6D8E5"/>
<path d="M119.72 134L101.099 123.249L103.427 102.013L117.393 110.078L119.72 134Z" fill="#BA532C"/>
<path d="M114.882 136.69L96.258 125.939L98.588 104.703L112.557 112.765L114.882 136.69Z" fill="#F97B4B"/>
<path d="M114.882 136.689L119.72 134L117.394 110.078L112.556 112.764L114.882 136.689Z" fill="#CE663E"/>
<path d="M98.585 104.702L103.426 102.013L102.859 107.17L98.585 104.702Z" fill="#F98355"/>
<path d="M109.06 110.7L108.199 110.188C108.192 109.184 107.951 108.196 107.495 107.301C107.039 106.407 106.38 105.632 105.571 105.037C104.124 104.202 102.94 105.148 102.94 107.153L102.079 106.653C102.079 104.1 103.644 102.927 105.57 104.045C106.631 104.805 107.499 105.803 108.105 106.958C108.711 108.114 109.038 109.395 109.06 110.7V110.7Z" fill="#20232D"/>
<path d="M113.601 107.926L112.74 107.426C112.733 106.422 112.492 105.433 112.035 104.538C111.579 103.644 110.921 102.868 110.112 102.272C108.665 101.434 107.481 102.386 107.481 104.391L106.62 103.891C106.62 101.335 108.188 100.165 110.111 101.283C111.171 102.041 112.04 103.036 112.646 104.19C113.252 105.343 113.579 106.623 113.601 107.926V107.926Z" fill="#20232D"/>
<path opacity="0.4" d="M35.687 91.4765L28.717 87.4765L36.544 82.9585L43.511 86.9585L35.687 91.4765Z" fill="#D6D8E5"/>
<path d="M36.818 82.2925L29.343 77.9765L36.818 73.6605L44.293 77.9765L36.818 82.2925Z" fill="#EFDA86"/>
<path d="M43.788 86.7985L36.818 90.8215V82.7725L43.788 78.7495V86.7985Z" fill="#D1B66B"/>
<path d="M36.818 90.8215L29.848 86.7985V78.7495L36.818 82.7725V90.8215Z" fill="#E2C979"/>
<path opacity="0.1" d="M29.848 78.7495V80.8555L36.818 84.8325V82.7815L29.848 78.7495Z" fill="black"/>
<path opacity="0.1" d="M43.788 78.7495V81.0055L36.818 84.8325V82.7815L43.788 78.7495Z" fill="black"/>
<path d="M29.343 77.9766V80.2066L36.818 84.4646V82.2936L29.343 77.9766Z" fill="#E2C979"/>
<path d="M36.818 84.4636L44.293 80.3826V77.9766L36.818 82.2926V84.4636Z" fill="#D1B66B"/>
<path opacity="0.4" d="M126.895 137.677L120.603 134.07L127.684 129.982L133.976 133.594L126.895 137.677Z" fill="#D6D8E5"/>
<path d="M127.931 129.376L121.183 125.476L127.931 121.576L134.679 125.476L127.931 129.376Z" fill="#EFDA86"/>
<path d="M134.224 133.444L127.932 137.076V129.809L134.224 126.177V133.444Z" fill="#D1B66B"/>
<path d="M127.932 137.076L121.64 133.444V126.178L127.932 129.81V137.076Z" fill="#E2C979"/>
<path opacity="0.1" d="M121.64 126.178V128.078L127.932 131.671V129.819L121.64 126.178Z" fill="black"/>
<path opacity="0.1" d="M134.224 126.178V128.215L127.932 131.671V129.819L134.224 126.178Z" fill="black"/>
<path d="M121.183 125.482V127.497L127.931 131.341V129.378L121.183 125.482Z" fill="#E2C979"/>
<path d="M127.932 131.34L134.68 127.653V125.482L127.932 129.382V131.34Z" fill="#D1B66B"/>
<path opacity="0.4" d="M52.606 102.209L39.206 94.4795L40.888 93.5045L54.288 101.234L52.606 102.209Z" fill="#D6D8E5"/>
<path d="M57.784 99.2906L44.333 91.5256L46.015 76.1906L56.101 82.0166L57.784 99.2906Z" fill="#BA532C"/>
<path d="M54.289 101.234L40.838 93.4636L42.52 78.1286L52.606 83.9506L54.289 101.234Z" fill="#F97B4B"/>
<path d="M54.288 101.235L57.783 99.2926L56.101 82.0176L52.606 83.9576L54.288 101.235Z" fill="#CE663E"/>
<path d="M42.52 78.1336L46.015 76.1906L45.607 79.9136L42.52 78.1336Z" fill="#F98355"/>
<path d="M50.083 82.4786L49.464 82.1196C49.4592 81.3939 49.2849 80.6794 48.955 80.033C48.6252 79.3866 48.1488 78.8263 47.564 78.3966C46.518 77.7966 45.664 78.4776 45.664 79.9256L45.041 79.5666C45.041 77.7246 46.172 76.8776 47.561 77.6786C48.3283 78.2249 48.9564 78.944 49.3945 79.7778C49.8326 80.6116 50.0685 81.5368 50.083 82.4786Z" fill="#20232D"/>
<path d="M53.363 80.4605L52.744 80.1015C52.7388 79.3759 52.5644 78.6615 52.2345 78.0152C51.9047 77.3689 51.4285 76.8085 50.844 76.3785C49.798 75.7785 48.944 76.4605 48.944 77.9075L48.321 77.5485C48.321 75.7065 49.452 74.8595 50.841 75.6605C51.6072 76.2079 52.2345 76.9272 52.6725 77.7608C53.1105 78.5944 53.347 79.519 53.363 80.4605V80.4605Z" fill="#20232D"/>
<path opacity="0.4" d="M14.214 162.999C22.0642 162.999 28.428 159.326 28.428 154.794C28.428 150.263 22.0642 146.589 14.214 146.589C6.36382 146.589 0 150.263 0 154.794C0 159.326 6.36382 162.999 14.214 162.999Z" fill="#D6D8E5"/>
<path d="M3.791 93.3316C3.631 94.7136 1.985 100.673 2.337 102.714C2.689 104.755 8.319 108.168 8.319 108.168L9.101 104.673L5.981 101.622L6.825 95.8446L3.791 93.3316Z" fill="#FFCEA9"/>
<path d="M8.15 87.4605C7.60238 87.2064 6.98035 87.1626 6.40254 87.3376C5.82472 87.5126 5.33153 87.8942 5.017 88.4096C4.189 89.7786 3.328 94.4866 3.25 95.2886C3.58164 95.7376 4.02136 96.0956 4.52834 96.3294C5.03532 96.5631 5.59313 96.665 6.15 96.6255L8.15 87.4605Z" fill="#EDEDED"/>
<path d="M14.573 153.895C15.7972 154.234 17.1059 154.076 18.214 153.455C19.091 153.481 23.854 151.444 24.503 153.155C25.07 154.655 23.01 156.043 21.895 156.311C19.489 156.895 17.709 158.094 16.744 158.296C16.3743 158.427 15.9782 158.466 15.5901 158.409C15.202 158.352 14.8336 158.202 14.517 157.97C13.841 157.302 13.9 154.792 14.573 153.895Z" fill="#2F2E41"/>
<path d="M16.757 157.883C17.735 157.678 19.502 156.478 21.908 155.894C22.834 155.672 24.425 154.662 24.584 153.456C24.799 154.838 22.954 156.064 21.908 156.312C19.502 156.896 17.722 158.095 16.757 158.297C16.3873 158.428 15.9912 158.467 15.6031 158.41C15.215 158.353 14.8466 158.203 14.53 157.971C14.3776 157.807 14.2659 157.609 14.204 157.394C14.5606 157.672 14.9779 157.861 15.4217 157.946C15.8655 158.031 16.3231 158.009 16.757 157.883V157.883Z" fill="#D6D8E5"/>
<path d="M6.84901 150.427C8.0732 150.766 9.38191 150.608 10.49 149.987C11.367 150.013 16.13 147.972 16.779 149.687C17.346 151.187 15.286 152.575 14.171 152.843C11.765 153.427 9.98501 154.626 9.02001 154.828C8.65031 154.959 8.2542 154.998 7.8661 154.941C7.47799 154.884 7.10962 154.734 6.79301 154.502C6.11601 153.833 6.17401 151.32 6.84901 150.427Z" fill="#2F2E41"/>
<path d="M9.03099 154.406C10.009 154.206 11.776 153.006 14.182 152.421C15.108 152.199 16.699 151.185 16.858 149.982C17.073 151.364 15.212 152.59 14.182 152.838C11.776 153.422 9.99599 154.621 9.03099 154.823C8.66257 154.955 8.26762 154.995 7.8803 154.939C7.49298 154.884 7.12493 154.735 6.80799 154.506C6.65487 154.344 6.54306 154.147 6.48199 153.932C6.84002 154.205 7.25724 154.391 7.7 154.473C8.14277 154.555 8.59869 154.532 9.03099 154.406V154.406Z" fill="#D6D8E5"/>
<path d="M6.75498 137.485C6.9596 135.716 7.32785 133.97 7.85498 132.269C7.85498 132.269 7.52898 127.769 7.36298 123.5C7.17398 118.665 5.49498 114.388 6.82198 110.516L21.769 113.841C21.769 113.841 20.869 133.16 20.664 135.497C20.5544 137.317 20.3313 139.129 19.996 140.922C19.311 144.671 18.203 153.59 18.203 153.59C17.0658 154.134 15.7782 154.278 14.549 153.998C14.549 153.998 14.663 142.722 14.764 140.019C14.888 136.719 14.989 136.971 14.989 136.971L14.497 128.771L14.171 124.683C14.171 124.683 13.757 127.683 13.49 130.362C13.255 132.699 12.69 134.812 12.059 139.162C11.511 142.936 10.625 150.515 10.625 150.515C9.44811 151.039 8.11556 151.095 6.89898 150.671C6.89898 150.671 6.32498 140.758 6.75498 137.485Z" fill="#2F2E41"/>
<path d="M8.93497 87.5415C10.073 87.5965 10.92 87.8905 11.064 87.5415C11.1856 86.9538 11.2727 86.3595 11.325 85.7616C11.191 85.4356 11.081 85.0766 11.081 85.0766C9.64997 84.1966 9.19997 82.6515 9.01097 80.8385C8.68497 77.7645 10.351 75.0745 13.428 74.7525C16.316 74.4525 18.445 76.4836 19.012 79.2706C19.318 80.6496 19.925 83.2506 19.103 85.5166C18.643 86.7846 18.05 87.7985 17.457 87.9845C16.8851 87.97 16.3147 87.9199 15.749 87.8345V87.8345C15.749 87.8345 15.596 88.6885 15.491 89.2345C15.386 89.7805 15.426 90.0725 16.518 90.7435C17.61 91.4145 14.868 92.7975 13.075 92.6635C11.282 92.5295 9.26697 91.4445 8.71597 90.2865C8.10097 89.0245 8.14797 87.5055 8.93497 87.5415Z" fill="#FFCEA9"/>
<path d="M10.582 87.7106C10.256 88.4966 11.068 89.4576 13.19 90.1296C15.312 90.8016 15.521 89.9376 15.521 89.9376C16.9451 90.5737 18.3326 91.2888 19.677 92.0796C20.958 92.9796 21.529 95.5706 21.701 99.9526C21.901 105.025 21.919 112.552 21.75 113.846C20.2779 115.247 18.3151 116.015 16.283 115.985C13.215 115.734 8.05197 113.015 6.79597 110.919C6.83197 106.472 7.35297 105.749 6.63297 103.186C4.98297 97.3186 4.11597 94.9226 4.91797 91.0266C5.56997 87.8156 6.50197 87.4146 7.76997 87.4406C8.71089 87.4794 9.64897 87.5699 10.58 87.7116L10.582 87.7106Z" fill="#F4F4F4"/>
<path d="M26.543 104.148C24.023 104.78 23.433 103.193 23.1 101.866C22.3 98.6805 21.868 95.8055 21.271 93.9995C20.571 91.8675 19.83 91.5285 18.793 91.1145C17.577 90.6255 16.531 91.6525 16.938 94.3745C17.4299 97.5223 18.1996 100.621 19.238 103.633C19.6157 104.989 20.3274 106.229 21.308 107.239C22.608 108.289 24.568 108.239 27.525 107.51C29.2581 106.914 30.9422 106.184 32.562 105.326C33.214 105.026 33.703 104.826 34.932 104.253C36.1673 103.698 37.2501 102.852 38.088 101.788C38.733 100.852 38.623 100.262 38.488 100.05C38.322 99.7825 38.23 99.9945 37.888 100.376C37.3898 101.04 36.7755 101.607 36.075 102.052C36.075 102.052 36.875 101.23 37.304 100.696C37.689 100.222 38.0092 99.6989 38.256 99.1405C38.484 98.5965 38.015 97.8565 37.656 98.2405C37.297 98.6245 37.131 99.0225 36.479 99.8055C36.1359 100.222 35.7441 100.595 35.312 100.918C35.7158 100.371 36.0756 99.793 36.388 99.1895C36.802 98.3455 35.41 98.7895 34.631 99.6065C34.054 100.207 33.565 100.549 33.552 100.383C33.539 100.217 32.414 101.423 31.844 102.013C31.227 102.707 28.936 103.545 26.543 104.148Z" fill="#FFCEA9"/>
<path d="M17.861 90.6926C19.543 90.4446 20.733 91.2016 21.473 93.7506C22.213 96.2996 22.738 98.3896 22.738 98.3896C22.0725 99.3516 21.063 100.021 19.918 100.26C17.907 100.749 17.183 99.7876 17.183 99.7876C17.183 99.7876 16.626 97.1176 16.277 95.2986C15.928 93.4796 15.781 91.0006 17.861 90.6926Z" fill="#EDEDED"/>
<path d="M18.908 78.8926C18.908 78.8926 21.565 74.8506 15.808 74.0286C11.655 73.4356 8.988 76.1016 8.678 78.9966C8.62594 80.2474 8.83375 81.4954 9.28831 82.6618C9.74288 83.8283 10.4343 84.8878 11.319 85.7736C12.527 86.0757 13.804 85.9211 14.905 85.3396C14.9743 84.5863 15.0017 83.8298 14.987 83.0736C14.987 83.0736 12.968 78.8216 18.908 78.8926Z" fill="#2F2E41"/>
<path d="M32.404 100.972C32.404 100.972 31.752 99.7826 32.163 99.4856C32.574 99.1886 33.17 100.303 33.291 100.74C33.412 101.177 33.245 100.606 33.245 100.606C33.245 100.606 32.798 99.2636 33.089 99.0066C33.38 98.7496 33.77 99.3326 34.158 100.167C34.546 101.002 34.258 100.092 34.258 100.092C34.258 100.092 33.606 98.7466 33.89 98.5606C34.258 98.3096 34.868 99.1086 35.23 99.8286C35.592 100.548 34.744 101.399 34.744 101.399L32.404 100.972Z" fill="#FFCEA9"/>
<path d="M33.663 103.1L31.221 101.688C31.016 101.571 31.042 101.362 31.28 101.225L37.164 97.8185C37.2862 97.7503 37.4227 97.7118 37.5626 97.7061C37.7024 97.7004 37.8416 97.7276 37.969 97.7855L40.411 99.1935C40.616 99.3145 40.59 99.5195 40.352 99.6595L34.452 103.059C34.3324 103.126 34.1991 103.164 34.0623 103.172C33.9255 103.179 33.7888 103.154 33.663 103.1V103.1Z" fill="#B1B4C4"/>
<path d="M31.081 101.485V101.26L31.345 101.36L31.081 101.485Z" fill="#B1B4C4"/>
<path d="M40.561 99.3886V99.1736L40.352 99.3076L40.561 99.3886Z" fill="#B1B4C4"/>
<path d="M33.663 102.905L31.221 101.497C31.016 101.376 31.042 101.171 31.28 101.031L37.164 97.6315C37.2862 97.5633 37.4227 97.5248 37.5626 97.5191C37.7024 97.5133 37.8416 97.5405 37.969 97.5985L40.411 99.0065C40.616 99.1275 40.59 99.3325 40.352 99.4725L34.452 102.872C34.3318 102.938 34.1982 102.975 34.0613 102.98C33.9245 102.986 33.7882 102.96 33.663 102.905V102.905Z" fill="#616E84"/>
<path d="M31.6404 102.194C31.6528 102.187 31.6527 102.163 31.64 102.141C31.6273 102.119 31.607 102.107 31.5945 102.114C31.5821 102.121 31.5823 102.145 31.5949 102.167C31.6076 102.189 31.6279 102.201 31.6404 102.194Z" fill="#757B89"/>
<path d="M31.6335 101.856C31.6459 101.849 31.6457 101.825 31.633 101.803C31.6203 101.781 31.5999 101.769 31.5875 101.776C31.5751 101.783 31.5753 101.807 31.588 101.829C31.6007 101.851 31.6211 101.863 31.6335 101.856Z" fill="#757B89"/>
<path d="M31.7495 101.925C31.762 101.918 31.7617 101.894 31.749 101.872C31.7363 101.85 31.716 101.838 31.7035 101.845C31.6911 101.852 31.6913 101.876 31.704 101.898C31.7167 101.92 31.7371 101.932 31.7495 101.925Z" fill="#757B89"/>
<path d="M31.8695 101.994C31.8819 101.987 31.8817 101.963 31.869 101.941C31.8563 101.919 31.8359 101.907 31.8235 101.914C31.8111 101.921 31.8113 101.945 31.824 101.967C31.8367 101.989 31.8571 102.001 31.8695 101.994Z" fill="#757B89"/>
<path d="M32.8775 102.576C32.89 102.569 32.8897 102.545 32.877 102.523C32.8643 102.501 32.844 102.489 32.8315 102.496C32.8191 102.503 32.8193 102.527 32.832 102.549C32.8447 102.571 32.8651 102.583 32.8775 102.576Z" fill="#757B89"/>
<path d="M32.9915 102.642C33.0039 102.635 33.0037 102.611 32.991 102.589C32.9783 102.567 32.9579 102.555 32.9455 102.562C32.9331 102.569 32.9333 102.593 32.946 102.615C32.9587 102.637 32.9791 102.649 32.9915 102.642Z" fill="#757B89"/>
<path d="M33.1115 102.712C33.124 102.705 33.1237 102.681 33.111 102.659C33.0983 102.637 33.078 102.625 33.0655 102.632C33.0531 102.639 33.0533 102.663 33.066 102.685C33.0787 102.707 33.0991 102.719 33.1115 102.712Z" fill="#757B89"/>
<path d="M33.3594 103.188C33.3718 103.181 33.3717 103.157 33.359 103.135C33.3463 103.113 33.326 103.101 33.3135 103.108C33.3011 103.115 33.3013 103.139 33.3139 103.161C33.3266 103.183 33.3469 103.195 33.3594 103.188Z" fill="#757B89"/>
<path d="M32.512 102.384L32.186 102.198C32.1749 102.19 32.1658 102.179 32.1596 102.166C32.1534 102.154 32.1501 102.14 32.15 102.126V102.126C32.15 102.1 32.166 102.087 32.186 102.1L32.512 102.286C32.5229 102.294 32.5319 102.304 32.5381 102.316C32.5444 102.328 32.5478 102.341 32.548 102.354V102.354C32.548 102.384 32.53 102.397 32.512 102.384Z" fill="#757B89"/>
<path d="M39.824 99.9226L39.524 100.096C39.504 100.096 39.488 100.096 39.488 100.07C39.4889 100.057 39.4926 100.045 39.4988 100.034C39.505 100.022 39.5136 100.013 39.524 100.005L39.824 99.8316C39.844 99.8316 39.857 99.8316 39.857 99.8576C39.8575 99.8703 39.8547 99.883 39.8489 99.8943C39.8431 99.9057 39.8346 99.9154 39.824 99.9226V99.9226Z" fill="#757B89"/>
<path d="M39.365 100.191L39.065 100.364C39.045 100.364 39.029 100.364 39.029 100.338C39.0291 100.325 39.0325 100.312 39.0388 100.301C39.045 100.29 39.0541 100.28 39.065 100.273L39.365 100.097C39.385 100.097 39.398 100.097 39.398 100.123C39.3979 100.136 39.3949 100.149 39.3892 100.161C39.3835 100.173 39.3752 100.183 39.365 100.191V100.191Z" fill="#757B89"/>
<path d="M33.663 102.873L31.221 101.463C31.016 101.346 31.042 101.137 31.28 101L37.164 97.5936C37.2864 97.5259 37.4229 97.4877 37.5626 97.482C37.7023 97.4762 37.8415 97.5031 37.969 97.5606L40.411 98.9686C40.616 99.0896 40.59 99.2946 40.352 99.4346L34.452 102.834C34.3323 102.901 34.1989 102.939 34.062 102.946C33.9252 102.952 33.7887 102.928 33.663 102.873V102.873Z" fill="#20232D"/>
<path d="M40.16 99.0265L39.208 98.4755C39.1448 98.5077 39.0749 98.5244 39.004 98.5244C38.9331 98.5244 38.8632 98.5077 38.8 98.4755C38.7754 98.4672 38.754 98.4515 38.7389 98.4304C38.7238 98.4093 38.7156 98.384 38.7156 98.358C38.7156 98.3321 38.7238 98.3068 38.7389 98.2857C38.754 98.2646 38.7754 98.2488 38.8 98.2406V98.2406L37.848 97.6896C37.7668 97.6478 37.6768 97.626 37.5855 97.626C37.4942 97.626 37.4042 97.6478 37.323 97.6896L31.579 101.004C31.5484 101.015 31.522 101.036 31.5033 101.063C31.4847 101.089 31.4747 101.121 31.4747 101.154C31.4747 101.187 31.4847 101.219 31.5033 101.245C31.522 101.272 31.5484 101.293 31.579 101.304L33.894 102.637C33.9752 102.679 34.0652 102.701 34.1565 102.701C34.2478 102.701 34.3378 102.679 34.419 102.637L40.16 99.3226C40.1926 99.3132 40.2213 99.2936 40.2417 99.2665C40.2621 99.2394 40.2731 99.2064 40.2731 99.1725C40.2731 99.1386 40.2621 99.1057 40.2417 99.0786C40.2213 99.0515 40.1926 99.0318 40.16 99.0225V99.0265Z" fill="#2B303F"/>
<path opacity="0.5" d="M40.16 99.0265L39.208 98.4755C39.1448 98.5077 39.0749 98.5244 39.004 98.5244C38.9331 98.5244 38.8632 98.5077 38.8 98.4755C38.7754 98.4672 38.754 98.4515 38.7389 98.4304C38.7238 98.4093 38.7156 98.384 38.7156 98.358C38.7156 98.3321 38.7238 98.3068 38.7389 98.2857C38.754 98.2646 38.7754 98.2488 38.8 98.2406V98.2406L37.848 97.6896C37.7668 97.6478 37.6768 97.626 37.5855 97.626C37.4942 97.626 37.4042 97.6478 37.323 97.6896L31.579 101.004C31.5484 101.015 31.522 101.036 31.5033 101.063C31.4847 101.089 31.4747 101.121 31.4747 101.154C31.4747 101.187 31.4847 101.219 31.5033 101.245C31.522 101.272 31.5484 101.293 31.579 101.304L33.894 102.637C33.9752 102.679 34.0652 102.701 34.1565 102.701C34.2478 102.701 34.3378 102.679 34.419 102.637L40.16 99.3226C40.1926 99.3132 40.2213 99.2936 40.2417 99.2665C40.2621 99.2394 40.2731 99.2064 40.2731 99.1725C40.2731 99.1386 40.2621 99.1057 40.2417 99.0786C40.2213 99.0515 40.1926 99.0318 40.16 99.0225V99.0265Z" fill="url(#paint0_linear_0_908)"/>
<path d="M38.941 98.4565C39.0023 98.4565 39.052 98.4288 39.052 98.3945C39.052 98.3603 39.0023 98.3325 38.941 98.3325C38.8797 98.3325 38.83 98.3603 38.83 98.3945C38.83 98.4288 38.8797 98.4565 38.941 98.4565Z" fill="#2B303F"/>
<path opacity="0.1" d="M38.909 98.4136C38.889 98.4136 38.889 98.3876 38.909 98.3776C38.9186 98.3712 38.9299 98.3678 38.9415 98.3678C38.9531 98.3678 38.9644 98.3712 38.974 98.3776C38.9774 98.3792 38.9802 98.3818 38.9822 98.385C38.9842 98.3881 38.9853 98.3918 38.9853 98.3956C38.9853 98.3993 38.9842 98.403 38.9822 98.4062C38.9802 98.4094 38.9774 98.4119 38.974 98.4136C38.9639 98.4185 38.9528 98.421 38.9415 98.421C38.9302 98.421 38.9191 98.4185 38.909 98.4136V98.4136Z" fill="white"/>
<path d="M37.457 102.534C37.8315 102.187 38.1331 101.77 38.3441 101.305C38.5552 100.84 38.6714 100.338 38.686 99.8286C38.608 98.7526 37.959 99.5286 37.959 99.5286L37.307 100.711C36.9759 101.149 36.5473 101.504 36.055 101.748C35.5966 101.791 35.1406 101.858 34.689 101.948C34.0574 102.175 33.5028 102.576 33.089 103.105L34.122 103.897L37.457 102.534Z" fill="#FFCEA9"/>
<path d="M138.446 45.1845L130.785 40.7505C130.661 40.6666 130.519 40.6124 130.37 40.5921C130.222 40.5718 130.07 40.586 129.928 40.6335V40.6335C129.866 40.6585 129.808 40.6922 129.755 40.7335L128.35 41.5385L129.328 42.8945V50.1745C129.337 50.7184 129.473 51.2526 129.725 51.7344C129.978 52.2162 130.34 52.632 130.782 52.9485L137.54 56.8605L137.762 58.3895C137.808 58.3665 138.971 57.6985 139.34 57.4835C139.375 57.467 139.409 57.4472 139.44 57.4245C139.597 57.283 139.718 57.1067 139.795 56.9098C139.871 56.7128 139.9 56.5008 139.88 56.2905V47.9575C139.879 47.4145 139.749 46.8796 139.499 46.3972C139.25 45.9149 138.889 45.4991 138.446 45.1845V45.1845Z" fill="#D9DAE2"/>
<path d="M136.858 58.2936L129.197 53.8696C128.755 53.5529 128.394 53.137 128.142 52.6552C127.89 52.1734 127.754 51.6393 127.746 51.0956V42.7666C127.746 41.6976 128.398 41.2086 129.197 41.6666L136.858 46.0876C137.301 46.4049 137.663 46.8214 137.915 47.3038C138.168 47.7863 138.304 48.3212 138.312 48.8656V57.1916C138.312 58.2636 137.66 58.7566 136.858 58.2936Z" fill="#EFF0F9"/>
<path fill-rule="evenodd" clip-rule="evenodd" d="M130.005 45.8806C129.979 45.7062 130.003 45.528 130.074 45.3665C130.144 45.2051 130.259 45.0668 130.405 44.9676C130.577 44.9027 130.763 44.8834 130.944 44.9114C131.126 44.9395 131.298 45.0139 131.442 45.1276C131.874 45.3775 132.234 45.7346 132.488 46.1646C132.746 46.586 132.882 47.0705 132.882 47.5646V47.9426C132.882 48.4156 132.752 48.7186 132.488 48.8556C132.315 48.9175 132.129 48.9344 131.947 48.9046C131.766 48.8749 131.595 48.7995 131.451 48.6856C131.018 48.4367 130.658 48.0793 130.405 47.6486C130.145 47.2278 130.006 46.7432 130.005 46.2486V45.8806ZM130.879 46.7906C130.878 47.0007 130.932 47.2074 131.035 47.3906C131.13 47.5701 131.273 47.7191 131.449 47.8206C131.618 47.9206 131.749 47.9316 131.849 47.8596C131.906 47.8036 131.949 47.7354 131.975 47.6601C132.001 47.5848 132.009 47.5046 131.999 47.4256V47.0376C131.999 46.8282 131.948 46.6221 131.849 46.4376C131.756 46.2562 131.612 46.1055 131.435 46.0036C131.381 45.9613 131.315 45.935 131.247 45.9276C131.178 45.9202 131.109 45.9319 131.047 45.9616C130.947 46.0296 130.891 46.1766 130.891 46.4046L130.879 46.7906ZM131.052 51.7136L131.704 52.4826L134.964 48.3616L134.312 47.5926L131.052 51.7136ZM133.168 52.0266C133.168 51.5536 133.302 51.2506 133.568 51.1136C133.741 51.0516 133.927 51.0343 134.108 51.0633C134.289 51.0923 134.46 51.1667 134.605 51.2796C135.034 51.5291 135.393 51.8835 135.648 52.3096C135.911 52.7336 136.049 53.2227 136.048 53.7216V54.0996C136.048 54.5656 135.918 54.8726 135.657 55.0096C135.483 55.072 135.297 55.0892 135.115 55.0594C134.933 55.0297 134.762 54.954 134.617 54.8396C134.182 54.5906 133.82 54.2321 133.567 53.7996C133.309 53.3832 133.171 52.9041 133.167 52.4146L133.168 52.0266ZM134.205 53.5296C134.102 53.3496 134.046 53.1467 134.042 52.9396V52.5456C134.03 52.4666 134.038 52.3859 134.066 52.3109C134.093 52.2358 134.138 52.1687 134.198 52.1156C134.263 52.0822 134.336 52.0684 134.408 52.0758C134.481 52.0833 134.549 52.1117 134.606 52.1576C134.78 52.2601 134.922 52.409 135.017 52.5876C135.117 52.7691 135.17 52.9732 135.17 53.1806V53.5816C135.17 54.0546 134.984 54.1846 134.616 53.9696C134.441 53.8631 134.299 53.7109 134.205 53.5296Z" fill="#E26161"/>
<path d="M40.443 21.9536L32.782 17.5296C32.6577 17.4457 32.5157 17.3915 32.3671 17.3712C32.2185 17.3509 32.0673 17.3651 31.925 17.4126V17.4126C31.8636 17.439 31.8055 17.4726 31.752 17.5126L30.347 18.3176L31.325 19.6736V26.9536C31.3338 27.4971 31.4695 28.031 31.7215 28.5127C31.9734 28.9943 32.3346 29.4104 32.776 29.7276L39.534 33.6396L39.759 35.1716L41.334 34.2616C41.3684 34.2452 41.4017 34.2268 41.434 34.2066C41.5921 34.066 41.7147 33.8899 41.7917 33.6928C41.8687 33.4957 41.898 33.2831 41.877 33.0726V24.7276C41.8762 24.1844 41.7456 23.6493 41.4962 23.1668C41.2468 22.6843 40.8857 22.2683 40.443 21.9536V21.9536Z" fill="#D9DAE2"/>
<path d="M38.862 35.0625L31.197 30.6445C30.7547 30.328 30.3927 29.9122 30.1402 29.4304C29.8877 28.9487 29.7516 28.4144 29.743 27.8705V19.5395C29.743 18.4705 30.395 17.9775 31.197 18.4395L38.858 22.8635C39.3 23.1802 39.6615 23.5962 39.9135 24.0779C40.1655 24.5597 40.3009 25.0939 40.309 25.6375V33.9635C40.313 35.0325 39.664 35.5395 38.862 35.0625Z" fill="#EFF0F9"/>
<path d="M35.027 22.8175L36.064 25.8465L38.388 27.5775L36.706 28.5005L37.106 31.4005L35.027 28.9395L32.947 28.9985L33.347 26.5565L31.667 23.6945L33.991 24.6465L35.027 22.8175Z" fill="#F9CB07"/>
<defs>
<linearGradient id="paint0_linear_0_908" x1="-684.099" y1="1057.31" x2="-684.099" y2="1051.05" gradientUnits="userSpaceOnUse">
<stop offset="0.21" stop-color="white" stop-opacity="0.01"/>
<stop offset="1" stop-color="white" stop-opacity="0.2"/>
</linearGradient>
</defs>
</svg>
