<svg width="240" height="164" viewBox="0 0 240 164" fill="none" xmlns="http://www.w3.org/2000/svg">
<path opacity="0.4" d="M110.633 90.8972L56.0909 122.383L24.6339 140.547L25.3339 140.947L56.7909 122.782L111.324 91.2972L110.633 90.8972Z" fill="#D6D8E5"/>
<path opacity="0.4" d="M210.938 129.713L200.923 123.925L179.476 111.544L146.385 92.4443L147.074 92.0443L180.174 111.144L201.626 123.525L211.641 129.308L210.938 129.713Z" fill="#D6D8E5"/>
<path opacity="0.4" d="M107.953 67.4002L107.253 67.8002L75.7899 49.6402L63.6619 42.6332L32.1999 24.4682L32.8939 24.0682L64.3599 42.2282L76.4949 49.2362L107.953 67.4002Z" fill="#D6D8E5"/>
<path opacity="0.4" d="M46.8689 51.5193L19.9489 35.9762C18.6959 35.2532 18.8489 33.9862 20.3009 33.1522L46.5189 18.0142C47.2621 17.6014 48.0917 17.3682 48.9411 17.3335C49.7906 17.2988 50.6364 17.4634 51.4109 17.8142L78.3329 33.3572C79.5859 34.0802 79.4269 35.3473 77.9809 36.1813L51.7619 51.3363C51.0158 51.7426 50.1858 51.9705 49.3369 52.0023C48.4879 52.034 47.6432 51.8687 46.8689 51.5193Z" fill="#D6D8E5"/>
<path d="M81.1039 31.5743L79.7829 31.9743L53.3429 16.7113C52.5687 16.3594 51.7228 16.1941 50.8731 16.2289C50.0234 16.2636 49.1937 16.4974 48.4509 16.9113L22.2339 32.0583L22.1709 32.1013L21.0529 31.7493V33.4843C21.0456 33.5484 21.0456 33.6132 21.0529 33.6773V33.8223C21.0984 34.0515 21.1965 34.267 21.3395 34.4518C21.4825 34.6366 21.6665 34.7857 21.8769 34.8873L48.7989 50.4303C49.5733 50.7811 50.4192 50.9457 51.2686 50.9109C52.1181 50.8762 52.9476 50.6431 53.6909 50.2303L79.9089 35.0923C80.2145 34.9553 80.4823 34.746 80.6889 34.4824C80.8955 34.2188 81.0349 33.9088 81.0949 33.5793V33.5793L81.1039 31.5743Z" fill="#D5D6E0"/>
<path d="M79.9179 33.2473L64.3599 42.2323L63.6599 42.6323L53.6899 48.3873C52.9467 48.8002 52.1171 49.0333 51.2676 49.068C50.4181 49.1028 49.5723 48.9381 48.7979 48.5873L21.8809 33.0473C20.6279 32.3193 20.7869 31.0613 22.2329 30.2233L32.1999 24.4693L32.8939 24.0693L48.4509 15.0953C49.1928 14.6792 50.0223 14.4436 50.8722 14.4077C51.722 14.3717 52.5685 14.5364 53.3429 14.8883L80.2649 30.4313C81.5179 31.1473 81.3639 32.4153 79.9179 33.2473Z" fill="#E9EAF4"/>
<path opacity="0.3" d="M124.782 112.553L73.8879 82.4703C73.7249 82.3746 73.5897 82.238 73.4957 82.074C73.4018 81.91 73.3524 81.7243 73.3524 81.5353C73.3524 81.3462 73.4018 81.1605 73.4957 80.9965C73.5897 80.8325 73.7249 80.6959 73.8879 80.6002L101.619 64.6383C101.785 64.5422 101.974 64.4917 102.166 64.4917C102.358 64.4917 102.547 64.5422 102.713 64.6383L153.602 94.7123C153.766 94.8076 153.902 94.9443 153.997 95.1089C154.092 95.2734 154.142 95.4599 154.142 95.6498C154.142 95.8396 154.092 96.0261 153.997 96.1907C153.902 96.3552 153.766 96.4919 153.602 96.5873L125.885 112.578C125.716 112.673 125.525 112.72 125.332 112.716C125.138 112.712 124.95 112.656 124.785 112.554L124.782 112.553Z" fill="#D6D8E5"/>
<path d="M135.429 10.8523V60.5653C135.429 61.8863 134.947 62.7652 134.181 63.0232L93.7739 86.2582L92.9449 86.7403L91.7829 80.8272L87.7729 60.4273L80.5929 24.0433L121.862 0.317271C122.169 0.105791 122.535 -0.00502035 122.908 0.000174655C123.281 0.00537066 123.643 0.126311 123.944 0.346271L132.544 5.31527C133.501 5.94028 134.255 6.83148 134.713 7.87927C135.167 8.80593 135.41 9.82152 135.426 10.8532L135.429 10.8523Z" fill="#E9EAF4"/>
<path d="M135.412 10.8533V60.5663C135.412 61.8873 134.93 62.7663 134.164 63.0243L93.7569 86.2593C93.6509 85.9793 92.8219 83.7343 91.7569 80.8233C89.5879 74.8713 86.4569 66.1383 86.5569 65.8833C86.5999 65.7963 87.0629 63.6233 87.7329 60.4083C89.7759 50.5963 93.7619 31.0083 93.7619 31.0083L134.684 7.84131C135.149 8.77831 135.397 9.80752 135.412 10.8533V10.8533Z" fill="url(#paint0_linear_0_780)"/>
<path d="M91.8309 28.7713L83.2309 23.8073C82.9612 23.6131 82.644 23.4958 82.3129 23.4678C81.9818 23.4398 81.6493 23.5022 81.3509 23.6483V23.6483L80.5319 24.0963L80.7149 24.3083C80.4422 24.8323 80.3093 25.4178 80.3289 26.0083V75.7083C80.3459 76.7942 80.6162 77.8611 81.1183 78.8241C81.6203 79.7871 82.3403 80.6196 83.2209 81.2553L91.8209 86.2193C93.4209 87.1443 94.7129 86.1613 94.7129 84.0263V34.3263C94.7073 33.2382 94.4431 32.167 93.942 31.2011C93.4409 30.2352 92.7173 29.4024 91.8309 28.7713V28.7713Z" fill="white"/>
<path d="M90.9599 86.6972L82.3599 81.7282C81.4776 81.0954 80.7562 80.2642 80.2539 79.3016C79.7516 78.339 79.4824 77.2719 79.4679 76.1862V26.4782C79.4679 24.3432 80.7679 23.3602 82.3599 24.2852L90.9599 29.2492C91.8431 29.8829 92.5654 30.7148 93.0691 31.6781C93.5727 32.6414 93.8435 33.7093 93.8599 34.7962V84.4962C93.8659 86.6392 92.5599 87.6232 90.9599 86.6972Z" fill="#DFE0EA"/>
<path d="M90.0099 37.1163V77.5473C90.0099 78.7233 89.4609 79.4073 88.6799 79.3543C88.4179 79.3292 88.1646 79.2469 87.9379 79.1133L85.3789 77.6333C84.7452 77.1834 84.2271 76.5899 83.8669 75.9012C83.5068 75.2126 83.3149 74.4484 83.3069 73.6713V33.2463C83.3069 31.7183 84.2319 31.0193 85.3789 31.6803L85.4989 31.7523L87.9379 33.1593C88.5686 33.6109 89.0846 34.2042 89.4444 34.8914C89.8043 35.5786 89.9979 36.3407 90.0099 37.1163Z" fill="#F67BB8"/>
<path d="M90.0069 37.1162V77.5472C90.0069 78.7232 89.4579 79.4072 88.6769 79.3542L86.2669 77.9542C85.6345 77.5042 85.1173 76.9113 84.7573 76.2237C84.3972 75.5361 84.2045 74.7733 84.1949 73.9972V33.5642C84.1949 32.3932 84.7489 31.7042 85.5159 31.7522L87.9549 33.1592C88.5797 33.6151 89.0902 34.2098 89.4462 34.8964C89.8023 35.583 89.9942 36.3429 90.0069 37.1162Z" fill="#D8006B"/>
<path d="M154.241 21.9043V71.6124C154.241 72.9374 153.759 73.8123 152.988 74.0753L112.581 97.3054L111.757 97.7873L110.581 91.8783L106.566 71.4783L99.3899 35.0963L110.619 28.6383L111.062 28.3833L112.768 27.4193L126.368 19.6023L126.619 19.4573L127.448 18.9753L140.682 11.3653C140.988 11.1531 141.353 11.0418 141.725 11.047C142.098 11.0522 142.459 11.1736 142.759 11.3943L151.359 16.3633C152.317 16.9912 153.072 17.8836 153.533 18.9323C153.983 19.8594 154.225 20.8738 154.241 21.9043V21.9043Z" fill="#E9EAF4"/>
<path d="M154.227 21.9043V71.6123C154.227 72.9333 153.745 73.8123 152.974 74.0703L112.567 97.3053C112.461 97.0253 111.632 94.7803 110.567 91.8693C108.398 85.9173 105.267 77.1843 105.367 76.9293C105.41 76.8473 105.873 74.6733 106.543 71.4543C108.586 61.6423 112.572 42.0543 112.572 42.0543L153.494 18.8923C153.959 19.8293 154.21 20.8583 154.227 21.9043V21.9043Z" fill="url(#paint1_linear_0_780)"/>
<path d="M110.662 39.7032L102.062 34.7393C101.791 34.5473 101.473 34.4313 101.142 34.4033C100.81 34.3754 100.478 34.4364 100.178 34.5802L99.3629 35.0283L99.5409 35.2402C99.2682 35.7643 99.1353 36.3498 99.1549 36.9402V86.6403C99.1719 87.7262 99.4422 88.7931 99.9443 89.7561C100.446 90.7191 101.166 91.5516 102.047 92.1873L110.647 97.1562C112.247 98.0812 113.539 97.0982 113.539 94.9562V45.2563C113.534 44.1688 113.271 43.0982 112.77 42.1327C112.27 41.1671 111.547 40.3344 110.662 39.7032V39.7032Z" fill="white"/>
<path d="M112.686 45.7222V95.4302C112.686 97.5652 111.394 98.5482 109.794 97.6182L104.888 94.7932L104.001 94.2822L101.182 92.6672C100.3 92.0331 99.5785 91.2009 99.0763 90.2376C98.574 89.2742 98.3047 88.2065 98.2899 87.1202V37.4082C98.2899 35.2632 99.5959 34.2902 101.182 35.2082L109.782 40.1722C110.667 40.8054 111.39 41.6375 111.895 42.6015C112.399 43.5655 112.67 44.6344 112.686 45.7222V45.7222Z" fill="#DFE0EA"/>
<path d="M108.837 48.1312V88.5612C108.837 89.7372 108.288 90.4212 107.507 90.3682C107.245 90.3453 106.991 90.2628 106.765 90.1272L104.206 88.6472C103.574 88.1953 103.058 87.6013 102.698 86.9131C102.338 86.2249 102.145 85.4618 102.134 84.6852V44.2602C102.134 42.7322 103.059 42.0332 104.206 42.6942L104.331 42.7662L106.741 44.1732C107.379 44.6196 107.902 45.2112 108.266 45.8994C108.631 46.5876 108.826 47.3526 108.837 48.1312V48.1312Z" fill="#F67BB8"/>
<path d="M108.835 48.1333V88.5593C108.835 89.7353 108.286 90.4193 107.505 90.3663L105.095 88.9663C104.461 88.5173 103.943 87.9248 103.582 87.237C103.221 86.5493 103.027 85.7859 103.018 85.0093V44.5813C103.018 43.4053 103.572 42.7163 104.343 42.7643L106.753 44.1713C107.387 44.6211 107.907 45.2144 108.269 45.9029C108.63 46.5914 108.824 47.3556 108.835 48.1333Z" fill="#D8006B"/>
<path d="M174.002 33.3983V83.0983C174.002 84.4193 173.52 85.2983 172.754 85.5613L132.347 108.791L131.518 109.273L130.347 103.384L126.328 82.9843L119.152 46.6023L160.421 22.8763C160.727 22.6641 161.092 22.5528 161.464 22.558C161.837 22.5632 162.198 22.6846 162.498 22.9053L171.098 27.8743C172.058 28.4995 172.814 29.3927 173.272 30.4433C173.73 31.3625 173.979 32.3715 174.002 33.3983V33.3983Z" fill="#E9EAF4"/>
<path d="M173.991 33.2753V82.9753C173.991 84.2963 173.509 85.1753 172.743 85.4383L132.336 108.668C132.23 108.388 131.401 106.147 130.336 103.236C128.167 97.2793 125.036 88.5463 125.136 88.2963C125.179 88.2143 125.642 86.0403 126.312 82.8213C128.355 73.0093 132.336 53.4213 132.336 53.4213L173.263 30.2633C173.729 31.1999 173.977 32.2294 173.991 33.2753Z" fill="url(#paint2_linear_0_780)"/>
<path d="M130.442 51.1493L121.842 46.1853C121.571 45.9933 121.253 45.8773 120.922 45.8494C120.59 45.8214 120.258 45.8825 119.958 46.0263L119.144 46.4743L119.327 46.6863C119.052 47.2094 118.919 47.7956 118.941 48.3863V98.0863C118.959 99.1712 119.229 100.237 119.731 101.199C120.233 102.161 120.953 102.993 121.833 103.628L130.433 108.597C132.033 109.522 133.325 108.539 133.325 106.397V56.6973C133.318 55.6104 133.053 54.5407 132.551 53.5762C132.05 52.6117 131.327 51.7799 130.442 51.1493Z" fill="white"/>
<path d="M129.574 109.073L120.974 104.104C120.092 103.471 119.37 102.64 118.868 101.677C118.366 100.715 118.096 99.6482 118.082 98.5623V48.8543C118.082 46.7193 119.382 45.7363 120.974 46.6613L129.574 51.6303C130.456 52.2639 131.176 53.0952 131.679 54.0576C132.181 55.0201 132.45 56.0868 132.466 57.1723V106.88C132.475 109.011 131.174 109.999 129.574 109.073Z" fill="#DFE0EA"/>
<path d="M128.649 59.5903V100.016C128.649 101.192 128.1 101.876 127.319 101.828C127.056 101.804 126.802 101.72 126.577 101.582L124.013 100.102C123.38 99.6512 122.862 99.0582 122.502 98.3695C122.142 97.681 121.95 96.9172 121.941 96.1403V55.7153C121.941 54.1873 122.871 53.4883 124.013 54.1493L124.138 54.2213L126.577 55.6283C127.203 56.0861 127.715 56.6814 128.074 57.3683C128.433 58.0552 128.63 58.8154 128.649 59.5903Z" fill="#F67BB8"/>
<path d="M128.646 59.5892V100.015C128.646 101.191 128.097 101.875 127.316 101.827L124.906 100.42C124.274 99.9702 123.756 99.3773 123.396 98.6898C123.036 98.0022 122.844 97.2393 122.834 96.4632V56.0372C122.834 54.8612 123.383 54.1722 124.155 54.2202L126.594 55.6272C127.214 56.0889 127.721 56.6855 128.076 57.3719C128.432 58.0583 128.627 58.8165 128.646 59.5892Z" fill="#D8006B"/>
<path opacity="0.4" d="M227.696 22.1012L196.239 40.2662L181.294 48.8912L149.837 67.0562L149.137 66.6562L180.59 48.4912L195.535 39.8692L227.001 21.7042L227.696 22.1012Z" fill="#D6D8E5"/>
<path opacity="0.4" d="M205.772 49.8043L178.851 34.2613C177.598 33.5383 177.751 32.2713 179.203 31.4373L205.421 16.2993C206.164 15.8865 206.994 15.6534 207.843 15.6187C208.693 15.5839 209.539 15.7485 210.313 16.0993L237.234 31.6413C238.487 32.3643 238.334 33.6313 236.882 34.4653L210.64 49.6033C209.901 50.0159 209.076 50.2491 208.23 50.284C207.384 50.3189 206.542 50.1546 205.772 49.8043Z" fill="#D6D8E5"/>
<path d="M239.991 29.8463L238.666 30.2463L212.226 14.9833C211.452 14.6314 210.606 14.4661 209.756 14.5009C208.906 14.5356 208.077 14.7693 207.334 15.1833L181.116 30.3213C181.094 30.3339 181.073 30.3483 181.053 30.3643L179.935 30.0123V31.7473C179.93 31.8115 179.93 31.876 179.935 31.9403V32.0853C179.982 32.3137 180.081 32.5283 180.224 32.7128C180.367 32.8973 180.55 33.0469 180.759 33.1503L207.7 48.6883C208.474 49.0391 209.32 49.2037 210.17 49.169C211.019 49.1343 211.849 48.9011 212.592 48.4883L238.81 33.3503C239.116 33.2138 239.385 33.0047 239.592 32.7411C239.8 32.4774 239.94 32.1672 240 31.8373V31.8373L239.991 29.8463Z" fill="#D5D6E0"/>
<path d="M207.699 46.8733L180.758 31.3303C179.505 30.6073 179.664 29.3403 181.11 28.5063L207.328 13.3682C208.071 12.9554 208.901 12.7224 209.75 12.6876C210.6 12.6529 211.446 12.8175 212.22 13.1683L239.142 28.7113C240.4 29.4343 240.242 30.7012 238.79 31.5352L212.567 46.6713C211.828 47.0835 211.003 47.3165 210.157 47.3516C209.312 47.3867 208.47 47.2229 207.699 46.8733V46.8733Z" fill="#E9EAF4"/>
<path opacity="0.4" d="M199.227 138.977L172.305 123.434C171.052 122.711 171.211 121.448 172.657 120.61L198.875 105.453C199.618 105.04 200.448 104.807 201.297 104.772C202.147 104.738 202.993 104.902 203.767 105.253L230.689 120.794C231.947 121.522 231.789 122.784 230.337 123.618L204.119 138.756C203.379 139.178 202.55 139.417 201.7 139.456C200.849 139.494 200.002 139.33 199.227 138.977Z" fill="#D6D8E5"/>
<path d="M233.465 119.085L232.144 119.485L205.705 104.231C204.931 103.88 204.085 103.716 203.235 103.75C202.386 103.785 201.556 104.018 200.813 104.431L174.595 119.569L174.532 119.612L173.414 119.26V121C173.407 121.063 173.407 121.126 173.414 121.188V121.333C173.459 121.562 173.558 121.778 173.701 121.963C173.844 122.147 174.028 122.297 174.238 122.398L201.16 137.939C201.934 138.29 202.78 138.454 203.63 138.42C204.479 138.385 205.309 138.152 206.052 137.739L232.28 122.596C232.586 122.459 232.853 122.25 233.06 121.986C233.267 121.723 233.406 121.413 233.466 121.083V121.083L233.465 119.085Z" fill="#D5D6E0"/>
<path d="M201.164 136.117L174.243 120.573C172.99 119.85 173.143 118.587 174.595 117.749L200.813 102.63C201.556 102.217 202.386 101.984 203.235 101.949C204.085 101.915 204.931 102.079 205.705 102.43L232.626 117.973C233.879 118.701 233.72 119.963 232.274 120.797L206.056 135.935C205.311 136.344 204.481 136.574 203.632 136.605C202.782 136.637 201.937 136.47 201.164 136.117Z" fill="#E9EAF4"/>
<path opacity="0.4" d="M24.1909 162.014L1.7219 149.035C-0.828102 147.565 -0.509102 145.001 2.4349 143.3L13.8429 136.711C16.7829 135.011 21.2359 134.827 23.7809 136.301L46.2689 149.275C48.8189 150.745 48.4959 153.314 45.5559 155.01L34.1329 161.599C31.1889 163.286 26.7399 163.483 24.1909 162.014Z" fill="#D6D8E5"/>
<path d="M57.9409 145.825V114.455L9.98691 109.055V140.632C10.0009 141.177 10.1683 141.708 10.4701 142.162C10.7719 142.617 11.1957 142.977 11.6929 143.201L34.1619 156.177C36.7069 157.652 41.1619 157.464 44.0999 155.767L55.5069 149.177C57.1649 148.213 57.9889 146.989 57.9599 145.832L57.9409 145.825Z" fill="#D6D8E5"/>
<path d="M57.9309 117.967V114.531H54.2399L33.7399 102.709C31.1949 101.239 26.7469 101.422 23.8019 103.119L12.4089 109.702C12.2089 109.822 12.0089 109.948 11.8209 110.088L9.9899 109.124V112.864C10.0131 113.407 10.1849 113.932 10.4867 114.383C10.7885 114.835 11.2085 115.194 11.7009 115.423L34.1669 128.397C36.7119 129.843 41.1669 129.684 44.1049 127.983L55.5129 121.443C57.2189 120.479 58.0379 119.183 57.9229 118.012L57.9309 117.967Z" fill="#EDF0F9"/>
<path d="M34.1619 124.685L11.6929 111.716C9.14788 110.241 9.46587 107.677 12.4059 105.976L23.8139 99.3932C26.7589 97.6932 31.2069 97.5092 33.7519 98.9792L56.2199 111.952C58.7699 113.398 58.4469 115.991 55.5069 117.692L44.0989 124.285C41.1589 125.986 36.7059 126.155 34.1619 124.685Z" fill="#E2E5F2"/>
<path d="M45.7039 112.917C45.704 113.114 45.6513 113.307 45.5512 113.477C45.4511 113.646 45.3073 113.786 45.1349 113.881L34.7829 119.872C34.6157 119.969 34.426 120.019 34.2329 120.019C34.0398 120.019 33.8501 119.969 33.6829 119.872L19.2209 111.479C19.0518 111.381 18.9115 111.241 18.8142 111.072C18.7169 110.902 18.6661 110.71 18.6669 110.515V110.457L45.7039 112.917Z" fill="#E5E5E5"/>
<path d="M45.1349 113.9L34.7829 119.871C34.6107 119.967 34.416 120.015 34.2189 120.011V112.917H45.6889C45.6939 113.116 45.6451 113.312 45.5475 113.485C45.45 113.658 45.3074 113.801 45.1349 113.9V113.9Z" fill="#E5E5E5"/>
<path d="M34.6429 119.293C34.5233 119.364 34.3869 119.401 34.2479 119.401C34.1089 119.401 33.9725 119.364 33.8529 119.293L18.7969 110.608C18.744 110.59 18.6999 110.553 18.6738 110.504C18.6477 110.454 18.6417 110.397 18.6569 110.343C18.6661 110.31 18.6838 110.279 18.7084 110.254C18.7329 110.23 18.7634 110.212 18.7969 110.203L29.8819 103.793L45.6949 112.916L34.6429 119.293Z" fill="#F4F4F4"/>
<path d="M24.9809 112.926L25.0629 112.969L29.8919 115.769L32.5429 114.236L32.6149 114.193L27.7089 111.354L24.9809 112.926Z" fill="#BFBFBF"/>
<path d="M25.0629 112.966L29.8919 115.766L32.5429 114.228L27.7089 111.438L25.0629 112.966Z" fill="#E5E5E5"/>
<path d="M41.5109 113.472L42.1909 113.901C42.2255 113.918 42.2635 113.926 42.3019 113.926C42.3403 113.926 42.3783 113.918 42.4129 113.901L43.0729 113.515C43.1449 113.476 43.1499 113.423 43.0729 113.39L42.3789 112.99C42.3443 112.973 42.3063 112.965 42.2679 112.965C42.2295 112.965 42.1915 112.973 42.1569 112.99L41.4969 113.376C41.4489 113.409 41.4489 113.438 41.5109 113.472Z" fill="#2B303F"/>
<path d="M40.5239 112.914L41.2239 113.314C41.2585 113.331 41.2965 113.339 41.3349 113.339C41.3733 113.339 41.4113 113.331 41.4459 113.314L42.1109 112.928C42.1779 112.889 42.1829 112.828 42.1109 112.803L41.4109 112.403C41.3763 112.386 41.3384 112.378 41.2999 112.378C41.2615 112.378 41.2235 112.386 41.1889 112.403L40.5289 112.789C40.4849 112.814 40.4849 112.869 40.5239 112.914Z" fill="#2B303F"/>
<path d="M39.5209 112.335L40.2209 112.735C40.2557 112.754 40.2947 112.764 40.3344 112.764C40.3741 112.764 40.4131 112.754 40.4479 112.735L41.1079 112.354C41.1709 112.315 41.1799 112.254 41.1079 112.229L40.4279 111.819C40.394 111.8 40.3558 111.79 40.3169 111.79C40.278 111.79 40.2398 111.8 40.2059 111.819L39.5219 112.205C39.5132 112.213 39.5062 112.223 39.5015 112.235C39.4967 112.246 39.4942 112.258 39.4941 112.27C39.494 112.282 39.4963 112.294 39.5009 112.305C39.5055 112.316 39.5123 112.326 39.5209 112.335V112.335Z" fill="#2B303F"/>
<path d="M38.5569 111.766L39.2509 112.166C39.2857 112.185 39.3247 112.195 39.3644 112.195C39.4041 112.195 39.4431 112.185 39.4779 112.166L40.1429 111.785C40.2059 111.746 40.2149 111.685 40.1429 111.655L39.4429 111.255C39.409 111.236 39.3708 111.226 39.3319 111.226C39.293 111.226 39.2548 111.236 39.2209 111.255L38.5609 111.636C38.5009 111.674 38.5009 111.732 38.5569 111.766Z" fill="#2B303F"/>
<path d="M37.5629 111.197L38.2629 111.597C38.2975 111.614 38.3354 111.622 38.3739 111.622C38.4123 111.622 38.4503 111.614 38.4849 111.597L39.1499 111.216C39.2129 111.177 39.2219 111.116 39.1499 111.086L38.4499 110.686C38.4161 110.669 38.379 110.661 38.3414 110.661C38.3038 110.661 38.2666 110.669 38.2329 110.686L37.5629 111.072C37.5519 111.078 37.5427 111.087 37.5364 111.098C37.53 111.109 37.5266 111.122 37.5266 111.135C37.5266 111.147 37.53 111.16 37.5364 111.171C37.5427 111.182 37.5519 111.191 37.5629 111.197V111.197Z" fill="#2B303F"/>
<path d="M36.5809 110.628L37.2749 111.028C37.3095 111.045 37.3475 111.053 37.3859 111.053C37.4243 111.053 37.4623 111.045 37.4969 111.028L38.1619 110.647C38.2289 110.608 38.2389 110.547 38.1619 110.512L37.4679 110.112C37.4333 110.095 37.3954 110.087 37.3569 110.087C37.3185 110.087 37.2805 110.095 37.2459 110.112L36.5809 110.498C36.5686 110.504 36.5583 110.513 36.551 110.525C36.5437 110.536 36.5399 110.549 36.5399 110.563C36.5399 110.577 36.5437 110.59 36.551 110.601C36.5583 110.613 36.5686 110.622 36.5809 110.628V110.628Z" fill="#2B303F"/>
<path d="M35.5929 110.06L36.3059 110.46C36.3397 110.477 36.3768 110.485 36.4144 110.485C36.452 110.485 36.4892 110.477 36.5229 110.46L37.1929 110.074C37.2559 110.04 37.2649 109.974 37.1929 109.944L36.4929 109.544C36.4592 109.527 36.422 109.519 36.3844 109.519C36.3468 109.519 36.3097 109.527 36.2759 109.544L35.6059 109.925C35.5449 109.973 35.5349 110.026 35.5929 110.06Z" fill="#2B303F"/>
<path d="M34.6049 109.485L35.3049 109.885C35.3395 109.902 35.3775 109.91 35.4159 109.91C35.4544 109.91 35.4923 109.902 35.5269 109.885L36.1919 109.499C36.2549 109.46 36.2639 109.399 36.1919 109.369L35.4979 108.969C35.4633 108.952 35.4254 108.944 35.3869 108.944C35.3485 108.944 35.3105 108.952 35.2759 108.969L34.6059 109.35C34.5569 109.407 34.5479 109.452 34.6049 109.485Z" fill="#2B303F"/>
<path d="M33.6219 108.927L34.3159 109.327C34.3505 109.344 34.3885 109.352 34.4269 109.352C34.4653 109.352 34.5033 109.344 34.5379 109.327L35.2079 108.941C35.2709 108.902 35.2799 108.841 35.2079 108.811L34.5079 108.411C34.4733 108.394 34.4353 108.386 34.3969 108.386C34.3585 108.386 34.3205 108.394 34.2859 108.411L33.6209 108.792C33.6076 108.798 33.5962 108.807 33.5882 108.819C33.5803 108.831 33.5761 108.845 33.5762 108.86C33.5763 108.874 33.5807 108.888 33.5888 108.9C33.597 108.912 33.6085 108.922 33.6219 108.927V108.927Z" fill="#2B303F"/>
<path d="M32.6339 108.344L33.3339 108.744C33.3685 108.761 33.4065 108.769 33.4449 108.769C33.4833 108.769 33.5213 108.761 33.5559 108.744L34.2209 108.358C34.2839 108.319 34.2879 108.266 34.2209 108.233L33.5209 107.833C33.4879 107.814 33.4505 107.804 33.4124 107.804C33.3743 107.804 33.3369 107.814 33.3039 107.833L32.6339 108.214C32.5859 108.257 32.5759 108.315 32.6339 108.344Z" fill="#2B303F"/>
<path d="M31.6499 107.775L32.3439 108.175C32.3785 108.192 32.4165 108.2 32.4549 108.2C32.4933 108.2 32.5313 108.192 32.5659 108.175L33.2309 107.789C33.2979 107.75 33.3029 107.697 33.2309 107.664L32.5369 107.264C32.5023 107.247 32.4643 107.239 32.4259 107.239C32.3875 107.239 32.3495 107.247 32.3149 107.264L31.6499 107.65C31.5969 107.688 31.5879 107.741 31.6499 107.775Z" fill="#2B303F"/>
<path d="M30.6629 107.207L31.3629 107.607C31.3967 107.624 31.4338 107.632 31.4714 107.632C31.509 107.632 31.5461 107.624 31.5799 107.607L32.2449 107.221C32.3119 107.182 32.3169 107.129 32.2449 107.096L31.5449 106.696C31.5094 106.679 31.4706 106.67 31.4314 106.67C31.3921 106.67 31.3534 106.679 31.3179 106.696L30.6579 107.082C30.6139 107.12 30.6049 107.173 30.6629 107.207Z" fill="#2B303F"/>
<path d="M29.6739 106.638L30.3739 107.038C30.4085 107.055 30.4465 107.063 30.4849 107.063C30.5234 107.063 30.5613 107.055 30.5959 107.038L31.2559 106.652C31.3229 106.613 31.3279 106.56 31.2559 106.527L30.5619 106.127C30.5264 106.11 30.4877 106.101 30.4484 106.101C30.4092 106.101 30.3704 106.11 30.3349 106.127L29.6699 106.513C29.6589 106.519 29.6497 106.528 29.6434 106.539C29.637 106.55 29.6337 106.563 29.6337 106.576C29.6337 106.588 29.637 106.601 29.6434 106.612C29.6497 106.623 29.6589 106.632 29.6699 106.638H29.6739Z" fill="#2B303F"/>
<path d="M28.2159 105.794L29.4019 106.474C29.4365 106.491 29.4745 106.499 29.5129 106.499C29.5513 106.499 29.5893 106.491 29.6239 106.474L30.2889 106.088C30.3559 106.049 30.3609 105.988 30.2889 105.963L29.1129 105.283C29.0791 105.266 29.042 105.258 29.0044 105.258C28.9668 105.258 28.9297 105.266 28.8959 105.283L28.2259 105.669C28.1659 105.707 28.1559 105.76 28.2159 105.794Z" fill="#2B303F"/>
<path d="M39.0919 113.177L39.7859 113.577C39.8214 113.594 39.8602 113.603 39.8994 113.603C39.9387 113.603 39.9774 113.594 40.0129 113.577L40.6779 113.187C40.7409 113.153 40.7499 113.095 40.6779 113.062L40.0029 112.662C39.9683 112.645 39.9304 112.637 39.8919 112.637C39.8535 112.637 39.8155 112.645 39.7809 112.662L39.1209 113.048C39.0389 113.091 39.0389 113.149 39.0919 113.177Z" fill="#2B303F"/>
<path d="M38.1039 112.609L38.8039 113.009C38.8378 113.028 38.876 113.038 38.9149 113.038C38.9538 113.038 38.992 113.028 39.0259 113.009L39.6909 112.628C39.7539 112.589 39.7629 112.536 39.6909 112.503L38.9909 112.103C38.9571 112.086 38.92 112.078 38.8824 112.078C38.8448 112.078 38.8077 112.086 38.7739 112.103L38.1039 112.484C38.0799 112.522 38.0459 112.575 38.1039 112.609Z" fill="#2B303F"/>
<path d="M37.1109 112.04L37.8109 112.44C37.8448 112.459 37.883 112.469 37.9219 112.469C37.9608 112.469 37.999 112.459 38.0329 112.44L38.6929 112.059C38.7649 112.02 38.7699 111.959 38.6929 111.929L37.9929 111.529C37.959 111.51 37.9208 111.5 37.8819 111.5C37.843 111.5 37.8048 111.51 37.7709 111.529L37.1109 111.91C37.0986 111.916 37.0883 111.925 37.081 111.937C37.0737 111.948 37.0699 111.961 37.0699 111.975C37.0699 111.989 37.0737 112.002 37.081 112.013C37.0883 112.025 37.0986 112.034 37.1109 112.04V112.04Z" fill="#2B303F"/>
<path d="M36.1479 111.473L36.8479 111.873C36.8817 111.89 36.9188 111.898 36.9564 111.898C36.994 111.898 37.0311 111.89 37.0649 111.873L37.7349 111.487C37.7979 111.453 37.8069 111.395 37.7349 111.357L37.0509 110.957C37.0163 110.94 36.9783 110.932 36.9399 110.932C36.9015 110.932 36.8635 110.94 36.8289 110.957L36.1489 111.338C36.0799 111.373 36.0709 111.447 36.1479 111.473Z" fill="#2B303F"/>
<path d="M35.1449 110.904L35.8449 111.304C35.8797 111.323 35.9187 111.333 35.9584 111.333C35.9981 111.333 36.0371 111.323 36.0719 111.304L36.7319 110.923C36.7949 110.884 36.8039 110.823 36.7319 110.793L36.0379 110.374C36.004 110.355 35.9658 110.345 35.9269 110.345C35.888 110.345 35.8498 110.355 35.8159 110.374L35.1509 110.755C35.0969 110.811 35.0919 110.855 35.1449 110.904Z" fill="#2B303F"/>
<path d="M34.1609 110.334L34.8549 110.734C34.8888 110.753 34.927 110.763 34.9659 110.763C35.0048 110.763 35.043 110.753 35.0769 110.734L35.7469 110.353C35.8099 110.314 35.8139 110.253 35.7469 110.223L35.0469 109.823C35.013 109.804 34.9748 109.794 34.9359 109.794C34.897 109.794 34.8588 109.804 34.8249 109.823L34.1599 110.204C34.1129 110.242 34.1029 110.3 34.1609 110.334Z" fill="#2B303F"/>
<path d="M33.1689 109.766L33.8689 110.166C33.9044 110.183 33.9431 110.192 33.9824 110.192C34.0217 110.192 34.0604 110.183 34.0959 110.166L34.7559 109.785C34.8229 109.746 34.8279 109.685 34.7559 109.65L34.0559 109.25C34.0221 109.233 33.985 109.225 33.9474 109.225C33.9098 109.225 33.8727 109.233 33.8389 109.25L33.1739 109.636C33.1616 109.642 33.1512 109.651 33.144 109.663C33.1367 109.674 33.1329 109.687 33.1329 109.701C33.1329 109.715 33.1367 109.728 33.144 109.739C33.1512 109.751 33.1616 109.76 33.1739 109.766H33.1689Z" fill="#2B303F"/>
<path d="M32.1849 109.187L32.8789 109.587C32.9128 109.606 32.951 109.616 32.9899 109.616C33.0288 109.616 33.067 109.606 33.1009 109.587L33.7659 109.206C33.8329 109.167 33.8429 109.106 33.7659 109.076L33.0719 108.676C33.038 108.657 32.9998 108.647 32.9609 108.647C32.922 108.647 32.8838 108.657 32.8499 108.676L32.1849 109.057C32.1319 109.1 32.1229 109.158 32.1849 109.187Z" fill="#2B303F"/>
<path d="M31.1979 108.618L31.8979 109.018C31.9317 109.035 31.9688 109.043 32.0064 109.043C32.044 109.043 32.0811 109.035 32.1149 109.018L32.7799 108.632C32.8469 108.593 32.8519 108.54 32.7799 108.507L32.0799 108.107C32.0451 108.088 32.0061 108.078 31.9664 108.078C31.9267 108.078 31.8877 108.088 31.8529 108.107L31.1929 108.488C31.1449 108.533 31.1399 108.584 31.1979 108.618Z" fill="#2B303F"/>
<path d="M30.2049 108.05L30.9049 108.45C30.9395 108.467 30.9775 108.475 31.0159 108.475C31.0543 108.475 31.0923 108.467 31.1269 108.45L31.7919 108.064C31.8549 108.025 31.8639 107.964 31.7919 107.939L31.1119 107.515C31.0773 107.498 31.0393 107.49 31.0009 107.49C30.9624 107.49 30.9245 107.498 30.8899 107.515L30.2199 107.905C30.1569 107.967 30.1519 108.011 30.2049 108.05Z" fill="#2B303F"/>
<path d="M29.2209 107.48L29.9149 107.88C29.9495 107.897 29.9875 107.905 30.0259 107.905C30.0643 107.905 30.1023 107.897 30.1369 107.88L30.8069 107.49C30.8699 107.456 30.8739 107.398 30.8069 107.365L30.1069 106.965C30.0723 106.948 30.0343 106.94 29.9959 106.94C29.9575 106.94 29.9195 106.948 29.8849 106.965L29.2199 107.351C29.1729 107.389 29.1629 107.447 29.2209 107.48Z" fill="#2B303F"/>
<path d="M28.2289 106.908L28.9289 107.308C28.9644 107.325 29.0031 107.333 29.0424 107.333C29.0816 107.333 29.1204 107.325 29.1559 107.308L29.8159 106.922C29.8829 106.883 29.8879 106.83 29.8159 106.797L29.1159 106.397C29.0821 106.38 29.045 106.372 29.0074 106.372C28.9698 106.372 28.9327 106.38 28.8989 106.397L28.2339 106.783C28.1809 106.821 28.1759 106.874 28.2289 106.908Z" fill="#2B303F"/>
<path d="M40.0799 113.747L41.2559 114.427C41.3271 114.456 41.4068 114.456 41.4779 114.427L42.1379 114.041C42.2049 114.002 42.2099 113.941 42.1379 113.911L40.9669 113.236C40.8958 113.207 40.8161 113.207 40.7449 113.236L40.0749 113.626C40.065 113.633 40.0569 113.642 40.0513 113.652C40.0457 113.662 40.0427 113.674 40.0427 113.686C40.0427 113.698 40.0457 113.71 40.0513 113.72C40.0569 113.731 40.065 113.739 40.0749 113.746L40.0799 113.747Z" fill="#2B303F"/>
<path d="M28.1519 105.823L28.8459 106.223C28.9039 106.252 28.9039 106.305 28.8459 106.339L28.1459 106.749C28.1132 106.763 28.078 106.771 28.0424 106.771C28.0068 106.771 27.9716 106.763 27.9389 106.749L27.8859 106.71C27.8557 106.696 27.8228 106.689 27.7894 106.689C27.756 106.689 27.7231 106.696 27.6929 106.71L26.9559 107.144C26.9239 107.16 26.8884 107.169 26.8524 107.169C26.8164 107.169 26.7809 107.16 26.7489 107.144L26.3009 106.889C26.2929 106.885 26.2859 106.879 26.2801 106.872C26.2743 106.866 26.27 106.858 26.2673 106.849C26.2646 106.841 26.2636 106.832 26.2644 106.823C26.2652 106.814 26.2677 106.805 26.2719 106.797C26.2739 106.79 26.2777 106.784 26.2827 106.779C26.2878 106.774 26.294 106.77 26.3009 106.768L26.9949 106.368L27.1349 106.286L27.2409 106.223L27.3469 106.16L27.9469 105.818C27.9795 105.801 28.0159 105.792 28.0529 105.792C28.0899 105.792 28.1263 105.801 28.1589 105.818L28.1519 105.823Z" fill="#2B303F"/>
<path d="M37.6839 115.674L38.3779 116.074C38.4125 116.091 38.4505 116.099 38.4889 116.099C38.5274 116.099 38.5653 116.091 38.5999 116.074L39.2649 115.688C39.3319 115.649 39.3419 115.588 39.2649 115.558L38.5569 115.158C38.4858 115.129 38.4061 115.129 38.3349 115.158L37.6699 115.548C37.6592 115.555 37.6507 115.564 37.6452 115.576C37.6398 115.587 37.6377 115.6 37.6391 115.612C37.6406 115.625 37.6456 115.637 37.6535 115.647C37.6614 115.657 37.672 115.664 37.6839 115.668V115.674Z" fill="#2B303F"/>
<path d="M36.7009 115.111L37.4009 115.511C37.4347 115.528 37.4718 115.536 37.5094 115.536C37.547 115.536 37.5841 115.528 37.6179 115.511L38.2829 115.125C38.3499 115.086 38.3549 115.025 38.2829 115L37.5939 114.6C37.5584 114.583 37.5197 114.574 37.4804 114.574C37.4411 114.574 37.4024 114.583 37.3669 114.6L36.7069 114.986C36.6289 115.024 36.6289 115.077 36.7009 115.111Z" fill="#2B303F"/>
<path d="M35.7139 114.542L36.4139 114.942C36.4478 114.961 36.486 114.971 36.5249 114.971C36.5638 114.971 36.602 114.961 36.6359 114.942L37.3009 114.561C37.3679 114.522 37.3779 114.469 37.3009 114.436L36.6309 114.036C36.5963 114.019 36.5583 114.011 36.5199 114.011C36.4815 114.011 36.4435 114.019 36.4089 114.036L35.7389 114.422C35.6659 114.455 35.6659 114.513 35.7139 114.542Z" fill="#2B303F"/>
<path d="M27.3419 109.702L28.0359 110.102C28.0705 110.119 28.1085 110.127 28.1469 110.127C28.1853 110.127 28.2233 110.119 28.2579 110.102L28.9229 109.712C28.9899 109.678 28.9949 109.62 28.9229 109.587L28.2229 109.187C28.1874 109.17 28.1487 109.161 28.1094 109.161C28.0701 109.161 28.0314 109.17 27.9959 109.187L27.3359 109.573C27.2929 109.616 27.2839 109.674 27.3419 109.702Z" fill="#2B303F"/>
<path d="M26.3539 109.138L27.0539 109.538C27.0885 109.555 27.1265 109.563 27.1649 109.563C27.2034 109.563 27.2413 109.555 27.2759 109.538L27.9409 109.152C28.0039 109.113 28.0129 109.052 27.9409 109.022L27.2469 108.622C27.1758 108.593 27.0961 108.593 27.0249 108.622L26.3549 109.012C26.3439 109.018 26.3347 109.027 26.3284 109.038C26.322 109.049 26.3187 109.062 26.3187 109.074C26.3187 109.087 26.322 109.1 26.3284 109.111C26.3347 109.122 26.3439 109.131 26.3549 109.137L26.3539 109.138Z" fill="#2B303F"/>
<path d="M25.3759 108.571L26.0699 108.971C26.1045 108.988 26.1425 108.996 26.1809 108.996C26.2193 108.996 26.2573 108.988 26.2919 108.971L26.9569 108.585C27.0239 108.546 27.0289 108.485 26.9569 108.46L26.2569 108.06C26.2214 108.043 26.1827 108.034 26.1434 108.034C26.1041 108.034 26.0654 108.043 26.0299 108.06L25.3699 108.446C25.3269 108.503 25.3179 108.537 25.3759 108.571Z" fill="#2B303F"/>
<path d="M24.3879 108.008L25.0879 108.408C25.1225 108.425 25.1605 108.433 25.1989 108.433C25.2373 108.433 25.2753 108.425 25.3099 108.408L25.9749 108.022C26.0379 107.983 26.0469 107.93 25.9749 107.897L25.2749 107.473C25.2411 107.456 25.204 107.448 25.1664 107.448C25.1288 107.448 25.0917 107.456 25.0579 107.473L24.3879 107.859C24.3753 107.867 24.3649 107.878 24.3577 107.891C24.3505 107.904 24.3467 107.919 24.3467 107.933C24.3467 107.948 24.3505 107.963 24.3577 107.976C24.3649 107.989 24.3753 108 24.3879 108.008V108.008Z" fill="#2B303F"/>
<path d="M34.4809 113.824L35.4449 114.383C35.4788 114.402 35.517 114.412 35.5559 114.412C35.5948 114.412 35.633 114.402 35.6669 114.383L36.3319 113.997C36.3989 113.963 36.4039 113.905 36.3319 113.872L35.3679 113.323C35.3333 113.306 35.2953 113.298 35.2569 113.298C35.2185 113.298 35.1805 113.306 35.1459 113.323L34.4809 113.709C34.4695 113.714 34.4598 113.722 34.453 113.732C34.4461 113.742 34.4425 113.755 34.4425 113.767C34.4425 113.779 34.4461 113.791 34.453 113.802C34.4598 113.812 34.4695 113.82 34.4809 113.825V113.824Z" fill="#2B303F"/>
<path d="M28.3249 110.272L29.2889 110.821C29.3228 110.84 29.361 110.85 29.3999 110.85C29.4388 110.85 29.477 110.84 29.5109 110.821L30.1759 110.44C30.2389 110.401 30.2429 110.34 30.1759 110.315L29.2119 109.766C29.178 109.747 29.1398 109.737 29.1009 109.737C29.062 109.737 29.0238 109.747 28.9899 109.766L28.3249 110.147C28.2719 110.185 28.2669 110.238 28.3249 110.272Z" fill="#2B303F"/>
<path d="M29.5589 110.989L34.2189 113.664C34.2535 113.681 34.2915 113.689 34.3299 113.689C34.3684 113.689 34.4063 113.681 34.4409 113.664L35.1009 113.278C35.1679 113.239 35.1729 113.178 35.1009 113.153L30.4839 110.464C30.4501 110.447 30.413 110.439 30.3754 110.439C30.3378 110.439 30.3007 110.447 30.2669 110.464L29.6019 110.854C29.5109 110.901 29.5059 110.955 29.5589 110.989Z" fill="#2B303F"/>
<path d="M37.8679 113.573L38.5679 113.973C38.6018 113.992 38.64 114.002 38.6789 114.002C38.7178 114.002 38.756 113.992 38.7899 113.973L39.4549 113.592C39.5179 113.553 39.5219 113.492 39.4549 113.462L38.7609 113.052C38.727 113.033 38.6888 113.023 38.6499 113.023C38.611 113.023 38.5728 113.033 38.5389 113.052L37.8689 113.433C37.8199 113.486 37.8099 113.544 37.8679 113.573Z" fill="#2B303F"/>
<path d="M36.8849 113.005L37.5789 113.405C37.6135 113.422 37.6514 113.43 37.6899 113.43C37.7283 113.43 37.7663 113.422 37.8009 113.405L38.4709 113.015C38.5339 112.981 38.5429 112.923 38.4709 112.89L37.7769 112.49C37.743 112.471 37.7048 112.461 37.6659 112.461C37.627 112.461 37.5888 112.471 37.5549 112.49L36.8899 112.871C36.8369 112.918 36.8269 112.976 36.8849 113.005Z" fill="#2B303F"/>
<path d="M35.8959 112.426L36.5959 112.826C36.6297 112.843 36.6668 112.851 36.7044 112.851C36.742 112.851 36.7791 112.843 36.8129 112.826L37.4829 112.426C37.5459 112.392 37.5549 112.334 37.4829 112.301L36.7939 111.94C36.7609 111.921 36.7235 111.911 36.6854 111.911C36.6473 111.911 36.6099 111.921 36.5769 111.94L35.9069 112.301C35.8479 112.348 35.8379 112.426 35.8959 112.426Z" fill="#2B303F"/>
<path d="M34.9169 111.864L35.6109 112.264C35.6455 112.281 35.6835 112.289 35.7219 112.289C35.7604 112.289 35.7983 112.281 35.8329 112.264L36.4979 111.874C36.5649 111.84 36.5749 111.782 36.4979 111.749L35.8179 111.33C35.7833 111.313 35.7454 111.305 35.7069 111.305C35.6685 111.305 35.6305 111.313 35.5959 111.33L34.9309 111.716C34.8609 111.78 34.8559 111.819 34.9169 111.864Z" fill="#2B303F"/>
<path d="M33.9249 111.303L34.6189 111.703C34.6918 111.732 34.773 111.732 34.8459 111.703L35.5109 111.313C35.5779 111.279 35.5829 111.221 35.5109 111.188L34.8309 110.774C34.7963 110.757 34.7583 110.749 34.7199 110.749C34.6815 110.749 34.6435 110.757 34.6089 110.774L33.9489 111.16C33.8769 111.212 33.8529 111.265 33.9249 111.303Z" fill="#2B303F"/>
<path d="M32.9419 110.734L33.6419 111.134C33.713 111.163 33.7927 111.163 33.8639 111.134L34.5239 110.744C34.5909 110.71 34.5959 110.652 34.5239 110.619L33.8539 110.205C33.781 110.176 33.6998 110.176 33.6269 110.205L32.9619 110.591C32.8699 110.643 32.8699 110.7 32.9419 110.734Z" fill="#2B303F"/>
<path d="M31.9589 110.165L32.6529 110.565C32.7241 110.594 32.8037 110.594 32.8749 110.565L33.5399 110.179C33.6069 110.14 33.6119 110.079 33.5399 110.049L32.8699 109.635C32.797 109.606 32.7158 109.606 32.6429 109.635L31.9829 110.025C31.8919 110.074 31.8919 110.131 31.9589 110.165Z" fill="#2B303F"/>
<path d="M30.9709 109.595L31.6709 109.995C31.7048 110.014 31.743 110.024 31.7819 110.024C31.8208 110.024 31.859 110.014 31.8929 109.995L32.5579 109.614C32.6209 109.575 32.6249 109.514 32.5579 109.484L31.8929 109.07C31.8217 109.041 31.742 109.041 31.6709 109.07L31.0009 109.456C30.9079 109.486 30.9079 109.563 30.9709 109.595Z" fill="#2B303F"/>
<path d="M29.9879 109.028L30.6819 109.428C30.7165 109.445 30.7545 109.453 30.7929 109.453C30.8314 109.453 30.8693 109.445 30.9039 109.428L31.5689 109.047C31.6359 109.008 31.6459 108.947 31.5689 108.912L30.9089 108.502C30.8743 108.485 30.8364 108.477 30.7979 108.477C30.7595 108.477 30.7215 108.485 30.6869 108.502L30.0219 108.888C29.9259 108.927 29.9259 108.994 29.9879 109.028Z" fill="#2B303F"/>
<path d="M28.9999 108.445L29.6999 108.845C29.7337 108.862 29.7708 108.87 29.8084 108.87C29.846 108.87 29.8831 108.862 29.9169 108.845L30.5869 108.464C30.6499 108.425 30.6589 108.364 30.5869 108.334L29.9269 107.963C29.8931 107.946 29.856 107.938 29.8184 107.938C29.7808 107.938 29.7437 107.946 29.7099 107.963L29.0399 108.349C28.9469 108.363 28.9469 108.445 28.9999 108.445Z" fill="#2B303F"/>
<path d="M28.0119 107.891L28.7119 108.291C28.7474 108.308 28.7861 108.316 28.8254 108.316C28.8646 108.316 28.9034 108.308 28.9389 108.291L29.5989 107.91C29.6619 107.871 29.6709 107.81 29.5989 107.78L28.9189 107.38C28.8843 107.363 28.8463 107.355 28.8079 107.355C28.7694 107.355 28.7315 107.363 28.6969 107.38L28.0319 107.766C28.0197 107.77 28.009 107.778 28.0008 107.788C27.9926 107.798 27.9872 107.81 27.9853 107.823C27.9833 107.836 27.9849 107.849 27.9897 107.861C27.9946 107.873 28.0026 107.883 28.0129 107.891H28.0119Z" fill="#2B303F"/>
<path d="M27.0289 107.322L27.7229 107.722C27.7577 107.741 27.7967 107.751 27.8364 107.751C27.8761 107.751 27.9151 107.741 27.9499 107.722L28.6149 107.341C28.6819 107.302 28.6869 107.241 28.6149 107.211L27.9149 106.811C27.8803 106.794 27.8423 106.786 27.8039 106.786C27.7654 106.786 27.7275 106.794 27.6929 106.811L27.0329 107.197C27.0219 107.203 27.0127 107.212 27.0064 107.223C27 107.234 26.9966 107.247 26.9966 107.259C26.9966 107.272 27 107.285 27.0064 107.296C27.0127 107.307 27.0219 107.316 27.0329 107.322H27.0289Z" fill="#2B303F"/>
<path d="M38.8559 114.146L40.3019 114.98C40.3374 114.997 40.3762 115.006 40.4154 115.006C40.4547 115.006 40.4934 114.997 40.5289 114.98L41.1889 114.594C41.2559 114.555 41.2659 114.494 41.1889 114.469L39.7429 113.626C39.7081 113.607 39.6691 113.597 39.6294 113.597C39.5897 113.597 39.5507 113.607 39.5159 113.626L38.8559 114.007C38.8029 114.055 38.7979 114.113 38.8559 114.146Z" fill="#2B303F"/>
<path d="M37.4049 114.387L38.0989 114.787C38.1335 114.804 38.1715 114.812 38.2099 114.812C38.2484 114.812 38.2863 114.804 38.3209 114.787L38.9809 114.401C39.0529 114.362 39.0579 114.301 38.9809 114.271L38.3059 113.895C38.2704 113.878 38.2317 113.869 38.1924 113.869C38.1532 113.869 38.1144 113.878 38.0789 113.895L37.4189 114.276C37.3469 114.32 37.3419 114.387 37.4049 114.387Z" fill="#2B303F"/>
<path d="M36.4179 113.844L37.1119 114.23C37.1463 114.245 37.1832 114.252 37.2204 114.252C37.2577 114.252 37.2946 114.245 37.3289 114.23L37.9989 113.844C38.0619 113.805 38.0659 113.744 37.9989 113.714L37.2989 113.314C37.265 113.295 37.2268 113.285 37.1879 113.285C37.1491 113.285 37.1108 113.295 37.0769 113.314L36.4119 113.695C36.3689 113.744 36.3599 113.809 36.4179 113.844Z" fill="#2B303F"/>
<path d="M35.4289 113.265L36.1289 113.665C36.2001 113.694 36.2798 113.694 36.3509 113.665L37.0159 113.275C37.0789 113.241 37.0929 113.183 37.0159 113.15L36.3219 112.779C36.288 112.76 36.2498 112.75 36.2109 112.75C36.172 112.75 36.1338 112.76 36.0999 112.779L35.4299 113.16C35.3809 113.183 35.3709 113.265 35.4289 113.265Z" fill="#2B303F"/>
<path d="M34.4459 112.705L35.1399 113.105C35.2111 113.134 35.2908 113.134 35.3619 113.105L36.0319 112.719C36.0949 112.68 36.1039 112.619 36.0319 112.589L35.3319 112.189C35.2608 112.16 35.1811 112.16 35.1099 112.189L34.4449 112.579C34.4339 112.585 34.4247 112.594 34.4184 112.605C34.412 112.616 34.4087 112.629 34.4087 112.642C34.4087 112.654 34.412 112.667 34.4184 112.678C34.4247 112.689 34.4339 112.698 34.4449 112.704L34.4459 112.705Z" fill="#2B303F"/>
<path d="M33.4579 112.137L34.1579 112.537C34.1934 112.554 34.2321 112.562 34.2714 112.562C34.3106 112.562 34.3494 112.554 34.3849 112.537L35.0449 112.151C35.1079 112.112 35.1169 112.051 35.0449 112.021L34.3449 111.607C34.3106 111.592 34.2737 111.585 34.2364 111.585C34.1991 111.585 34.1622 111.592 34.1279 111.607L33.4629 111.997C33.4099 112.045 33.4049 112.103 33.4579 112.137Z" fill="#2B303F"/>
<path d="M32.4749 111.568L33.1749 111.968C33.2095 111.985 33.2475 111.993 33.2859 111.993C33.3243 111.993 33.3623 111.985 33.3969 111.968L34.0569 111.582C34.1289 111.543 34.1339 111.482 34.0569 111.457L33.3629 111.043C33.3283 111.026 33.2903 111.018 33.2519 111.018C33.2134 111.018 33.1755 111.026 33.1409 111.043L32.4809 111.433C32.4219 111.475 32.4169 111.535 32.4749 111.568Z" fill="#2B303F"/>
<path d="M31.4939 111.001L32.1939 111.401C32.2277 111.418 32.2648 111.426 32.3024 111.426C32.34 111.426 32.3771 111.418 32.4109 111.401L33.0759 111.015C33.1429 110.976 33.1479 110.915 33.0759 110.89L32.3819 110.461C32.3464 110.444 32.3077 110.435 32.2684 110.435C32.2291 110.435 32.1904 110.444 32.1549 110.461L31.4949 110.851C31.4429 110.907 31.4329 110.955 31.4939 111.001Z" fill="#2B303F"/>
<path d="M30.5029 110.431L31.2029 110.831C31.2368 110.85 31.275 110.86 31.3139 110.86C31.3528 110.86 31.391 110.85 31.4249 110.831L32.0899 110.45C32.1529 110.411 32.1619 110.35 32.0899 110.325L31.4009 109.891C31.3663 109.874 31.3283 109.866 31.2899 109.866C31.2515 109.866 31.2135 109.874 31.1789 109.891L30.5139 110.277C30.4549 110.344 30.4449 110.397 30.5029 110.431Z" fill="#2B303F"/>
<path d="M29.5199 109.861L30.2139 110.261C30.2478 110.28 30.286 110.29 30.3249 110.29C30.3638 110.29 30.402 110.28 30.4359 110.261L31.1059 109.88C31.1689 109.841 31.1779 109.78 31.1059 109.755L30.4169 109.341C30.383 109.322 30.3448 109.312 30.3059 109.312C30.267 109.312 30.2288 109.322 30.1949 109.341L29.5299 109.722C29.4719 109.775 29.4619 109.828 29.5199 109.861Z" fill="#2B303F"/>
<path d="M28.5319 109.293L29.2319 109.693C29.2658 109.712 29.304 109.722 29.3429 109.722C29.3818 109.722 29.42 109.712 29.4539 109.693L30.1189 109.312C30.1819 109.273 30.1909 109.212 30.1189 109.182L29.4389 108.772C29.405 108.753 29.3668 108.743 29.3279 108.743C29.289 108.743 29.2508 108.753 29.2169 108.772L28.5519 109.153C28.4839 109.207 28.4789 109.26 28.5319 109.293Z" fill="#2B303F"/>
<path d="M27.5489 108.724L28.2429 109.124C28.2777 109.143 28.3167 109.153 28.3564 109.153C28.3961 109.153 28.4351 109.143 28.4699 109.124L29.1299 108.743C29.2019 108.704 29.2069 108.651 29.1299 108.613L28.4359 108.203C28.402 108.184 28.3638 108.174 28.3249 108.174C28.286 108.174 28.2478 108.184 28.2139 108.203L27.5539 108.584C27.5009 108.635 27.4719 108.691 27.5489 108.724Z" fill="#2B303F"/>
<path d="M25.3469 107.452L27.2749 108.552C27.3079 108.571 27.3453 108.581 27.3834 108.581C27.4215 108.581 27.4589 108.571 27.4919 108.552L28.1569 108.171C28.2239 108.132 28.2289 108.071 28.1569 108.041L26.2289 106.933C26.1577 106.904 26.078 106.904 26.0069 106.933L25.3419 107.323C25.3293 107.328 25.3184 107.336 25.3108 107.348C25.3031 107.359 25.299 107.372 25.299 107.386C25.299 107.399 25.3031 107.412 25.3108 107.423C25.3184 107.435 25.3293 107.443 25.3419 107.448L25.3469 107.452Z" fill="#2B303F"/>
<path d="M38.3849 114.98L39.3489 115.529C39.3835 115.546 39.4215 115.554 39.4599 115.554C39.4984 115.554 39.5363 115.546 39.5709 115.529L40.2359 115.143C40.2989 115.104 40.3079 115.051 40.2359 115.018L39.2719 114.469C39.2389 114.45 39.2015 114.44 39.1634 114.44C39.1253 114.44 39.0879 114.45 39.0549 114.469L38.3899 114.85C38.3776 114.856 38.3672 114.865 38.36 114.877C38.3527 114.888 38.3489 114.901 38.3489 114.915C38.3489 114.929 38.3527 114.942 38.36 114.953C38.3672 114.965 38.3776 114.974 38.3899 114.98H38.3849Z" fill="#2B303F"/>
<path d="M45.7039 112.938L29.8819 103.815V91.3763L30.0069 91.1013L30.1319 91.0343C30.2987 90.9396 30.4871 90.8899 30.6789 90.8899C30.8706 90.8899 31.0591 90.9396 31.2259 91.0343L45.6819 99.3762C45.8506 99.4732 45.9902 99.6142 46.0861 99.7842C46.1819 99.9532 46.2306 100.145 46.2269 100.34V112.008C46.1529 112.606 46.0419 112.746 45.7039 112.938Z" fill="#E5E5E5"/>
<path d="M44.2539 100.895L29.8819 91.7953V91.3763L30.0069 91.1013L30.1319 91.0343C30.2987 90.9396 30.4871 90.8899 30.6789 90.8899C30.8706 90.8899 31.0591 90.9396 31.2259 91.0343L45.6819 99.3762C45.8565 99.4792 45.9996 99.6272 46.0959 99.8052L44.2539 100.895Z" fill="#E5E5E5"/>
<path d="M30.2579 91.1153L45.4639 99.8822C45.5472 99.9312 45.6157 100.002 45.6624 100.087C45.709 100.172 45.732 100.267 45.7289 100.364V112.977L29.8819 103.814V91.2843C29.883 91.2211 29.908 91.1607 29.9517 91.1151C29.9955 91.0695 30.0548 91.0421 30.1179 91.0383C30.1705 91.0512 30.2188 91.0778 30.2579 91.1153V91.1153Z" fill="#DCEEFF"/>
<path d="M30.2579 91.1153L45.4639 99.8822C45.5472 99.9312 45.6157 100.002 45.6624 100.087C45.709 100.172 45.732 100.267 45.7289 100.364V112.977L29.8819 103.814V91.2843C29.883 91.2211 29.908 91.1607 29.9517 91.1151C29.9955 91.0695 30.0548 91.0421 30.1179 91.0383C30.1705 91.0512 30.2188 91.0778 30.2579 91.1153V91.1153Z" fill="#F4F4F4"/>
<path d="M45.7049 112.943V112.495L29.8919 103.362V103.815L45.7049 112.943Z" fill="#DBDBDB"/>
<path d="M30.4939 91.8623V103.062L45.1939 111.525V100.349L30.4939 91.8623Z" fill="#1E212D"/>
<path d="M4.25189 101.847C4.11689 103.023 2.71489 108.112 3.01789 109.818C3.32089 111.524 8.10289 114.454 8.10289 114.454L8.76289 111.509L6.11189 108.892L6.82989 104.005L4.25189 101.847Z" fill="#FFCEA9"/>
<path d="M7.95288 96.8593C7.48942 96.6466 6.96425 96.6106 6.47608 96.7579C5.9879 96.9052 5.57035 97.2257 5.30188 97.6593C4.55752 99.5322 4.0535 101.491 3.80188 103.491C4.07955 103.874 4.45081 104.18 4.88024 104.379C5.30966 104.578 5.78293 104.664 6.25488 104.628L7.95288 96.8593Z" fill="#EDEDED"/>
<path d="M13.4139 153.32C14.4551 153.605 15.5669 153.468 16.5079 152.939C17.2549 152.939 21.3269 151.233 21.8579 152.688C22.3399 153.96 20.5859 155.141 19.6509 155.368C17.6029 155.85 16.0939 156.886 15.2699 157.06C14.9561 157.168 14.6212 157.2 14.2928 157.153C13.9643 157.106 13.6518 156.982 13.3809 156.79C12.7919 156.21 12.8449 154.081 13.4139 153.32Z" fill="#2F2E41"/>
<path d="M15.2689 156.703C16.0929 156.534 17.6019 155.513 19.6499 155.016C20.4359 154.823 21.7849 153.965 21.9199 152.939C22.1029 154.12 20.5199 155.161 19.6499 155.349C17.6019 155.831 16.0929 156.867 15.2689 157.036C14.9558 157.146 14.6208 157.18 14.2921 157.133C13.9635 157.087 13.6506 156.963 13.3799 156.771C13.252 156.635 13.1593 156.469 13.1099 156.289C13.4129 156.521 13.7658 156.679 14.1405 156.751C14.5153 156.823 14.9016 156.806 15.2689 156.703V156.703Z" fill="#D6D8E5"/>
<path d="M6.86888 150.374C7.91164 150.659 9.02442 150.524 9.96889 149.998C10.7109 150.022 14.7599 148.287 15.3089 149.743C15.7909 151.015 14.0369 152.196 13.1019 152.427C11.0629 152.909 9.54489 153.94 8.72589 154.114C8.4115 154.223 8.0756 154.256 7.74616 154.209C7.41671 154.162 7.10326 154.037 6.83189 153.844C6.22589 153.266 6.26688 151.131 6.86888 150.374Z" fill="#2F2E41"/>
<path d="M8.7049 153.753C9.5239 153.584 11.0379 152.563 13.0809 152.066C13.8669 151.878 15.2209 151.015 15.3559 149.994C15.5389 151.17 13.9559 152.211 13.0809 152.447C11.0379 152.929 9.5239 153.96 8.7049 154.134C8.39052 154.243 8.05462 154.276 7.72517 154.229C7.39573 154.182 7.08227 154.057 6.8109 153.864C6.68617 153.726 6.59541 153.561 6.5459 153.382C6.85241 153.607 7.207 153.758 7.58168 153.822C7.95637 153.886 8.34089 153.863 8.7049 153.753V153.753Z" fill="#D6D8E5"/>
<path d="M6.77188 139.371C6.94711 137.873 7.26181 136.395 7.71188 134.956C7.71188 134.956 7.43188 131.129 7.29788 127.5C7.13388 123.384 5.70788 119.76 6.81588 116.473L19.5159 119.302C19.5159 119.302 18.7549 135.712 18.5809 137.702C18.4851 139.25 18.2951 140.79 18.0119 142.314C17.4339 145.495 16.4889 153.076 16.4889 153.076C15.5216 153.54 14.4256 153.662 13.3799 153.423C13.3799 153.423 13.4799 143.837 13.5679 141.543C13.6679 138.743 13.7559 138.955 13.7559 138.955L13.3459 131.962L13.0709 128.487C13.0709 128.487 12.7189 131.041 12.4929 133.306C12.2929 135.292 11.8089 137.089 11.2739 140.781C10.8159 143.991 10.0589 150.42 10.0589 150.42C9.05728 150.866 7.92374 150.914 6.88788 150.555C6.88788 150.555 6.40988 142.152 6.77188 139.371Z" fill="#2F2E41"/>
<path d="M8.6279 96.9273C9.5919 96.9753 10.3149 97.2273 10.4279 96.9273C10.5355 96.4298 10.6097 95.9257 10.6499 95.4183C10.5439 95.1383 10.4429 94.8353 10.4429 94.8353C9.2279 94.0883 8.8429 92.7773 8.6889 91.2443C8.4139 88.6323 9.8259 86.3383 12.4429 86.0733C14.8959 85.8183 16.7029 87.5433 17.1849 89.9293C17.7 91.6549 17.7267 93.4895 17.2619 95.2293C16.8719 96.3093 16.3699 97.1573 15.8619 97.3293C15.3698 97.3149 14.8789 97.2715 14.3919 97.1993V97.1993L14.1699 98.3893C14.0829 98.8713 14.1169 99.1022 15.0419 99.6712C15.9669 100.24 13.6419 101.416 12.0969 101.305C11.3677 101.27 10.6559 101.07 10.0151 100.72C9.37425 100.371 8.821 99.8802 8.3969 99.2862C7.9139 98.1893 7.9579 96.8983 8.6279 96.9273Z" fill="#FFCEA9"/>
<path d="M10.0249 97.0713C9.7549 97.7413 10.4349 98.5413 12.2559 99.1292C14.0769 99.7172 14.2179 98.9653 14.2179 98.9653C15.4282 99.5052 16.6076 100.112 17.7509 100.782C18.8399 101.548 19.3269 103.727 19.4719 107.476C19.6409 111.785 19.6549 118.176 19.5109 119.284C18.2604 120.475 16.5915 121.126 14.8649 121.096C12.2529 120.879 7.8719 118.575 6.8069 116.796C6.8359 113.018 7.2889 112.381 6.6719 110.222C5.2649 105.239 4.5319 103.2 5.1969 99.8892C5.7559 97.1563 6.5419 96.8193 7.6069 96.8483C8.41681 96.8761 9.22446 96.9502 10.0259 97.0703L10.0249 97.0713Z" fill="#F4F4F4"/>
<path d="M23.5829 111.046C21.4429 111.586 20.9469 110.231 20.6379 109.118C19.9629 106.409 19.5969 103.966 19.0859 102.429C18.4929 100.622 17.8619 100.329 16.9799 99.9762C15.9489 99.5662 15.0519 100.458 15.4039 102.742C15.825 105.41 16.4764 108.037 17.3509 110.593C17.6674 111.747 18.2728 112.802 19.1099 113.658C20.2099 114.55 21.8759 114.511 24.4099 113.885C25.8846 113.384 27.316 112.763 28.6899 112.029C29.2349 111.774 29.6539 111.61 30.7049 111.123C31.7559 110.65 32.6767 109.929 33.3889 109.023C33.9339 108.223 34.0059 107.857 33.8709 107.674C33.7359 107.491 33.4809 107.501 33.1909 107.833C32.769 108.403 32.2484 108.893 31.6539 109.279C31.6539 109.279 32.3239 108.579 32.6949 108.127C33.0186 107.722 33.2875 107.277 33.4949 106.802C33.6879 106.32 33.2949 105.713 33.0129 106.041C32.7309 106.369 32.5599 106.711 32.0489 107.371C31.7673 107.73 31.4436 108.053 31.0849 108.335C31.4283 107.868 31.7346 107.375 32.0009 106.86C32.2383 106.458 32.354 105.996 32.3339 105.53C32.3339 105.294 31.9769 105 31.6539 105.463C31.3411 106.093 30.9544 106.684 30.5019 107.222C30.0199 107.704 29.6019 108.022 29.5859 107.877C29.5699 107.732 29.8859 107.453 30.0679 106.865C30.2499 106.277 30.0679 105.65 29.7449 105.588C29.4219 105.526 29.4799 105.53 29.2149 106.07C28.86 106.641 28.5381 107.231 28.2509 107.839C28.0687 108.396 27.7544 108.9 27.3349 109.309C26.2603 110.21 24.9654 110.81 23.5829 111.046V111.046Z" fill="#FFCEA9"/>
<path d="M16.1899 99.6062C17.6359 99.3942 18.6429 100.035 19.2599 102.199C19.8769 104.363 20.3299 106.127 20.3299 106.127C19.762 106.948 18.8982 107.516 17.9199 107.713C16.2089 108.132 15.5919 107.313 15.5919 107.313C15.5919 107.313 15.1099 105.048 14.8209 103.501C14.5319 101.954 14.4589 99.8662 16.1899 99.6062Z" fill="#EDEDED"/>
<path d="M17.1059 89.5773C17.1059 89.5773 19.3619 86.1463 14.4699 85.4423C10.9419 84.9603 8.6869 87.2113 8.4119 89.6693C8.36718 90.7325 8.54312 91.7934 8.92864 92.7853C9.31416 93.7771 9.9009 94.6784 10.6519 95.4323C11.6796 95.693 12.7676 95.5607 13.7029 95.0613C13.7616 94.4204 13.784 93.7767 13.7699 93.1333C13.7699 93.1333 12.0499 89.5143 17.1059 89.5773Z" fill="#2F2E41"/>
<defs>
<linearGradient id="paint0_linear_0_780" x1="94.6677" y1="54.8684" x2="133.982" y2="65.1124" gradientUnits="userSpaceOnUse">
<stop stop-color="#E9EAF4"/>
<stop offset="0.04" stop-color="#DEDFE9"/>
<stop offset="0.1" stop-color="#D7D8E2"/>
<stop offset="0.27" stop-color="#D5D6E0"/>
</linearGradient>
<linearGradient id="paint1_linear_0_780" x1="113.519" y1="65.8806" x2="152.804" y2="76.1432" gradientUnits="userSpaceOnUse">
<stop stop-color="#E9EAF4"/>
<stop offset="0.04" stop-color="#DEDFE9"/>
<stop offset="0.1" stop-color="#D7D8E2"/>
<stop offset="0.27" stop-color="#D5D6E0"/>
</linearGradient>
<linearGradient id="paint2_linear_0_780" x1="133.245" y1="77.2794" x2="172.557" y2="87.5277" gradientUnits="userSpaceOnUse">
<stop stop-color="#E9EAF4"/>
<stop offset="0.04" stop-color="#DEDFE9"/>
<stop offset="0.1" stop-color="#D7D8E2"/>
<stop offset="0.27" stop-color="#D5D6E0"/>
</linearGradient>
</defs>
</svg>
