<svg xmlns="http://www.w3.org/2000/svg" width="137" height="27" viewBox="0 0 137 27"><g><g><g><path fill="#49b546" d="M29.263 4.054c-.018 1.401-.582 2.584-1.546 3.566-1.091 1.091-2.456 1.764-3.838 2.38-1.2.53-2.474.876-3.747 1.185-1.383.346-2.838.382-4.257.546-.473.054-.455-.273-.364-.6.328-.983.71-1.929 1.164-2.856 1.256-2.729 2.893-5.166 5.421-6.913C23.424.435 24.898.071 26.498.471c1.728.418 2.765 1.819 2.765 3.583z"/></g><g><path fill="#e54d42" d="M5.094 24.219c-1.564.072-2.728-.528-3.474-1.856-.91-1.6-.564-3.128.38-4.547 1.075-1.583 2.621-2.602 4.313-3.402 2.22-1.037 4.566-1.655 6.967-2.074.109-.018.218-.036.327-.036.782-.073.928.127.71.873-.455 1.6-1.092 3.11-1.765 4.62-.764 1.71-1.892 3.203-3.147 4.53-1.255 1.364-2.62 1.892-4.31 1.892z"/></g><g><path fill="#e27c32" d="M13.28 11.527c-1.691-.237-3.4-.291-5.093-.655-1.546-.346-3.056-.872-4.474-1.637C2.275 8.507 1.075 7.488.475 6-.635 3.104 1.42.394 4.477.612c1.523.11 2.91.783 4.056 1.783a18.218 18.218 0 0 1 3.93 4.82 38.262 38.262 0 0 1 1.673 3.347c.382.855.309.965-.6.965z"/></g><g><path fill="#175ba6" d="M32.163 23.318c.127 2.255-2.347 3.947-4.657 3.528C25.632 26.501 24.232 25.391 23 24c-2.079-2.283-3.389-5-4.39-7.94-.145-.437-.145-.728.39-.674 3.904.419 7.67 1.183 10.853 3.614 1.346 1 2.292 2.317 2.31 4.318z"/></g><g><path fill="#0a5191" d="M108.723 14.783c-.2.873-.8 1.528-1.528 1.637a2.23 2.23 0 0 1-2.31-1.073 4.205 4.205 0 0 1-.036-4.02c.327-.637.91-.946 1.637-.946.782.018 1.514.2 1.91.946.382.673.436 1.419.436 2.237.018.436-.018.819-.109 1.219zm-7.112 5.093c.036 1.383.8 2.074 2.11 2.056.545 0 .71-.219.71-.728a70.97 70.97 0 0 1 0-2.783c0-.164-.074-.421.108-.473.182-.073.291.146.461.237 1.486 1.127 3.887.89 5.124-.528 1.782-2.02 2.019-5.439.527-7.657-1.091-1.675-3.001-2.348-5.111-2-2.292.435-3.438 2.272-3.73 3.818-.309 1.637-.217 3.292-.217 4.948 0 1.036-.019 2.073.018 3.11z"/></g><g><path fill="#0a5191" d="M84.061 18.909c-.637-.054-1.473-.09-2.274-.418-1.237-.491-1.891-1.856-1.528-3.147.128-.419.346-.164.528-.037a5.447 5.447 0 0 0 3.565 1.11 5.24 5.24 0 0 0 1.019-.164c.746-.2 1.128-.71 1.128-1.455 0-.746-.2-1.055-1.055-1.328-.819-.255-1.656-.47-2.444-.673-1.904-.51-3-1.637-3.086-3.092C79.84 8 80.86 6.339 82.46 5.63c1.656-.63 3.347-.746 5.02-.055C88.683 6 89.319 7.358 89 8.595c-.1.291-.227.273-.428.11-1.291-1.165-2.837-1.22-4.438-.965-.418.055-.782.26-1.055.582-.6.678-.437 1.528.382 1.91.636.31 1.328.51 2.019.637a7.11 7.11 0 0 1 2.074.71c1.6.909 2.2 2.692 1.564 4.421-.764 2.145-2.474 2.745-4.475 2.909h-.582z"/></g><g><path fill="#0a5191" d="M72.307 12.396a84.92 84.92 0 0 1 1.437-1.783c.256-.309.564-.613.8-.928C75.472 8.34 76.782 8 78.328 8.14c.2.018.491-.139.564.164.108.218-.164.382-.31.527-1.164 1.17-2.219 2.401-3.292 3.639-.364.4-.364.69 0 1.09.91 1.02 1.71 2.166 2.765 3.039.236.218.51.402.819.51.509.163.49.436.272.818-.527.89-1.855 1.074-2.928.345-.782-.527-1.31-1.271-1.892-2-.637-.747-1.219-1.547-1.837-2.33-.255.237-.164.492-.164.71a102.75 102.75 0 0 0 0 3.349c0 .453-.146.635-.6.653-1.365.055-1.947-.4-2.129-1.746-.018-.218-.036-.437-.036-.637V5.63c0-.928.036-.964.928-.946 1.237.018 1.819.6 1.819 1.837v5.04z"/></g><g><path fill="#0a5191" d="M63 12.586c-.41 0-.665 0-.884-.018-.764 0-.91-.218-.655-.946.4-1.219 2.11-1.819 3.202-1.11.418.255.637.71.6 1.201-.036.528-.473.619-.855.746-.51.164-1.037.11-1.408.127zm-1.248 2.965c-.181-.2-.418-.455-.327-.727.11-.328.491-.182.746-.182 1.419 0 2.829-.055 4.202-.51a1.961 1.961 0 0 0 1.419-1.746c.208-1.31-.328-2.62-1.346-3.456-1.765-1.528-4.694-1.328-6.367.31-1.237 1.2-1.619 2.76-1.619 4.347 0 1.837.691 3.413 2.31 4.413 1.492 1 3.11 1.098 4.766.662 1.383-.364 1.946-1.182 1.928-2.456 0-.527-.163-.636-.6-.345-.8.545-1.71.636-2.638.69-.964.037-1.819-.217-2.474-1z"/></g><g><path fill="#0a5191" d="M117.384 12.561c-.384 0-.691.018-.982 0-.691-.018-.819-.218-.582-.891.527-1.455 1.691-1.619 2.874-1.346.455.127.8.49.891.946.146.545 0 .927-.585 1.127-.543.2-1.125.146-1.616.164zM116 15.344c-.107-.163-.271-.344-.162-.582.11-.2.346-.127.527-.127a20.812 20.812 0 0 0 3.53-.237c1.418-.218 2.237-.945 2.31-2.182a4.069 4.069 0 0 0-.455-2.11c-1.31-2.565-4.893-2.802-6.876-1.183-2.056 1.655-2.656 4.966-1.4 7.276 1.254 2.31 4.02 3.293 6.693 2.401 1.183-.382 1.71-1.127 1.692-2.364-.018-.455-.11-.692-.6-.364-.764.51-1.656.673-2.947.691-.928.037-1.801-.437-2.312-1.219z"/></g><g><path fill="#0a5191" d="M95 12.566c-.265 0-.538.018-.83-.036-.672 0-.818-.219-.636-.874.328-1.2 2.092-1.892 3.165-1.237a1.3 1.3 0 0 1 .655 1.31c-.054.582-.564.673-1 .746a8.42 8.42 0 0 1-1.354.109zm-.884 3.201c-.273-.254-.582-.582-.49-.927.108-.382.563-.2.854-.2 1.383-.037 2.747-.055 4.075-.51.746-.255 1.237-.746 1.382-1.546.4-2.292-1.382-4.584-3.71-4.675-1.965-.09-3.675.491-4.694 2.256-1.146 1.982-1.346 4.11-.182 6.148 1.346 2.365 4.275 3.238 6.804 2.22 1.055-.419 1.527-1.238 1.418-2.402-.036-.436-.182-.473-.573-.255-.755.51-1.664.692-2.737.674-.819.054-1.601-.219-2.147-.783z"/></g><g><path fill="#0a5191" d="M31.43 12c.018-3 1.473-5.365 4.093-6.365 1.71-.635 3.477-.8 5.184.09.982.51 1.62 2.001 1.293 3.002-.11.437-.329.145-.492 0-.983-.892-2.183-1.2-3.457-1.11C35.214 7.8 34 10 34.25 12.62c.072.91.436 1.764 1.018 2.474 1.11 1.291 2.583 1.346 4.093 1.127a4.226 4.226 0 0 0 2-.818c.128-.11.256-.273.456-.146.183.11.127.31.183.473 0 1.364-.529 2.22-1.857 2.692-3.802 1.347-8.622-1.018-8.695-6.02-.018-.128-.018-.274-.018-.402z"/></g><g><path fill="#0a5191" d="M57.45 10.71v.42c0 .145.072.327-.092.418-.2.127-.29-.091-.418-.2-1.637-1.348-4.22-.928-4.94.836-.844 1.947.429 4.275 2.612 4.13.836-.055 1.619-.182 2.292-.692.345-.273.473-.145.527.255.182 1.564-.655 2.692-2.219 2.929-2.82.436-5.475-1.183-6.148-3.73-.764-2.892.673-5.711 3.456-6.712 1-.364 2.092-.436 3.11-.164 1.02.292 2.038 1.31 1.82 2.51z"/></g><g><path fill="#0a5191" d="M123.926 11.782v-3.22c0-1.019.455-1.82 1.237-2.437.237-.182.528-.292.837-.31.455-.036.71.11.673.6v.128c.036 1.6.036 1.6 1.619 1.6h1.492c.216 0 .4.019.454.255.219 1-.145 2.092-1.31 2.11a24.18 24.18 0 0 1-1.618 0c-.419-.018-.637.146-.637.6.018 1.22-.018 2.456.018 3.675.037 1.037.564 1.492 1.62 1.51.472 0 .945.018 1.4-.182.4-.182.545-.054.582.364.11 1.2-.437 2.02-1.637 2.237A4.735 4.735 0 0 1 126 18.44c-1.528-.6-1.946-1.91-2-3.383-.128-1.056-.074-2.183-.074-3.274z"/></g><g><path fill="#0a5191" d="M43.453 12.323c0-1.11.018-2.237 0-3.323 0-.533.236-.697.71-.679 1.4.055 2.018.679 2.037 2.092.018 1.587 0 3.093 0 4.639 0 1.055.272 1.364 1.327 1.364.564 0 .746.255.728.782-.018 1.037-.437 1.492-1.473 1.565-1.928.127-3.238-1.074-3.33-3.093-.036-1.11.019-2.237 0-3.347z"/></g><g><path fill="#0a5191" d="M134.557 12.71c0 .874-.018 1.765 0 2.638.018.652.346 1 1.037 1.074.406.054.964-.182 1.019.578.054.822-.291 1.532-.964 1.66-1.747.34-3.649-.292-3.802-2.602-.146-2.401-.036-4.82-.055-7.222 0-.364.208-.473.528-.473 1.546-.054 2.22.564 2.22 2.129 0 .745 0 1.508.017 2.219z"/></g><g><path fill="#0a5191" d="M133.19 7.547c-.874 0-1.601-.71-1.62-1.6-.018-.874.71-1.565 1.638-1.547a1.58 1.58 0 0 1 1.546 1.6c-.019.838-.754 1.529-1.565 1.547z"/></g><g><path fill="#0a5191" d="M44.876 4.41A1.615 1.615 0 0 1 46.422 6c0 .866-.71 1.557-1.583 1.557h-.036c-.91-.018-1.491-.619-1.491-1.557a1.52 1.52 0 0 1 1.418-1.59h.146z"/></g><g><path fill="#0a5191" d="M37.25 19.78a1.41 1.41 0 0 1 1.438 1.365v.054c-.037.801-.688 1.4-1.474 1.364a1.428 1.428 0 0 1-1.364-1.382 1.464 1.464 0 0 1 1.4-1.4z"/></g><g><path fill="#0a5191" d="M52.37 21.186c0-.764.63-1.328 1.419-1.346.564 0 1.211.673 1.211 1.292 0 .727-.574 1.327-1.302 1.327-.698 0-1.328-.545-1.328-1.273z"/></g></g></g></svg>