<svg xmlns="http://www.w3.org/2000/svg" width="221" height="33" viewBox="0 0 221 33"><g><g><g><g><path fill="#fff" d="M55.555 12.513C55.476 12 55.283 11.429 55 11a4.7 4.7 0 0 0-1.113-1.29 5.145 5.145 0 0 0-3.243-1.134 5.763 5.763 0 0 0-2.835.648C47 9.64 46.4 10.235 45.921 11a7.001 7.001 0 0 0-1.056 2.43c-.22.94-.329 1.901-.324 2.867-.004.927.104 1.852.324 2.753a7.45 7.45 0 0 0 1.056 2.41 5.404 5.404 0 0 0 1.888 1.717c.875.455 1.85.678 2.835.648 1.512 0 2.692-.462 3.541-1.386a6.408 6.408 0 0 0 1.558-3.654h4.788a11.42 11.42 0 0 1-.971 3.81 9.133 9.133 0 0 1-2.077 2.895 8.845 8.845 0 0 1-3.023 1.828c-1.225.429-2.517.682-3.816.622C49.05 28 47.468 27.66 46 27a9.32 9.32 0 0 1-3.48-2.43 10.936 10.936 0 0 1-2.175-3.7 13.57 13.57 0 0 1-.754-4.593c-.015-1.59.24-3.17.754-4.675.475-1.378 1.213-2.602 2.174-3.748A9.921 9.921 0 0 1 46 5.334 11.78 11.78 0 0 1 54.153 5a8.537 8.537 0 0 1 2.96 1.513A8.75 8.75 0 0 1 59.272 9a9.55 9.55 0 0 1 1.07 3.51z"/></g><g><path fill="#fff" d="M67.392 19.312a9.189 9.189 0 0 0 .188 1.905 5.08 5.08 0 0 0 .647 1.668c.3.488.717.893 1.212 1.18a3.66 3.66 0 0 0 1.889.44c.672.022 1.32-.13 1.905-.44a3.399 3.399 0 0 0 1.227-1.18 4.92 4.92 0 0 0 .648-1.668 9.19 9.19 0 0 0 .188-1.905c.001-.645-.062-1.312-.188-1.921a4.827 4.827 0 0 0-.648-1.668 3.584 3.584 0 0 0-1.227-1.183 3.669 3.669 0 0 0-1.905-.457c-1.255-.083-2.444.565-3.1 1.636a4.908 4.908 0 0 0-.648 1.669 9.616 9.616 0 0 0-.188 1.92m-4.471.004a9.994 9.994 0 0 1 .6-3.544 7.451 7.451 0 0 1 4.344-4.441 9.405 9.405 0 0 1 3.463-.616 9.418 9.418 0 0 1 3.48.616 7.412 7.412 0 0 1 4.36 4.441 9.994 9.994 0 0 1 .599 3.544 9.859 9.859 0 0 1-.6 3.528 7.655 7.655 0 0 1-1.7 2.692 7.416 7.416 0 0 1-2.66 1.717 9.651 9.651 0 0 1-3.48.6 9.619 9.619 0 0 1-3.462-.6c-.994-.377-1.865-.963-2.644-1.717a7.648 7.648 0 0 1-1.7-2.692 9.864 9.864 0 0 1-.6-3.528"/></g><g><path fill="#fff" d="M82.67 11.155h4.25v2.268H87a5.244 5.244 0 0 1 2.217-2.06A6.295 6.295 0 0 1 92 10.713c1-.033 2 .133 2.932.49.712.284 1.337.796 1.81 1.354.464.625.781 1.345.93 2.109.187.905.277 1.828.27 2.753v10.014H93.47v-9.19c0-1.344-.21-2.346-.629-3.007-.419-.661-1.164-.992-2.235-.992-1.218 0-2.1.362-2.607 1.086-.586.723-.86 1.911-.86 3.563v8.533h-4.47V11.155z"/></g><g><path fill="#fff" d="M101.35 11.155h4.25v2.268h.094a5.283 5.283 0 0 1 2.203-2.06 6.372 6.372 0 0 1 2.77-.649 7.59 7.59 0 0 1 2.945.49c.712.284 1.337.796 1.81 1.354.463.625.781 1.345.93 2.109.187.905.277 1.828.27 2.753v10.014h-4.471v-9.191c0-1.343-.21-2.345-.629-3.006-.419-.661-1.164-.992-2.235-.992-1.218 0-2.1.362-2.647 1.086-.546.723-.82 1.911-.82 3.563v8.533h-4.47z"/></g><g><path fill="#fff" d="M123.705 17.539c.03-.364.098-.724.204-1.073.091-.413.327-.799.599-1.134.309-.332.696-.683 1.134-.897a3.888 3.888 0 0 1 1.778-.363c1.091 0 1.904.294 2.44.928.605.697.992 1.594 1.14 2.545zm0 2.844h11.74a11.508 11.508 0 0 0-.324-3.622 8.863 8.863 0 0 0-1.432-3.087c-.689-.907-1.533-1.674-2.533-2.158-1.156-.516-2.362-.825-3.613-.794a8.423 8.423 0 0 0-3.385.648 7.872 7.872 0 0 0-4.328 4.536 9.52 9.52 0 0 0-.6 3.401 9.908 9.908 0 0 0 .584 3.463 7.863 7.863 0 0 0 1.652 2.709 7.199 7.199 0 0 0 2.614 1.746 9.3 9.3 0 0 0 3.463.615 8.523 8.523 0 0 0 4.724-1.26c1.302-.849 2.267-2.245 2.896-4.189h-3.936A2.704 2.704 0 0 1 130 23.823c-.656.463-1.47.7-2.298.677-1.259.003-2.224-.321-2.896-.971-.671-.65-1.038-1.699-1.101-3.146z"/></g><g><path fill="#fff" d="M149.175 16.894c-.293-1.894-1.396-2.802-3.307-2.802a3.14 3.14 0 0 0-1.795.489 3.888 3.888 0 0 0-1.183 1.26 5.43 5.43 0 0 0-.647 1.7 9.24 9.24 0 0 0-.188 1.844c.001.615.064 1.205.188 1.795a5.56 5.56 0 0 0 .615 1.652c.28.49.675.906 1.142 1.168.536.372 1.15.536 1.77.517 1.08 0 1.904-.3 2.472-.898.61-.619.99-1.512 1.086-2.41h4.315c-.294 2.16-1.133 3.791-2.517 4.944-1.385 1.136-3.126 1.703-5.323 1.7a8.915 8.915 0 0 1-3.353-.615 7.45 7.45 0 0 1-2.592-1.717 7.807 7.807 0 0 1-1.668-2.63 9.123 9.123 0 0 1-.6-3.354 11.11 11.11 0 0 1 .551-3.537c.341-1 .859-2 1.62-2.777a7.428 7.428 0 0 1 2.614-1.843 8.876 8.876 0 0 1 3.528-.648c.942-.003 1.88.125 2.786.38.861.236 1.672.625 2.394 1.15a5.941 5.941 0 0 1 2.472 4.645z"/></g><g><path fill="#fff" d="M161.832 11.159h3.275v2.99h-3.275v8.06c0 .791.168 1.26.379 1.513.253.278.789.379 1.51.379.279 0 .493-.01.722-.032.217-.069.434-.069.648-.069v3.438c-.417.067-.838.11-1.26.126-.462.022-.914.033-1.354.033a13.038 13.038 0 0 1-1.967-.143 4.646 4.646 0 0 1-1.636-.55 2.84 2.84 0 0 1-1.118-1.167 4.16 4.16 0 0 1-.408-1.983v-9.602h-2.708v-2.99h2.708V6.28h4.471v4.879z"/></g><g><path fill="#fff" d="M30.277 5.408L26.318 1.45a4.947 4.947 0 0 0-6.997 0l-7.824 7.827a4.953 4.953 0 0 0 0 6.997l3.959 3.959a4.953 4.953 0 0 0 6.997 0l2.07-2.07-2.219-2.258L20.234 18a1.807 1.807 0 0 1-2.481 0l-3.998-4a1.748 1.748 0 0 1 0-2.475L21.582 3.7a1.753 1.753 0 0 1 2.481 0L28 7.66a1.704 1.704 0 0 1 0 2.482l-2 2.03 2.259 2.268 2.03-2.03a4.947 4.947 0 0 0 0-6.998"/></g><g opacity=".6"><g opacity=".6"><path fill="#fff" d="M170 6.778h7.331c1.49 0 2.669.378 3.669 1.134.877.756 1.34 1.91 1.34 3.463-.01 1.548-.476 2.7-1.4 3.457-.94.755-2.132 1.168-3.622 1.168H170zM167.823 5v22.434H170v-9.635h7.804a8.342 8.342 0 0 0 2.74-.424c.786-.264 1.456-.694 2.11-1.26A5.448 5.448 0 0 0 184 14.082a7.91 7.91 0 0 0 0-5.416 5.457 5.457 0 0 0-1.346-2.032c-.654-.566-1.324-.996-2.11-1.26a7.18 7.18 0 0 0-2.74-.375z"/></g><g opacity=".6"><path fill="#fff" d="M187.27 11.183h1.827V15h.062a6.223 6.223 0 0 1 2.345-3.062c1.125-.728 2.496-1.07 3.794-.938v1.949c-.835-.052-1.672.051-2.456.363a5.513 5.513 0 0 0-3.149 3.087c-.3.757-.45 1.601-.44 2.378v8.66h-1.983z"/></g><g opacity=".6"><path fill="#fff" d="M203.496 12.386A4.928 4.928 0 0 0 201 13c-.693.374-1.3.911-1.77 1.56a7.335 7.335 0 0 0-1.07 2.219 9.071 9.071 0 0 0 0 5.07 7.147 7.147 0 0 0 1.07 2.22 5.522 5.522 0 0 0 1.77 1.574 5.518 5.518 0 0 0 5 0 5.576 5.576 0 0 0 1.763-1.575 7.146 7.146 0 0 0 1.072-2.219 9.071 9.071 0 0 0 0-5.07 7.336 7.336 0 0 0-1.072-2.22A5.354 5.354 0 0 0 206 13a4.977 4.977 0 0 0-2.504-.614m-.003-1.675a7.451 7.451 0 0 1 3.291.7 7.173 7.173 0 0 1 2.41 1.856A8.03 8.03 0 0 1 210.676 16a11.178 11.178 0 0 1 0 6.636 8.04 8.04 0 0 1-1.48 2.725 6.997 6.997 0 0 1-2.41 1.843c-2.1.903-4.48.903-6.58 0a6.998 6.998 0 0 1-2.41-1.843 8.035 8.035 0 0 1-1.48-2.725 11.172 11.172 0 0 1 0-6.636c.311-1 .814-1.93 1.48-2.733a7.165 7.165 0 0 1 2.41-1.856 7.47 7.47 0 0 1 3.291-.693"/></g><g opacity=".6"><path fill="#fff" d="M220.403 12.86h-3.21V27.44h-1.983V12.861h-2.77v-1.669h2.77v-1.48c-.004-.644.05-1.287.159-1.921A3.385 3.385 0 0 1 216 6.28a2.61 2.61 0 0 1 1.18-.972A4.258 4.258 0 0 1 219.145 5H220c.218 0 .502 0 .818.09v1.7l-.755-.11a5.083 5.083 0 0 0-.694-.049 2.572 2.572 0 0 0-1.26.253c-.28.116-.507.39-.648.677a2.591 2.591 0 0 0-.236.991c-.022.378-.033.787-.033 1.228v1.416h3.21v1.668z"/></g><g opacity=".6"><path fill="#fff" d="M28.343 16l-3.959-3.92a4.947 4.947 0 0 0-6.997 0l-2.031 2.03 2.267 2.269 2.032-2.032a1.756 1.756 0 0 1 2.481 0l3.959 3.96a1.756 1.756 0 0 1 0 2.48l-7.824 7.824a1.798 1.798 0 0 1-2.481 0l-3.959-3.958a1.74 1.74 0 0 1-.094-2.365l.784-.807 1.341-1.341-2.268-2.268-2.03 2.031L0 29.412a3.473 3.473 0 0 0 4.86-.098l3.712-3.81c.24.496.57.993.972 1.4l3.978 3.946A4.935 4.935 0 0 0 17 32.3a4.96 4.96 0 0 0 3.52-1.45L28.343 23c1.923-1.906 1.923-5 0-7z"/></g></g></g></g></g></svg>