<svg xmlns="http://www.w3.org/2000/svg" xmlns:xlink="http://www.w3.org/1999/xlink" width="394.477" height="463" viewBox="0 0 394.477 463"><defs><style>.a{fill:url(#a);}.b{fill:url(#b);}.c{fill:url(#c);}.d{fill:#f95db3;}.d,.f{opacity:0.5;}.e{fill:url(#e);}.f{fill:url(#f);}.g{fill:url(#g);}.h{fill:url(#h);}.i{fill:url(#i);}.j{fill:url(#j);}.k{fill:url(#k);}.l{fill:url(#l);}.m{fill:#ff8dcc;}.n{fill:url(#m);}.o{fill:url(#n);}.p{fill:url(#o);}.q{fill:url(#p);}.r{fill:url(#q);}.s{fill:url(#r);}.t{fill:url(#s);}.u{fill:url(#t);}.v{fill:url(#z);}.w{fill:url(#aa);}.x{fill:url(#ab);}.y{fill:url(#ac);}.z{fill:url(#ae);}.aa{fill:url(#af);}.ab{fill:url(#ah);}.ac{fill:url(#ai);}.ad{fill:url(#ap);}.ae{fill:url(#as);}.af{fill:url(#at);}.ag{fill:url(#aw);}.ah{fill:url(#ax);}.ai{fill:url(#ba);}.aj{fill:url(#bg);}.ak{fill:url(#bh);}.al{fill:url(#bi);}.am{fill:url(#bl);}.an{fill:url(#bm);}.ao{fill:url(#bp);}.ap{fill:url(#bs);}.aq{fill:url(#bu);}.ar{fill:url(#bw);}.as{fill:url(#bx);}.at{fill:url(#bz);}.au{fill:url(#ca);}.av{fill:url(#cb);}.aw{fill:url(#cd);}.ax{fill:url(#ce);}.ay{fill:url(#cg);}.az{opacity:0.3;fill:url(#ch);}.ba{fill:url(#ci);}.bb{fill:url(#cq);}.bc{fill:url(#cs);}.bd{fill:url(#ct);}.be{fill:url(#cw);}.bf{fill:url(#cx);}.bg{fill:url(#cz);}.bh{fill:url(#da);}.bi{fill:url(#dg);}.bj{fill:url(#dh);}.bk{fill:url(#di);}.bl{fill:url(#dl);}.bm{fill:url(#dm);}.bn{fill:url(#dp);}.bo{fill:url(#dw);}.bp{fill:url(#dx);}.bq{fill:url(#ea);}.br{fill:url(#eb);}.bs{fill:url(#ee);}</style><linearGradient id="a" y1="0.5" x2="1" y2="0.5" gradientUnits="objectBoundingBox"><stop offset="0" stop-color="#f95db3"/><stop offset="0.856" stop-color="#f469b6"/><stop offset="1" stop-color="#f46cb7"/></linearGradient><linearGradient id="b" x1="-1.951" y1="2.256" x2="-1.075" y2="1.748" gradientUnits="objectBoundingBox"><stop offset="0" stop-color="#ff0c87"/><stop offset="1" stop-color="#ff0c87"/></linearGradient><linearGradient id="c" x1="1.139" y1="0.712" x2="-0.484" y2="0.174" gradientUnits="objectBoundingBox"><stop offset="0" stop-color="#ffc0e3"/><stop offset="0.102" stop-color="#f9b0d9"/><stop offset="0.721" stop-color="#da529f"/><stop offset="1" stop-color="#ce2e89"/></linearGradient><linearGradient id="e" x1="-1.022" y1="-0.061" x2="1.325" y2="0.598" gradientUnits="objectBoundingBox"><stop offset="0" stop-color="#ff0c87"/><stop offset="1" stop-color="#a0156e"/></linearGradient><linearGradient id="f" y1="0.5" x2="1" y2="0.5" gradientUnits="objectBoundingBox"><stop offset="0" stop-color="#ff8dcc"/><stop offset="1" stop-color="#f95db3"/></linearGradient><linearGradient id="g" x1="0" y1="0.5" x2="1" y2="0.5" xlink:href="#f"/><linearGradient id="h" x1="-0.587" y1="0.156" x2="1.64" y2="0.738" xlink:href="#e"/><linearGradient id="i" x1="0" y1="0.5" x2="1.001" y2="0.5" xlink:href="#f"/><linearGradient id="j" x1="0" y1="0.5" x2="1" y2="0.5" xlink:href="#f"/><linearGradient id="k" x1="0" y1="0.5" x2="1" y2="0.5" xlink:href="#f"/><linearGradient id="l" x1="-2.535" y1="2.256" x2="-1.659" y2="1.748" xlink:href="#b"/><linearGradient id="m" x1="-3.547" y1="2.838" x2="-2.67" y2="2.33" xlink:href="#b"/><linearGradient id="n" x1="-0.257" y1="0.462" x2="1.435" y2="0.714" gradientUnits="objectBoundingBox"><stop offset="0" stop-color="#f7d2e7"/><stop offset="1" stop-color="#f46cb7"/></linearGradient><linearGradient id="o" x1="-0.623" y1="-0.468" x2="1.144" y2="0.602" xlink:href="#e"/><linearGradient id="p" x1="-3.663" y1="2.838" x2="-2.786" y2="2.33" xlink:href="#b"/><linearGradient id="q" x1="-5.521" y1="3.878" x2="-4.645" y2="3.369" xlink:href="#b"/><linearGradient id="r" x1="-0.077" y1="1.215" x2="1.049" y2="0.169" xlink:href="#e"/><linearGradient id="s" x1="-0.144" y1="0.837" x2="1.199" y2="0.213" xlink:href="#n"/><linearGradient id="t" x1="-1.376" y1="2.822" x2="-0.499" y2="2.313" xlink:href="#b"/><linearGradient id="z" x1="0" y1="0.5" x2="1" y2="0.5" xlink:href="#f"/><linearGradient id="aa" x1="-1.96" y1="2.822" x2="-1.084" y2="2.313" gradientUnits="objectBoundingBox"><stop offset="0" stop-color="#bf1372"/><stop offset="1" stop-color="#ff0c87"/></linearGradient><linearGradient id="ab" x1="-2.749" y1="3.622" x2="-1.872" y2="3.114" xlink:href="#b"/><linearGradient id="ac" x1="-0.257" y1="0.462" x2="1.435" y2="0.714" xlink:href="#n"/><linearGradient id="ae" x1="-2.865" y1="3.622" x2="-1.988" y2="3.114" xlink:href="#b"/><linearGradient id="af" x1="-4.325" y1="5.054" x2="-3.449" y2="4.545" xlink:href="#b"/><linearGradient id="ah" x1="-0.144" y1="0.837" x2="1.199" y2="0.213" xlink:href="#n"/><linearGradient id="ai" x1="-2.591" y1="2.256" x2="-1.714" y2="1.748" xlink:href="#b"/><linearGradient id="ap" x1="0" y1="0.5" x2="1.001" y2="0.5" xlink:href="#f"/><linearGradient id="as" x1="-3.175" y1="2.256" x2="-2.299" y2="1.748" xlink:href="#aa"/><linearGradient id="at" x1="-4.434" y1="2.838" x2="-3.558" y2="2.33" xlink:href="#b"/><linearGradient id="aw" x1="-4.55" y1="2.838" x2="-3.674" y2="2.33" xlink:href="#aa"/><linearGradient id="ax" x1="-6.852" y1="3.878" x2="-5.975" y2="3.369" gradientUnits="objectBoundingBox"><stop offset="0" stop-color="#ff0c87"/><stop offset="1" stop-color="#bf1372"/></linearGradient><linearGradient id="ba" x1="-2.016" y1="2.822" x2="-1.139" y2="2.313" xlink:href="#b"/><linearGradient id="bg" x1="0" y1="0.5" x2="1" y2="0.5" xlink:href="#f"/><linearGradient id="bh" x1="-2.6" y1="2.822" x2="-1.724" y2="2.313" xlink:href="#aa"/><linearGradient id="bi" x1="-3.637" y1="3.622" x2="-2.76" y2="3.114" xlink:href="#b"/><linearGradient id="bl" x1="-3.753" y1="3.622" x2="-2.876" y2="3.114" xlink:href="#aa"/><linearGradient id="bm" x1="-5.656" y1="5.054" x2="-4.779" y2="4.545" xlink:href="#ax"/><linearGradient id="bp" x1="-1.866" y1="1.689" x2="-0.989" y2="1.181" xlink:href="#b"/><linearGradient id="bs" x1="-1.022" y1="-0.061" x2="1.325" y2="0.598" xlink:href="#e"/><linearGradient id="bu" x1="0" y1="0.5" x2="1" y2="0.5" xlink:href="#f"/><linearGradient id="bw" x1="-0.001" y1="0.5" x2="1" y2="0.5" xlink:href="#f"/><linearGradient id="bx" x1="0" y1="0.499" x2="1" y2="0.499" xlink:href="#f"/><linearGradient id="bz" x1="-2.45" y1="1.689" x2="-1.573" y2="1.181" xlink:href="#b"/><linearGradient id="ca" x1="-3.428" y1="2.051" x2="-2.552" y2="1.543" xlink:href="#b"/><linearGradient id="cb" x1="-0.257" y1="0.462" x2="1.435" y2="0.714" xlink:href="#n"/><linearGradient id="cd" x1="-3.544" y1="2.051" x2="-2.668" y2="1.543" xlink:href="#b"/><linearGradient id="ce" x1="-5.343" y1="2.698" x2="-4.467" y2="2.19" xlink:href="#b"/><linearGradient id="cg" x1="-0.144" y1="0.837" x2="1.199" y2="0.213" xlink:href="#n"/><linearGradient id="ch" y1="0.5" x2="1" y2="0.5" gradientUnits="objectBoundingBox"><stop offset="0" stop-color="#ffc0e3"/><stop offset="0.172" stop-color="#feb6de"/><stop offset="0.455" stop-color="#fc9dd2"/><stop offset="0.814" stop-color="#fa74be"/><stop offset="1" stop-color="#f95db3"/></linearGradient><linearGradient id="ci" x1="-2.768" y1="1.689" x2="-1.892" y2="1.181" xlink:href="#b"/><linearGradient id="cq" x1="0" y1="0.501" x2="1" y2="0.501" xlink:href="#f"/><linearGradient id="cs" x1="-3.352" y1="1.689" x2="-2.476" y2="1.181" xlink:href="#aa"/><linearGradient id="ct" x1="-4.68" y1="2.051" x2="-3.804" y2="1.543" xlink:href="#b"/><linearGradient id="cw" x1="-4.796" y1="2.051" x2="-3.92" y2="1.543" xlink:href="#aa"/><linearGradient id="cx" x1="-7.22" y1="2.698" x2="-6.344" y2="2.19" xlink:href="#ax"/><linearGradient id="cz" x1="-0.144" y1="0.837" x2="1.199" y2="0.213" xlink:href="#n"/><linearGradient id="da" x1="-1.291" y1="2.254" x2="-0.414" y2="1.746" xlink:href="#b"/><linearGradient id="dg" x1="0" y1="0.499" x2="1" y2="0.499" xlink:href="#f"/><linearGradient id="dh" x1="-1.875" y1="2.254" x2="-0.998" y2="1.746" xlink:href="#aa"/><linearGradient id="di" x1="-2.63" y1="2.836" x2="-1.754" y2="2.327" xlink:href="#b"/><linearGradient id="dl" x1="-2.746" y1="2.836" x2="-1.87" y2="2.327" xlink:href="#b"/><linearGradient id="dm" x1="-4.147" y1="3.874" x2="-3.271" y2="3.366" xlink:href="#b"/><linearGradient id="dp" x1="-1.93" y1="2.254" x2="-1.054" y2="1.746" xlink:href="#b"/><linearGradient id="dw" x1="-2.515" y1="2.254" x2="-1.638" y2="1.746" xlink:href="#aa"/><linearGradient id="dx" x1="-3.518" y1="2.836" x2="-2.641" y2="2.327" xlink:href="#b"/><linearGradient id="ea" x1="-3.634" y1="2.836" x2="-2.757" y2="2.327" xlink:href="#aa"/><linearGradient id="eb" x1="-5.478" y1="3.874" x2="-4.601" y2="3.366" xlink:href="#ax"/><linearGradient id="ee" x1="-4.589" y1="-24.47" x2="-3.434" y2="-24.47" gradientUnits="objectBoundingBox"><stop offset="0" stop-color="#f46cb7"/><stop offset="0.144" stop-color="#f469b6"/><stop offset="1" stop-color="#f95db3"/></linearGradient></defs><g transform="translate(-1214.974 -646)"><g transform="translate(1214.974 646)"><g transform="translate(5.149)"><path class="a" d="M364.893,442.578A13.946,13.946,0,0,1,358.052,441L173.625,334.527a5.163,5.163,0,0,1-2.953-4.388c0-2.027,1.466-4.038,4.022-5.514L356.976,219.384c4.61-2.66,11.629-2.934,15.643-.617L557.046,325.246A5.165,5.165,0,0,1,560,329.633c0,2.028-1.466,4.038-4.022,5.514L373.7,440.387A18.091,18.091,0,0,1,364.893,442.578Zm.885-223.9a16.557,16.557,0,0,0-8.05,2.014L175.446,325.929c-2.077,1.2-3.269,2.733-3.269,4.21a3.743,3.743,0,0,0,2.2,3.084L358.8,439.7h0c3.6,2.077,9.945,1.8,14.138-.619l182.282-105.24c2.077-1.2,3.269-2.735,3.269-4.21a3.743,3.743,0,0,0-2.2-3.084L371.867,220.07A12.422,12.422,0,0,0,365.778,218.675Z" transform="translate(-170.672 17.343)"/><g transform="translate(20.82)"><g transform="translate(92.184 104.025)"><g transform="translate(0 1.128)"><path class="b" d="M320.33,286.951l-72-41.567c-3.831-2.211-3.351-6.075,1.073-8.629l69.849-40.326c4.422-2.554,11.114-2.831,14.945-.62l72,41.567c3.831,2.211,3.351,6.075-1.073,8.629l-69.847,40.326C330.853,288.886,324.161,289.163,320.33,286.951Z" transform="translate(-245.748 -99.065)"/><path class="c" d="M381.423,162.3H299.906V304.6a17.216,17.216,0,0,0,8.011-2.094l69.847-40.326c2.3-1.328,3.522-3.007,3.64-4.625h.02Z" transform="translate(-218.387 -115.238)"/><path class="c" d="M381.423,162.3H299.906V304.6a17.216,17.216,0,0,0,8.011-2.094l69.847-40.326c2.3-1.328,3.522-3.007,3.64-4.625h.02Z" transform="translate(-218.387 -115.238)"/><path class="d" d="M379.874,162.3v94.047h-.02c-.117,1.618-1.341,3.3-3.64,4.624L306.368,301.3a16.59,16.59,0,0,1-6.462,1.969V304.6a17.216,17.216,0,0,0,8.011-2.094l69.847-40.326c2.3-1.328,3.522-3.007,3.64-4.625h.02V162.3Z" transform="translate(-218.387 -115.238)"/><path class="e" d="M245.748,162.3v95.252h.02c-.108,1.5.727,2.941,2.566,4l72,41.567a13.543,13.543,0,0,0,6.936,1.474V162.3Z" transform="translate(-245.748 -115.238)"/><path class="f" d="M325.837,290.9V279.921a5.945,5.945,0,0,0,2.137-4.234c0-1.489-.92-2.195-2.137-1.767V262.941a6.132,6.132,0,0,0,2.086-3.612l24.214-13.98a1.461,1.461,0,0,0,2.086,1.2v10.979a5.937,5.937,0,0,0-2.137,4.234c0,1.487.918,2.195,2.137,1.767v10.979a6.032,6.032,0,0,0-1.632,2.2l4.311-2.49a1.477,1.477,0,0,0-1.654-.3V262.939a6.116,6.116,0,0,0,2.086-3.611l24.088-13.908v-1.185l-24.088,13.907a1.461,1.461,0,0,0-2.086-1.2V245.959a5.945,5.945,0,0,0,2.137-4.234c0-1.489-.92-2.195-2.137-1.767V228.979a6.124,6.124,0,0,0,2.086-3.612l24.088-13.908v-1.185l-24.088,13.908a1.461,1.461,0,0,0-2.086-1.2V212a5.948,5.948,0,0,0,2.137-4.236c0-1.487-.92-2.193-2.137-1.767V195.017a6.12,6.12,0,0,0,2.086-3.612L381.423,177.5v-1.185L357.335,190.22a1.461,1.461,0,0,0-2.086-1.2V178.037a5.945,5.945,0,0,0,2.137-4.234c0-1.489-.92-2.195-2.137-1.767V162.3h-1.025v10.326a6.123,6.123,0,0,0-2.086,3.614l-24.214,13.98a1.462,1.462,0,0,0-2.086-1.206V178.037a5.942,5.942,0,0,0,2.137-4.234c0-1.487-.92-2.195-2.137-1.767V162.3h-1.027v10.327a6.13,6.13,0,0,0-2.085,3.612l-22.82,13.175V190.6l22.82-13.175a1.459,1.459,0,0,0,2.085,1.2v10.979a5.945,5.945,0,0,0-2.137,4.234c0,1.489.92,2.195,2.137,1.767v10.979a6.121,6.121,0,0,0-2.085,3.614l-22.82,13.175v1.185l22.82-13.175a1.459,1.459,0,0,0,2.085,1.2v10.98a5.942,5.942,0,0,0-2.137,4.234c0,1.487.92,2.195,2.137,1.767v10.979a6.122,6.122,0,0,0-2.085,3.613l-22.82,13.175v1.185l22.82-13.175a1.46,1.46,0,0,0,2.085,1.2v10.979a5.946,5.946,0,0,0-2.137,4.236c0,1.487.92,2.193,2.137,1.766v10.979a6.121,6.121,0,0,0-2.085,3.614L299.906,291.3v1.185l22.82-13.175a1.46,1.46,0,0,0,2.085,1.2v10.979a6.062,6.062,0,0,0-1.654,2.214L327.5,291.2A1.478,1.478,0,0,0,325.837,290.9Zm0-78.9a5.948,5.948,0,0,0,2.137-4.234c0-1.489-.92-2.195-2.137-1.767V195.019a6.132,6.132,0,0,0,2.086-3.612l24.214-13.98a1.461,1.461,0,0,0,2.086,1.2v10.979a5.937,5.937,0,0,0-2.137,4.234c0,1.487.918,2.195,2.137,1.767v10.979a6.124,6.124,0,0,0-2.086,3.612l-24.214,13.98a1.461,1.461,0,0,0-2.086-1.2Zm0,33.96a5.942,5.942,0,0,0,2.137-4.234c0-1.487-.92-2.193-2.137-1.767V228.979a6.132,6.132,0,0,0,2.086-3.612l24.214-13.98a1.461,1.461,0,0,0,2.086,1.2v10.979a5.943,5.943,0,0,0-2.137,4.236c0,1.487.918,2.193,2.137,1.766v10.98a6.124,6.124,0,0,0-2.086,3.613l-24.214,13.98a1.461,1.461,0,0,0-2.086-1.2Z" transform="translate(-218.387 -115.238)"/><g transform="translate(0 47.064)"><path class="g" d="M247.6,207.868a5.927,5.927,0,0,0-1.851-3.974v5.81C246.818,209.93,247.6,209.234,247.6,207.868Z" transform="translate(-245.748 -141.29)"/><path class="h" d="M274.873,275.587V264.608c1.218.426,2.137-.28,2.137-1.767a5.948,5.948,0,0,0-2.137-4.236V247.627a1.461,1.461,0,0,0,2.086-1.2l24.214,13.98a6.124,6.124,0,0,0,2.086,3.612V275c-1.219-.427-2.137.278-2.137,1.766A5.943,5.943,0,0,0,303.26,281v10.979a1.466,1.466,0,0,0-1.677.325l4.377,2.527a6.083,6.083,0,0,0-1.675-2.261V281.589a1.461,1.461,0,0,0,2.086-1.2l20.9,12.063v-1.185l-20.9-12.063a6.123,6.123,0,0,0-2.086-3.614V264.608c1.219.427,2.137-.278,2.137-1.767a5.937,5.937,0,0,0-2.137-4.234V247.628a1.461,1.461,0,0,0,2.086-1.2l20.9,12.063V257.3l-20.9-12.063a6.132,6.132,0,0,0-2.086-3.614V230.648c1.219.426,2.137-.28,2.137-1.767a5.943,5.943,0,0,0-2.137-4.236V213.667a1.461,1.461,0,0,0,2.086-1.2l20.9,12.064v-1.185l-20.9-12.064a6.123,6.123,0,0,0-2.086-3.612V196.687c1.219.427,2.137-.278,2.137-1.767a5.937,5.937,0,0,0-2.137-4.234V179.707a1.461,1.461,0,0,0,2.086-1.2l20.9,12.063V189.38l-20.9-12.064a6.123,6.123,0,0,0-2.086-3.612V162.3H303.26v10.81c-1.219-.427-2.137.28-2.137,1.767a5.94,5.94,0,0,0,2.137,4.234v10.979a1.461,1.461,0,0,0-2.086,1.2l-24.214-13.98a6.132,6.132,0,0,0-2.086-3.612V162.725a1.453,1.453,0,0,0,1.766-.423h-2.792v10.81c-1.218-.427-2.137.278-2.137,1.766a5.948,5.948,0,0,0,2.137,4.236v10.979a1.46,1.46,0,0,0-2.085,1.2l-24.216-13.98a6.135,6.135,0,0,0-1.8-3.329v5.792a1.429,1.429,0,0,0,1.8-1.278l24.216,13.98a6.129,6.129,0,0,0,2.085,3.612v10.979c-1.218-.427-2.137.28-2.137,1.767a5.942,5.942,0,0,0,2.137,4.234v10.979a1.461,1.461,0,0,0-2.085,1.206l-24.216-13.98a6.13,6.13,0,0,0-1.8-3.329v5.792a1.43,1.43,0,0,0,1.8-1.278l24.216,13.98a6.129,6.129,0,0,0,2.085,3.612v10.979c-1.218-.428-2.137.278-2.137,1.766a5.945,5.945,0,0,0,2.137,4.236v10.979a1.46,1.46,0,0,0-2.085,1.2l-24.216-13.98a6.125,6.125,0,0,0-1.8-3.328v5.79a1.429,1.429,0,0,0,1.8-1.278l24.216,13.98a6.129,6.129,0,0,0,2.085,3.612v10.979a1.467,1.467,0,0,0-1.674.327l4.353,2.514A6.027,6.027,0,0,0,274.873,275.587Zm0-78.9c1.218.426,2.137-.28,2.137-1.767a5.948,5.948,0,0,0-2.137-4.236V179.705a1.461,1.461,0,0,0,2.086-1.2l24.214,13.98a6.119,6.119,0,0,0,2.086,3.612v10.98c-1.219-.427-2.137.278-2.137,1.766a5.943,5.943,0,0,0,2.137,4.236v10.979a1.461,1.461,0,0,0-2.086,1.2l-24.214-13.98a6.132,6.132,0,0,0-2.086-3.612Zm0,33.96c1.218.427,2.137-.278,2.137-1.767a5.945,5.945,0,0,0-2.137-4.234V213.667a1.461,1.461,0,0,0,2.086-1.2l24.214,13.98a6.124,6.124,0,0,0,2.086,3.612v10.979c-1.219-.428-2.137.28-2.137,1.767a5.939,5.939,0,0,0,2.137,4.234v10.979a1.461,1.461,0,0,0-2.086,1.206L276.96,245.24a6.124,6.124,0,0,0-2.086-3.614Z" transform="translate(-245.748 -162.302)"/><path class="i" d="M246.891,228.027a6.288,6.288,0,0,0-.954-1.379A4.316,4.316,0,0,0,246.891,228.027Z" transform="translate(-245.652 -129.795)"/><path class="j" d="M247.226,162.3h-1.478v.492A1.375,1.375,0,0,0,247.226,162.3Z" transform="translate(-245.748 -162.302)"/><path class="k" d="M247.6,185.306a5.923,5.923,0,0,0-1.851-3.974v5.81C246.818,187.368,247.6,186.672,247.6,185.306Z" transform="translate(-245.748 -152.688)"/></g><path class="l" d="M320.33,223.669l-72-41.567c-3.831-2.211-3.351-6.075,1.073-8.628l69.849-40.327c4.422-2.554,11.114-2.831,14.945-.62l72,41.567c3.831,2.213,3.351,6.075-1.073,8.629l-69.847,40.327C330.853,225.6,324.161,225.882,320.33,223.669Z" transform="translate(-245.748 -131.034)"/><path class="m" d="M405.122,165.143l-69.847,40.327c-4.424,2.554-11.116,2.831-14.947.619l-72-41.566a5,5,0,0,1-2.395-2.651c-.576,1.8.193,3.617,2.395,4.887l72,41.567c3.831,2.213,10.523,1.934,14.947-.619l69.847-40.327c2.952-1.7,4.136-3.989,3.468-5.979A7.16,7.16,0,0,1,405.122,165.143Z" transform="translate(-245.745 -115.692)"/></g><g transform="translate(22.76)"><path class="n" d="M314.627,206.109l-51.893-29.961c-2.762-1.6-2.416-4.38.774-6.221l50.344-29.067c3.19-1.841,8.012-2.041,10.774-.447l51.895,29.962c2.76,1.594,2.414,4.379-.774,6.219L325.4,205.662C322.212,207.5,317.389,207.7,314.627,206.109Z" transform="translate(-260.869 -125.712)"/><path class="o" d="M358.663,159.631H299.906v47.534a12.4,12.4,0,0,0,5.774-1.508l50.346-29.067c1.656-.957,2.538-2.167,2.624-3.334h.014Z" transform="translate(-241.148 -125.707)"/><path class="p" d="M260.869,152.823v13.625h.015a3.12,3.12,0,0,0,1.85,2.887L314.627,199.3a9.755,9.755,0,0,0,5,1.061V152.823Z" transform="translate(-260.869 -118.899)"/><path class="q" d="M314.627,197.055l-51.893-29.961c-2.762-1.594-2.416-4.379.774-6.219l50.344-29.067c3.19-1.841,8.012-2.041,10.774-.447l51.895,29.961c2.76,1.6,2.414,4.38-.774,6.221L325.4,196.61C322.212,198.451,317.389,198.651,314.627,197.055Z" transform="translate(-260.869 -130.285)"/><path class="m" d="M375.742,154.557,325.4,183.623c-3.19,1.842-8.012,2.041-10.774.447l-51.893-29.961a3.659,3.659,0,0,1-1.639-1.752c-.548,1.364-.033,2.767,1.639,3.731l51.893,29.961c2.762,1.6,7.585,1.4,10.774-.446l50.346-29.067c2.208-1.275,3.018-3,2.411-4.467A5.348,5.348,0,0,1,375.742,154.557Z" transform="translate(-260.864 -119.28)"/><path class="r" d="M309.726,182.33l-34.618-19.986c-1.842-1.064-1.611-2.922.516-4.15l33.584-19.39a7.991,7.991,0,0,1,7.187-.3l34.618,19.987c1.842,1.063,1.612,2.92-.515,4.148l-33.585,19.39A7.986,7.986,0,0,1,309.726,182.33Z" transform="translate(-254.304 -126.495)"/><path class="s" d="M275.108,162.344l6.445,3.721L309.21,150.1a7.983,7.983,0,0,1,7.186-.3l28.173,16.265,5.929-3.423c2.128-1.228,2.359-3.086.516-4.148L316.4,138.506a7.988,7.988,0,0,0-7.186.3l-33.585,19.39C273.5,159.422,273.266,161.279,275.108,162.344Z" transform="translate(-254.304 -126.495)"/></g><path class="t" d="M313.062,137.794a8.284,8.284,0,0,0-3.852,1.007l-33.585,19.39c-2.127,1.228-2.359,3.086-.516,4.15l6.445,3.721,27.656-15.967a8.285,8.285,0,0,1,3.852-1.007Z" transform="translate(-231.543 -126.492)"/></g><g transform="translate(0 158.527)"><g transform="translate(0 1.128)"><path class="u" d="M259.086,323.361l-72-41.567c-3.831-2.211-3.351-6.075,1.073-8.628l69.847-40.327c4.424-2.554,11.116-2.831,14.947-.62l72,41.567c3.831,2.213,3.351,6.075-1.073,8.629l-69.847,40.327C269.609,325.3,262.917,325.574,259.086,323.361Z" transform="translate(-184.504 -135.475)"/><path class="c" d="M320.179,198.712H238.662v142.3a17.233,17.233,0,0,0,8.011-2.092l69.847-40.327c2.3-1.328,3.522-3.006,3.64-4.625h.02Z" transform="translate(-157.143 -151.648)"/><path class="c" d="M320.179,198.712H238.662v142.3a17.233,17.233,0,0,0,8.011-2.092l69.847-40.327c2.3-1.328,3.522-3.006,3.64-4.625h.02Z" transform="translate(-157.143 -151.648)"/><path class="d" d="M318.63,198.712v94.047h-.02c-.119,1.618-1.341,3.3-3.64,4.624l-69.849,40.327a16.575,16.575,0,0,1-6.46,1.969v1.329a17.233,17.233,0,0,0,8.011-2.092l69.847-40.327c2.3-1.328,3.522-3.006,3.64-4.625h.02V198.712Z" transform="translate(-157.143 -151.648)"/><path class="e" d="M184.5,198.712v95.252h.02c-.108,1.5.726,2.941,2.566,4l72,41.567a13.54,13.54,0,0,0,6.936,1.474v-142.3Z" transform="translate(-184.504 -151.648)"/><path class="f" d="M264.593,327.31V316.331a5.945,5.945,0,0,0,2.137-4.234c0-1.487-.92-2.195-2.137-1.767V299.351a6.129,6.129,0,0,0,2.085-3.612l24.216-13.98a1.46,1.46,0,0,0,2.085,1.2v10.979a5.942,5.942,0,0,0-2.137,4.234c0,1.489.92,2.195,2.137,1.767v10.979a6.043,6.043,0,0,0-1.63,2.2l4.311-2.49a1.475,1.475,0,0,0-1.654-.3V299.351a6.124,6.124,0,0,0,2.086-3.612l24.088-13.908v-1.185l-24.088,13.908A1.461,1.461,0,0,0,294,293.348V282.369a5.945,5.945,0,0,0,2.137-4.234c0-1.487-.92-2.195-2.137-1.767V265.389a6.124,6.124,0,0,0,2.086-3.612l24.088-13.906v-1.185l-24.088,13.906a1.461,1.461,0,0,0-2.086-1.2V248.409a5.948,5.948,0,0,0,2.137-4.236c0-1.487-.92-2.193-2.137-1.766v-10.98a6.115,6.115,0,0,0,2.086-3.613l24.088-13.906v-1.185L296.091,226.63a1.461,1.461,0,0,0-2.086-1.2V214.447a5.942,5.942,0,0,0,2.137-4.234c0-1.489-.92-2.195-2.137-1.767v-9.734h-1.027v10.327a6.12,6.12,0,0,0-2.085,3.612l-24.216,13.98a1.459,1.459,0,0,0-2.085-1.2V214.449a5.948,5.948,0,0,0,2.137-4.236c0-1.487-.92-2.193-2.137-1.767v-9.734h-1.027v10.327a6.131,6.131,0,0,0-2.086,3.612l-22.819,13.175v1.185l22.819-13.175a1.461,1.461,0,0,0,2.086,1.2v10.979a5.948,5.948,0,0,0-2.137,4.236c0,1.487.92,2.193,2.137,1.766V243a6.131,6.131,0,0,0-2.086,3.614l-22.819,13.175v1.185L261.481,247.8a1.462,1.462,0,0,0,2.086,1.2v10.979a5.942,5.942,0,0,0-2.137,4.234c0,1.487.92,2.195,2.137,1.767v10.979a6.131,6.131,0,0,0-2.086,3.613l-22.819,13.175v1.185l22.819-13.175a1.461,1.461,0,0,0,2.086,1.2v10.979a5.948,5.948,0,0,0-2.137,4.236c0,1.487.92,2.193,2.137,1.766v10.979a6.13,6.13,0,0,0-2.086,3.614L238.662,327.71v1.185l22.819-13.175a1.462,1.462,0,0,0,2.086,1.2V327.9a6.062,6.062,0,0,0-1.654,2.214l4.339-2.5A1.476,1.476,0,0,0,264.593,327.31Zm0-78.9a5.945,5.945,0,0,0,2.137-4.234c0-1.489-.92-2.195-2.137-1.767V231.429a6.122,6.122,0,0,0,2.085-3.612l24.216-13.98a1.46,1.46,0,0,0,2.085,1.2v10.979a5.945,5.945,0,0,0-2.137,4.234c0,1.487.92,2.195,2.137,1.767V243a6.13,6.13,0,0,0-2.085,3.612l-24.216,13.98a1.459,1.459,0,0,0-2.085-1.2Zm0,33.96a5.942,5.942,0,0,0,2.137-4.234c0-1.487-.92-2.193-2.137-1.767V265.389a6.122,6.122,0,0,0,2.085-3.612l24.216-13.98a1.46,1.46,0,0,0,2.085,1.2v10.979a5.948,5.948,0,0,0-2.137,4.236c0,1.487.92,2.193,2.137,1.767v10.979a6.129,6.129,0,0,0-2.085,3.613l-24.216,13.98a1.459,1.459,0,0,0-2.085-1.2Z" transform="translate(-157.143 -151.648)"/><g transform="translate(0 47.064)"><path class="h" d="M213.629,312V301.018c1.218.427,2.137-.28,2.137-1.767a5.942,5.942,0,0,0-2.137-4.234v-10.98a1.46,1.46,0,0,0,2.086-1.2l24.214,13.98a6.124,6.124,0,0,0,2.086,3.612v10.979c-1.219-.427-2.139.278-2.139,1.766a5.942,5.942,0,0,0,2.139,4.236v10.979a1.469,1.469,0,0,0-1.678.325l4.379,2.527a6.065,6.065,0,0,0-1.675-2.259V318a1.46,1.46,0,0,0,2.086-1.2l20.9,12.063v-1.185l-20.9-12.063A6.123,6.123,0,0,0,243.041,312V301.018c1.218.427,2.137-.278,2.137-1.767a5.945,5.945,0,0,0-2.137-4.234V284.038a1.461,1.461,0,0,0,2.086-1.2l20.9,12.064v-1.186l-20.9-12.063a6.124,6.124,0,0,0-2.086-3.612V267.058c1.218.426,2.137-.28,2.137-1.767a5.948,5.948,0,0,0-2.137-4.236V250.077a1.461,1.461,0,0,0,2.086-1.2l20.9,12.063v-1.185l-20.9-12.063a6.123,6.123,0,0,0-2.086-3.614V233.1c1.218.427,2.137-.278,2.137-1.767a5.945,5.945,0,0,0-2.137-4.234V216.117a1.461,1.461,0,0,0,2.086-1.2l20.9,12.063V225.79l-20.9-12.063a6.115,6.115,0,0,0-2.086-3.612v-11.4h-1.025v10.81c-1.219-.427-2.139.28-2.139,1.767a5.938,5.938,0,0,0,2.139,4.234V226.5a1.461,1.461,0,0,0-2.086,1.2l-24.214-13.98a6.132,6.132,0,0,0-2.086-3.612V199.135a1.451,1.451,0,0,0,1.764-.423H212.6v10.81c-1.218-.427-2.137.278-2.137,1.767a5.945,5.945,0,0,0,2.137,4.234V226.5a1.459,1.459,0,0,0-2.085,1.2L186.3,213.726a6.126,6.126,0,0,0-1.8-3.328v5.79a1.429,1.429,0,0,0,1.8-1.278l24.216,13.98A6.13,6.13,0,0,0,212.6,232.5v10.979c-1.218-.426-2.137.28-2.137,1.767a5.942,5.942,0,0,0,2.137,4.234v10.979a1.461,1.461,0,0,0-2.085,1.206L186.3,247.688a6.131,6.131,0,0,0-1.8-3.33v5.792a1.43,1.43,0,0,0,1.8-1.278l24.216,13.98a6.129,6.129,0,0,0,2.085,3.612v10.979c-1.218-.427-2.137.278-2.137,1.766a5.946,5.946,0,0,0,2.137,4.236v10.979a1.459,1.459,0,0,0-2.085,1.2L186.3,281.648a6.131,6.131,0,0,0-1.8-3.328v5.79a1.429,1.429,0,0,0,1.8-1.278l24.216,13.98a6.129,6.129,0,0,0,2.085,3.612V311.4a1.47,1.47,0,0,0-1.675.327l4.355,2.514A6.043,6.043,0,0,0,213.629,312Zm0-78.9c1.218.426,2.137-.28,2.137-1.767a5.942,5.942,0,0,0-2.137-4.234V216.117a1.462,1.462,0,0,0,2.086-1.2l24.214,13.979a6.123,6.123,0,0,0,2.086,3.614v10.979c-1.219-.428-2.139.278-2.139,1.766a5.944,5.944,0,0,0,2.139,4.236v10.979a1.461,1.461,0,0,0-2.086,1.2l-24.214-13.98a6.132,6.132,0,0,0-2.086-3.612Zm0,33.96c1.218.427,2.137-.278,2.137-1.766a5.946,5.946,0,0,0-2.137-4.236V250.077a1.461,1.461,0,0,0,2.086-1.2l24.214,13.98a6.124,6.124,0,0,0,2.086,3.612v10.979c-1.219-.426-2.139.28-2.139,1.767a5.938,5.938,0,0,0,2.139,4.234v10.979a1.461,1.461,0,0,0-2.086,1.206l-24.214-13.98a6.135,6.135,0,0,0-2.086-3.614Z" transform="translate(-184.504 -198.712)"/><path class="v" d="M185.982,198.712H184.5v.492A1.375,1.375,0,0,0,185.982,198.712Z" transform="translate(-184.504 -198.712)"/></g><path class="w" d="M259.086,260.079l-72-41.566c-3.831-2.213-3.351-6.076,1.073-8.629l69.847-40.327c4.424-2.554,11.116-2.831,14.947-.619l72,41.566c3.831,2.213,3.351,6.075-1.073,8.629l-69.847,40.327C269.609,262.014,262.917,262.292,259.086,260.079Z" transform="translate(-184.504 -167.444)"/><path class="m" d="M343.878,201.553l-69.847,40.327c-4.424,2.554-11.116,2.831-14.947.62l-72-41.567a5,5,0,0,1-2.395-2.651c-.576,1.8.193,3.617,2.395,4.889l72,41.566c3.831,2.213,10.523,1.934,14.947-.619l69.847-40.327c2.952-1.7,4.136-3.989,3.468-5.979A7.16,7.16,0,0,1,343.878,201.553Z" transform="translate(-184.501 -152.102)"/></g><g transform="translate(22.76)"><path class="x" d="M253.383,242.519,201.49,212.558c-2.762-1.594-2.416-4.38.772-6.221l50.346-29.067c3.19-1.841,8.012-2.041,10.774-.447l51.893,29.962c2.762,1.594,2.416,4.379-.772,6.219l-50.346,29.067C260.968,243.913,256.145,244.113,253.383,242.519Z" transform="translate(-199.625 -162.122)"/><path class="y" d="M297.419,196.041H238.662v47.534a12.4,12.4,0,0,0,5.774-1.508L294.782,213c1.656-.956,2.538-2.168,2.624-3.334h.014Z" transform="translate(-179.904 -162.117)"/><path class="p" d="M199.625,189.233v13.625h.015a3.12,3.12,0,0,0,1.85,2.887l51.893,29.961a9.76,9.76,0,0,0,5,1.061V189.233Z" transform="translate(-199.625 -155.309)"/><path class="z" d="M253.383,233.467,201.49,203.5c-2.762-1.594-2.416-4.379.772-6.219l50.346-29.067c3.19-1.841,8.012-2.041,10.774-.447l51.893,29.961c2.762,1.6,2.416,4.38-.772,6.221L264.157,233.02C260.968,234.861,256.145,235.061,253.383,233.467Z" transform="translate(-199.625 -166.695)"/><path class="m" d="M314.5,190.967l-50.346,29.068c-3.189,1.841-8.012,2.041-10.774.446L201.485,190.52a3.659,3.659,0,0,1-1.639-1.752c-.548,1.364-.033,2.767,1.639,3.731l51.893,29.962c2.762,1.594,7.585,1.394,10.774-.447L314.5,192.947c2.208-1.275,3.018-3,2.411-4.467A5.348,5.348,0,0,1,314.5,190.967Z" transform="translate(-199.62 -155.69)"/><path class="aa" d="M248.482,218.741l-34.618-19.987c-1.842-1.064-1.611-2.922.516-4.15l33.584-19.39a7.991,7.991,0,0,1,7.187-.3L289.77,194.9c1.842,1.063,1.612,2.922-.516,4.148L255.67,218.443A8,8,0,0,1,248.482,218.741Z" transform="translate(-193.06 -162.905)"/><path class="s" d="M213.864,198.754l6.445,3.721,27.655-15.967a7.991,7.991,0,0,1,7.187-.3l28.173,16.267,5.929-3.424c2.128-1.227,2.359-3.086.516-4.148l-34.618-19.987a7.991,7.991,0,0,0-7.187.3L214.381,194.6C212.254,195.832,212.022,197.689,213.864,198.754Z" transform="translate(-193.06 -162.905)"/></g><path class="ab" d="M251.818,174.2a8.275,8.275,0,0,0-3.853,1.005L214.381,194.6c-2.127,1.228-2.359,3.086-.516,4.15l6.445,3.721L247.965,186.5a8.276,8.276,0,0,1,3.853-1.005Z" transform="translate(-170.299 -162.901)"/></g><g transform="translate(92.184)"><g transform="translate(0 1.128)"><path class="ac" d="M320.33,217.646l-72-41.567c-3.831-2.211-3.351-6.075,1.073-8.629l69.849-40.326c4.422-2.554,11.114-2.831,14.945-.62l72,41.567c3.831,2.211,3.351,6.075-1.073,8.629l-69.847,40.326C330.853,219.581,324.161,219.859,320.33,217.646Z" transform="translate(-245.748 -29.76)"/><path class="c" d="M381.423,93H299.906v142.3a17.216,17.216,0,0,0,8.011-2.094l69.847-40.326c2.3-1.328,3.522-3.006,3.64-4.625h.02Z" transform="translate(-218.387 -45.933)"/><path class="c" d="M381.423,93H299.906v142.3a17.216,17.216,0,0,0,8.011-2.094l69.847-40.326c2.3-1.328,3.522-3.006,3.64-4.625h.02Z" transform="translate(-218.387 -45.933)"/><path class="d" d="M379.874,93v94.047h-.02c-.117,1.618-1.341,3.3-3.64,4.624L306.368,232a16.59,16.59,0,0,1-6.462,1.969v1.329a17.216,17.216,0,0,0,8.011-2.094l69.847-40.326c2.3-1.328,3.522-3.006,3.64-4.625h.02V93Z" transform="translate(-218.387 -45.933)"/><path class="e" d="M245.748,93v95.252h.02c-.108,1.5.727,2.941,2.566,4l72,41.567a13.544,13.544,0,0,0,6.936,1.474V93Z" transform="translate(-245.748 -45.933)"/><path class="f" d="M325.837,221.595V210.616a5.945,5.945,0,0,0,2.137-4.234c0-1.489-.92-2.195-2.137-1.767V193.636a6.132,6.132,0,0,0,2.086-3.613l24.214-13.98a1.461,1.461,0,0,0,2.086,1.2v10.979a5.937,5.937,0,0,0-2.137,4.234c0,1.487.918,2.195,2.137,1.767v10.979a6.031,6.031,0,0,0-1.632,2.2l4.311-2.49a1.477,1.477,0,0,0-1.654-.3V193.634a6.12,6.12,0,0,0,2.086-3.611l24.088-13.908v-1.185l-24.088,13.906a1.461,1.461,0,0,0-2.086-1.2V176.654a5.945,5.945,0,0,0,2.137-4.234c0-1.487-.92-2.195-2.137-1.767V159.674a6.124,6.124,0,0,0,2.086-3.612l24.088-13.908v-1.185l-24.088,13.908a1.461,1.461,0,0,0-2.086-1.2V142.694a5.948,5.948,0,0,0,2.137-4.236c0-1.487-.92-2.193-2.137-1.767V125.712a6.124,6.124,0,0,0,2.086-3.612l24.088-13.906v-1.185l-24.088,13.906a1.461,1.461,0,0,0-2.086-1.2V108.732a5.945,5.945,0,0,0,2.137-4.234c0-1.489-.92-2.195-2.137-1.767V93h-1.025v10.326a6.124,6.124,0,0,0-2.086,3.612l-24.214,13.982a1.462,1.462,0,0,0-2.086-1.206V108.732a5.942,5.942,0,0,0,2.137-4.234c0-1.487-.92-2.193-2.137-1.767V93h-1.027v10.327a6.13,6.13,0,0,0-2.085,3.612l-22.82,13.175V121.3l22.82-13.175a1.459,1.459,0,0,0,2.085,1.2V120.3a5.946,5.946,0,0,0-2.137,4.236c0,1.487.92,2.193,2.137,1.766v10.979a6.121,6.121,0,0,0-2.085,3.614l-22.82,13.175v1.185l22.82-13.175a1.46,1.46,0,0,0,2.085,1.2v10.979a5.943,5.943,0,0,0-2.137,4.234c0,1.487.92,2.193,2.137,1.767v10.979a6.122,6.122,0,0,0-2.085,3.612l-22.82,13.175v1.185l22.82-13.175a1.46,1.46,0,0,0,2.085,1.2v10.979a5.946,5.946,0,0,0-2.137,4.236c0,1.487.92,2.193,2.137,1.766v10.979a6.121,6.121,0,0,0-2.085,3.614L299.906,222v1.185L322.726,210a1.46,1.46,0,0,0,2.085,1.2v10.979a6.068,6.068,0,0,0-1.654,2.213l4.339-2.5A1.476,1.476,0,0,0,325.837,221.595Zm0-78.9a5.946,5.946,0,0,0,2.137-4.236c0-1.487-.92-2.193-2.137-1.766V125.714a6.132,6.132,0,0,0,2.086-3.612l24.214-13.98a1.461,1.461,0,0,0,2.086,1.2V120.3a5.937,5.937,0,0,0-2.137,4.234c0,1.487.918,2.193,2.137,1.767v10.979a6.124,6.124,0,0,0-2.086,3.612l-24.214,13.98a1.461,1.461,0,0,0-2.086-1.2Zm0,33.96a5.942,5.942,0,0,0,2.137-4.234c0-1.487-.92-2.193-2.137-1.767V159.674a6.132,6.132,0,0,0,2.086-3.612l24.214-13.98a1.461,1.461,0,0,0,2.086,1.2v10.979a5.94,5.94,0,0,0-2.137,4.236c0,1.487.918,2.193,2.137,1.766v10.98a6.119,6.119,0,0,0-2.086,3.612l-24.214,13.98a1.461,1.461,0,0,0-2.086-1.2Z" transform="translate(-218.387 -45.933)"/><g transform="translate(0 47.064)"><path class="g" d="M247.6,138.563a5.926,5.926,0,0,0-1.851-3.974v5.81C246.818,140.625,247.6,139.929,247.6,138.563Z" transform="translate(-245.748 -71.985)"/><path class="h" d="M274.873,206.282V195.3c1.218.426,2.137-.28,2.137-1.767a5.942,5.942,0,0,0-2.137-4.234v-10.98a1.461,1.461,0,0,0,2.086-1.2l24.214,13.98a6.124,6.124,0,0,0,2.086,3.612v10.979c-1.219-.427-2.137.278-2.137,1.766a5.943,5.943,0,0,0,2.137,4.236v10.979a1.466,1.466,0,0,0-1.677.325l4.377,2.527a6.083,6.083,0,0,0-1.675-2.261V212.284a1.461,1.461,0,0,0,2.086-1.2l20.9,12.063v-1.185l-20.9-12.064a6.124,6.124,0,0,0-2.086-3.612V195.3c1.219.427,2.137-.278,2.137-1.767a5.94,5.94,0,0,0-2.137-4.234V178.323a1.461,1.461,0,0,0,2.086-1.2l20.9,12.064V188l-20.9-12.063a6.123,6.123,0,0,0-2.086-3.612V161.343c1.219.426,2.137-.28,2.137-1.767a5.943,5.943,0,0,0-2.137-4.236V144.362a1.461,1.461,0,0,0,2.086-1.2l20.9,12.064v-1.185l-20.9-12.064a6.123,6.123,0,0,0-2.086-3.612V127.382c1.219.427,2.137-.28,2.137-1.767a5.937,5.937,0,0,0-2.137-4.234V110.4a1.461,1.461,0,0,0,2.086-1.2l20.9,12.063v-1.185l-20.9-12.064a6.115,6.115,0,0,0-2.086-3.611V93H303.26v10.81c-1.219-.427-2.137.28-2.137,1.767a5.94,5.94,0,0,0,2.137,4.234v10.979a1.461,1.461,0,0,0-2.086,1.2l-24.214-13.98a6.132,6.132,0,0,0-2.086-3.612V93.42A1.453,1.453,0,0,0,276.639,93h-2.792v10.81c-1.218-.427-2.137.278-2.137,1.766a5.945,5.945,0,0,0,2.137,4.236v10.979a1.46,1.46,0,0,0-2.085,1.2l-24.216-13.98a6.125,6.125,0,0,0-1.8-3.328v5.79a1.429,1.429,0,0,0,1.8-1.278l24.216,13.98a6.129,6.129,0,0,0,2.085,3.612v10.979c-1.218-.426-2.137.28-2.137,1.767a5.942,5.942,0,0,0,2.137,4.234v10.979a1.46,1.46,0,0,0-2.085,1.206l-24.216-13.98a6.13,6.13,0,0,0-1.8-3.329v5.792a1.43,1.43,0,0,0,1.8-1.278l24.216,13.98a6.129,6.129,0,0,0,2.085,3.612v10.979c-1.218-.427-2.137.278-2.137,1.766a5.945,5.945,0,0,0,2.137,4.236v10.979a1.46,1.46,0,0,0-2.085,1.2l-24.216-13.98a6.126,6.126,0,0,0-1.8-3.328v5.79a1.429,1.429,0,0,0,1.8-1.278l24.216,13.98a6.129,6.129,0,0,0,2.085,3.612v10.979a1.467,1.467,0,0,0-1.674.327l4.353,2.514A6.027,6.027,0,0,0,274.873,206.282Zm0-78.9c1.218.426,2.137-.28,2.137-1.767a5.948,5.948,0,0,0-2.137-4.236V110.4a1.461,1.461,0,0,0,2.086-1.2l24.214,13.98a6.115,6.115,0,0,0,2.086,3.612v10.98c-1.219-.427-2.137.278-2.137,1.766a5.943,5.943,0,0,0,2.137,4.236v10.979a1.461,1.461,0,0,0-2.086,1.2l-24.214-13.98a6.132,6.132,0,0,0-2.086-3.612Zm0,33.96c1.218.427,2.137-.278,2.137-1.766a5.945,5.945,0,0,0-2.137-4.236V144.362a1.461,1.461,0,0,0,2.086-1.2l24.214,13.98a6.123,6.123,0,0,0,2.086,3.612v10.979c-1.219-.427-2.137.28-2.137,1.767a5.937,5.937,0,0,0,2.137,4.234v10.979a1.461,1.461,0,0,0-2.086,1.206l-24.214-13.98a6.128,6.128,0,0,0-2.086-3.614Z" transform="translate(-245.748 -92.997)"/><path class="ad" d="M246.891,158.722a6.324,6.324,0,0,0-.954-1.379A4.316,4.316,0,0,0,246.891,158.722Z" transform="translate(-245.652 -60.49)"/><path class="j" d="M247.226,93h-1.478v.492A1.377,1.377,0,0,0,247.226,93Z" transform="translate(-245.748 -92.997)"/><path class="g" d="M247.6,116a5.93,5.93,0,0,0-1.851-3.975v5.812C246.818,118.063,247.6,117.366,247.6,116Z" transform="translate(-245.748 -83.384)"/></g><path class="ae" d="M320.33,154.364l-72-41.566c-3.831-2.213-3.351-6.076,1.073-8.629l69.849-40.327c4.422-2.554,11.114-2.831,14.945-.62l72,41.567c3.831,2.213,3.351,6.075-1.073,8.629l-69.847,40.327C330.853,156.3,324.161,156.577,320.33,154.364Z" transform="translate(-245.748 -61.729)"/><path class="m" d="M405.122,95.838l-69.847,40.327c-4.424,2.554-11.116,2.831-14.947.619l-72-41.566a5,5,0,0,1-2.395-2.651c-.576,1.8.193,3.617,2.395,4.889l72,41.566c3.831,2.213,10.523,1.934,14.947-.619l69.847-40.327c2.952-1.7,4.136-3.989,3.468-5.979A7.16,7.16,0,0,1,405.122,95.838Z" transform="translate(-245.745 -46.387)"/></g><g transform="translate(22.76)"><path class="af" d="M314.627,136.8l-51.893-29.961c-2.762-1.6-2.416-4.38.774-6.221l50.344-29.067c3.19-1.841,8.012-2.041,10.774-.447L376.52,101.07c2.76,1.594,2.414,4.379-.774,6.219L325.4,136.357C322.212,138.2,317.389,138.4,314.627,136.8Z" transform="translate(-260.869 -56.407)"/><path class="o" d="M358.663,90.326H299.906V137.86a12.4,12.4,0,0,0,5.774-1.508l50.346-29.067c1.656-.956,2.538-2.167,2.624-3.334h.014Z" transform="translate(-241.148 -56.402)"/><path class="p" d="M260.869,83.518V97.143h.015a3.12,3.12,0,0,0,1.85,2.887l51.893,29.961a9.771,9.771,0,0,0,5,1.061V83.518Z" transform="translate(-260.869 -49.594)"/><path class="ag" d="M314.627,127.75,262.734,97.789c-2.762-1.594-2.416-4.379.774-6.219L313.852,62.5c3.19-1.841,8.012-2.041,10.774-.447L376.52,92.017c2.76,1.594,2.414,4.38-.774,6.221L325.4,127.3C322.212,129.146,317.389,129.346,314.627,127.75Z" transform="translate(-260.869 -60.98)"/><path class="m" d="M375.742,85.252,325.4,114.32c-3.19,1.841-8.012,2.04-10.774.446L262.729,84.8a3.659,3.659,0,0,1-1.639-1.752c-.548,1.364-.033,2.767,1.639,3.731l51.893,29.961c2.762,1.6,7.585,1.4,10.774-.446l50.346-29.067c2.208-1.275,3.018-3,2.411-4.467A5.348,5.348,0,0,1,375.742,85.252Z" transform="translate(-260.864 -49.975)"/><path class="ah" d="M309.726,113.025,275.108,93.039c-1.842-1.064-1.611-2.922.516-4.15L309.208,69.5a7.986,7.986,0,0,1,7.187-.3l34.618,19.987c1.842,1.063,1.612,2.92-.515,4.148l-33.585,19.39A7.986,7.986,0,0,1,309.726,113.025Z" transform="translate(-254.304 -57.19)"/><path class="s" d="M275.108,93.039l6.445,3.721L309.21,80.793a7.988,7.988,0,0,1,7.186-.3l28.173,16.267,5.929-3.424c2.128-1.228,2.359-3.086.516-4.148L316.4,69.2a7.983,7.983,0,0,0-7.186.3l-33.585,19.39C273.5,90.117,273.266,91.975,275.108,93.039Z" transform="translate(-254.304 -57.19)"/></g><path class="t" d="M313.062,68.489A8.285,8.285,0,0,0,309.21,69.5l-33.585,19.39c-2.127,1.228-2.359,3.086-.516,4.15l6.445,3.721L309.21,80.789a8.265,8.265,0,0,1,3.852-1.005Z" transform="translate(-231.543 -57.187)"/></g><g transform="translate(0 54.804)"><g transform="translate(0 1.128)"><path class="ai" d="M259.086,254.056l-72-41.567c-3.831-2.211-3.351-6.075,1.073-8.628l69.847-40.327c4.424-2.554,11.116-2.831,14.947-.62l72,41.567c3.831,2.211,3.351,6.075-1.073,8.629l-69.847,40.327C269.609,255.991,262.917,256.269,259.086,254.056Z" transform="translate(-184.504 -66.17)"/><path class="c" d="M320.179,129.407H238.662V271.7a17.233,17.233,0,0,0,8.011-2.092l69.847-40.327c2.3-1.326,3.522-3.006,3.64-4.625h.02Z" transform="translate(-157.143 -82.343)"/><path class="c" d="M320.179,129.407H238.662V271.7a17.233,17.233,0,0,0,8.011-2.092l69.847-40.327c2.3-1.326,3.522-3.006,3.64-4.625h.02Z" transform="translate(-157.143 -82.343)"/><path class="d" d="M318.63,129.407v94.047h-.02c-.119,1.618-1.341,3.3-3.64,4.624l-69.849,40.327a16.573,16.573,0,0,1-6.46,1.969V271.7a17.233,17.233,0,0,0,8.011-2.092l69.847-40.327c2.3-1.326,3.522-3.006,3.64-4.625h.02V129.407Z" transform="translate(-157.143 -82.343)"/><path class="e" d="M184.5,129.407v95.252h.02c-.108,1.5.726,2.941,2.566,4l72,41.567a13.54,13.54,0,0,0,6.936,1.474v-142.3Z" transform="translate(-184.504 -82.343)"/><path class="f" d="M264.593,258V247.026a5.945,5.945,0,0,0,2.137-4.234c0-1.487-.92-2.195-2.137-1.767V230.046a6.129,6.129,0,0,0,2.085-3.612l24.216-13.98a1.46,1.46,0,0,0,2.085,1.2v10.979a5.943,5.943,0,0,0-2.137,4.234c0,1.489.92,2.195,2.137,1.767v10.979a6.044,6.044,0,0,0-1.63,2.2l4.311-2.49a1.477,1.477,0,0,0-1.654-.3V230.044a6.116,6.116,0,0,0,2.086-3.611l24.088-13.908v-1.185l-24.088,13.908A1.461,1.461,0,0,0,294,224.043V213.064a5.942,5.942,0,0,0,2.137-4.234c0-1.487-.92-2.195-2.137-1.767V196.084a6.124,6.124,0,0,0,2.086-3.612l24.088-13.908v-1.183l-24.088,13.906a1.461,1.461,0,0,0-2.086-1.2V179.1a5.948,5.948,0,0,0,2.137-4.236c0-1.487-.92-2.193-2.137-1.767V162.122a6.116,6.116,0,0,0,2.086-3.611L320.179,144.6v-1.185l-24.088,13.906a1.461,1.461,0,0,0-2.086-1.2V145.142a5.942,5.942,0,0,0,2.137-4.234c0-1.487-.92-2.195-2.137-1.767v-9.734h-1.027v10.326a6.129,6.129,0,0,0-2.085,3.614l-24.216,13.98a1.461,1.461,0,0,0-2.085-1.206V145.142a5.942,5.942,0,0,0,2.137-4.234c0-1.487-.92-2.193-2.137-1.767v-9.734h-1.027v10.327a6.131,6.131,0,0,0-2.086,3.612l-22.819,13.175v1.185l22.819-13.175a1.461,1.461,0,0,0,2.086,1.2v10.979a5.946,5.946,0,0,0-2.137,4.236c0,1.487.92,2.193,2.137,1.766v10.979a6.135,6.135,0,0,0-2.086,3.614l-22.819,13.175v1.185l22.819-13.175a1.462,1.462,0,0,0,2.086,1.2v10.979a5.942,5.942,0,0,0-2.137,4.234c0,1.487.92,2.195,2.137,1.767v10.979a6.131,6.131,0,0,0-2.086,3.612l-22.819,13.175v1.185l22.819-13.175a1.461,1.461,0,0,0,2.086,1.2v10.979a5.946,5.946,0,0,0-2.137,4.236c0,1.487.92,2.193,2.137,1.766v10.979a6.135,6.135,0,0,0-2.086,3.614l-22.819,13.175v1.185l22.819-13.175a1.462,1.462,0,0,0,2.086,1.2V258.6a6.062,6.062,0,0,0-1.654,2.214l4.339-2.506A1.479,1.479,0,0,0,264.593,258Zm0-78.9a5.945,5.945,0,0,0,2.137-4.234c0-1.489-.92-2.195-2.137-1.767V162.124a6.122,6.122,0,0,0,2.085-3.612l24.216-13.98a1.46,1.46,0,0,0,2.085,1.2v10.979a5.943,5.943,0,0,0-2.137,4.234c0,1.487.92,2.195,2.137,1.767v10.979a6.129,6.129,0,0,0-2.085,3.612l-24.216,13.98a1.46,1.46,0,0,0-2.085-1.2Zm0,33.96a5.942,5.942,0,0,0,2.137-4.234c0-1.487-.92-2.193-2.137-1.767V196.084a6.122,6.122,0,0,0,2.085-3.612l24.216-13.98a1.46,1.46,0,0,0,2.085,1.2v10.979a5.949,5.949,0,0,0-2.137,4.236c0,1.487.92,2.193,2.137,1.767v10.979a6.129,6.129,0,0,0-2.085,3.612l-24.216,13.98a1.459,1.459,0,0,0-2.085-1.2Z" transform="translate(-157.143 -82.343)"/><g transform="translate(0 47.064)"><path class="h" d="M213.629,242.692V231.713c1.218.426,2.137-.28,2.137-1.767a5.942,5.942,0,0,0-2.137-4.234V214.733a1.462,1.462,0,0,0,2.086-1.2l24.214,13.98a6.124,6.124,0,0,0,2.086,3.612V242.1c-1.219-.427-2.139.278-2.139,1.766a5.942,5.942,0,0,0,2.139,4.236v10.979a1.469,1.469,0,0,0-1.678.325l4.379,2.527a6.065,6.065,0,0,0-1.675-2.259V248.7a1.461,1.461,0,0,0,2.086-1.2l20.9,12.063v-1.185l-20.9-12.063a6.123,6.123,0,0,0-2.086-3.614V231.713c1.218.427,2.137-.278,2.137-1.766a5.945,5.945,0,0,0-2.137-4.236V214.733a1.461,1.461,0,0,0,2.086-1.2l20.9,12.064v-1.185l-20.9-12.064a6.124,6.124,0,0,0-2.086-3.612V197.753c1.218.426,2.137-.28,2.137-1.767a5.948,5.948,0,0,0-2.137-4.236V180.772a1.461,1.461,0,0,0,2.086-1.2l20.9,12.063v-1.185l-20.9-12.064a6.124,6.124,0,0,0-2.086-3.612V163.792c1.218.427,2.137-.279,2.137-1.767a5.942,5.942,0,0,0-2.137-4.234V146.812a1.461,1.461,0,0,0,2.086-1.2l20.9,12.063v-1.185l-20.9-12.064a6.116,6.116,0,0,0-2.086-3.611v-11.4h-1.025v10.81c-1.219-.427-2.139.28-2.139,1.767a5.939,5.939,0,0,0,2.139,4.234V157.2a1.461,1.461,0,0,0-2.086,1.2l-24.214-13.98a6.132,6.132,0,0,0-2.086-3.612V129.83a1.451,1.451,0,0,0,1.764-.423H212.6v10.81c-1.218-.427-2.137.278-2.137,1.766a5.946,5.946,0,0,0,2.137,4.236V157.2a1.459,1.459,0,0,0-2.085,1.2L186.3,144.421a6.131,6.131,0,0,0-1.8-3.328v5.79a1.429,1.429,0,0,0,1.8-1.278l24.216,13.98A6.129,6.129,0,0,0,212.6,163.2v10.979c-1.218-.426-2.137.28-2.137,1.767a5.948,5.948,0,0,0,2.137,4.236v10.977a1.461,1.461,0,0,0-2.085,1.206L186.3,178.383a6.13,6.13,0,0,0-1.8-3.329v5.792a1.43,1.43,0,0,0,1.8-1.278l24.216,13.98a6.129,6.129,0,0,0,2.085,3.612v10.979c-1.218-.427-2.137.278-2.137,1.766a5.946,5.946,0,0,0,2.137,4.236v10.979a1.46,1.46,0,0,0-2.085,1.2L186.3,212.343a6.131,6.131,0,0,0-1.8-3.328v5.79a1.429,1.429,0,0,0,1.8-1.278l24.216,13.98a6.129,6.129,0,0,0,2.085,3.612V242.1a1.47,1.47,0,0,0-1.675.327l4.355,2.514A6.043,6.043,0,0,0,213.629,242.692Zm0-78.9c1.218.426,2.137-.28,2.137-1.767a5.942,5.942,0,0,0-2.137-4.234V146.812a1.462,1.462,0,0,0,2.086-1.206l24.214,13.982a6.124,6.124,0,0,0,2.086,3.612v10.979c-1.219-.427-2.139.278-2.139,1.766a5.944,5.944,0,0,0,2.139,4.236v10.979a1.461,1.461,0,0,0-2.086,1.2l-24.214-13.98a6.132,6.132,0,0,0-2.086-3.612Zm0,33.96c1.218.427,2.137-.278,2.137-1.766a5.946,5.946,0,0,0-2.137-4.236V180.772a1.461,1.461,0,0,0,2.086-1.2l24.214,13.98a6.124,6.124,0,0,0,2.086,3.612v10.979c-1.219-.427-2.139.28-2.139,1.767a5.939,5.939,0,0,0,2.139,4.234v10.979a1.461,1.461,0,0,0-2.086,1.206l-24.214-13.98a6.135,6.135,0,0,0-2.086-3.614Z" transform="translate(-184.504 -129.407)"/><path class="aj" d="M185.982,129.407H184.5v.492A1.375,1.375,0,0,0,185.982,129.407Z" transform="translate(-184.504 -129.407)"/></g><path class="ak" d="M259.086,190.774l-72-41.566c-3.831-2.213-3.351-6.076,1.073-8.629l69.847-40.327c4.424-2.554,11.116-2.831,14.947-.619l72,41.566c3.831,2.213,3.351,6.075-1.073,8.629l-69.847,40.327C269.609,192.709,262.917,192.987,259.086,190.774Z" transform="translate(-184.504 -98.139)"/><path class="m" d="M343.878,132.248l-69.847,40.327c-4.424,2.554-11.116,2.831-14.947.62l-72-41.567a5,5,0,0,1-2.395-2.651c-.576,1.8.193,3.617,2.395,4.889l72,41.566c3.831,2.213,10.523,1.934,14.947-.619l69.847-40.327c2.952-1.7,4.136-3.989,3.468-5.979A7.16,7.16,0,0,1,343.878,132.248Z" transform="translate(-184.501 -82.797)"/></g><g transform="translate(22.76)"><path class="al" d="M253.383,173.214,201.49,143.253c-2.762-1.6-2.416-4.38.772-6.221l50.346-29.067c3.19-1.841,8.012-2.041,10.774-.446l51.893,29.961c2.762,1.594,2.416,4.379-.772,6.219l-50.346,29.067C260.968,174.608,256.145,174.808,253.383,173.214Z" transform="translate(-199.625 -92.817)"/><path class="y" d="M297.419,126.736H238.662V174.27a12.4,12.4,0,0,0,5.774-1.508l50.346-29.067c1.656-.956,2.538-2.167,2.624-3.334h.014Z" transform="translate(-179.904 -92.812)"/><path class="p" d="M199.625,119.928v13.625h.015a3.12,3.12,0,0,0,1.85,2.887L253.383,166.4a9.759,9.759,0,0,0,5,1.061V119.928Z" transform="translate(-199.625 -86.004)"/><path class="am" d="M253.383,164.162,201.49,134.2c-2.762-1.594-2.416-4.379.772-6.219l50.346-29.067c3.19-1.841,8.012-2.041,10.774-.447l51.893,29.961c2.762,1.6,2.416,4.38-.772,6.221l-50.346,29.067C260.968,165.556,256.145,165.756,253.383,164.162Z" transform="translate(-199.625 -97.39)"/><path class="m" d="M314.5,121.663,264.152,150.73c-3.189,1.841-8.012,2.04-10.774.446l-51.893-29.961a3.659,3.659,0,0,1-1.639-1.752c-.548,1.364-.033,2.767,1.639,3.731l51.893,29.962c2.762,1.594,7.585,1.394,10.774-.447L314.5,123.642c2.208-1.275,3.018-3,2.411-4.467A5.357,5.357,0,0,1,314.5,121.663Z" transform="translate(-199.62 -86.385)"/><path class="an" d="M248.482,149.435l-34.618-19.986c-1.842-1.064-1.611-2.922.516-4.15l33.584-19.39a7.991,7.991,0,0,1,7.187-.3L289.77,125.6c1.842,1.063,1.612,2.922-.516,4.148L255.67,149.138A7.986,7.986,0,0,1,248.482,149.435Z" transform="translate(-193.06 -93.6)"/><path class="s" d="M213.864,129.449l6.445,3.721L247.965,117.2a7.991,7.991,0,0,1,7.187-.3l28.173,16.267,5.929-3.424c2.128-1.227,2.359-3.086.516-4.148l-34.618-19.987a7.991,7.991,0,0,0-7.187.3L214.381,125.3C212.254,126.527,212.022,128.384,213.864,129.449Z" transform="translate(-193.06 -93.6)"/></g><path class="ab" d="M251.818,104.9a8.275,8.275,0,0,0-3.853,1.005L214.381,125.3c-2.127,1.228-2.359,3.086-.516,4.15l6.445,3.721L247.965,117.2a8.276,8.276,0,0,1,3.853-1.005Z" transform="translate(-170.299 -93.596)"/></g><g transform="translate(184.653 10.192)"><g transform="translate(0 146.55)"><g transform="translate(0 1.128)"><path class="ao" d="M381.763,322.175l-72-41.566c-3.831-2.213-3.35-6.075,1.073-8.629l69.847-40.327c4.424-2.554,11.116-2.831,14.947-.619l72,41.566c3.831,2.213,3.35,6.075-1.073,8.629L396.71,321.557C392.286,324.111,385.594,324.388,381.763,322.175Z" transform="translate(-307.181 -134.289)"/><path class="c" d="M442.856,197.527H361.338V339.822a17.226,17.226,0,0,0,8.012-2.092L439.2,297.4c2.3-1.326,3.522-3.006,3.64-4.625h.02Z" transform="translate(-279.821 -150.462)"/><path class="c" d="M442.856,197.527H361.338V339.822a17.226,17.226,0,0,0,8.012-2.092L439.2,297.4c2.3-1.326,3.522-3.006,3.64-4.625h.02Z" transform="translate(-279.821 -150.462)"/><path class="d" d="M441.307,197.527v94.046h-.02c-.119,1.618-1.341,3.3-3.64,4.625L367.8,336.524a16.574,16.574,0,0,1-6.462,1.969v1.329a17.226,17.226,0,0,0,8.012-2.092L439.2,297.4c2.3-1.326,3.522-3.006,3.64-4.625h.02v-95.25Z" transform="translate(-279.821 -150.462)"/><path class="ap" d="M307.181,197.527v95.25h.02c-.108,1.5.725,2.943,2.566,4.005l72,41.566a13.538,13.538,0,0,0,6.934,1.474V197.527Z" transform="translate(-307.181 -150.462)"/><path class="f" d="M387.271,326.123V315.144a5.942,5.942,0,0,0,2.137-4.234c0-1.487-.92-2.195-2.137-1.767V298.164a6.129,6.129,0,0,0,2.085-3.612l24.216-13.98a1.46,1.46,0,0,0,2.085,1.2v10.979a5.945,5.945,0,0,0-2.137,4.234c0,1.489.92,2.195,2.137,1.767v10.979a6.042,6.042,0,0,0-1.63,2.2l4.311-2.488a1.472,1.472,0,0,0-1.654-.3V298.164a6.132,6.132,0,0,0,2.086-3.612l24.088-13.908v-1.185l-24.088,13.908a1.462,1.462,0,0,0-2.086-1.206V281.183a5.942,5.942,0,0,0,2.137-4.234c0-1.487-.92-2.193-2.137-1.767V264.2a6.132,6.132,0,0,0,2.086-3.612l24.088-13.906V245.5l-24.088,13.906a1.461,1.461,0,0,0-2.086-1.2V247.222a5.946,5.946,0,0,0,2.137-4.236c0-1.487-.92-2.193-2.137-1.766V230.242a6.132,6.132,0,0,0,2.086-3.612l24.088-13.908v-1.185l-24.088,13.908a1.461,1.461,0,0,0-2.086-1.206V213.261a5.942,5.942,0,0,0,2.137-4.234c0-1.487-.92-2.195-2.137-1.767v-9.733h-1.027v10.326a6.129,6.129,0,0,0-2.085,3.612l-24.216,13.98a1.46,1.46,0,0,0-2.085-1.2V213.262a5.948,5.948,0,0,0,2.137-4.236c0-1.487-.92-2.193-2.137-1.767v-9.733h-1.027v10.326a6.132,6.132,0,0,0-2.086,3.612l-22.82,13.175v1.185l22.82-13.175a1.461,1.461,0,0,0,2.086,1.2v10.979a5.948,5.948,0,0,0-2.137,4.236c0,1.487.92,2.193,2.137,1.766v10.98a6.132,6.132,0,0,0-2.086,3.613L361.338,258.6v1.185l22.82-13.175a1.461,1.461,0,0,0,2.086,1.2v10.979a5.942,5.942,0,0,0-2.137,4.234c0,1.487.92,2.195,2.137,1.767v10.979a6.131,6.131,0,0,0-2.086,3.614l-22.82,13.175v1.185l22.82-13.175a1.461,1.461,0,0,0,2.086,1.2v10.979a5.948,5.948,0,0,0-2.137,4.236c0,1.487.92,2.193,2.137,1.767v10.979a6.131,6.131,0,0,0-2.086,3.612l-22.82,13.175v1.185l22.82-13.175a1.461,1.461,0,0,0,2.086,1.2v10.979a6.061,6.061,0,0,0-1.654,2.214l4.338-2.5A1.473,1.473,0,0,0,387.271,326.123Zm0-78.9a5.945,5.945,0,0,0,2.137-4.234c0-1.487-.92-2.195-2.137-1.767V230.242a6.13,6.13,0,0,0,2.085-3.612l24.216-13.98a1.46,1.46,0,0,0,2.085,1.2v10.979a5.945,5.945,0,0,0-2.137,4.234c0,1.489.92,2.195,2.137,1.767v10.979a6.129,6.129,0,0,0-2.085,3.612l-24.216,13.98a1.46,1.46,0,0,0-2.085-1.2Zm0,33.962a5.948,5.948,0,0,0,2.137-4.236c0-1.487-.92-2.193-2.137-1.766V264.2a6.134,6.134,0,0,0,2.085-3.614l24.216-13.98a1.46,1.46,0,0,0,2.085,1.2v10.979a5.948,5.948,0,0,0-2.137,4.236c0,1.487.92,2.193,2.137,1.767v10.979a6.129,6.129,0,0,0-2.085,3.612l-24.216,13.98a1.459,1.459,0,0,0-2.085-1.2Z" transform="translate(-279.821 -150.462)"/><g transform="translate(0 47.065)"><path class="aq" d="M309.031,243.092a5.925,5.925,0,0,0-1.85-3.974v5.812C308.251,245.154,309.031,244.458,309.031,243.092Z" transform="translate(-307.181 -176.515)"/><path class="h" d="M336.306,310.811V299.832c1.218.428,2.137-.28,2.137-1.767a5.945,5.945,0,0,0-2.137-4.234V282.852a1.46,1.46,0,0,0,2.085-1.2l24.216,13.98a6.123,6.123,0,0,0,2.086,3.612v10.979c-1.219-.427-2.139.28-2.139,1.767a5.941,5.941,0,0,0,2.139,4.234V327.2a1.471,1.471,0,0,0-1.678.325l4.379,2.527a6.065,6.065,0,0,0-1.675-2.259V316.814a1.461,1.461,0,0,0,2.086-1.2L388.7,327.673v-1.186L367.8,314.425a6.128,6.128,0,0,0-2.086-3.614V299.832c1.218.428,2.137-.278,2.137-1.766a5.948,5.948,0,0,0-2.137-4.236V282.852a1.461,1.461,0,0,0,2.086-1.2L388.7,293.712v-1.185L367.8,280.463a6.124,6.124,0,0,0-2.086-3.612V265.872c1.218.427,2.137-.28,2.137-1.767a5.942,5.942,0,0,0-2.137-4.234V248.892a1.461,1.461,0,0,0,2.086-1.2L388.7,259.75v-1.185L367.8,246.5a6.128,6.128,0,0,0-2.086-3.614V231.91c1.218.428,2.137-.278,2.137-1.766a5.945,5.945,0,0,0-2.137-4.236V214.93a1.461,1.461,0,0,0,2.086-1.2L388.7,225.788V224.6L367.8,212.541a6.124,6.124,0,0,0-2.086-3.612v-11.4h-1.025v10.809c-1.219-.426-2.139.28-2.139,1.767a5.939,5.939,0,0,0,2.139,4.234v10.98a1.461,1.461,0,0,0-2.086,1.2l-24.216-13.98a6.121,6.121,0,0,0-2.085-3.614V197.948a1.452,1.452,0,0,0,1.764-.421H335.28v10.809c-1.218-.427-2.137.28-2.137,1.767a5.945,5.945,0,0,0,2.137,4.234v10.979a1.462,1.462,0,0,0-2.086,1.2L308.98,212.54a6.131,6.131,0,0,0-1.8-3.328V215a1.43,1.43,0,0,0,1.8-1.279l24.214,13.982a6.128,6.128,0,0,0,2.086,3.611V242.3c-1.218-.427-2.137.278-2.137,1.766a5.948,5.948,0,0,0,2.137,4.236v10.979a1.461,1.461,0,0,0-2.086,1.2L308.98,246.5a6.135,6.135,0,0,0-1.8-3.329v5.792a1.429,1.429,0,0,0,1.8-1.278l24.214,13.98a6.132,6.132,0,0,0,2.086,3.612v10.979c-1.218-.427-2.137.28-2.137,1.767a5.945,5.945,0,0,0,2.137,4.234v10.979a1.462,1.462,0,0,0-2.086,1.206l-24.214-13.98a6.13,6.13,0,0,0-1.8-3.33v5.792a1.43,1.43,0,0,0,1.8-1.278l24.214,13.98a6.131,6.131,0,0,0,2.086,3.612v10.979a1.47,1.47,0,0,0-1.675.325l4.355,2.514A6.073,6.073,0,0,0,336.306,310.811Zm0-78.9c1.218.428,2.137-.28,2.137-1.767a5.943,5.943,0,0,0-2.137-4.234V214.93a1.46,1.46,0,0,0,2.085-1.2l24.216,13.98a6.124,6.124,0,0,0,2.086,3.612V242.3c-1.219-.427-2.139.28-2.139,1.767a5.941,5.941,0,0,0,2.139,4.234v10.979a1.461,1.461,0,0,0-2.086,1.2L338.391,246.5a6.122,6.122,0,0,0-2.085-3.612Zm0,33.962c1.218.426,2.137-.28,2.137-1.767a5.948,5.948,0,0,0-2.137-4.236V248.89a1.459,1.459,0,0,0,2.085-1.2l24.216,13.98a6.123,6.123,0,0,0,2.086,3.612v10.979c-1.219-.426-2.139.28-2.139,1.767a5.939,5.939,0,0,0,2.139,4.234v10.98a1.461,1.461,0,0,0-2.086,1.2l-24.214-13.98a6.131,6.131,0,0,0-2.086-3.612Z" transform="translate(-307.181 -197.527)"/><path class="ar" d="M308.324,263.25a6.329,6.329,0,0,0-.954-1.377A4.309,4.309,0,0,0,308.324,263.25Z" transform="translate(-307.086 -165.02)"/><path class="as" d="M308.659,197.527h-1.478v.492A1.38,1.38,0,0,0,308.659,197.527Z" transform="translate(-307.181 -197.527)"/><path class="aq" d="M309.031,220.53a5.921,5.921,0,0,0-1.85-3.974v5.81C308.251,222.592,309.031,221.9,309.031,220.53Z" transform="translate(-307.181 -187.914)"/></g><path class="at" d="M381.763,258.893l-72-41.566c-3.831-2.213-3.35-6.075,1.073-8.629l69.847-40.327c4.424-2.553,11.116-2.831,14.947-.619l72,41.567c3.831,2.211,3.35,6.075-1.073,8.628L396.71,258.275C392.286,260.829,385.594,261.106,381.763,258.893Z" transform="translate(-307.181 -166.259)"/><path class="m" d="M466.555,200.369l-69.847,40.326c-4.424,2.554-11.116,2.831-14.947.62l-72-41.567a5.006,5.006,0,0,1-2.395-2.649c-.577,1.8.193,3.616,2.395,4.887l72,41.566c3.831,2.213,10.523,1.936,14.947-.619l69.847-40.327c2.95-1.7,4.136-3.989,3.468-5.979A7.167,7.167,0,0,1,466.555,200.369Z" transform="translate(-307.178 -150.917)"/></g><g transform="translate(22.76)"><path class="au" d="M376.06,241.332l-51.895-29.961c-2.761-1.594-2.414-4.379.774-6.219l50.346-29.068c3.19-1.841,8.012-2.04,10.774-.446L437.954,205.6c2.761,1.594,2.414,4.379-.774,6.219l-50.346,29.067C383.645,242.728,378.822,242.926,376.06,241.332Z" transform="translate(-322.302 -160.936)"/><path class="av" d="M420.1,194.855H361.338v47.534a12.4,12.4,0,0,0,5.775-1.508l50.346-29.067c1.656-.956,2.538-2.167,2.622-3.334h.015Z" transform="translate(-302.581 -160.931)"/><path class="p" d="M322.3,188.047v13.625h.014a3.125,3.125,0,0,0,1.85,2.887L376.06,234.52a9.75,9.75,0,0,0,5,1.061V188.047Z" transform="translate(-322.302 -154.123)"/><path class="aw" d="M376.06,232.281,324.165,202.32c-2.761-1.6-2.414-4.38.774-6.221l50.346-29.067c3.19-1.841,8.012-2.041,10.774-.447l51.895,29.962c2.761,1.594,2.414,4.379-.774,6.219l-50.346,29.067C383.645,233.675,378.822,233.875,376.06,232.281Z" transform="translate(-322.302 -165.509)"/><path class="m" d="M437.175,189.782l-50.346,29.067c-3.189,1.841-8.012,2.041-10.774.447L324.16,189.334a3.657,3.657,0,0,1-1.638-1.752c-.548,1.365-.035,2.767,1.638,3.733l51.895,29.961c2.762,1.594,7.585,1.394,10.774-.447l50.346-29.067c2.208-1.275,3.018-3,2.411-4.467A5.357,5.357,0,0,1,437.175,189.782Z" transform="translate(-322.297 -154.504)"/><path class="ax" d="M371.159,217.555l-34.618-19.987c-1.842-1.063-1.611-2.92.516-4.148l33.584-19.391a8,8,0,0,1,7.187-.3l34.618,19.987c1.842,1.064,1.611,2.922-.516,4.15l-33.585,19.39A7.988,7.988,0,0,1,371.159,217.555Z" transform="translate(-315.736 -161.718)"/><path class="s" d="M336.541,197.568l6.445,3.721,27.655-15.967a7.991,7.991,0,0,1,7.187-.3L406,201.29l5.929-3.423c2.127-1.228,2.359-3.086.516-4.15L377.829,173.73a7.991,7.991,0,0,0-7.187.3l-33.584,19.391C334.931,194.648,334.7,196.5,336.541,197.568Z" transform="translate(-315.736 -161.719)"/></g><path class="ay" d="M374.493,173.019a8.293,8.293,0,0,0-3.852,1.005l-33.584,19.391c-2.127,1.228-2.359,3.086-.516,4.148l6.445,3.721,27.655-15.967a8.275,8.275,0,0,1,3.852-1.005Z" transform="translate(-292.976 -161.715)"/></g><path class="az" d="M470.216,161.788l-163.035-.367v54.346h.02c-.108,1.5.725,2.941,2.566,4l72,41.567c3.831,2.211,10.523,1.934,14.947-.62l69.847-40.327c2.3-1.326,3.522-3.006,3.64-4.624h.02Z" transform="translate(-307.181 -20.785)"/><g transform="translate(0 1.128)"><path class="ba" d="M381.763,224.417l-72-41.567c-3.831-2.211-3.35-6.075,1.073-8.629L380.687,133.9c4.424-2.554,11.116-2.831,14.947-.62l72,41.567c3.831,2.211,3.35,6.075-1.073,8.629L396.71,223.8C392.286,226.352,385.594,226.629,381.763,224.417Z" transform="translate(-307.181 -36.531)"/><path class="c" d="M442.856,99.768H361.338v142.3a17.245,17.245,0,0,0,8.012-2.094L439.2,199.645c2.3-1.328,3.522-3.007,3.64-4.625h.02Z" transform="translate(-279.821 -52.704)"/><path class="c" d="M442.856,99.768H361.338v142.3a17.245,17.245,0,0,0,8.012-2.094L439.2,199.645c2.3-1.328,3.522-3.007,3.64-4.625h.02Z" transform="translate(-279.821 -52.704)"/><path class="d" d="M441.307,99.768v94.046h-.02c-.119,1.62-1.341,3.3-3.64,4.626L367.8,238.767a16.574,16.574,0,0,1-6.462,1.969v1.329a17.245,17.245,0,0,0,8.012-2.094L439.2,199.645c2.3-1.328,3.522-3.007,3.64-4.625h.02V99.768Z" transform="translate(-279.821 -52.704)"/><path class="ap" d="M307.181,99.768V195.02h.02c-.108,1.5.725,2.941,2.566,4l72,41.567a13.538,13.538,0,0,0,6.934,1.474V99.768Z" transform="translate(-307.181 -52.704)"/><path class="f" d="M387.271,228.366V217.387a5.948,5.948,0,0,0,2.137-4.236c0-1.487-.92-2.193-2.137-1.766V200.407a6.129,6.129,0,0,0,2.085-3.612l24.216-13.98a1.46,1.46,0,0,0,2.085,1.2V195a5.942,5.942,0,0,0-2.137,4.234c0,1.487.92,2.195,2.137,1.767v10.979a6.043,6.043,0,0,0-1.63,2.2l4.311-2.49a1.477,1.477,0,0,0-1.654-.3V200.405a6.132,6.132,0,0,0,2.086-3.612l24.088-13.906V181.7l-24.088,13.906a1.461,1.461,0,0,0-2.086-1.2V183.425a5.946,5.946,0,0,0,2.137-4.236c0-1.487-.92-2.193-2.137-1.766V166.445a6.132,6.132,0,0,0,2.086-3.612l24.088-13.908V147.74l-24.088,13.908a1.461,1.461,0,0,0-2.086-1.206V149.463a5.942,5.942,0,0,0,2.137-4.234c0-1.487-.92-2.193-2.137-1.767V132.483a6.132,6.132,0,0,0,2.086-3.612l24.088-13.906V113.78l-24.088,13.906a1.461,1.461,0,0,0-2.086-1.2V115.5a5.946,5.946,0,0,0,2.137-4.236c0-1.487-.92-2.193-2.137-1.766V99.768h-1.027v10.326a6.129,6.129,0,0,0-2.085,3.612l-24.216,13.98a1.46,1.46,0,0,0-2.085-1.2V115.5a5.942,5.942,0,0,0,2.137-4.234c0-1.487-.92-2.195-2.137-1.767V99.768h-1.027V110.1a6.123,6.123,0,0,0-2.086,3.612l-22.82,13.175v1.185l22.82-13.175a1.462,1.462,0,0,0,2.086,1.2v10.979a5.942,5.942,0,0,0-2.137,4.234c0,1.489.92,2.195,2.137,1.767v10.979a6.131,6.131,0,0,0-2.086,3.614l-22.82,13.175v1.185l22.82-13.175a1.461,1.461,0,0,0,2.086,1.2v10.979a5.948,5.948,0,0,0-2.137,4.236c0,1.487.92,2.193,2.137,1.767v10.979a6.132,6.132,0,0,0-2.086,3.612L361.338,194.8v1.185l22.82-13.175a1.461,1.461,0,0,0,2.086,1.2V195a5.945,5.945,0,0,0-2.137,4.236c0,1.487.92,2.193,2.137,1.766v10.979a6.131,6.131,0,0,0-2.086,3.614l-22.82,13.175v1.185l22.82-13.175a1.462,1.462,0,0,0,2.086,1.2v10.979a6.068,6.068,0,0,0-1.654,2.213l4.338-2.5A1.473,1.473,0,0,0,387.271,228.366Zm0-78.9a5.948,5.948,0,0,0,2.137-4.236c0-1.487-.92-2.193-2.137-1.766v-10.98a6.121,6.121,0,0,0,2.085-3.611l24.216-13.982a1.46,1.46,0,0,0,2.085,1.2v10.979a5.948,5.948,0,0,0-2.137,4.236c0,1.487.92,2.193,2.137,1.767v10.979a6.13,6.13,0,0,0-2.085,3.613l-24.216,13.98a1.46,1.46,0,0,0-2.085-1.2Zm0,33.96a5.942,5.942,0,0,0,2.137-4.234c0-1.487-.92-2.193-2.137-1.767V166.445a6.13,6.13,0,0,0,2.085-3.612l24.216-13.98a1.46,1.46,0,0,0,2.085,1.2v10.979a5.946,5.946,0,0,0-2.137,4.236c0,1.487.92,2.193,2.137,1.766v10.979a6.133,6.133,0,0,0-2.085,3.614l-24.216,13.98a1.46,1.46,0,0,0-2.085-1.206Z" transform="translate(-279.821 -52.704)"/><g transform="translate(0 47.064)"><path class="aq" d="M309.031,145.334a5.925,5.925,0,0,0-1.85-3.974v5.81C308.251,147.4,309.031,146.7,309.031,145.334Z" transform="translate(-307.181 -78.756)"/><path class="h" d="M336.306,213.053V202.074c1.218.426,2.137-.28,2.137-1.767a5.949,5.949,0,0,0-2.137-4.236V185.093a1.46,1.46,0,0,0,2.085-1.2l24.216,13.98a6.116,6.116,0,0,0,2.086,3.611V212.46c-1.219-.426-2.139.28-2.139,1.767a5.944,5.944,0,0,0,2.139,4.236v10.979a1.468,1.468,0,0,0-1.678.325l4.379,2.527a6.083,6.083,0,0,0-1.675-2.261V219.055a1.461,1.461,0,0,0,2.086-1.2L388.7,229.915V228.73L367.8,216.666a6.124,6.124,0,0,0-2.086-3.612V202.074c1.218.427,2.137-.28,2.137-1.767a5.942,5.942,0,0,0-2.137-4.234V185.094a1.461,1.461,0,0,0,2.086-1.2L388.7,195.953v-1.185L367.8,182.706a6.127,6.127,0,0,0-2.086-3.614V168.113c1.218.427,2.137-.278,2.137-1.766a5.948,5.948,0,0,0-2.137-4.236V151.133a1.461,1.461,0,0,0,2.086-1.2L388.7,161.993v-1.185L367.8,148.744a6.124,6.124,0,0,0-2.086-3.612V134.153c1.218.427,2.137-.28,2.137-1.767a5.942,5.942,0,0,0-2.137-4.234V117.173a1.461,1.461,0,0,0,2.086-1.206L388.7,128.031v-1.185L367.8,114.782a6.124,6.124,0,0,0-2.086-3.612v-11.4h-1.025v10.81c-1.219-.427-2.139.28-2.139,1.767a5.941,5.941,0,0,0,2.139,4.234v10.979a1.461,1.461,0,0,0-2.086,1.2l-24.216-13.98a6.122,6.122,0,0,0-2.085-3.612V100.191a1.451,1.451,0,0,0,1.764-.423H335.28v10.809c-1.218-.426-2.137.28-2.137,1.767a5.948,5.948,0,0,0,2.137,4.236v10.979a1.461,1.461,0,0,0-2.086,1.2l-24.214-13.98a6.135,6.135,0,0,0-1.8-3.33v5.792a1.429,1.429,0,0,0,1.8-1.278l24.214,13.98a6.132,6.132,0,0,0,2.086,3.612v10.979c-1.218-.427-2.137.28-2.137,1.767a5.942,5.942,0,0,0,2.137,4.234v10.979a1.462,1.462,0,0,0-2.086,1.2L308.98,148.744a6.13,6.13,0,0,0-1.8-3.329v5.792a1.43,1.43,0,0,0,1.8-1.279l24.214,13.982a6.124,6.124,0,0,0,2.086,3.611V178.5c-1.218-.427-2.137.278-2.137,1.766a5.948,5.948,0,0,0,2.137,4.236V195.48a1.461,1.461,0,0,0-2.086,1.2L308.98,182.7a6.126,6.126,0,0,0-1.8-3.328v5.79a1.429,1.429,0,0,0,1.8-1.278l24.214,13.98a6.132,6.132,0,0,0,2.086,3.613V212.46a1.47,1.47,0,0,0-1.675.327l4.355,2.514A6.061,6.061,0,0,0,336.306,213.053Zm0-78.9c1.218.427,2.137-.278,2.137-1.766a5.948,5.948,0,0,0-2.137-4.236V117.171a1.459,1.459,0,0,0,2.085-1.2l24.216,13.98a6.124,6.124,0,0,0,2.086,3.612v10.979c-1.219-.426-2.139.28-2.139,1.767a5.938,5.938,0,0,0,2.139,4.234v10.98a1.461,1.461,0,0,0-2.086,1.2l-24.216-13.98a6.117,6.117,0,0,0-2.085-3.612Zm0,33.962c1.218.427,2.137-.278,2.137-1.767a5.943,5.943,0,0,0-2.137-4.234V151.133a1.46,1.46,0,0,0,2.085-1.2l24.216,13.98a6.124,6.124,0,0,0,2.086,3.612V178.5c-1.219-.427-2.139.28-2.139,1.767a5.941,5.941,0,0,0,2.139,4.234V195.48a1.461,1.461,0,0,0-2.086,1.206l-24.214-13.98a6.131,6.131,0,0,0-2.086-3.614Z" transform="translate(-307.181 -99.768)"/><path class="ar" d="M308.324,165.493a6.337,6.337,0,0,0-.954-1.379A4.331,4.331,0,0,0,308.324,165.493Z" transform="translate(-307.086 -67.261)"/><path class="bb" d="M308.659,99.768h-1.478v.492A1.38,1.38,0,0,0,308.659,99.768Z" transform="translate(-307.181 -99.768)"/><path class="aq" d="M309.031,122.772a5.925,5.925,0,0,0-1.85-3.975v5.812C308.251,124.833,309.031,124.137,309.031,122.772Z" transform="translate(-307.181 -90.155)"/></g><path class="bc" d="M381.763,161.135l-72-41.567c-3.831-2.211-3.35-6.075,1.073-8.629l69.847-40.326c4.424-2.554,11.116-2.831,14.947-.62l72,41.567c3.831,2.213,3.35,6.075-1.073,8.629L396.71,160.515C392.286,163.07,385.594,163.348,381.763,161.135Z" transform="translate(-307.181 -68.5)"/><path class="m" d="M466.555,102.609l-69.847,40.327c-4.424,2.553-11.116,2.831-14.947.619l-72-41.566a5,5,0,0,1-2.395-2.651c-.577,1.8.193,3.617,2.395,4.887l72,41.567c3.831,2.213,10.523,1.934,14.947-.62l69.847-40.326c2.95-1.7,4.136-3.989,3.468-5.979A7.16,7.16,0,0,1,466.555,102.609Z" transform="translate(-307.178 -53.158)"/></g><g transform="translate(22.76)"><path class="bd" d="M376.06,143.575l-51.895-29.962c-2.761-1.594-2.414-4.379.774-6.219l50.346-29.067c3.19-1.841,8.012-2.041,10.774-.447l51.895,29.962c2.761,1.594,2.414,4.379-.774,6.219l-50.346,29.067C383.645,144.969,378.822,145.169,376.06,143.575Z" transform="translate(-322.302 -63.178)"/><path class="y" d="M420.1,97.1H361.338v47.534a12.42,12.42,0,0,0,5.775-1.508l50.346-29.067c1.656-.957,2.538-2.168,2.622-3.334h.015Z" transform="translate(-302.581 -63.173)"/><path class="p" d="M322.3,90.289v13.625h.014a3.122,3.122,0,0,0,1.85,2.885l51.895,29.962a9.765,9.765,0,0,0,5,1.061V90.289Z" transform="translate(-322.302 -56.365)"/><path class="be" d="M376.06,134.521,324.165,104.56c-2.761-1.594-2.414-4.379.774-6.219l50.346-29.067c3.19-1.841,8.012-2.041,10.774-.447l51.895,29.961c2.761,1.594,2.414,4.379-.774,6.219l-50.346,29.068C383.645,135.917,378.822,136.117,376.06,134.521Z" transform="translate(-322.302 -67.751)"/><path class="m" d="M437.175,92.023l-50.346,29.067c-3.189,1.841-8.012,2.041-10.774.447L324.16,91.576a3.659,3.659,0,0,1-1.638-1.754c-.548,1.365-.035,2.768,1.638,3.733l51.895,29.961c2.762,1.6,7.585,1.4,10.774-.446L437.175,94c2.208-1.273,3.018-3,2.411-4.466A5.348,5.348,0,0,1,437.175,92.023Z" transform="translate(-322.297 -56.746)"/><path class="bf" d="M371.159,119.8,336.541,99.81c-1.842-1.064-1.611-2.922.516-4.15l33.584-19.39a7.986,7.986,0,0,1,7.187-.3L412.447,95.96c1.842,1.063,1.611,2.92-.516,4.148L378.345,119.5A7.983,7.983,0,0,1,371.159,119.8Z" transform="translate(-315.736 -63.961)"/><path class="s" d="M336.541,99.81l6.445,3.721,27.655-15.967a7.986,7.986,0,0,1,7.187-.3L406,103.531l5.929-3.423c2.127-1.228,2.359-3.086.516-4.148L377.829,75.972a7.986,7.986,0,0,0-7.187.3L337.058,95.66C334.931,96.888,334.7,98.746,336.541,99.81Z" transform="translate(-315.736 -63.961)"/></g><path class="bg" d="M374.493,75.26a8.294,8.294,0,0,0-3.852,1.007l-33.584,19.39c-2.127,1.228-2.359,3.086-.516,4.15l6.445,3.721L370.641,87.56a8.294,8.294,0,0,1,3.852-1.007Z" transform="translate(-292.976 -63.958)"/></g><g transform="translate(92.469 211.546)"><g transform="translate(0 1.128)"><path class="bh" d="M320.519,358.585l-72-41.566c-3.831-2.213-3.351-6.075,1.073-8.629l69.847-40.327c4.424-2.554,11.116-2.831,14.947-.619l72,41.566c3.831,2.213,3.351,6.076-1.073,8.629l-69.847,40.327C331.042,360.521,324.35,360.8,320.519,358.585Z" transform="translate(-245.937 -170.699)"/><path class="c" d="M381.612,233.937H300.094V376.232a17.225,17.225,0,0,0,8.012-2.092l69.847-40.327c2.3-1.326,3.521-3.006,3.64-4.624h.02Z" transform="translate(-218.577 -186.872)"/><path class="c" d="M381.612,233.937H300.094V376.232a17.225,17.225,0,0,0,8.012-2.092l69.847-40.327c2.3-1.326,3.521-3.006,3.64-4.624h.02Z" transform="translate(-218.577 -186.872)"/><path class="d" d="M380.063,233.937v94.046h-.02c-.119,1.618-1.343,3.3-3.64,4.625l-69.848,40.326a16.575,16.575,0,0,1-6.462,1.969v1.329a17.225,17.225,0,0,0,8.012-2.092l69.847-40.327c2.3-1.326,3.521-3.006,3.64-4.624h.02V233.937Z" transform="translate(-218.577 -186.872)"/><path class="ap" d="M245.937,233.937v95.252h.02c-.108,1.5.726,2.941,2.566,4l72,41.566a13.521,13.521,0,0,0,6.934,1.474V233.937Z" transform="translate(-245.937 -186.872)"/><path class="f" d="M326.027,362.533V351.554a5.942,5.942,0,0,0,2.137-4.234c0-1.487-.92-2.193-2.137-1.767V334.574a6.13,6.13,0,0,0,2.085-3.612l24.215-13.98a1.46,1.46,0,0,0,2.085,1.2v10.979a5.948,5.948,0,0,0-2.137,4.236c0,1.487.92,2.193,2.137,1.766v10.979a6.042,6.042,0,0,0-1.63,2.2l4.311-2.488a1.472,1.472,0,0,0-1.654-.3V334.574a6.124,6.124,0,0,0,2.086-3.612l24.088-13.908v-1.185l-24.088,13.908a1.461,1.461,0,0,0-2.086-1.2v-10.98a5.942,5.942,0,0,0,2.137-4.234c0-1.487-.92-2.193-2.137-1.767V300.613A6.124,6.124,0,0,0,357.525,297l24.088-13.907v-1.185l-24.088,13.906a1.461,1.461,0,0,0-2.086-1.2V283.632a5.945,5.945,0,0,0,2.137-4.236c0-1.487-.92-2.193-2.137-1.766V266.652a6.124,6.124,0,0,0,2.086-3.612l24.088-13.908v-1.185l-24.088,13.908a1.462,1.462,0,0,0-2.086-1.206V249.671a5.942,5.942,0,0,0,2.137-4.234c0-1.487-.92-2.193-2.137-1.767v-9.733h-1.027v10.326a6.13,6.13,0,0,0-2.085,3.612l-24.215,13.98a1.459,1.459,0,0,0-2.085-1.2V249.672a5.948,5.948,0,0,0,2.137-4.236c0-1.487-.92-2.193-2.137-1.766v-9.734H325v10.326a6.132,6.132,0,0,0-2.086,3.612l-22.82,13.175v1.185l22.82-13.175a1.461,1.461,0,0,0,2.086,1.2v10.979a5.948,5.948,0,0,0-2.137,4.236c0,1.487.92,2.193,2.137,1.767v10.979a6.124,6.124,0,0,0-2.086,3.612l-22.82,13.175V296.2l22.82-13.175a1.461,1.461,0,0,0,2.086,1.2V295.2a5.945,5.945,0,0,0-2.137,4.234c0,1.489.92,2.195,2.137,1.767v10.979a6.123,6.123,0,0,0-2.086,3.614l-22.82,13.175v1.185l22.82-13.175a1.46,1.46,0,0,0,2.086,1.2v10.979a5.948,5.948,0,0,0-2.137,4.236c0,1.487.92,2.195,2.137,1.767v10.979a6.124,6.124,0,0,0-2.086,3.612l-22.82,13.175v1.185l22.82-13.175a1.461,1.461,0,0,0,2.086,1.2v10.979a6.074,6.074,0,0,0-1.654,2.214l4.338-2.5A1.476,1.476,0,0,0,326.027,362.533Zm0-78.9a5.942,5.942,0,0,0,2.137-4.234c0-1.487-.92-2.195-2.137-1.767V266.652a6.122,6.122,0,0,0,2.085-3.612l24.215-13.98a1.46,1.46,0,0,0,2.085,1.2v10.979a5.946,5.946,0,0,0-2.137,4.236c0,1.487.92,2.193,2.137,1.766v10.979a6.129,6.129,0,0,0-2.085,3.614l-24.215,13.979a1.461,1.461,0,0,0-2.085-1.2Zm0,33.962a5.946,5.946,0,0,0,2.137-4.236c0-1.487-.92-2.193-2.137-1.766V300.614A6.122,6.122,0,0,0,328.112,297l24.215-13.98a1.459,1.459,0,0,0,2.085,1.2V295.2a5.943,5.943,0,0,0-2.137,4.234c0,1.487.92,2.195,2.137,1.767v10.979a6.122,6.122,0,0,0-2.085,3.612l-24.215,13.98a1.459,1.459,0,0,0-2.085-1.2Z" transform="translate(-218.577 -186.872)"/><g transform="translate(0 47.065)"><path class="h" d="M275.062,347.221V336.242c1.218.427,2.137-.279,2.137-1.767a5.945,5.945,0,0,0-2.137-4.234V319.262a1.46,1.46,0,0,0,2.085-1.2l24.216,13.98a6.129,6.129,0,0,0,2.085,3.612v10.979c-1.218-.427-2.137.28-2.137,1.767a5.945,5.945,0,0,0,2.137,4.234v10.979a1.469,1.469,0,0,0-1.677.325l4.379,2.529a6.058,6.058,0,0,0-1.675-2.261V353.224a1.462,1.462,0,0,0,2.086-1.2l20.894,12.064V362.9L306.56,350.835a6.119,6.119,0,0,0-2.086-3.612V336.243c1.218.426,2.137-.28,2.137-1.767a5.948,5.948,0,0,0-2.137-4.236V319.262a1.461,1.461,0,0,0,2.086-1.2l20.894,12.064v-1.185L306.56,316.873a6.124,6.124,0,0,0-2.086-3.612V302.282c1.218.427,2.137-.28,2.137-1.767a5.942,5.942,0,0,0-2.137-4.234V285.3a1.462,1.462,0,0,0,2.086-1.2l20.894,12.063v-1.185L306.56,282.913a6.119,6.119,0,0,0-2.086-3.612V268.32c1.218.427,2.137-.279,2.137-1.766a5.949,5.949,0,0,0-2.137-4.236V251.34a1.461,1.461,0,0,0,2.086-1.2L327.454,262.2v-1.185L306.56,248.951a6.131,6.131,0,0,0-2.086-3.613v-11.4h-1.027v10.809c-1.218-.426-2.137.28-2.137,1.767a5.948,5.948,0,0,0,2.137,4.236v10.979a1.46,1.46,0,0,0-2.085,1.2l-24.216-13.98a6.122,6.122,0,0,0-2.085-3.613V234.36a1.455,1.455,0,0,0,1.764-.423h-2.791v10.809c-1.218-.427-2.137.28-2.137,1.767a5.942,5.942,0,0,0,2.137,4.234v10.979a1.461,1.461,0,0,0-2.086,1.206l-24.214-13.98a6.13,6.13,0,0,0-1.8-3.33v5.792a1.43,1.43,0,0,0,1.8-1.278l24.214,13.98a6.131,6.131,0,0,0,2.086,3.612v10.979c-1.218-.427-2.137.279-2.137,1.766a5.946,5.946,0,0,0,2.137,4.236v10.979a1.461,1.461,0,0,0-2.086,1.2l-24.214-13.98a6.136,6.136,0,0,0-1.8-3.329v5.792a1.429,1.429,0,0,0,1.8-1.278l24.214,13.98a6.131,6.131,0,0,0,2.086,3.612v10.979c-1.218-.427-2.137.28-2.137,1.767a5.942,5.942,0,0,0,2.137,4.234v10.979a1.461,1.461,0,0,0-2.086,1.206l-24.214-13.98a6.13,6.13,0,0,0-1.8-3.329v5.792a1.43,1.43,0,0,0,1.8-1.278l24.214,13.98a6.131,6.131,0,0,0,2.086,3.612v10.979a1.47,1.47,0,0,0-1.675.325l4.354,2.514A6.083,6.083,0,0,0,275.062,347.221Zm0-78.9c1.218.427,2.137-.28,2.137-1.767a5.945,5.945,0,0,0-2.137-4.234V251.34a1.46,1.46,0,0,0,2.085-1.2l24.216,13.98a6.129,6.129,0,0,0,2.085,3.612v10.979c-1.218-.427-2.137.28-2.137,1.767a5.945,5.945,0,0,0,2.137,4.234v10.979a1.46,1.46,0,0,0-2.085,1.2l-24.216-13.98a6.122,6.122,0,0,0-2.085-3.612Zm0,33.962c1.218.426,2.137-.28,2.137-1.767a5.948,5.948,0,0,0-2.137-4.236V285.3a1.459,1.459,0,0,0,2.085-1.2l24.216,13.98a6.129,6.129,0,0,0,2.085,3.612v10.98c-1.218-.427-2.137.279-2.137,1.766a5.948,5.948,0,0,0,2.137,4.236v10.979a1.46,1.46,0,0,0-2.085,1.2l-24.214-13.98a6.132,6.132,0,0,0-2.086-3.612Z" transform="translate(-245.937 -233.937)"/><path class="bi" d="M247.415,233.937h-1.478v.492A1.38,1.38,0,0,0,247.415,233.937Z" transform="translate(-245.937 -233.937)"/></g><path class="bj" d="M320.519,295.3l-72-41.567c-3.831-2.211-3.351-6.075,1.073-8.629l69.847-40.326c4.424-2.554,11.116-2.833,14.947-.62l72,41.567c3.831,2.211,3.351,6.075-1.073,8.629l-69.847,40.326C331.042,297.239,324.35,297.516,320.519,295.3Z" transform="translate(-245.937 -202.669)"/><path class="m" d="M405.311,236.779,335.464,277.1c-4.424,2.554-11.116,2.831-14.947.62l-72-41.567a5.007,5.007,0,0,1-2.395-2.649c-.576,1.8.193,3.615,2.395,4.887l72,41.567c3.831,2.211,10.523,1.934,14.947-.62l69.847-40.326c2.952-1.7,4.136-3.989,3.468-5.98A7.167,7.167,0,0,1,405.311,236.779Z" transform="translate(-245.934 -187.327)"/></g><g transform="translate(22.76)"><path class="bk" d="M314.816,277.742l-51.895-29.961c-2.76-1.594-2.414-4.379.774-6.219L314.041,212.5c3.189-1.841,8.012-2.041,10.773-.447l51.895,29.961c2.762,1.594,2.416,4.379-.772,6.219L325.59,277.3C322.4,279.138,317.578,279.336,314.816,277.742Z" transform="translate(-261.058 -197.346)"/><path class="y" d="M358.852,231.265H300.094V278.8a12.421,12.421,0,0,0,5.775-1.51l50.346-29.067c1.656-.956,2.538-2.166,2.622-3.332h.015Z" transform="translate(-241.337 -197.341)"/><path class="p" d="M261.058,224.457v13.627h.014a3.125,3.125,0,0,0,1.85,2.885l51.895,29.961a9.765,9.765,0,0,0,5,1.063V224.457Z" transform="translate(-261.058 -190.533)"/><path class="bl" d="M314.816,268.691,262.921,238.73c-2.76-1.6-2.414-4.38.774-6.221l50.346-29.067c3.189-1.841,8.012-2.041,10.773-.446l51.895,29.961c2.762,1.594,2.416,4.379-.772,6.219L325.59,268.244C322.4,270.085,317.578,270.285,314.816,268.691Z" transform="translate(-261.058 -201.919)"/><path class="m" d="M375.931,226.192l-50.346,29.067c-3.189,1.841-8.012,2.041-10.774.447l-51.895-29.962a3.656,3.656,0,0,1-1.638-1.752c-.548,1.365-.035,2.766,1.638,3.733l51.895,29.961c2.762,1.594,7.585,1.394,10.774-.447l50.346-29.067c2.207-1.275,3.016-3,2.411-4.467A5.357,5.357,0,0,1,375.931,226.192Z" transform="translate(-261.053 -190.914)"/><path class="bm" d="M309.915,253.965,275.3,233.977c-1.842-1.063-1.612-2.92.516-4.148L309.4,210.438a7.991,7.991,0,0,1,7.187-.3L351.2,230.127c1.842,1.064,1.611,2.922-.516,4.15L317.1,253.667A7.991,7.991,0,0,1,309.915,253.965Z" transform="translate(-254.493 -198.129)"/><path class="s" d="M275.3,233.977l6.445,3.721L309.4,221.731a7.991,7.991,0,0,1,7.187-.3L344.758,237.7l5.929-3.423c2.127-1.228,2.359-3.086.516-4.15l-34.618-19.986a7.991,7.991,0,0,0-7.187.3l-33.584,19.391C273.685,231.057,273.455,232.915,275.3,233.977Z" transform="translate(-254.493 -198.129)"/></g><path class="ay" d="M313.249,209.429a8.293,8.293,0,0,0-3.852,1.005l-33.584,19.391c-2.128,1.228-2.359,3.086-.516,4.148l6.445,3.721L309.4,221.728a8.293,8.293,0,0,1,3.852-1.005Z" transform="translate(-231.732 -198.125)"/></g><g transform="translate(92.469 107.521)"><g transform="translate(0 1.128)"><path class="bn" d="M320.519,289.28l-72-41.566c-3.831-2.213-3.351-6.075,1.073-8.629l69.847-40.327c4.424-2.554,11.116-2.831,14.947-.619l72,41.566c3.831,2.213,3.351,6.076-1.073,8.629l-69.847,40.327C331.042,291.216,324.35,291.493,320.519,289.28Z" transform="translate(-245.937 -101.394)"/><path class="c" d="M381.612,164.632H300.094V306.927a17.244,17.244,0,0,0,8.012-2.092l69.847-40.327c2.3-1.326,3.521-3.006,3.64-4.624h.02Z" transform="translate(-218.577 -117.567)"/><path class="c" d="M381.612,164.632H300.094V306.927a17.244,17.244,0,0,0,8.012-2.092l69.847-40.327c2.3-1.326,3.521-3.006,3.64-4.624h.02Z" transform="translate(-218.577 -117.567)"/><path class="d" d="M380.063,164.632v94.046h-.02c-.119,1.618-1.343,3.3-3.64,4.625l-69.848,40.326a16.574,16.574,0,0,1-6.462,1.969v1.329a17.244,17.244,0,0,0,8.012-2.092l69.847-40.327c2.3-1.326,3.521-3.006,3.64-4.624h.02V164.632Z" transform="translate(-218.577 -117.567)"/><path class="ap" d="M245.937,164.632v95.252h.02c-.108,1.5.726,2.941,2.566,4l72,41.566a13.522,13.522,0,0,0,6.934,1.474V164.632Z" transform="translate(-245.937 -117.567)"/><path class="f" d="M326.027,293.228V282.249a5.942,5.942,0,0,0,2.137-4.234c0-1.487-.92-2.193-2.137-1.767V265.269a6.131,6.131,0,0,0,2.085-3.611l24.215-13.982a1.46,1.46,0,0,0,2.085,1.2V259.86a5.948,5.948,0,0,0-2.137,4.236c0,1.487.92,2.193,2.137,1.766V276.84a6.056,6.056,0,0,0-1.63,2.2l4.311-2.488a1.472,1.472,0,0,0-1.654-.3V265.269a6.124,6.124,0,0,0,2.086-3.612l24.088-13.908v-1.185l-24.088,13.908a1.461,1.461,0,0,0-2.086-1.2V248.289a5.948,5.948,0,0,0,2.137-4.236c0-1.487-.92-2.193-2.137-1.767V231.308a6.124,6.124,0,0,0,2.086-3.612l24.088-13.906V212.6L357.525,226.51a1.461,1.461,0,0,0-2.086-1.2V214.327a5.945,5.945,0,0,0,2.137-4.236c0-1.487-.92-2.193-2.137-1.766V197.347a6.124,6.124,0,0,0,2.086-3.612l24.088-13.908v-1.185L357.525,192.55a1.461,1.461,0,0,0-2.086-1.2v-10.98a5.942,5.942,0,0,0,2.137-4.234c0-1.487-.92-2.193-2.137-1.767v-9.733h-1.027v10.326a6.13,6.13,0,0,0-2.085,3.612l-24.215,13.98a1.459,1.459,0,0,0-2.085-1.2V180.367a5.948,5.948,0,0,0,2.137-4.236c0-1.487-.92-2.193-2.137-1.766v-9.734H325v10.326a6.131,6.131,0,0,0-2.086,3.612l-22.82,13.175v1.185l22.82-13.175a1.461,1.461,0,0,0,2.086,1.2v10.979a5.948,5.948,0,0,0-2.137,4.236c0,1.487.92,2.193,2.137,1.767v10.979a6.124,6.124,0,0,0-2.086,3.612l-22.82,13.175v1.185l22.82-13.175a1.461,1.461,0,0,0,2.086,1.2V225.9a5.946,5.946,0,0,0-2.137,4.236c0,1.487.92,2.193,2.137,1.766v10.979a6.123,6.123,0,0,0-2.086,3.614l-22.82,13.175v1.185l22.82-13.175a1.46,1.46,0,0,0,2.086,1.2V259.86a5.948,5.948,0,0,0-2.137,4.236c0,1.487.92,2.193,2.137,1.767v10.979a6.124,6.124,0,0,0-2.086,3.612l-22.82,13.175v1.185l22.82-13.175a1.461,1.461,0,0,0,2.086,1.2v10.979a6.074,6.074,0,0,0-1.654,2.214l4.338-2.5A1.476,1.476,0,0,0,326.027,293.228Zm0-78.9a5.942,5.942,0,0,0,2.137-4.234c0-1.487-.92-2.195-2.137-1.767V197.347a6.122,6.122,0,0,0,2.085-3.612l24.215-13.98a1.46,1.46,0,0,0,2.085,1.2v10.979a5.946,5.946,0,0,0-2.137,4.236c0,1.487.92,2.193,2.137,1.766v10.979a6.13,6.13,0,0,0-2.085,3.612l-24.215,13.98a1.461,1.461,0,0,0-2.085-1.2Zm0,33.962a5.946,5.946,0,0,0,2.137-4.236c0-1.487-.92-2.193-2.137-1.766V231.309a6.121,6.121,0,0,0,2.085-3.614l24.215-13.979a1.46,1.46,0,0,0,2.085,1.2V225.9a5.942,5.942,0,0,0-2.137,4.234c0,1.487.92,2.193,2.137,1.767v10.979a6.122,6.122,0,0,0-2.085,3.612l-24.215,13.98a1.459,1.459,0,0,0-2.085-1.2Z" transform="translate(-218.577 -117.567)"/><g transform="translate(0 47.065)"><path class="h" d="M275.062,277.916V266.937c1.218.427,2.137-.278,2.137-1.767a5.945,5.945,0,0,0-2.137-4.234V249.957a1.46,1.46,0,0,0,2.085-1.2l24.216,13.98a6.129,6.129,0,0,0,2.085,3.612v10.979c-1.218-.428-2.137.28-2.137,1.767a5.945,5.945,0,0,0,2.137,4.234V294.3a1.472,1.472,0,0,0-1.677.325l4.379,2.527a6.078,6.078,0,0,0-1.675-2.259V283.919a1.462,1.462,0,0,0,2.086-1.2l20.894,12.064v-1.186L306.56,281.53a6.119,6.119,0,0,0-2.086-3.612V266.938c1.218.426,2.137-.28,2.137-1.767a5.948,5.948,0,0,0-2.137-4.236V249.957a1.461,1.461,0,0,0,2.086-1.2l20.894,12.064v-1.185L306.56,247.568a6.124,6.124,0,0,0-2.086-3.612V232.977c1.218.427,2.137-.28,2.137-1.767a5.942,5.942,0,0,0-2.137-4.234V216a1.462,1.462,0,0,0,2.086-1.2l20.894,12.063v-1.185L306.56,213.608A6.119,6.119,0,0,0,304.474,210v-10.98c1.218.427,2.137-.279,2.137-1.766a5.948,5.948,0,0,0-2.137-4.236V182.035a1.461,1.461,0,0,0,2.086-1.2l20.894,12.063v-1.185L306.56,179.646a6.131,6.131,0,0,0-2.086-3.612v-11.4h-1.027v10.809c-1.218-.426-2.137.28-2.137,1.767a5.948,5.948,0,0,0,2.137,4.236v10.979a1.46,1.46,0,0,0-2.085,1.2l-24.216-13.98a6.122,6.122,0,0,0-2.085-3.612V165.055a1.455,1.455,0,0,0,1.764-.423h-2.791v10.809c-1.218-.427-2.137.28-2.137,1.767a5.942,5.942,0,0,0,2.137,4.234v10.979a1.461,1.461,0,0,0-2.086,1.206l-24.214-13.982a6.131,6.131,0,0,0-1.8-3.328v5.792a1.43,1.43,0,0,0,1.8-1.278l24.214,13.98a6.131,6.131,0,0,0,2.086,3.612V209.4c-1.218-.427-2.137.278-2.137,1.766a5.946,5.946,0,0,0,2.137,4.236v10.979a1.461,1.461,0,0,0-2.086,1.2l-24.214-13.98a6.135,6.135,0,0,0-1.8-3.33v5.792a1.429,1.429,0,0,0,1.8-1.278l24.214,13.98a6.131,6.131,0,0,0,2.086,3.612v10.979c-1.218-.427-2.137.28-2.137,1.767a5.942,5.942,0,0,0,2.137,4.234v10.979a1.461,1.461,0,0,0-2.086,1.206l-24.214-13.98a6.13,6.13,0,0,0-1.8-3.329v5.792a1.43,1.43,0,0,0,1.8-1.278l24.214,13.98a6.131,6.131,0,0,0,2.086,3.612v10.979a1.469,1.469,0,0,0-1.675.325l4.354,2.514A6.071,6.071,0,0,0,275.062,277.916Zm0-78.9c1.218.427,2.137-.28,2.137-1.767a5.945,5.945,0,0,0-2.137-4.234V182.035a1.46,1.46,0,0,0,2.085-1.2l24.216,13.98a6.129,6.129,0,0,0,2.085,3.612V209.4c-1.218-.427-2.137.28-2.137,1.767a5.945,5.945,0,0,0,2.137,4.234v10.979a1.46,1.46,0,0,0-2.085,1.2l-24.216-13.98a6.122,6.122,0,0,0-2.085-3.613Zm0,33.962c1.218.426,2.137-.28,2.137-1.767a5.948,5.948,0,0,0-2.137-4.236V216a1.459,1.459,0,0,0,2.085-1.2l24.216,13.98a6.129,6.129,0,0,0,2.085,3.612v10.979c-1.218-.426-2.137.28-2.137,1.767a5.948,5.948,0,0,0,2.137,4.236v10.979a1.46,1.46,0,0,0-2.085,1.2l-24.214-13.98a6.131,6.131,0,0,0-2.086-3.612Z" transform="translate(-245.937 -164.632)"/><path class="bi" d="M247.415,164.632h-1.478v.492A1.38,1.38,0,0,0,247.415,164.632Z" transform="translate(-245.937 -164.632)"/></g><path class="bo" d="M320.519,226l-72-41.567c-3.831-2.211-3.351-6.075,1.073-8.629l69.847-40.327c4.424-2.553,11.116-2.831,14.947-.619l72,41.567c3.831,2.211,3.351,6.075-1.073,8.628L335.466,225.38C331.042,227.934,324.35,228.211,320.519,226Z" transform="translate(-245.937 -133.364)"/><path class="m" d="M405.311,167.474,335.464,207.8c-4.424,2.554-11.116,2.831-14.947.62l-72-41.567a5.007,5.007,0,0,1-2.395-2.649c-.576,1.8.193,3.615,2.395,4.887l72,41.567c3.831,2.211,10.523,1.934,14.947-.62l69.847-40.327c2.952-1.7,4.136-3.987,3.468-5.979A7.167,7.167,0,0,1,405.311,167.474Z" transform="translate(-245.934 -118.022)"/></g><g transform="translate(22.76)"><path class="bp" d="M314.816,208.437l-51.895-29.961c-2.76-1.594-2.414-4.379.774-6.219l50.346-29.067c3.189-1.841,8.012-2.041,10.773-.447L376.708,172.7c2.762,1.594,2.416,4.379-.772,6.219L325.59,207.99C322.4,209.833,317.578,210.031,314.816,208.437Z" transform="translate(-261.058 -128.041)"/><path class="y" d="M358.852,161.96H300.094V209.5a12.422,12.422,0,0,0,5.775-1.51l50.346-29.067c1.656-.956,2.538-2.166,2.622-3.334h.015Z" transform="translate(-241.337 -128.036)"/><path class="p" d="M261.058,155.152v13.625h.014a3.125,3.125,0,0,0,1.85,2.887l51.895,29.961a9.765,9.765,0,0,0,5,1.063V155.152Z" transform="translate(-261.058 -121.228)"/><path class="bq" d="M314.816,199.386l-51.895-29.961c-2.76-1.594-2.414-4.38.774-6.221l50.346-29.067c3.189-1.841,8.012-2.041,10.773-.447l51.895,29.962c2.762,1.594,2.416,4.379-.772,6.219L325.59,198.939C322.4,200.78,317.578,200.98,314.816,199.386Z" transform="translate(-261.058 -132.614)"/><path class="m" d="M375.931,156.887l-50.346,29.067c-3.189,1.841-8.012,2.041-10.774.447l-51.895-29.962a3.655,3.655,0,0,1-1.638-1.752c-.548,1.365-.035,2.767,1.638,3.733l51.895,29.961c2.762,1.594,7.585,1.394,10.774-.447l50.346-29.067c2.207-1.275,3.016-3,2.411-4.467A5.357,5.357,0,0,1,375.931,156.887Z" transform="translate(-261.053 -121.609)"/><path class="br" d="M309.915,184.66,275.3,164.673c-1.842-1.063-1.612-2.92.516-4.148L309.4,141.133a7.986,7.986,0,0,1,7.187-.3L351.2,160.822c1.842,1.064,1.611,2.922-.516,4.15L317.1,184.362A7.991,7.991,0,0,1,309.915,184.66Z" transform="translate(-254.493 -128.824)"/><path class="s" d="M275.3,164.673l6.445,3.721L309.4,152.426a8,8,0,0,1,7.187-.3l28.173,16.267,5.929-3.423c2.127-1.228,2.359-3.086.516-4.15l-34.618-19.986a7.986,7.986,0,0,0-7.187.3l-33.584,19.391C273.685,161.752,273.455,163.61,275.3,164.673Z" transform="translate(-254.493 -128.824)"/></g><path class="ay" d="M313.249,140.124a8.293,8.293,0,0,0-3.852,1.005l-33.584,19.391c-2.128,1.228-2.359,3.086-.516,4.148l6.445,3.721L309.4,152.423a8.311,8.311,0,0,1,3.852-1.005Z" transform="translate(-231.732 -128.82)"/></g></g></g><path class="bs" d="M167.951,388.834a.7.7,0,0,1-.351-1.31l100.046-57.762a.7.7,0,0,1,.7,1.215L168.3,388.739A.7.7,0,0,1,167.951,388.834Z" transform="translate(-167.251 74.166)"/></g></g></svg>