<svg xmlns="http://www.w3.org/2000/svg" width="138" height="36" viewBox="0 0 138 36"><g><g><g><path fill="#2d2a26" d="M6.495 6.725c1.82 0 3.505.888 4.306 2.131V6.947h3.462v12.696c0 4.04-2.797 6.57-7.147 6.57-3.551 0-5.948-1.599-6.436-4.484h3.64c.355 1.199 1.376 1.51 2.84 1.51 2.131 0 3.507-1.239 3.507-3.463v-1.42c-.754 1.331-2.175 2.263-4.35 2.263C2.855 20.575.28 17.645.28 13.65c0-4.04 2.53-6.925 6.215-6.925zm.754 10.831c1.998 0 3.463-1.73 3.463-3.862v-.266c0-2.13-1.554-3.64-3.463-3.64-1.953 0-3.329 1.554-3.329 3.906 0 2.306 1.332 3.862 3.33 3.862zm44.657-3.906c0-4.04 2.53-6.925 6.215-6.925 1.82 0 3.507.888 4.306 2.131V6.947h3.462v12.696c0 4.04-2.796 6.57-7.147 6.57-3.551 0-5.948-1.599-6.436-4.484h3.64c.355 1.199 1.376 1.51 2.84 1.51 2.131 0 3.507-1.239 3.507-3.463v-1.42c-.754 1.331-2.175 2.263-4.35 2.263-3.462-.044-6.037-2.974-6.037-6.969zm6.97 3.906c1.997 0 3.462-1.73 3.462-3.862v-.266c0-2.13-1.554-3.64-3.463-3.64-1.953 0-3.329 1.554-3.329 3.906 0 2.306 1.332 3.862 3.33 3.862zM17.37 6.947H21v13.362h-3.63zm28.277 0h3.596v13.362h-3.596zM25.671 3H29v3.947h3.108V10h-3.196v4.715c0 1.865.4 2.486 2.264 2.486.31 0 .754-.044 1.154-.088v3.018c-.8.133-1.465.178-2.175.178-3.24 0-4.706-1.643-4.706-4.75V10h-2.707V6.947h2.93zm10.61 0h3.373v3.947h3.063V10h-3.196v4.715c0 1.865.4 2.486 2.264 2.486.266 0 .8-.044 1.154-.088v3.018c-.754.133-1.42.178-2.175.178-3.24 0-4.705-1.643-4.705-4.75V10H33.35V6.947h2.93zm49.45 5.723V.91h3.596v19.399h-3.462V18.31c-.932 1.465-2.486 2.264-4.35 2.264-3.64 0-6.215-2.841-6.215-6.925s2.619-6.925 6.215-6.925c1.686 0 3.373.71 4.217 1.998zm-3.462 8.833c2.042 0 3.418-1.642 3.418-3.95v-.267c0-2.086-1.42-3.595-3.418-3.595-1.997 0-3.373 1.553-3.373 3.906 0 2.35 1.376 3.906 3.373 3.906zm18.378 8.257c-.932 0-1.554-.044-2.353-.133l.089-3.107c.71.088 1.198.088 1.864.088 1.243 0 2.042-.31 2.442-1.553l.222-.577-5.105-13.584h3.862l3.063 9.278L108 6.947h3.789l-5.948 15.137c-.977 2.442-2.486 3.729-5.194 3.729zm18.555-19.088c4.173 0 6.925 2.841 6.925 6.925s-2.752 6.925-6.925 6.925c-4.202 0-6.97-2.841-6.97-6.925 0-4.128 2.709-6.925 6.97-6.925zm0 10.831c2.042 0 3.285-1.556 3.285-3.862 0-2.264-1.243-3.906-3.285-3.906s-3.285 1.642-3.285 3.906c0 2.306 1.243 3.862 3.285 3.862zm9.588 2.753V6.947h3.463v3.24c.31-1.908 1.332-3.417 3.64-3.417.444 0 1.107.088 1.51.177l-.134 3.24C137 10.054 136.292 10 136 10c-2.637 0-3.614 1.653-3.614 4.76v5.549zM69 6.947h3.592v13.362H69zm23.346 0h3.595v13.362h-3.595z"/></g><g><path fill="#76777a" d="M121.158 29.32c0-.133.133-.267.266-.267s.267.09.267.267c0 .133-.09.266-.267.266-.177 0-.31-.133-.266-.266zm14.027-.32c.178 0 .267.142.267.275 0 .178-.134.267-.267.267a.287.287 0 0 1-.266-.267c0-.133.133-.275.266-.275zm2.264 1.074v.355c-.089 0-.133-.044-.222-.044-.444 0-.666.355-.666.932v1.154h-.443v-2.397h.399v.489a.66.66 0 0 1 .666-.563c.133 0 .177 0 .266.074zm-2.449 0h.363v2.442H135zM131.101 29c.178 0 .267.142.267.275a.287.287 0 0 1-.267.267c-.101 0-.266-.134-.266-.267s.089-.275.266-.275zm1.954 1.385c-.444 0-.8.355-.8.888s.311.888.8.888c.488 0 .799-.4.799-.932v-.045c0-.4-.356-.799-.8-.799zM134.253 29v3.516h-.355v-.444c-.133.31-.533.488-.898.488-.656 0-1.144-.56-1.144-1.287 0-.755.488-1.273 1.144-1.273.365 0 .72.163.854.43v-1.554c0 .124.399.124.399.124zm-3.374 1.074h.4v2.442h-.4zm-3.373.311c-.4 0-.71.31-.755.71h1.465c0-.4-.266-.71-.71-.71zm-28.055 1.42h2.841s0-1.242-1.376-1.242-1.465 1.243-1.465 1.243zm25.036-.532l1.154-1.199h.533l-1.11 1.155 1.199 1.331h-.533l-.932-1.02-.31.266v.754h-.4V29h.4zm-.799-1.199v.355c-.044 0-.133-.044-.222-.044-.466 0-.666.355-.666.932v1.154h-.444v-2.397h.4v.489c0-.311.31-.563.666-.563.133 0 .177 0 .266.074zm-2.086 0v2.442h-.4v-2.442zm8.168-.754v.754h.666v.355h-.666v1.243c0 .328.088.533.444.533.088 0 .177 0 .266-.044v.355c-.089 0-.222.044-.355.044-.533 0-.755-.266-.755-.888V30.43h-.532v-.355h.577v-.754zm-9.145 1.465h-.4c0-.267-.225-.444-.576-.444-.311 0-.533.133-.533.355 0 .133.133.304.444.355l.44.089c.448.133.67.355.67.71 0 .444-.4.71-1.021.71-.649 0-1.021-.355-1.021-.799H119c0 .239.25.489.649.489.351 0 .577-.134.577-.4 0-.178-.089-.266-.4-.355l-.4-.089c-.488-.133-.754-.31-.754-.666.044-.444.444-.74.977-.74.577 0 .976.34.976.785zm7.99.444v.177h-1.864c0 .444.31.8.755.8.355 0 .621-.134.666-.4h.4c-.134.488-.572.754-1.11.754-.71 0-1.2-.56-1.2-1.287.09-.71.578-1.273 1.244-1.273s1.11.518 1.11 1.229zM119.871 33l-.222.581h-.267l.09-.754h.399zm-15.581-.84v.045c0 .178.088 1.643 1.509 1.598 1.42 0 1.51-1.376 1.51-1.553 0 0 .044-1.732-1.51-1.687-1.42.044-1.51 1.332-1.51 1.598zm6.436.134c-.222 0-1.51 0-1.465.799.045.8 1.021.8 1.021.8 1.718 0 1.554-1.599 1.554-1.599zm-6.436-1.643s.532-.71 1.71-.71c1.22 0 2.373.844 2.33 2.309 0 .177-.045.355-.045.532.222-1.02 1.953-1.11 2.441-1.11h1.11c0-.577-.178-1.065-1.154-1.11-.888 0-1.066.489-1.11.622v.045h-1.021c.222-1.51 2.22-1.332 2.22-1.332 2.086.103 2.042 1.243 2.086 1.731v2.707H112l-.075-.576c-.4.488-.925.754-1.776.754-.888 0-2.042-.399-1.864-1.686l-.045.173c-.24 1-1.154 1.513-2.24 1.513-1.267 0-1.71-.71-1.71-.71l-.045.577h-.976c.044-.38.044-.976.044-.976v-.888h-3.906s.044 1.376 1.464 1.376c1.129 0 1.288-.755 1.288-.755h1.02s-.088 1.376-2.308 1.376c-2.263 0-2.44-1.73-2.44-2.13v-.222c0-.622.265-2.22 2.485-2.22 2.084 0 2.353 1.465 2.397 2.175v-3.862l.977-.044zm9.144-.577l1.642 3.285 1.643-3.285h1.02l-2.973 5.86h-1.11l.843-1.642L112.28 30h1.155z"/></g><g><path fill="#ea0029" d="M21.277 2.556c0-1.154-.932-2.086-2.13-2.086a2.089 2.089 0 0 0-2.087 2.086c0 1.154.94 2.087 2.086 2.087 1.199 0 2.131-.933 2.131-2.087"/></g><g><path fill="#80bc00" d="M49.553 2.556A2.084 2.084 0 0 0 47.466.47a2.084 2.084 0 0 0-2.086 2.086c0 1.154.932 2.087 2.086 2.087 1.11 0 2.087-.933 2.087-2.087"/></g><g><path fill="#0071ce" d="M72.903 2.556A2.065 2.065 0 0 0 70.816.47a2.084 2.084 0 0 0-2.086 2.086c0 1.154.932 2.087 2.086 2.087 1.11 0 2.087-.933 2.087-2.087"/></g><g><path fill="#f5a800" d="M96.253 2.556A2.084 2.084 0 0 0 94.166.47a2.076 2.076 0 0 0-2.086 2.086c0 1.154.92 2.087 2.086 2.087a2.084 2.084 0 0 0 2.087-2.087"/></g></g></g></svg>