<svg xmlns="http://www.w3.org/2000/svg" width="141" height="23" viewBox="0 0 141 23"><g><g clip-path="url(#clip-78F24D53-B82D-4529-84D1-511F83333C14)"><path fill="#ff6000" d="M58.298 3.934A1.902 1.902 0 0 1 56.395 2c0-2.554 3.807-2.554 3.807 0a1.902 1.902 0 0 1-1.904 1.934zm79.127 14.289v.023zm0-1.528c-.493.517-1.034.963-1.668 1.305-.757.434-1.598.646-2.539.646-1.218 0-2.218-.353-2.984-1.034-.776-.682-1.175-1.612-1.175-2.914 0-1.622.634-2.797 1.88-3.526.681-.4 1.715-.681 3.061-.846l1.169-.14c.635-.071 1.105-.186 1.387-.306.444-.212.752-.54.752-.987 0-.54-.188-.893-.564-1.128-.376-.212-.94-.306-1.669-.306-.822 0-1.41.212-1.763.611-.258.306-.423.705-.493 1.222h-3.337c.07-1.151.4-2.115.963-2.843.917-1.152 2.491-1.74 4.724-1.74 1.457 0 2.75.291 3.831.847 1.175.587 1.739 1.668 1.739 3.243v6.063c0 .423 0 2.75.023 3.36h-3.336c.003-.172.02-1.247 0-1.527zm-.117-4.888v.015l.023-.015zm-.658.329c-.306.094-.65.188-.917.235l-.733.141c-.771.117-1.312.282-1.64.488-.541.287-.823.781-.823 1.439 0 .561.164 1.01.463 1.269.36.292.759.4 1.229.4a3.52 3.52 0 0 0 2.092-.659c.679-.449.963-1.221.987-2.373v-1.254c-.206.13-.432.183-.658.314zm-27.355 6.087v.023zm0-1.528A7.027 7.027 0 0 1 107.65 18c-.752.434-1.598.646-2.538.646-1.199 0-2.186-.353-2.985-1.034C101.352 16.93 101 16 101 14.698c0-1.622.586-2.797 1.832-3.526.705-.4 1.716-.681 3.055-.846l1.175-.14c.635-.071 1.105-.186 1.387-.306.493-.212.752-.54.752-.987 0-.54-.201-.893-.564-1.128-.376-.212-.94-.306-1.637-.306-.854 0-1.442.212-1.794.611-.259.306-.423.705-.494 1.222h-3.337c.07-1.151.4-2.115.963-2.843.917-1.152 2.492-1.74 4.724-1.74 1.457 0 2.75.291 3.878.847 1.128.587 1.692 1.668 1.692 3.243v6.063c0 .423 0 2.75.023 3.36h-3.36c.003-.172.021-1.247 0-1.527zm-.118-4.888v.016l.024-.016zm-.634.329c-.235.07-.543.164-.94.235l-.776.141c-.728.117-1.269.282-1.598.488-.54.287-.822.781-.822 1.439 0 .561.164 1.01.493 1.269.33.292.729.4 1.199.4a3.56 3.56 0 0 0 2.091-.659c.635-.449.964-1.221.987-2.373v-1.253a2.683 2.683 0 0 1-.634.313zM123.77 6.66V.104h3.502v18.119h-3.36v-1.834c-.494.776-1.058 1.363-1.693 1.716-.634.353-1.41.54-2.35.54-1.551 0-2.87-.645-3.87-1.88-1.089-1.245-1.63-2.867-1.63-4.817 0-2.256.518-4.042 1.552-5.335 1.078-1.292 2.42-1.95 4.183-1.95.799 0 1.528.188 2.139.54a4.33 4.33 0 0 1 1.527 1.457zm.094 5.147c0-1.622-.4-2.807-1.222-3.478a2.646 2.646 0 0 0-1.739-.635c-1.01 0-1.762.376-2.232 1.152-.47.752-.672 1.715-.672 2.843 0 1.222.202 2.21.695 2.938.494.728 1.222 1.104 2.186 1.104.963 0 1.715-.376 2.209-1.104.517-.729.775-1.627.775-2.82zM99.777 4.686v3.549a6.954 6.954 0 0 0-.987-.07c-1.387 0-2.327.446-2.79 1.362-.265.473-.406 1.293-.406 2.35V18.2h-3.478V5h3.313v2.271c.571-.893 1.01-1.48 1.387-1.81.658-.54 1.48-.822 2.538-.822.023.024.07.024.117.024s.141.023.306.023zM81.07 13c0 .71.094 1.274.259 1.65.329.658.94 1.01 1.856 1.01 1.175 0 1.975-.47 2.421-1.432.235-.518.33-1.228.33-2.045V5h3.5v13.199h-3.36v-1.88c-.076.118-.164.235-.235.376-.117.212-.282.376-.47.54-.54.494-1.058.823-1.574.988-.494.164-1.105.258-1.797.258-1.917 0-3.233-.705-3.914-2.115-.376-.775-.564-1.927-.564-3.431v-7.99L81.07 5zm-5.358-1.546c0 2.068-.493 3.76-1.457 5.123-.963 1.363-2.326 2.022-4.089 2.022-1.104 0-1.974-.212-2.656-.659-.399-.258-.822-.704-1.292-1.363v1.67H62.81V.126h3.455v6.604c.446-.611.917-1.081 1.457-1.41.635-.4 1.434-.611 2.397-.611 1.74-.024 3.126.61 4.113 1.88.987 1.245 1.48 2.867 1.48 4.864zm-3.619.353c0-.94-.093-1.716-.376-2.327-.47-1.151-1.316-1.739-2.585-1.739S67 8.305 66.523 9.457c-.235.61-.376 1.386-.376 2.35 0 1.128.259 2.068.752 2.82.517.752 1.27 1.104 2.327 1.104.917 0 1.598-.376 2.115-1.08.494-.73.752-1.651.752-2.844zm-15.487 6.416V5h3.502v13.223zm-9.964-2.915c.423.47 1.222.692 2.358.692.72 0 1.261-.104 1.66-.315.4-.212.612-.518.612-.917 0-.4-.165-.682-.494-.893-.329-.212-1.528-.54-3.62-1.034-1.503-.376-2.56-.841-3.158-1.41-.625-.54-.93-1.34-.93-2.374 0-1.222.47-2.28 1.433-3.149.964-.908 2.327-1.316 4.066-1.316 1.645 0 3.008.33 4.042.987 1.034.658 1.645 1.786 1.786 3.421h-3.455c-.047-.46-.164-.812-.375-1.07-.377-.47-1.035-.706-1.951-.706-.752 0-1.293.118-1.616.353-.335.235-.476.517-.476.822 0 .4.165.682.476.87.394.188 1.592.517 3.66.963 1.34.33 2.421.768 3.103 1.457.681.658 1.01 1.504 1.01 2.491 0 1.317-.493 2.374-1.457 3.22-.987.823-2.491 1.246-4.536 1.246-2.091 0-3.619-.447-4.63-1.316-.986-.87-1.48-1.998-1.48-3.33h3.502c.07.604.235 1 .47 1.308zm-5.1-3.877c0 2.326-.542 4.112-1.542 5.334C38.91 18 37.547 18.6 35.879 18.6c-1.058 0-1.951-.259-2.633-.8-.376-.281-.752-.728-1.128-1.268v6.556h-3.43V5H32v1.942c.377-.564.776-1.034 1.2-1.363.8-.579 1.692-.893 2.8-.893 1.524 0 2.84.588 3.92 1.716 1.08 1.151 1.622 2.82 1.622 5.029zM35 7.718c-1.284 0-2.153.587-2.623 1.786-.259.634-.377 1.433-.377 2.397 0 1.55.424 2.609 1.246 3.243.494.376 1.058.54 1.754.54.949 0 1.701-.376 2.218-1.104.517-.752.782-1.74.782-2.985a5.23 5.23 0 0 0-.735-2.702C36.795 8.117 36 7.718 35 7.718zM25.89 7.2c.541.799.894 1.692 1.058 2.726.052.61.141 1.48.118 2.632H17.43c.048 1.34.518 2.256 1.387 2.796.517.33 1.183.494 1.904.494.799 0 1.433-.212 1.927-.611.258-.238.517-.517.705-.916H26.9c-.094.775-.517 1.574-1.292 2.397-1.175 1.281-2.844 1.927-4.982 1.927-1.763 0-3.314-.541-4.627-1.646-1.366-1.057-2-2.82-2-5.264 0-2.303.563-4.042 1.785-5.287C17 5.227 18.582 4.616 20.51 4.616c1.152.023 2.186.235 3.102.634a5.359 5.359 0 0 1 2.28 1.95zm-8.365 3.078h5.969c-.07-.916-.376-1.621-.917-2.091-.577-.47-1.245-.705-2.044-.705-.917 0-1.622.258-2.092.752-.493.517-.799 1.198-.916 2.044zm-5.876-3.924c.351.493.588 1.01.658 1.527.07.517.118 1.363.118 2.562v7.779H8.9v-8.061c0-.729-.118-1.293-.353-1.74-.305-.61-.916-.916-1.786-.916-.916 0-1.598.306-2.068.917C4.223 9 4 9.903 4 11v7.199H.51V.15H4v5.97c.6-.635.928-.846 1.563-1.12a6.509 6.509 0 0 1 2.209-.384c.822.023 1.574.164 2.228.446.662.282 1.203.729 1.65 1.293z"/></g></g></svg>