<svg xmlns="http://www.w3.org/2000/svg" width="121" height="32" viewBox="0 0 121 32"><g><g><g><path fill="#d8127e" d="M4.432 24.909H0l.459-3.105 4.424-.004-.45 3.109zM13.51 21.8c-.266 1.784-.51 3.109-.51 3.109H8.636l.458-3.109zm8.68 0l-.453 3.109h-4.433l.454-3.107zm5.81 0c.342.3.876.507 1.606.555.999.067 1.962-.246 2.643-.552l4.882-.003c-.131.561-.131.908-.131.908l-1.125.872c-1.39 1.018-3.3 1.579-5.605 1.786C28 25.573 25 25 23.876 22.439a8.044 8.044 0 0 1-.24-.637zm15 0c-1.606 2.04-3.657 4.573-3.657 4.573l-1.474-3.602.707-.971zm9.704 0l.695 1.033.149-1.033h4.178l-.455 3.12h-2.45L57 28.147l-4.286 3.394-5.586-9.739zm11.058 0l-.45 3.109H58.88l.458-3.105zm8.628 0l-.462 3.109h-4.412s.197-1.34.484-3.109zm8.68 0a3484.32 3484.32 0 0 1-.454 3.109h-4.432l.453-3.107zm6.51 0c.122.272.3.495.552.618.769.373 2.014.31 2.533-.146.166-.145.335-.272.478-.468l4.639-.004c-.336.776-.782 1.522-1.442 2.03-1.34 1.058-2.761 1.598-6.228 1.598-3.467 0-4.817-2.076-5.024-3.428a4.776 4.776 0 0 1-.029-.196zm14.55 0l-.451 3.109h-4.432l.459-3.105zm8.626 0c-.265 1.784-.46 3.109-.46 3.109h-4.413l.457-3.109zm8.681 0c-.259 1.777-.437 3.109-.437 3.109h-4.449s.198-1.346.449-3.107z"/></g><g><path fill="#d8127e" d="M1.787 12.82c.145-.977.934-2.762 2.213-3.748A7.234 7.234 0 0 1 8.68 7.4c1.91 0 3.03.467 3.675.82.645.353 1.058.78 1.058.78s.53-.5 1.587-.925c1-.425 1.735-.685 3.417-.685 1.681 0 3.25.54 3.934 1.214.649.675.914 1.08 1.173 2.253 0 0 .135.852-.041 2.076l-1.29 8.858-4.433.003c.463-3.174 1.122-7.699 1.176-8.092.064-.613.26-1.89-.166-2.45-.426-.56-1.194-.706-1.77-.665-.587.041-1.791.219-2.112 2.139C14.68 14 14 18.606 13.51 21.79l-4.416.003c.485-3.302 1.188-8.098 1.235-8.477.073-.58.177-1.951-.602-2.45-.778-.498-2.18-.383-2.728.405-.594.79-.719 1.173-.916 2.378-.084.763-.755 5.088-1.2 8.148L.46 21.794c.54-3.36 1.232-8.337 1.327-8.975zm21.85 8.974c-.755-2.413.04-5.242 2.898-6.69 3.114-1.58 7.806-1.496 7.806-1.496s.353-1.412-.415-2.097c-.856-.763-1.744-.511-3.675-.208-1.93.312-4.09 1.236-4.09 1.236L26.659 9S28 8.085 31.247 7.587c3.28-.498 4.443.125 5.896 1.205 1.454 1.08 1.454 2.948 1.288 4.131-.133.945-.968 6.624-1.299 8.868l-4.881.003c.591-.264.969-.525.969-.525l.727-4.775s-.947.062-1.682.125c-.706.062-1.786.166-3.176.685-1.392.519-1.931 1.599-1.931 2.696 0 .656.215 1.335.842 1.797zm14.94 0c1.423-1.945 4.476-6.146 4.556-6.266.104-.155.135-.528-.01-.81-.123-.27-3.28-5.626-3.436-5.926-.156-.302-.353-.893-.073-2.077.28-1.183 1.018-1.536 1.386-1.588.296-.052.618.073 1 .665.386.59 3.531 5.304 3.667 5.511.134.208.333.27.529.021.176-.249 6.57-9.062 6.882-9.488.312-.425 1.1-1.277 1.858-1.39.758-.115 1.329-.022 1.858.373.53.394.987 1.181.893 2.066-.094.85-.56 1.588-1.308 2.533-.747.945-7.485 9.145-7.66 9.343-.177.239-.188.508-.146.767.041.26.427.82.623 1.05.114.167 2.345 3.483 3.51 5.215h-5.577l-1.453-2.527c-.103-.176-.259-.426-.602.01A124.74 124.74 0 0 1 43 21.79zm14.972 0L55.56 7.92h4.194l-2.026 13.874zm5.79 0l1.328-8.975c.145-.976.934-2.76 2.168-3.747C64.071 8.085 65.65 7.4 67.56 7.4c1.91 0 3.032.467 3.675.82.643.353 1.06.78 1.06.78s.529-.5 1.567-.925c1.037-.425 1.754-.685 3.435-.685 1.704 0 3.25.54 3.934 1.214.685.675.914 1.08 1.174 2.253 0 0 .135.852-.041 2.076l-1.291 8.858-4.433.003a3426.58 3426.58 0 0 0 1.176-8.092c.084-.613.26-1.89-.165-2.45-.426-.56-1.195-.706-1.776-.665-.582.041-1.785.219-2.107 2.139-.206 1.274-.903 5.88-1.376 9.064L68 21.795c.46-3.302 1.162-8.098 1.21-8.477.072-.58.176-1.951-.602-2.45-.78-.498-2.18-.383-2.75.405-.572.79-.696 1.173-.858 2.378-.16.763-.792 5.088-1.237 8.148zm23.722 0c-.165-1.275-.061-2.525.257-4.262.29-1.827 1.442-9.592 1.442-9.592h4.402s-1.63 11.128-1.755 11.96c-.083.558-.073 1.332.175 1.893zm8.084 0c.324-.377.604-.904.788-1.895.27-1.453 1.807-11.98 1.807-11.98h4.338s-1.473 10.257-1.64 11.502a9.388 9.388 0 0 1-.655 2.373zm6.562 0c.496-3.36 1.231-8.337 1.293-8.975.18-.976 1-2.76 2.204-3.747C102.439 8.085 104 7.4 105.926 7.4c1.911 0 3.074.467 3.675.82.644.353 1.06.78 1.06.78s.528-.5 1.566-.925c1.04-.425 1.773-.685 3.436-.685 1.682 0 3.25.54 3.934 1.214.687.675.915 1.08 1.174 2.253 0 0 .134.852-.042 2.076-.114.794-.812 5.584-1.29 8.858l-4.439.003c.47-3.174 1.13-7.699 1.183-8.092.082-.613.26-1.89-.183-2.45-.41-.56-1.178-.706-1.759-.665-.58.041-1.785.219-2.107 2.139-.206 1.274-.901 5.88-1.376 9.064l-4.416.004c.484-3.302 1.189-8.098 1.235-8.477.072-.58.177-1.951-.577-2.45-.804-.498-2.205-.383-2.776.405-.57.79-.696 1.173-.893 2.378-.125.763-.756 5.088-1.2 8.148zM44.307 4C44.683 2.186 46 .736 47.3.736c1.277 0 2.008 1.45 1.632 3.264-.376 1.763-1.715 3.213-2.993 3.213-1.276 0-2.008-1.45-1.632-3.213z"/></g></g></g></svg>