<svg xmlns="http://www.w3.org/2000/svg" width="129" height="36" viewBox="0 0 129 36"><defs><clipPath id="u58qa"><path d="M.71 12.35h23.581v23.581H.71z"/></clipPath><clipPath id="u58qb"><path d="M115.54 12.35h13.329v23.581H115.54z"/></clipPath><clipPath id="u58qc"><path d="M43.78 6.2h13.328v29.733H43.78z"/></clipPath></defs><g><g><g><path fill="#ef5425" d="M94.53.47l-1.058.818v1.297l-.907-.908-1.337.16-.17 1.328.942.918h-1.308L89.86 5.14l.818 1.058H92l-.932.908.16 1.336 1.327.171.917-.917V9l1.059.812L95.59 9V7.697l.907.907 1.337-.16L98 7.116l-.913-.918h1.283l.832-1.058-.818-1.058h-1.297L98 3.175l-.166-1.337-1.327-.17-.917.917V1.301z"/></g><g><g><g/><g clip-path="url(#u58qa)"><path fill="#231f20" d="M17.627 12.35c-2.06 0-3.903.94-5.126 2.411a6.651 6.651 0 0 0-5.127-2.41C3.7 12.35.71 15.338.71 19v16.931h3.076V19c0-2 1.61-3.574 3.588-3.574C9.353 15.426 11 17 11 19v16.931h3V19c0-2 1.648-3.574 3.627-3.574A3.567 3.567 0 0 1 21.216 19v16.931h3.075V19c0-3.66-2.99-6.65-6.664-6.65"/></g></g><g><path fill="#231f20" d="M34 12.35c3.71 0 6.698 2.99 6.698 6.65v10.267c0 3.674-2.989 6.664-6.698 6.664-3.64 0-6.63-2.99-6.63-6.664V19c0-3.66 2.99-6.65 6.63-6.65zM37.623 19c0-2-1.623-3.574-3.623-3.574A3.56 3.56 0 0 0 30.446 19v10.267c0 1.979 1.61 3.589 3.554 3.589 2 0 3.623-1.61 3.623-3.589z"/></g><g><path fill="#231f20" d="M66.844 12.35c3.675 0 6.664 2.99 6.664 6.65v10.267a6.672 6.672 0 0 1-6.664 6.664 6.672 6.672 0 0 1-6.664-6.664c0-3.637 2.943-5.048 5.54-6.267.15-.098.28-.17.455-.244h.001l.525-.257c2.595-1.26 3.732-1.971 3.732-3.499 0-2-1.61-3.574-3.589-3.574A3.567 3.567 0 0 0 63.255 19v1.552H60.18v-1.665h.003c.068-3.616 3.029-6.537 6.661-6.537zM70.433 24c-.778.483-1.613.89-2.433 1.265-.128.085-.303.17-.476.256l-.005.001-.006.004-.463.222c-2.696 1.252-3.795 1.973-3.795 3.52a3.593 3.593 0 0 0 3.59 3.588 3.593 3.593 0 0 0 3.588-3.589z"/></g><g><path fill="#231f20" d="M83.244 12.35c-3.675 0-6.664 2.99-6.664 6.65v16.931h3.076V19c0-2 1.61-3.574 3.588-3.574A3.567 3.567 0 0 1 86.833 19v16.931h3.075V19c0-3.66-2.99-6.65-6.664-6.65"/></g><g><path fill="#231f20" d="M105.804 12.35c-3.675 0-6.664 2.99-6.664 6.65 0 3.61 3.029 5.083 5.463 6.265.173.085.397.17.522.256l.005.001.005.004.464.223c2.695 1.251 3.794 1.972 3.794 3.518a3.593 3.593 0 0 1-3.59 3.589 3.593 3.593 0 0 1-3.587-3.589l-.001-.012V27.59H99.14v1.677a6.672 6.672 0 0 0 6.664 6.664 6.672 6.672 0 0 0 6.664-6.664c0-3.637-2.943-5.048-5.54-6.267-.15-.098-.302-.17-.455-.244l-.526-.257c-2.595-1.26-3.731-1.971-3.731-3.499 0-2 1.61-3.574 3.588-3.574A3.567 3.567 0 0 1 109.393 19v1.552h3.075v-1.665h-.003c-.068-3.616-3.029-6.537-6.661-6.537"/></g><g><g/><g clip-path="url(#u58qb)"><path fill="#231f20" d="M122.204 12.35c3.675 0 6.665 2.99 6.665 6.65v10.267a6.672 6.672 0 0 1-6.665 6.664 6.672 6.672 0 0 1-6.664-6.664c0-3.637 2.944-5.048 5.54-6.267.15-.098.303-.17.456-.244l.525-.257c2.595-1.26 3.732-1.971 3.732-3.499 0-2-1.61-3.574-3.589-3.574A3.567 3.567 0 0 0 118.616 19v1.552h-3.076v-1.665h.003c.068-3.616 3.03-6.537 6.661-6.537zM125.793 24c-.793.483-1.613.89-2.387 1.265l-.522.256-.005.001-.006.004-.463.222c-2.696 1.252-3.794 1.973-3.794 3.52a3.593 3.593 0 0 0 3.588 3.588 3.593 3.593 0 0 0 3.589-3.589z"/></g></g><g><path fill="#231f20" d="M93 12.35v23.581h3.066V12.35z"/></g><g><g/><g clip-path="url(#u58qc)"><path fill="#231f20" d="M57.108 6.2v23.069a6.672 6.672 0 0 1-6.664 6.664 6.672 6.672 0 0 1-6.664-6.664V19c0-3.659 2.99-6.648 6.664-6.648 1.32 0 2.556.388 3.556 1.053V6.2zM54 19c0-2-1.577-3.573-3.556-3.573A3.565 3.565 0 0 0 46.856 19v10.269a3.593 3.593 0 0 0 3.588 3.589c1.979 0 3.556-1.61 3.556-3.589z"/></g></g></g></g></g></svg>