<svg xmlns="http://www.w3.org/2000/svg" width="407.522" height="386.631" viewBox="0 0 407.522 386.631"><defs><style>.a{fill:rgba(0,0,0,0.38);stroke:rgba(0,0,0,0);stroke-miterlimit:10;}</style></defs><path class="a" d="M7923.581,455.509q-20.878-19.978-20.878-55.9t20.878-55.677q20.881-19.754,53.656-19.755,33.227,0,53.881,19.755t20.654,55.677q0,35.918-20.654,55.9t-53.881,19.981Q7944.459,475.49,7923.581,455.509Zm36.145-77.677q-6.286,7.86-6.284,21.777,0,14.367,6.284,22.226t17.512,7.857q10.775,0,17.288-7.857t6.511-22.226q0-13.919-6.511-21.777t-17.288-7.857Q7966.013,369.975,7959.725,377.832ZM7759.022,471l173.314-318.342h74.086L7833.108,471Zm-53.157-80.969a8.657,8.657,0,0,1-2.948-15.95,8.451,8.451,0,0,1,6.7-1.6,9.617,9.617,0,0,1,6.963,10.326,8.492,8.492,0,0,1-4.007,5.587,9.3,9.3,0,0,1-5.2,1.795A7.2,7.2,0,0,1,7705.865,390.031Zm.337-11.078a4.025,4.025,0,0,0-1.728,2.043,2.685,2.685,0,0,0,2.253,3.34,3.919,3.919,0,0,0,2.556-.812,3.852,3.852,0,0,0,1.669-2.037,2.687,2.687,0,0,0-2.253-3.34q-.11-.009-.221-.009A4.119,4.119,0,0,0,7706.2,378.953Zm-19.445-14.042,41.789-3.977,4.8,7.113-41.789,3.977Zm23.8-4.419a8.68,8.68,0,0,1-5.371-3.874,8.824,8.824,0,0,1-1.637-6.517,9.812,9.812,0,0,1,10.692-7.212,8.825,8.825,0,0,1,5.43,3.959,8.668,8.668,0,0,1,1.578,6.432,8.448,8.448,0,0,1-3.993,5.61,9.2,9.2,0,0,1-5.144,1.775A7.125,7.125,0,0,1,7710.557,360.492Zm.3-11.086a3.932,3.932,0,0,0-1.683,2.013,2.4,2.4,0,0,0,.352,2.148,2.6,2.6,0,0,0,1.916,1.214,4.471,4.471,0,0,0,4.183-2.819,2.611,2.611,0,0,0-.408-2.235,2.4,2.4,0,0,0-1.861-1.128c-.075-.006-.15-.009-.227-.009A4.109,4.109,0,0,0,7710.858,349.406Zm23.245-70.129q-20.878-19.757-20.878-55.675t20.878-55.677q20.878-19.757,54.553-19.755,32.779,0,53.657,19.755t20.878,55.677q0,35.918-20.878,55.675t-53.657,19.757Q7754.981,299.034,7734.1,279.277Zm36.593-77.452q-6.283,7.857-6.285,21.777t6.285,21.775q6.286,7.857,17.063,7.859,11.224,0,17.96-7.859t6.735-21.775q0-13.919-6.735-21.777t-17.96-7.857Q7776.984,193.968,7770.7,201.824Zm218.936,73.68,3.033-2.544,3.842,18.989-3.033,2.546Zm10.035,12.727a4.528,4.528,0,0,1-3.825-4.559,4.01,4.01,0,0,1,1.518-2.653,4.071,4.071,0,0,1,2.914-1.065,4.528,4.528,0,0,1,3.825,4.559,4.519,4.519,0,0,1-4.2,3.725C7999.82,288.237,7999.744,288.235,7999.667,288.231Zm-.7-5.367a1.2,1.2,0,0,0-.465.938,2.066,2.066,0,0,0,1.5,1.784,1.2,1.2,0,0,0,1.006-.3,1.11,1.11,0,0,0,.428-.909,2.183,2.183,0,0,0-1.5-1.782,1.169,1.169,0,0,0-.23-.024A1.136,1.136,0,0,0,7998.97,282.864Zm-13.08,4.648a4.58,4.58,0,0,1-3.833-4.569,3.994,3.994,0,0,1,7.178-2.124,3.9,3.9,0,0,1,1.059,3,4.01,4.01,0,0,1-1.518,2.653,4.053,4.053,0,0,1-2.641,1.051C7986.053,287.519,7985.972,287.517,7985.89,287.511Zm-.74-5.363a1.138,1.138,0,0,0-.438.915,1.813,1.813,0,0,0,.5,1.134,1.782,1.782,0,0,0,1.015.669,1.145,1.145,0,0,0,.978-.273,1.132,1.132,0,0,0,.447-.923,1.815,1.815,0,0,0-.491-1.107,1.864,1.864,0,0,0-1.021-.7,1.153,1.153,0,0,0-.221-.022A1.173,1.173,0,0,0,7985.15,282.148Zm-307.167-24.261a4.5,4.5,0,0,1-1.53-8.283,4.39,4.39,0,0,1,3.478-.831,4.994,4.994,0,0,1,3.615,5.361,4.417,4.417,0,0,1-2.082,2.9,4.844,4.844,0,0,1-2.706.932A3.735,3.735,0,0,1,7677.983,257.887Zm.176-5.753a2.093,2.093,0,0,0-.9,1.061,1.394,1.394,0,0,0,1.17,1.734,2.034,2.034,0,0,0,1.328-.422,1.993,1.993,0,0,0,.867-1.057,1.286,1.286,0,0,0-.19-1.126,1.271,1.271,0,0,0-.98-.608q-.059-.005-.119-.005A2.143,2.143,0,0,0,7678.159,252.134Zm-10.1-7.291,21.7-2.065,2.492,3.694-21.7,2.063Zm12.359-2.3a4.509,4.509,0,0,1-2.789-2.011,4.57,4.57,0,0,1-.849-3.385,5.094,5.094,0,0,1,5.551-3.744,4.59,4.59,0,0,1,2.819,2.057,4.51,4.51,0,0,1,.82,3.338,4.395,4.395,0,0,1-2.075,2.914,4.781,4.781,0,0,1-2.67.92A3.7,3.7,0,0,1,7680.42,242.548Zm.155-5.755a2.048,2.048,0,0,0-.873,1.045,1.239,1.239,0,0,0,.182,1.115,1.355,1.355,0,0,0,1,.63,2.317,2.317,0,0,0,2.17-1.465,1.34,1.34,0,0,0-.212-1.158,1.244,1.244,0,0,0-.966-.588q-.056,0-.114,0A2.144,2.144,0,0,0,7680.576,236.793Zm-14.05-112.45,7.956-3.215-4.8,41.7-7.956,3.213Zm12.2,32.9a8.541,8.541,0,0,1-4.667-5.1,8.449,8.449,0,0,1-.172-6.885,9.617,9.617,0,0,1,11.546-4.666,8.781,8.781,0,0,1-.079,16.465,9.7,9.7,0,0,1-3.643.759A7.994,7.994,0,0,1,7678.725,157.243Zm2.051-11.512a2.452,2.452,0,0,0-1.54,1.6,3.935,3.935,0,0,0,.271,2.613,4.026,4.026,0,0,0,1.639,2.114,2.688,2.688,0,0,0,3.736-1.509,3.938,3.938,0,0,0-.265-2.669,3.86,3.86,0,0,0-1.645-2.057,2.428,2.428,0,0,0-1.167-.305A2.74,2.74,0,0,0,7680.776,145.731Zm-30.042.808a9.805,9.805,0,0,1-4.832-11.957,8.817,8.817,0,0,1,5-4.488,8.675,8.675,0,0,1,6.618-.206,9.806,9.806,0,0,1,4.832,11.957,8.676,8.676,0,0,1-4.9,4.45,10.112,10.112,0,0,1-3.792.8A7.93,7.93,0,0,1,7650.734,146.539Zm2.059-11.488a2.4,2.4,0,0,0-1.492,1.584,4.733,4.733,0,0,0,1.892,4.676,2.386,2.386,0,0,0,2.172.1,2.594,2.594,0,0,0,1.586-1.623,4.464,4.464,0,0,0-1.89-4.676,2.511,2.511,0,0,0-1.17-.293A2.92,2.92,0,0,0,7652.793,135.051ZM7890.736,93.57l3.918-3.288,4.961,24.528L7895.7,118.1Zm12.963,16.437a5.847,5.847,0,0,1-4.943-5.888,5.171,5.171,0,0,1,1.962-3.427,5.254,5.254,0,0,1,3.761-1.376,5.846,5.846,0,0,1,4.943,5.89,5.834,5.834,0,0,1-5.426,4.81C7903.9,110.015,7903.8,110.012,7903.7,110.006Zm-.9-6.933a1.55,1.55,0,0,0-.6,1.212,2.664,2.664,0,0,0,1.932,2.3,1.55,1.55,0,0,0,1.3-.38,1.434,1.434,0,0,0,.554-1.174,2.822,2.822,0,0,0-1.934-2.3,1.5,1.5,0,0,0-.3-.03A1.466,1.466,0,0,0,7902.8,103.073Zm-16.9,6a5.915,5.915,0,0,1-4.953-5.9,5.161,5.161,0,0,1,9.273-2.742,5.033,5.033,0,0,1,1.366,3.87,5.168,5.168,0,0,1-1.96,3.427,5.248,5.248,0,0,1-3.415,1.356Q7886.059,109.087,7885.9,109.077Zm-.958-6.927a1.476,1.476,0,0,0-.566,1.182,2.353,2.353,0,0,0,.643,1.465,2.29,2.29,0,0,0,1.312.863,1.6,1.6,0,0,0,1.841-1.544,2.354,2.354,0,0,0-.634-1.431,2.4,2.4,0,0,0-1.32-.9,1.471,1.471,0,0,0-.289-.029A1.516,1.516,0,0,0,7884.944,102.15Z" transform="translate(-7644.749 -89.358)"/></svg>