<svg xmlns="http://www.w3.org/2000/svg" width="110" height="38" viewBox="0 0 110 38"><g><g><g><path fill="#231f20" d="M36.723 24.052h-9.625c.16-2.442 2.394-4.358 4.82-4.358 2.41 0 4.646 1.9 4.805 4.358zm2.714 2.139c.064-.463.096-.926.096-1.389.032-4.214-3.369-7.646-7.533-7.662-4.392 0-7.68 3.528-7.68 7.86 0 4.128 3.336 7.816 7.582 7.816a7.531 7.531 0 0 0 6.705-4.103l-2.985-.064A4.878 4.878 0 0 1 32 30.261c-2.46 0-4.344-1.755-4.918-4.07z"/></g><g><path fill="#231f20" d="M51.8 32.428v-8.093c0-2.522-.8-4.66-3.72-4.66-2.745 0-3.927 2.122-3.927 4.628v8.125H41.36V17.535H44v1.58c1.08-1.42 2.644-1.995 4.368-1.995 2.123 0 4.118.88 5.267 2.666.735 1.133.942 2.506.942 3.815v8.827H51.8z"/></g><g><path fill="#231f20" d="M64.306 19.691c3.049 0 5.172 2.309 5.172 5.309.016 2.912-2.315 5.259-5.188 5.275-2.858 0-5.092-2.459-5.092-5.275 0-2.882 2.155-5.309 5.108-5.309zm5.172 12.755h2.586V12.54H69.27v6.832h-.048C68 17.856 66 17.137 64.162 17.137c-4.517 0-7.742 3.464-7.742 7.863 0 4.477 3.272 7.813 7.742 7.813 2.06 0 4.023-.813 5.268-2.506h.048z"/></g><g><path fill="#231f20" d="M80.153 37.414h-2.906l2.171-5.268L73.48 17.54h3.001l4.39 11.557 4.501-11.557h3.001l-8.22 19.874z"/></g><g><path fill="#231f20" d="M101.581 24.946V25c-.032 2.93-2.41 5.293-5.331 5.261-2.906-.032-5.25-2.41-5.25-5.331 0-2.93 2.424-5.268 5.345-5.236 2.906 0 5.236 2.306 5.236 5.252zm2.81 0c0-4.422-3.688-7.806-8.046-7.806-4.345 0-8.045 3.336-8.045 7.742 0 4.406 3.7 7.934 8.045 7.934 4.518 0 8.046-3.624 8.046-7.87z"/></g><g><path fill="#231f20" d="M106.67 32.426V12.52h2.793v19.906h-2.793z"/></g><g><path fill="#231f20" d="M3.232 29.493c.095.4.255.798.463 1.15.191.303.415.558.686.798a4.827 4.827 0 0 0 3.336 1.165 7.326 7.326 0 0 0 3.656-.942V29c-.99.62-2.123 1-3.289 1-1.42 0-2.139-.842-2.139-2.55v-7.295h4.677v-2.586H5.913V12.78H3.152v4.789H.47v2.586h2.586v6.608c-.056.926.016 1.836.176 2.73z"/></g><g><path fill="#231f20" d="M20.153 20C21 20 22 20.509 23 21.466l1.495-2.522c-1.23-1.133-2.73-1.644-3.608-1.644h-.191c-1.006 0-2.696 0-4.039 2.203l-.064.096.016-2.012H13.72V32.37h2.89v-7.726c-.033-1.165.39-2.299 1.053-3.225.702-.925 1.548-1.418 2.49-1.418z"/></g><g><path fill="#ff671d" d="M80.524 14.154a.248.248 0 0 1-.271-.208l-.734-4.693c-.24-1.532 0-2.81.798-3.847s1.963-1.644 3.448-1.884l19.443-3.08a.248.248 0 0 1 .27.207L105.001 10c0 .163-.1.29-.228.307z"/></g><g><path fill="#fff" d="M87 9.202c-.123.574-.602 1.006-1.192 1.101C85 10.431 84.13 10 83.94 8.835c-.16-1.006.383-1.835 1.325-1.98a1.453 1.453 0 0 1 1.516.67l.942-.143a2.46 2.46 0 0 0-3.336-1.022A2.478 2.478 0 0 0 83.11 9a2.454 2.454 0 0 0 2.73 2.117c.031 0 .08-.016.16-.016 1-.16 1.819-.99 2-2.027l-1 .128z"/></g><g><path fill="#fff" d="M89.338 8c-.16-1 .48-1.872 1.421-2a1.675 1.675 0 0 1 2.011 1.373c.23.958-.446 1.851-1.404 2.027A1.767 1.767 0 0 1 89.339 8zm1.341-2.83a2.565 2.565 0 0 0-2.155 2.89 2.592 2.592 0 0 0 2.89 2.25 2.588 2.588 0 0 0 2.25-2.89 2.592 2.592 0 0 0-2.889-2.25h-.096z"/></g><g><path fill="#fff" d="M101.94 8.323l-.463-2.857c-.208-1.26-1.054-1.883-2.251-1.692-.734.128-1.165.447-1.42 1.054l-.017.047-.032-.047c-.335-.495-1.07-.639-1.596-.543a1.55 1.55 0 0 0-1.245.862h-.048l-.112-.495L94 4.78l.756 4.725.846-.144-.43-2.65c-.172-.973.159-1.516.973-1.644.367-.067.734.032.99.303.223.272.35.63.367.958L97.932 9l.847-.182-.431-2.65c-.112-.67-.112-1.468.926-1.644.726-.127 1.245.32 1.404 1.277l.431 2.634.83-.111z"/></g><g><path fill="#fff" d="M83 11.106c0 .384-.35.687-.734.687a.681.681 0 0 1-.686-.687c0-.383.303-.686.686-.686.384 0 .734.303.734.686z"/></g></g></g></svg>