<svg width="267" height="43" viewBox="0 0 267 43" fill="none" xmlns="http://www.w3.org/2000/svg">
<path fill-rule="evenodd" clip-rule="evenodd" d="M7.07643 7.68204C8.41469 5.33119 10.3538 3.39036 12.7026 2.05092C15.0514 0.684148 17.7552 -0.0265757 20.5137 0.000759842C23.2721 -0.0265757 25.9486 0.684148 28.3247 2.05092C30.6735 3.39036 32.6126 5.33119 33.9509 7.68204C35.3165 10.0602 36.0266 12.7664 35.9992 15.5C36.0266 18.2336 35.3165 20.9398 33.9509 23.2906C32.6126 25.6415 30.6735 27.5823 28.3247 28.9217C25.9486 30.2885 23.2448 31.0266 20.5137 30.9992C17.7552 31.0266 15.0787 30.3159 12.7026 28.9217C10.3538 27.5823 8.41469 25.6415 7.07643 23.2906C5.71086 20.9124 4.97345 18.2336 5.00076 15.5C4.97345 12.7391 5.68354 10.0602 7.07643 7.68204ZM30.1 15.5C30.1546 12.9031 29.1714 10.3883 27.3961 8.50211C25.5936 6.64329 23.1356 5.63188 20.5683 5.71388C17.9737 5.65921 15.4884 6.67063 13.6858 8.55678C11.8559 10.3883 10.8454 12.9031 10.9 15.5C10.8454 18.0969 11.8559 20.6117 13.7131 22.4432C15.4884 24.302 17.9737 25.3408 20.5683 25.2861C23.1356 25.3681 25.6209 24.3294 27.3688 22.4432C29.1714 20.5844 30.1546 18.0969 30.1 15.5Z" fill="#F219AF"/>
<path fill-rule="evenodd" clip-rule="evenodd" d="M63.1883 29.8055C61.4041 30.8247 59.4003 31.3481 57.369 31.3205C48.7499 31.3205 41.7504 24.3238 41.7504 15.6469C41.7229 12.8923 42.4366 10.1652 43.8365 7.76872C45.209 5.39977 47.1853 3.41646 49.546 2.06671C51.9066 0.689414 54.6241 -0.0267803 57.369 0.000765691C60.1139 -0.0267803 62.804 0.689414 65.1646 2.06671C67.5253 3.44401 69.5016 5.39977 70.8466 7.76872C72.2191 10.1652 72.9328 12.8923 72.9053 15.6469V30.8247H66.9763V26.0317C66.1253 27.6569 64.8078 28.9791 63.1883 29.8055ZM0 43H5.98394V26.9683C8.34458 29.833 11.8581 31.4307 15.5637 31.3205C18.3087 31.3205 21.0262 30.6043 23.3868 29.227C25.7474 27.8773 27.6963 25.894 29.0688 23.525C30.4687 21.1561 31.1824 18.429 31.1549 15.6744C31.1824 12.9198 30.4413 10.1928 29.0688 7.79627C27.7238 5.42732 25.7474 3.47156 23.3868 2.09426C20.9987 0.71696 18.3087 0.000765691 15.5637 0.0283116C6.97212 0.0283116 0 7.02498 0 15.6469V15.6744V43ZM15.5637 25.5634C12.9561 25.6185 10.4582 24.5718 8.67397 22.6986C6.83487 20.8255 5.81925 18.2913 5.87415 15.6744C5.81925 13.0575 6.83487 10.5233 8.67397 8.6502C10.4582 6.74952 12.9561 5.70278 15.5637 5.78542C18.1714 5.73032 20.6693 6.74952 22.481 8.62265C24.2926 10.5233 25.2808 13.0575 25.2259 15.6744C25.2808 18.2913 24.2926 20.8255 22.4535 22.6986C20.6693 24.5718 18.1714 25.6185 15.5637 25.5634ZM50.5067 22.6986C48.6401 20.8531 47.6245 18.3188 47.6794 15.6744C47.6245 13.0575 48.6401 10.5233 50.4792 8.6502C52.2909 6.74952 54.8162 5.70278 57.4239 5.78542C60.0041 5.73032 62.502 6.74952 64.3137 8.62265C66.0979 10.5233 67.0861 13.0575 67.0312 15.6744C67.0861 18.2913 66.0979 20.8255 64.2862 22.6986C62.5295 24.5993 60.0316 25.646 57.4239 25.5634C54.8162 25.6185 52.2909 24.5993 50.5067 22.6986ZM99.6135 0.496593V6.28124L83.3635 25.04H100.108V30.8247H75.8698C75.8698 30.8247 75.8424 28.924 75.8698 26.9132C75.8149 26.2521 75.9522 25.5634 76.2541 24.9574C77.1325 23.525 92.0375 6.28124 92.0375 6.28124H76.7482V0.496593H99.6135ZM116.687 31.3205C118.718 31.3481 120.722 30.8247 122.506 29.8055C124.126 28.9791 125.443 27.6569 126.294 26.0317V30.8247H132.223V15.6469C132.251 12.8923 131.537 10.1652 130.165 7.76872C128.82 5.39977 126.843 3.44401 124.483 2.06671C122.122 0.689414 119.432 -0.0267803 116.687 0.000765691C113.942 -0.0267803 111.225 0.689414 108.864 2.06671C106.503 3.41646 104.527 5.39977 103.154 7.76872C101.755 10.1652 101.041 12.8923 101.068 15.6469C101.068 24.3238 108.068 31.3205 116.687 31.3205ZM106.997 15.6744C106.942 18.3188 107.958 20.8531 109.825 22.6986C111.609 24.5993 114.134 25.6185 116.742 25.5634C119.35 25.646 121.847 24.5993 123.604 22.6986C125.416 20.8255 126.404 18.2913 126.349 15.6744C126.404 13.0575 125.443 10.5233 123.632 8.62265C121.82 6.74952 119.322 5.73032 116.742 5.78542C114.134 5.70278 111.609 6.74952 109.797 8.6502C107.958 10.5233 106.942 13.0575 106.997 15.6744ZM142.325 30.8247V14.9858C142.325 9.03584 144.768 6.11597 149.105 6.11597H149.708V0.358863H149.105C145.646 0.193587 142.27 1.54334 139.854 4.02247C137.521 6.47406 136.368 10.1377 136.368 14.9582V30.8247H142.325ZM172.656 29.8055C170.872 30.8247 168.868 31.3481 166.837 31.3205C158.218 31.3205 151.246 24.2963 151.218 15.6469C151.191 12.8923 151.904 10.1652 153.304 7.76872C154.677 5.39977 156.653 3.41646 159.014 2.06671C161.374 0.689414 164.092 -0.0267803 166.837 0.000765691C169.582 -0.0267803 172.272 0.689414 174.632 2.06671C176.993 3.44401 178.969 5.39977 180.314 7.76872C181.687 10.1652 182.401 12.8923 182.373 15.6469V30.8247H176.444V26.0317C175.593 27.6569 174.276 28.9791 172.656 29.8055ZM160.002 22.6986C158.135 20.8531 157.12 18.3188 157.175 15.6744C157.12 13.0575 158.135 10.5233 159.974 8.6502C161.786 6.74952 164.311 5.70278 166.919 5.78542C169.499 5.73032 171.997 6.74952 173.809 8.62265C175.593 10.5233 176.581 13.0575 176.526 15.6744C176.581 18.2913 175.593 20.8255 173.781 22.6986C172.025 24.5993 169.527 25.646 166.919 25.5634C164.284 25.646 161.786 24.5993 160.002 22.6986ZM209.273 5.64769C211.305 1.98407 215.257 -0.192056 219.43 0.0283116C222.998 -0.136964 226.457 1.21279 228.927 3.77456C231.315 6.28124 232.495 9.99995 232.495 14.8756V30.8522H226.594V14.8756C226.594 8.81547 224.206 5.78542 219.402 5.78542C214.791 5.78542 212.21 8.78792 212.21 14.8756V30.8522H206.309V14.8756C206.309 8.81547 203.921 5.78542 199.117 5.78542C194.506 5.78542 191.925 8.78792 191.925 14.8756V30.8522H185.996V14.8756C185.996 9.99995 187.204 6.30879 189.592 3.77456C192.09 1.21279 195.549 -0.136964 199.117 0.0283116C203.289 -0.219602 207.242 1.98407 209.273 5.64769ZM251.463 31.3205C253.494 31.3481 255.498 30.8247 257.282 29.8055C258.902 28.9791 260.219 27.6569 261.07 26.0317V30.8247H266.999V15.6469C267.027 12.8923 266.313 10.1652 264.941 7.76872C263.596 5.39977 261.619 3.44401 259.259 2.06671C256.898 0.689414 254.208 -0.0267803 251.463 0.000765691C248.718 -0.0267803 246.001 0.689414 243.64 2.06671C241.279 3.41646 239.303 5.37223 237.93 7.74118C236.531 10.1377 235.817 12.8647 235.844 15.6193C235.872 24.2963 242.844 31.3205 251.463 31.3205ZM241.801 15.6744C241.746 18.3188 242.762 20.8531 244.628 22.6986C246.412 24.5993 248.91 25.6185 251.545 25.5634C254.153 25.646 256.651 24.5993 258.408 22.6986C260.219 20.8255 261.207 18.2913 261.153 15.6744C261.207 13.0575 260.219 10.5233 258.435 8.62265C256.623 6.74952 254.126 5.73032 251.545 5.78542C248.938 5.70278 246.412 6.74952 244.601 8.6502C242.762 10.5233 241.746 13.0575 241.801 15.6744Z" fill="#0136F4"/>
<path d="M10.8996 15H5C5.08194 6.62518 12.0194 -0.0800637 20.5137 0.000722387C28.9806 -0.0800637 35.9181 6.65211 36 15H30.2643C30.2097 12.5226 29.1718 10.1528 27.4238 8.37554C25.6485 6.54439 23.163 5.54803 20.5956 5.60189C18.0009 5.54803 15.4881 6.57132 13.7128 8.40247C11.9374 10.1528 10.9269 12.5226 10.8996 15Z" fill="#F219AF"/>
</svg>
