<svg width="187" height="30" viewBox="0 0 187 30" fill="none" xmlns="http://www.w3.org/2000/svg">
<path fill-rule="evenodd" clip-rule="evenodd" d="M4.95611 5.35956C5.89339 3.71943 7.2515 2.36537 8.89652 1.43088C10.5416 0.477312 12.4352 -0.0185412 14.3672 0.000530122C16.2992 -0.0185412 18.1737 0.477312 19.8379 1.43088C21.4829 2.36537 22.841 3.71943 23.7783 5.35956C24.7347 7.01877 25.232 8.90682 25.2129 10.814C25.232 12.7211 24.7347 14.6091 23.7783 16.2493C22.841 17.8894 21.4829 19.2435 19.8379 20.178C18.1737 21.1315 16.28 21.6464 14.3672 21.6274C12.4352 21.6464 10.5607 21.1506 8.89652 20.178C7.2515 19.2435 5.89339 17.8894 4.95611 16.2493C3.9997 14.5901 3.48323 12.7211 3.50236 10.814C3.48323 8.88775 3.98057 7.01877 4.95611 5.35956ZM21.0812 10.814C21.1195 9.00218 20.4309 7.24762 19.1875 5.9317C17.9251 4.63485 16.2035 3.92922 14.4055 3.98643C12.5883 3.94829 10.8476 4.65393 9.58514 5.96984C8.30355 7.24762 7.5958 9.00218 7.63406 10.814C7.5958 12.6257 8.30355 14.3803 9.60427 15.6581C10.8476 16.9549 12.5883 17.6796 14.4055 17.6415C16.2035 17.6987 17.9442 16.974 19.1684 15.6581C20.4309 14.3612 21.1195 12.6257 21.0812 10.814Z" fill="#F219AF"/>
<path fill-rule="evenodd" clip-rule="evenodd" d="M44.2555 20.7945C43.0058 21.5056 41.6024 21.8707 40.1798 21.8515C34.1432 21.8515 29.2409 16.9701 29.2409 10.9164C29.2217 8.99461 29.7215 7.09202 30.702 5.42004C31.6632 3.76728 33.0474 2.38358 34.7007 1.44189C36.3541 0.480987 38.2573 -0.0186839 40.1798 0.000534203C42.1023 -0.0186839 43.9863 0.480987 45.6396 1.44189C47.293 2.4028 48.6772 3.76728 49.6192 5.42004C50.5804 7.09202 51.0802 8.99461 51.061 10.9164V21.5056H46.9085V18.1616C46.3125 19.2955 45.3897 20.218 44.2555 20.7945ZM0 30H4.191V18.8151C5.84433 20.8137 8.30511 21.9284 10.9005 21.8515C12.8229 21.8515 14.7262 21.3519 16.3795 20.3909C18.0328 19.4493 19.3978 18.0656 20.359 16.4128C21.3395 14.76 21.8394 12.8574 21.8201 10.9356C21.8394 9.01383 21.3203 7.11123 20.359 5.43926C19.417 3.7865 18.0328 2.42202 16.3795 1.46111C14.707 0.500205 12.8229 0.000534203 10.9005 0.0197523C4.88309 0.0197523 0 4.90115 0 10.9164V10.9356V30ZM10.9005 17.8349C9.0741 17.8734 7.32464 17.1431 6.07503 15.8363C4.78697 14.5294 4.07565 12.7614 4.1141 10.9356C4.07565 9.10992 4.78697 7.34185 6.07503 6.03502C7.32464 4.70897 9.0741 3.97868 10.9005 4.03634C12.7268 3.9979 14.4763 4.70897 15.7451 6.0158C17.0139 7.34185 17.706 9.10992 17.6676 10.9356C17.706 12.7614 17.0139 14.5294 15.7259 15.8363C14.4763 17.1431 12.7268 17.8734 10.9005 17.8349ZM35.3736 15.8363C34.0663 14.5486 33.355 12.7806 33.3934 10.9356C33.355 9.10992 34.0663 7.34185 35.3544 6.03502C36.6232 4.70897 38.3919 3.97868 40.2182 4.03634C42.0254 3.9979 43.7748 4.70897 45.0437 6.0158C46.2933 7.34185 46.9854 9.10992 46.9469 10.9356C46.9854 12.7614 46.2933 14.5294 45.0244 15.8363C43.7941 17.1623 42.0446 17.8926 40.2182 17.8349C38.3919 17.8734 36.6232 17.1623 35.3736 15.8363ZM69.7667 0.34646V4.38226L58.3857 17.4698H70.1128V21.5056H53.1373C53.1373 21.5056 53.1181 20.1795 53.1373 18.7766C53.0989 18.3154 53.195 17.8349 53.4064 17.4121C54.0216 16.4128 64.4607 4.38226 64.4607 4.38226H53.7525V0.34646H69.7667ZM81.7246 21.8515C83.1472 21.8707 84.5506 21.5056 85.8002 20.7945C86.9345 20.218 87.8573 19.2955 88.4532 18.1616V21.5056H92.6058V10.9164C92.625 8.99461 92.1252 7.09202 91.1639 5.42004C90.2219 3.76728 88.8377 2.4028 87.1844 1.44189C85.5311 0.480987 83.647 -0.0186839 81.7246 0.000534203C79.8021 -0.0186839 77.8988 0.480987 76.2455 1.44189C74.5922 2.38358 73.208 3.76728 72.2467 5.42004C71.2663 7.09202 70.7664 8.99461 70.7857 10.9164C70.7857 16.9701 75.688 21.8515 81.7246 21.8515ZM74.9382 10.9356C74.8998 12.7806 75.6111 14.5486 76.9184 15.8363C78.168 17.1623 79.9366 17.8734 81.763 17.8349C83.5894 17.8926 85.3388 17.1623 86.5692 15.8363C87.838 14.5294 88.5301 12.7614 88.4917 10.9356C88.5301 9.10992 87.8573 7.34185 86.5884 6.0158C85.3196 4.70897 83.5701 3.9979 81.763 4.03634C79.9366 3.97868 78.168 4.70897 76.8991 6.03502C75.6111 7.34185 74.8998 9.10992 74.9382 10.9356ZM99.6805 21.5056V10.4552C99.6805 6.30407 101.392 4.26695 104.429 4.26695H104.852V0.25037H104.429C102.007 0.135061 99.6421 1.07675 97.9503 2.80638C96.3162 4.51679 95.5087 7.0728 95.5087 10.436V21.5056H99.6805ZM120.924 20.7945C119.674 21.5056 118.271 21.8707 116.848 21.8515C110.812 21.8515 105.929 16.9509 105.909 10.9164C105.89 8.99461 106.39 7.09202 107.37 5.42004C108.332 3.76728 109.716 2.38358 111.369 1.44189C113.022 0.480987 114.926 -0.0186839 116.848 0.000534203C118.771 -0.0186839 120.655 0.480987 122.308 1.44189C123.961 2.4028 125.346 3.76728 126.288 5.42004C127.249 7.09202 127.749 8.99461 127.729 10.9164V21.5056H123.577V18.1616C122.981 19.2955 122.058 20.218 120.924 20.7945ZM112.061 15.8363C110.754 14.5486 110.043 12.7806 110.081 10.9356C110.043 9.10992 110.754 7.34185 112.042 6.03502C113.311 4.70897 115.08 3.97868 116.906 4.03634C118.713 3.9979 120.462 4.70897 121.731 6.0158C122.981 7.34185 123.673 9.10992 123.635 10.9356C123.673 12.7614 122.981 14.5294 121.712 15.8363C120.482 17.1623 118.732 17.8926 116.906 17.8349C115.06 17.8926 113.311 17.1623 112.061 15.8363ZM146.57 3.94025C147.992 1.38424 150.761 -0.133993 153.683 0.0197523C156.182 -0.0955563 158.604 0.846131 160.335 2.63341C162.007 4.38226 162.834 6.97671 162.834 10.3783V21.5248H158.701V10.3783C158.701 6.15033 157.028 4.03634 153.664 4.03634C150.434 4.03634 148.627 6.13111 148.627 10.3783V21.5248H144.493V10.3783C144.493 6.15033 142.821 4.03634 139.457 4.03634C136.227 4.03634 134.42 6.13111 134.42 10.3783V21.5248H130.267V10.3783C130.267 6.97671 131.113 4.40148 132.786 2.63341C134.535 0.846131 136.957 -0.0955563 139.457 0.0197523C142.379 -0.153211 145.147 1.38424 146.57 3.94025ZM176.118 21.8515C177.541 21.8707 178.944 21.5056 180.194 20.7945C181.328 20.218 182.251 19.2955 182.847 18.1616V21.5056H186.999V10.9164C187.019 8.99461 186.519 7.09202 185.558 5.42004C184.616 3.76728 183.231 2.4028 181.578 1.44189C179.925 0.480987 178.041 -0.0186839 176.118 0.000534203C174.196 -0.0186839 172.293 0.480987 170.639 1.44189C168.986 2.38358 167.602 3.74807 166.64 5.40082C165.66 7.0728 165.16 8.97539 165.179 10.8972C165.199 16.9509 170.082 21.8515 176.118 21.8515ZM169.351 10.9356C169.313 12.7806 170.024 14.5486 171.331 15.8363C172.581 17.1623 174.33 17.8734 176.176 17.8349C178.002 17.8926 179.752 17.1623 180.982 15.8363C182.251 14.5294 182.943 12.7614 182.905 10.9356C182.943 9.10992 182.251 7.34185 181.001 6.0158C179.732 4.70897 177.983 3.9979 176.176 4.03634C174.35 3.97868 172.581 4.70897 171.312 6.03502C170.024 7.34185 169.313 9.10992 169.351 10.9356Z" fill="white"/>
<path d="M7.63373 10.4651H3.50183C3.55922 4.62222 8.41803 -0.0558584 14.3672 0.000503991C20.2972 -0.0558584 25.1561 4.64101 25.2134 10.4651H21.1963C21.1581 8.73667 20.4311 7.08337 19.2069 5.8434C17.9635 4.56586 16.2227 3.87072 14.4246 3.90829C12.6073 3.87072 10.8474 4.58464 9.60404 5.86219C8.36064 7.08337 7.65286 8.73667 7.63373 10.4651Z" fill="#F219AF"/>
</svg>
