<svg xmlns="http://www.w3.org/2000/svg" width="370" height="396" viewBox="0 0 370 396"><g><g><g><g><path fill="#c7c7c7" d="M41.39 0h.842v77.1h-.842z"/></g><g><path fill="#ebebeb" d="M68.623 102.912l-2.156 4.727h-49.31L15 102.912 36 88.4h11.629l20.994 14.512z"/></g><g><path fill="#dbdbdb" d="M49.091 74.42l-1.457 13.982H36L34.55 74.42h14.541z"/></g><g><path fill="#dbdbdb" d="M68.623 102.91l-2.156 4.736H17.148L15 102.91h53.623z"/></g><g><path fill="#c7c7c7" d="M99 0h.802v61.832H99z"/></g><g><path fill="#ebebeb" d="M126.193 87.632L124 92.368H74.718l-2.148-4.736L93.564 73.12H105.2l20.994 14.512z"/></g><g><path fill="#dbdbdb" d="M106.66 59.15l-1.458 13.973H93.568L92.11 59.15h14.55z"/></g><g><path fill="#dbdbdb" d="M126.193 87.64L124 92.368H74.718L72.57 87.64h53.623z"/></g><g><path fill="#dbdbdb" d="M187.29 136.823l.168 65.28a6.6 6.6 0 0 1-1.922 4.68c-1.237 1.217-2.919 1.945-4.674 1.95L77.179 209a6.635 6.635 0 0 1-4.684-1.923 6.6 6.6 0 0 1-1.947-4.67l-.168-65.281a6.057 6.057 0 0 1 1.79-4.348c1.15-1.155 2.712-1.778 4.343-1.778l104.602-.31a6.163 6.163 0 0 1 4.36 1.79 6.145 6.145 0 0 1 1.815 4.343z"/></g><g><path fill="#a6a6a6" d="M170.582 192.945a6.082 6.082 0 0 1-3.746 5.63 6.113 6.113 0 0 1-6.643-1.303 6.076 6.076 0 0 1-1.333-6.628 6.072 6.072 0 0 1 5.623-3.764 6.087 6.087 0 0 1 4.309 1.77 6.07 6.07 0 0 1 1.79 4.295z"/></g><g><path fill="#ce3592" d="M178.082 192.935c.01 3.36-2.71 6.065-6.082 6.065-3.356 0-6.09-2.672-6.1-6a6.099 6.099 0 0 1 6.1-6.13 6.08 6.08 0 0 1 4.286 1.77 6.078 6.078 0 0 1 1.796 4.295z"/></g><g transform="rotate(-.15 91.5 150)"><path fill="#ce3592" d="M80.24 146.34a4.2 4.2 0 0 1 4.2-4.2h13.547a4.2 4.2 0 0 1 4.2 4.2v6.742a4.2 4.2 0 0 1-4.2 4.2H84.441a4.2 4.2 0 0 1-4.2-4.2z"/></g><g><path fill="#fff" d="M173.805 150.234h-9.932A4.05 4.05 0 0 1 160.9 149c-.791-.741-1.238-1.804-1.24-2.913a4.192 4.192 0 0 1 1.198-2.969 4.165 4.165 0 0 1 2.956-1.238h9.924a4.165 4.165 0 0 1 2.973 1.197A4.41 4.41 0 0 1 178 146a4.302 4.302 0 0 1-1.245 3c-.755.783-1.84 1.23-2.95 1.234z"/></g><g><path fill="#504f4f" d="M79.484 171.12l-.901.53a.237.237 0 0 1-.11 0 .219.219 0 0 1-.215-.276.21.21 0 0 1 .106-.129l1.221-.748a.236.236 0 0 1 .304.075.294.294 0 0 1 0 .169v5.838a.219.219 0 0 1-.438 0z"/></g><g><path fill="#504f4f" d="M81.49 176.433l2.973-2.684c.34-.315.537-.749.537-1.22 0-.405-.15-.796-.427-1.093-.573-.646-1.638-.694-2.317-.11l-.312.287a.22.22 0 0 1-.303-.32L82 171c.34-.346.84-.538 1.36-.54a2.096 2.096 0 0 1 2.08 2.07 2.068 2.068 0 0 1-.682 1.539l-2.527 2.305h3.007a.227.227 0 0 1 0 .446h-3.58a.202.202 0 0 1-.16-.059.244.244 0 0 1-.009-.328z"/></g><g><path fill="#504f4f" d="M90.697 170.842l-1.643 1.683c.414.078.795.277 1.095.572a2.168 2.168 0 0 1-1.525 3.693 2.125 2.125 0 0 1-1.525-.63c-.044-.042-.099-.1-.099-.16 0-.061.055-.12.1-.16a.228.228 0 0 1 .32 0c.318.314.748.49 1.196.487a1.77 1.77 0 0 0 1.213-.488 1.68 1.68 0 0 0 .497-1.211c0-.453-.182-.886-.505-1.203a1.686 1.686 0 0 0-1.205-.496.236.236 0 0 1-.177-.084.227.227 0 0 1 0-.329L90 170.884h-2.42a.227.227 0 0 1-.228-.227.218.218 0 0 1 .228-.227h2.974a.227.227 0 0 1 .227.227.142.142 0 0 1 0 .101.185.185 0 0 1-.084.084z"/></g><g><path fill="#504f4f" d="M93 175.056l3-3.736V175zm3.083 1.48a.227.227 0 0 0 .447 0v-1.093H97c0 .002.068-.02.111-.062a.218.218 0 0 0 .067-.157c-.004-.122-.105-.224-.178-.224h-.479v-4.386a.227.227 0 0 0-.379-.084l-3.673 4.584a.21.21 0 0 0 0 .312.21.21 0 0 0 .135.05H96z"/></g><g><path fill="#504f4f" d="M104 176.14V176v-.18a.371.371 0 0 1 .194-.07c.062 0 .121.025.164.07a1.686 1.686 0 0 0 2.401 0 1.681 1.681 0 0 0-1.188-2.877c-.453 0-.887.181-1.205.505a.22.22 0 0 1-.16.07.472.472 0 0 1-.206-.07v-.068-.067-.05l.3-2.524c0-.068.034-.132.092-.168a.211.211 0 0 1 .143-.05h2.965c.126 0 .228.1.228.226a.21.21 0 0 1-.058.163c-.042.09-.1.09-.161.09h-2.78l-.22 1.859a2.159 2.159 0 0 1 2.604.328c.887.813.887 2.208 0 3.054-.41.4-.96.626-1.533.63a2.3 2.3 0 0 1-1.58-.731z"/></g><g><path fill="#504f4f" d="M109.943 174.647c.057-.906.828-1.647 1.736-1.572a1.684 1.684 0 0 1 0 3.363 1.683 1.683 0 0 1-1.736-1.572.126.126 0 0 0 0-.06.575.575 0 0 1 0-.117zm-.446-.345c-.01.14-.01.28 0 .42a2.098 2.098 0 0 0 4.071.636c.34-.946-.042-2-.909-2.51a2.13 2.13 0 0 0-2.659.42c.1-.446.254-.875.474-1.268a2.154 2.154 0 0 1 1.845-1.164.236.236 0 0 0 .219-.235.219.219 0 0 0-.228-.21 2.595 2.595 0 0 0-2.224 1.387 5.218 5.218 0 0 0-.59 2.524z"/></g><g><path fill="#504f4f" d="M116 176.424l2.364-5.586h-3.075a.219.219 0 0 1-.22-.21c0-.12.1-.219.22-.219h3.37a.278.278 0 0 1 .143 0c.054.03.095.078.118.135a.201.201 0 0 1 0 .067.176.176 0 0 1 0 .118l-2.452 5.889a.236.236 0 0 1-.202.143.195.195 0 0 1-.092 0 .406.406 0 0 1-.174-.136v-.2z"/></g><g><path fill="#504f4f" d="M122.306 172.581a.9.9 0 0 1-.851-.9.84.84 0 0 1 .842-.883.938.938 0 0 1 .629.202c.17.185.265.407.264.639a.91.91 0 0 1-.884.908zm0 3.701a1.627 1.627 0 0 1-1.635-1.657 1.625 1.625 0 1 1 1.635 1.624zm0-5.922a1.387 1.387 0 0 0-.935.385 1.325 1.325 0 0 0-.371.936c0 .42.186.816.522 1.068-.907.374-1.423 1.335-1.233 2.251.191 1 1.035 1.7 2.017 1.7.981 0 1.826-.7 2.016-1.7.191-.916-.322-1.877-1.233-2.25a1.32 1.32 0 0 0-.783-2.39z"/></g><g><path fill="#504f4f" d="M135.277 172.459a1.684 1.684 0 0 1-1.668 1.64 1.684 1.684 0 1 1 0-3.365c.93 0 1.685.754 1.685 1.683zm-1.65-2.179a2.105 2.105 0 0 0-2.107 2.103c0 1.162.943 2.103 2.106 2.103a2.066 2.066 0 0 0 1.584-.698c-.079.446-.21.876-.455 1.27a2.166 2.166 0 0 1-1.853 1.161.227.227 0 0 0-.211.236.218.218 0 0 0 .227.21 2.637 2.637 0 0 0 2.19-1.371 5.25 5.25 0 0 0 .599-2.524v-.589a2.088 2.088 0 0 0-2.098-1.842z"/></g><g><path fill="#504f4f" d="M138.319 171.528a1.452 1.452 0 0 1 1.213-.765c.468.03.968.314 1.221.757a3.58 3.58 0 0 1 .556 1.968 3.698 3.698 0 0 1-.539 1.977c-.26.438-.714.723-1.221.766a1.484 1.484 0 0 1-1.222-.766c-.327-.59-.555-1.274-.54-1.968-.017-.694.213-1.378.532-1.969zm-.978 1.969c-.02.785.195 1.558.659 2.22.265.594.879.966 1.549.966.67 0 1.283-.372 1.592-.965a4.118 4.118 0 0 0 .615-2.221 4.202 4.202 0 0 0-.624-2.221 1.803 1.803 0 0 0-3.184 0 4 4 0 0 0-.607 2.22z"/></g><g><path fill="#504f4f" d="M144.692 170.948l-.902.53a.202.202 0 0 1-.295-.076.201.201 0 0 1 .076-.294l1.23-.749c.105-.059.199-.026.303.076a.294.294 0 0 1 0 .168v5.838c0 .121-.104.22-.218.22a.219.219 0 0 1-.22-.22z"/></g><g><path fill="#504f4f" d="M146.74 176.265l2.966-2.684c.294-.314.542-.755.548-1.22a1.773 1.773 0 0 0-.43-1.093 1.687 1.687 0 0 0-2.325-.11l-.303.286c-.088.082-.196.082-.312 0a.21.21 0 0 1 0-.311l.312-.295a2.116 2.116 0 0 1 1.407-.538 1.963 1.963 0 0 1 1.525.7c.357.355.553.853.547 1.37a1.966 1.966 0 0 1-.675 1.539l-2.526 2.305h3.016a.227.227 0 0 1 0 .446h-3.58a.219.219 0 0 1-.17-.059.235.235 0 0 1 0-.336z"/></g><g><path fill="#504f4f" d="M161.358 170.664l-1.685 1.683a2.147 2.147 0 0 1 1.638 1.484c.23.76.02 1.582-.542 2.169-.406.38-.958.61-1.534.612a2.143 2.143 0 0 1-1.516-.612.295.295 0 0 1-.069-.175.21.21 0 0 1 .069-.156c.089-.087.281-.087.281 0 .357.331.788.49 1.235.488.453.003.889-.157 1.214-.488.322-.32.551-.757.497-1.211a1.667 1.667 0 0 0-.506-1.195 1.686 1.686 0 0 0-1.205-.496.244.244 0 0 1-.177-.092c-.058-.043-.058-.103-.058-.164 0-.062 0-.122.058-.165l1.576-1.632h-2.435a.388.388 0 0 1-.199-.063v-.164-.163a.342.342 0 0 1 .19-.064h2.975c.127 0 .231.1.236.227a.208.208 0 0 1 0 .101.34.34 0 0 1-.043.076z"/></g><g><path fill="#504f4f" d="M163.724 174.872l2.999-3.735v3.726zm2.999 1.497a.227.227 0 0 0 .446 0v-1.085h.421a.22.22 0 0 0 .225-.093c.05-.073.05-.191 0-.243a.22.22 0 0 0-.225-.093h-.43v-4.391a.236.236 0 0 0-.075-.11c-.085-.04-.085-.064-.152-.064a.21.21 0 0 0-.151.064l-3.673 4.594c-.044.052-.109.052-.109.151 0 .058.065.113.109.151a.168.168 0 0 0 .134.05h3.48z"/></g><g><path fill="#504f4f" d="M169.246 176c-.088-.12-.088-.263 0-.352a.228.228 0 0 1 .328 0c.32.352.754.493 1.205.488a1.684 1.684 0 1 0 0-3.365c-.453 0-.887.229-1.205.505a.22.22 0 0 1-.32 0 .134.134 0 0 1-.059-.076.184.184 0 0 1 0-.075v-.042l.304-2.524a.185.185 0 0 1 .092-.168.21.21 0 0 1 .143-.05h2.966a.228.228 0 1 1 0 .453h-2.772l-.227 1.885a2.168 2.168 0 0 1 2.603.321c.41.407.639 1 .632 1.53a2.127 2.127 0 0 1-.623 1.53 2.184 2.184 0 0 1-1.525.632 2.256 2.256 0 0 1-1.542-.692z"/></g><g><path fill="#504f4f" d="M175.143 174.453c0-.929.754-1.682 1.685-1.682a1.684 1.684 0 1 1 0 3.365c-.828.01-1.559-.6-1.685-1.43a.067.067 0 0 0 0-.06.294.294 0 0 1 0-.117zm-.446-.311c-.01.14-.01.28 0 .42a2.09 2.09 0 0 0 4.052.65c.342-.94-.032-1.99-.891-2.504a2.092 2.092 0 0 0-2.63.4c.074-.447.225-.876.446-1.271.326-.693 1.07-1.137 1.853-1.161a.236.236 0 0 0 .22-.235.218.218 0 0 0-.228-.21 2.587 2.587 0 0 0-2.224 1.387 5.228 5.228 0 0 0-.598 2.524z"/></g><g transform="rotate(-.15 108 189)"><path fill="#a6a6a6" d="M80.34 187.65h55.519v2.726H80.34z"/></g><g transform="rotate(-.15 100 195)"><path fill="#a6a6a6" d="M80.36 193.73h39.31v2.726H80.36z"/></g><g transform="rotate(-.15 142 143.5)"><path fill="#a6a6a6" d="M128.19 142h27.692v2.726H128.19z"/></g><g><path fill="#ebebeb" d="M315.26 29.27H363v47.674h-47.74z"/></g><g><path fill="#ce3592" d="M345.132 58.592c0 1.808-1.323 3.011-3.732 3.272V55c2.898.908 3.732 1.926 3.732 3.592zm-10.337-12.325c0-1.665 1.205-2.944 3.622-3.171v6.671c-2.906-.976-3.622-1.834-3.622-3.5zm5.13-9.346a1.636 1.636 0 0 0-1.693 1.615v.791c-4.718.379-7.928 3.172-7.928 7.201 0 4.257 2.57 6.335 8.08 7.765v7.437a13.169 13.169 0 0 1-5.586-2.524 2.092 2.092 0 0 0-1.247-.412 2.042 2.042 0 0 0-2.08 2.07c-.01.74.379 1.43 1.019 1.808a16.366 16.366 0 0 0 7.742 2.944v2.297a1.63 1.63 0 0 0 1.685 1.615 1.619 1.619 0 0 0 1.626-1.615V65.65c4.785-.455 8.037-3.323 8.037-7.353 0-4.03-2.451-6.297-8.189-7.764v-7.235c1.374.358 2.684.925 3.884 1.702.338.196.725.315 1.13.325a2.021 2.021 0 0 0 1.495-.59c.399-.39.625-.922.627-1.48a2.01 2.01 0 0 0-1.129-1.808 13.695 13.695 0 0 0-5.847-2.07v-.84a1.614 1.614 0 0 0-1.626-1.616z"/></g></g><g><g><path fill="#263238" d="M9 353.495l44-.24 44-.09 88-.165 88 .165 44 .09 44 .24-44 .25-44 .09-88 .165-88-.165-44-.09-44-.25z"/></g></g><g><path fill="#ebebeb" fill-opacity=".45" d="M185 396c102.173 0 185-10.521 185-23.5S287.173 349 185 349 0 359.521 0 372.5 82.827 396 185 396z"/></g><g><g><path fill="#263238" d="M341 72.512v271.985c0 3.813-1.44 7.503-4.11 10.205-2.668 2.72-6.308 4.298-10.117 4.298H186.218c-3.807 0-7.445-1.58-10.112-4.301C173.44 352 172 348.309 172 344.497V72.512c0-3.813 1.436-7.512 4.103-10.208C178.77 59.582 182.41 58 186.218 58h140.555c3.81 0 7.452 1.579 10.12 4.301C339.564 65 341 68.697 341 72.511z"/></g><g><path fill="#fff" d="M332.113 86.161v249.39c0 7.603-5.704 13.794-12.732 13.794H193.659c-7.045 0-12.749-6.174-12.749-13.793V86.162c0-15.543 5.704-18.972 12.75-18.972h25.186c1.46 0 2.65 1.69 2.65 3.725v.845c0 4.84 2.649 4.857 5.906 4.857h58.22c3.273 0 5.906 0 5.906-4.857v-.845c0-2.061 1.181-3.725 2.658-3.725h25.203c7.02 0 12.724 4.739 12.724 18.971z"/></g><g><path fill="#fff" d="M264.445 70.62h-15.888c-.26.002-.557-.1-.697-.284a.98.98 0 0 1 0-1.392c.14-.184.436-.286.697-.284h15.888a.97.97 0 0 1 .98.98.97.97 0 0 1-.98.98z"/></g><g><path fill="#ce3592" d="M311 240.6c-1.33 2.534-4.595 4.705-4.595 4.705s-3.265-2.205-4.624-4.705c-1.535-2.821-.691-5.71 1.52-5.71 2.463 0 3.104 3.11 3.104 3.11s.595-3.11 3.097-3.11c2.21-.025 3.063 2.864 1.498 5.71z"/></g><g><path fill="#dbdbdb" d="M201.19 88.48h12.648v2.086H201.19z"/></g><g><path fill="#dbdbdb" d="M201.19 92.65h12.648v2.086H201.19z"/></g><g><path fill="#dbdbdb" d="M201.19 96.82h12.648v2.086H201.19z"/></g><g transform="rotate(-37.15 276.76 95.862)"><path fill="#dbdbdb" d="M275.813 91.862h1.748l-.004 7.07-1.747.002z"/></g><g><path fill="#dbdbdb" d="M276.53 89.845a3.795 3.795 0 0 1-.71 5.314 3.786 3.786 0 0 1-5.31-.708 3.795 3.795 0 0 1 .705-5.315 3.712 3.712 0 0 1 2.785-.753c1 .133 1.921.617 2.53 1.462z"/></g><g><path fill="#fff" d="M275.314 90.76c.563.728.632 1.724.175 2.523-.489.798-1.35 1.241-2.262 1.122a2.273 2.273 0 0 1-1.085-4.058 2.268 2.268 0 0 1 3.172.414z"/></g><g><path fill="#dbdbdb" d="M295.69 94.198c-1.368 2.534-4.633 4.697-4.633 4.697s-3.265-2.196-4.616-4.697c-1.535-2.83-.691-5.718 1.559-5.718 2.424 0 3.057 3.075 3.057 3.075s.65-3.075 3.105-3.075c2.21 0 3.063 2.889 1.527 5.718z"/></g><g><path fill="#dbdbdb" d="M301.844 90.606h9.543l-1.536 5.55h-6.623zm10.404-.667h-10.564l-.38-1.529H300v.659h.79l1.923 7.746h7.636z"/></g><g><path fill="#dbdbdb" d="M309.116 98.067l-.531-1.258h-4.329l-.43 1.191-.616-.17.574-1.68H309l.715 1.656-.599.261z"/></g><g><path fill="#dbdbdb" d="M301.8 91.46h9.535v.659H301.8z"/></g><g transform="rotate(-89.75 306.697 93.005)"><path fill="#dbdbdb" d="M306.297 88.595v8.632z"/></g><g><path fill="#dbdbdb" d="M302.67 94.75h7.813v.659h-7.813z"/></g><g><path fill="#dbdbdb" d="M306.14 90.31h.658v6.175h-.658z"/></g><g transform="rotate(-85.426 308.046 92.308)"><path fill="#dbdbdb" d="M304.876 92.709h6.22-6.22z"/></g><g transform="rotate(-79.58 309.084 93.28)"><path fill="#dbdbdb" d="M305.904 93.67h6.284-6.284z"/></g><g transform="rotate(-4.58 305.008 93.504)"><path fill="#dbdbdb" d="M305.068 90.304v6.2z"/></g><g transform="rotate(-10.42 303.518 93.502)"><path fill="#dbdbdb" d="M303.539 90.262l-.001 6.284z"/></g><g><path fill="#dbdbdb" d="M309.406 97.539a.397.397 0 1 1-.277.68c-.129-.112-.129-.284-.129-.433.1-.15.245-.247.406-.247zm.743 1.132a1.04 1.04 0 0 0 .304-.744c0-.578-.453-1.047-1.047-1.047-.578 0-1.046.469-1.046 1.047 0 .579.468 1.073 1.046 1.073.278 0 .594-.133.743-.33z"/></g><g><path fill="#dbdbdb" d="M303.536 97.539a.397.397 0 1 1-.017.793.397.397 0 0 1 .017-.793zm0 1.461c.278 0 .544-.136.74-.332a1.048 1.048 0 0 0-.74-1.788c-.536 0-1.046.469-1.046 1.047 0 .579.51 1.073 1.046 1.073z"/></g><g><path fill="#ba68c8" d="M311.813 91.052a2.794 2.794 0 0 0 2.793-2.796 2.794 2.794 0 0 0-2.793-2.796c-1.543 0-2.813 1.252-2.813 2.796 0 1.544 1.27 2.796 2.813 2.796z"/></g><g><path fill="#fff" d="M312.188 86.655v3.091c-.004.16-.135.254-.295.254-.076 0-.149 0-.203-.05a.288.288 0 0 1-.084-.204V87.17l-.21.118a.236.236 0 0 1-.144.043.29.29 0 0 1-.252-.144c0-.064-.05-.187 0-.187 0-.107 0-.171.1-.21l.641-.38h.169z"/></g><g><path fill="#dbdbdb" d="M201.19 236.93h69.535v1.968H201.19z"/></g><g><path fill="#dbdbdb" d="M201.19 240.6H261v1.968h-59.81z"/></g><g><path fill="#c7c7c7" d="M194.213 177.377l-2.793-2.619 2.793-2.618.439.456-2.304 2.162 2.304 2.154-.44.465z"/></g><g><path fill="#c7c7c7" d="M193.646 170.933a3.828 3.828 0 0 1 3.822 3.869 3.826 3.826 0 0 1-2.36 3.535c-1.427.592-3.108.265-4.165-.83a3.83 3.83 0 0 1-.828-4.17 3.8 3.8 0 0 1 3.531-2.337zm4.666 3.827a4.671 4.671 0 0 0-2.874-4.322 4.662 4.662 0 0 0-5.088 1.007 4.65 4.65 0 0 0-1.016 5.092 4.666 4.666 0 0 0 8.978-1.777z"/></g><g><path fill="#c7c7c7" d="M318.789 177.377l-.439-.465 2.303-2.154-2.303-2.162.439-.456 2.793 2.618-2.793 2.619z"/></g><g><path fill="#c7c7c7" d="M319.355 170.933a3.82 3.82 0 0 1 2.712 1.139 3.829 3.829 0 0 1 1.101 2.73 3.826 3.826 0 0 1-2.361 3.536 3.82 3.82 0 0 1-4.167-.833 3.83 3.83 0 0 1-.823-4.173c.595-1.43 1.99-2.332 3.538-2.332zM324 174.76c0-1.891-1.12-3.598-2.864-4.323-1.745-.725-3.754-.326-5.136 1.011a4.83 4.83 0 0 0-1 5.095c.761 1.746 2.466 2.883 4.355 2.88A4.655 4.655 0 0 0 324 174.76z"/></g><g><path d="M205.813 292c1.358.283 1.687.655 1.687 1.449s-.641 1.427-1.687 1.427zm-.464-.663c-1.349-.337-1.688-.718-1.688-1.478s.667-1.386 1.688-1.386zm.227-3.987a.262.262 0 0 0-.253.253V288c-.544 0-1.082.133-1.495.49a2.036 2.036 0 0 0-.698 1.41c0 1.048.64 1.623 2.219 1.969v3.007a3.374 3.374 0 0 1-2.042-.954.296.296 0 0 0-.446.078c-.033.152.01.272.139.335a3.73 3.73 0 0 0 2.323 1.014v.845a.253.253 0 1 0 .506 0v-.845a2.074 2.074 0 0 0 1.53-.499c.423-.365.641-.85.715-1.444 0-1.03-.675-1.63-2.261-1.96v-2.939a2.994 2.994 0 0 1 1.57.676c.047.052.115.08.185.076a.27.27 0 0 0 .27-.259.28.28 0 0 0-.144-.24 3.607 3.607 0 0 0-1.865-.76v-.397a.262.262 0 0 0-.253-.253z"/></g><g><path d="M209.392 294.893l3.434-3.091c.39-.35.622-.802.641-1.368a1.883 1.883 0 0 0-1.881-1.876c-.472 0-.928.17-1.283.442l-.354.37a.236.236 0 0 1-.355 0 .228.228 0 0 1-.084-.178c0-.069.031-.134.084-.192l.355-.323a2.523 2.523 0 0 1 1.628-.617c1.313.014 2.423 1.076 2.423 2.39 0 .678-.32 1.325-.82 1.783l-2.936 2.66h3.468c.069 0 .134.028.182.107.048 0 .106.087.106.155 0 .138-.15.25-.288.254h-4.126a.253.253 0 0 1-.194-.076.287.287 0 0 1-.102-.22c0-.113.037-.165.102-.22z"/></g><g><path d="M216.216 291.684a4.16 4.16 0 0 1 .616-2.28 1.56 1.56 0 0 1 2.81 0c.831 1.403.831 3.149 0 4.596-.261.495-.807.838-1.406.838a1.603 1.603 0 0 1-1.404-.838 4.375 4.375 0 0 1-.616-2.316zm.185 2.534a2.067 2.067 0 0 0 3.67 0c.472-.76.718-1.64.71-2.534a4.81 4.81 0 0 0-.71-2.576 2.097 2.097 0 0 0-1.835-1.108c-.766 0-1.471.432-1.835 1.108a4.734 4.734 0 0 0-.7 2.576 4.65 4.65 0 0 0 .7 2.534z"/></g><g><path d="M223.593 294.3a.538.538 0 0 1 .498.325c.085.2.04.43-.091.583a.576.576 0 0 1-.606.114.576.576 0 0 1-.324-.498.524.524 0 0 1 .523-.524z"/></g><g><path d="M226.262 289.404c.29-.505.82-.824 1.4-.845.582.028 1.111.345 1.41.845.832 1.403.832 3.15 0 4.596-.305.45-.83.765-1.41.801a1.825 1.825 0 0 1-1.4-.801 4.375 4.375 0 0 1-.624-2.316 4.16 4.16 0 0 1 .624-2.28zm-.43 4.814a2.27 2.27 0 0 0 1.83 1.115 2.295 2.295 0 0 0 1.84-1.115c.498-.76.717-1.639.709-2.534.012-.908-.211-1.802-.709-2.576a2.356 2.356 0 0 0-1.84-1.108 2.33 2.33 0 0 0-1.83 1.108 4.658 4.658 0 0 0-.7 2.576 4.582 4.582 0 0 0 .7 2.534z"/></g><g><path d="M233.71 289.395c.29-.505.82-.824 1.4-.845.582.021 1.111.34 1.401.845a4.413 4.413 0 0 1 0 4.553 1.78 1.78 0 0 1-1.4.844 1.74 1.74 0 0 1-1.4-.844 4.125 4.125 0 0 1-.625-2.273 4.16 4.16 0 0 1 .624-2.28zm-.43 4.814a2.058 2.058 0 0 0 3.662 0 4.658 4.658 0 0 0 .717-2.534 4.735 4.735 0 0 0-.717-2.576 2.076 2.076 0 0 0-3.662 0 4.666 4.666 0 0 0-.709 2.576 4.59 4.59 0 0 0 .709 2.534z"/></g><g><path d="M205.692 111.289l-1.57 2.179c-.03.05-.122.079-.122.076-.082.006-.14-.024-.173-.076l-1.56-2.17v4.028a.169.169 0 0 1-.17.16c-.044.003-.097-.013-.097-.043-.058-.03-.078-.072-.08-.117v-4.536a.14.14 0 0 1 .08-.135c.066-.045.166-.028.224.042l1.776 2.416 1.7-2.416a.185.185 0 0 1 .237-.042l.063.06V115.342c0 .087-.086.156-.173.16a.16.16 0 0 1-.169-.16z"/></g><g><path d="M207.907 113.776a1.385 1.385 0 0 1 2.4-.938 1.386 1.386 0 0 1-1.117 2.323 1.342 1.342 0 0 1-1.283-1.385zm-.337-.025c0 .689.43 1.309 1.058 1.566.64.257 1.372.1 1.847-.398.525-.497.604-1.234.321-1.863-.282-.629-.918-1.056-1.606-.995a1.689 1.689 0 0 0-1.62 1.69z"/></g><g><path d="M213.446 115.157a1.368 1.368 0 0 1-1.34-1.368c0-.789.596-1.353 1.34-1.368a1.375 1.375 0 0 1 1.393 1.313v.11a1.367 1.367 0 0 1-1.393 1.313zm1.393.173a.17.17 0 0 0 .055.117c.034.03.106.046.106.044.106 0 .18-.07.185-.16v-4.57c-.004-.09-.079-.16-.185-.16a.235.235 0 0 0-.106.043.17.17 0 0 0-.055.117v1.976a1.701 1.701 0 0 0-1.316-.675 1.714 1.714 0 0 0 0 3.429 1.678 1.678 0 0 0 1.316-.659z"/></g><g><path d="M218 112.382c.67 0 1.223.48 1.313 1.127h-2.59a1.304 1.304 0 0 1 1.277-1.127zm-1.64 1.397a1.69 1.69 0 0 0 1.73 1.707 1.637 1.637 0 0 0 1.384-.777.178.178 0 0 0-.06-.237.16.16 0 0 0-.219.06c-.195.387-.653.624-1.105.624a1.35 1.35 0 0 1-1.333-1.318h2.81a.16.16 0 0 0 .168-.152c-.05-.896-.79-1.597-1.735-1.596-.884 0-1.64.756-1.64 1.69z"/></g><g><path d="M220.71 112.21a.17.17 0 0 1 .052-.123c.034-.032.079-.087.125-.087.113 0 .113.12.113.21v.79c.06-.062.076-.09.098-.115a1.832 1.832 0 0 1 1.367-.885c.093 0 .169.116.169.21a.169.169 0 0 1-.169.168c-.4.014-.768.222-.987.558-.181.258-.321.543-.414.844a.085.085 0 0 0 0 .05v1.513c0 .089-.064.16-.16.16a.169.169 0 0 1-.177-.16z"/></g><g><path d="M226.225 113.46c0-.584-.472-1.057-1.055-1.057a1.072 1.072 0 0 0-1.063 1.056v1.892a.215.215 0 0 1 0 .076.247.247 0 0 1-.107.06h-.062a.177.177 0 0 1-.118-.085v-3.193a.16.16 0 0 1 .047-.122c.032-.032.076-.087.133-.087.079 0 .15.12.15.21v.329c.262-.317.652-.539 1.062-.539.788 0 1.388.666 1.393 1.434v1.867a.169.169 0 0 1-.17.16.16.16 0 0 1-.168-.16z"/></g><g><path d="M233.099 113.209h-2.531v2.12a.169.169 0 1 1-.338 0v-4.57a.169.169 0 1 1 .338 0v2.12h2.53v-2.12a.169.169 0 1 1 .338 0v4.57a.169.169 0 1 1-.337 0z"/></g><g><path d="M237.654 113.77c.014.731-.56 1.34-1.291 1.368a1.292 1.292 0 1 1 1.29-1.386zm.26-1.77h-.19c-.058.068-.086.139-.07.206v.507c-.298-.418-.778-.713-1.291-.713-.946 0-1.713.805-1.713 1.752s.767 1.715 1.713 1.715a1.611 1.611 0 0 0 1.29-.676v.515a.169.169 0 0 0 .161.16c.09.001.186-.07.186-.16v-3.1c0-.067 0-.138-.087-.206z"/></g><g><path d="M241.817 113.46c.002-.281-.109-.551-.307-.75a1.121 1.121 0 0 0-.748-.307 1.072 1.072 0 0 0-1.063 1.056v1.892a.215.215 0 0 1 0 .076.152.152 0 0 1-.127.06h-.042a.143.143 0 0 1-.11-.085v-3.193a.16.16 0 0 1 .047-.122c.032-.032.077-.087.122-.087.044 0 .086.058.116.09a.16.16 0 0 1 .044.12v.329c.251-.317.652-.539 1.063-.539.767 0 1.388.666 1.393 1.434v1.867c0 .093-.076.169-.205.169-.057 0-.133-.076-.133-.17z"/></g><g><path d="M244.856 115.157a1.368 1.368 0 0 1-1.34-1.368c0-.789.596-1.353 1.34-1.368a1.375 1.375 0 0 1 1.393 1.313v.11a1.368 1.368 0 0 1-1.393 1.313zm1.393.173a.17.17 0 0 0 .338 0v-4.57a.169.169 0 0 0-.338 0v1.977a1.687 1.687 0 0 0-1.316-.675c-.933 0-1.713.767-1.713 1.714s.78 1.715 1.713 1.715a1.628 1.628 0 0 0 1.316-.659z"/></g><g><path d="M248.466 113.774a1.33 1.33 0 0 1 1.362-1.326 1.35 1.35 0 1 1-1.362 1.377zm-.346 1.596c.008.089.08.157.169.16a.169.169 0 0 0 .177-.16v-.498c.309.417.798.662 1.316.659a1.714 1.714 0 0 0 0-3.43c-.52.011-1.005.26-1.316.676v-1.976a.17.17 0 0 0-.177-.16.177.177 0 0 0-.169.16z"/></g><g><path d="M255.274 113.77a1.34 1.34 0 0 1-1.274 1.368 1.292 1.292 0 1 1 1.274-1.385zm.329-1.564c.015-.067-.012-.138-.07-.206h-.19c-.057.068-.085.139-.07.206v.507c-.273-.418-.777-.713-1.273-.713-1 0-1.73.805-1.73 1.752s.73 1.715 1.73 1.715c.496-.007 1-.258 1.274-.676v.515c.004.09.079.161.169.16a.169.169 0 0 0 .16-.16z"/></g><g><path d="M260 113.763c0 .352-.161.695-.4.953-.24.284-.6.41-.923.424a1.275 1.275 0 1 1-.062-2.55c.69-.035 1.282.485 1.385 1.173zm.29-1.554c-.005-.089-.073-.209-.161-.209-.129 0-.129.114-.129.209v.557c-.339-.418-.813-.67-1.323-.675A1.68 1.68 0 0 0 257 113.78c0 .933.745 1.69 1.677 1.69.51-.001.988-.254 1.323-.676v.422c-.051.44-.279.848-.652 1.082-.348.233-.84.258-1.236.067-.038-.023-.112-.028-.112-.013a.145.145 0 0 0-.107.089c-.036.082-.007.178.107.228.187.1.43.154.677.16.89 0 1.612-.722 1.612-1.613z"/></g><g><path d="M204.24 248.366c.57 0 1.125.19 1.577.54.065.094.065.177 0 .246a.16.16 0 0 1-.236 0 2.243 2.243 0 0 0-1.376-.473c-.796-.05-1.554.321-1.967 1.03a2.147 2.147 0 0 0 0 2.222c.413.683 1.171 1.069 1.967 1.069.496 0 .978-.202 1.359-.52a.177.177 0 0 1 .244 0 .169.169 0 0 1 0 .245 2.572 2.572 0 0 1-1.577.532 2.482 2.482 0 0 1-2.481-2.484 2.482 2.482 0 0 1 2.48-2.483z"/></g><g><path d="M208.61 253c-.734 0-1.306-.658-1.282-1.394a1.35 1.35 0 0 1 .874-1.293 1.383 1.383 0 0 1 1.521.344c.389.416.482 1.029.277 1.543-.287.514-.822.8-1.39.8zm-1.61-1.42c0 .69.41 1.31 1 1.567.687.257 1.418.1 1.895-.398a1.69 1.69 0 0 0-1.285-2.858 1.68 1.68 0 0 0-1.61 1.69z"/></g><g><path d="M211.569 248.6a.177.177 0 0 1 .169-.17.169.169 0 0 1 .177.17v4.56a.169.169 0 0 1-.177.17.177.177 0 0 1-.169-.17z"/></g><g><path d="M214.72 253a1.357 1.357 0 0 1-1.249-1.42c.01-.58.368-1.076.902-1.274a1.386 1.386 0 0 1 1.715 1.926c-.258.508-.8.768-1.368.768zm-1.62-1.42c0 .69.42 1.31 1.058 1.567.64.257 1.37.1 1.842-.398a1.683 1.683 0 0 0 .326-1.863c-.326-.629-.918-1.022-1.606-.995a1.689 1.689 0 0 0-1.62 1.69z"/></g><g><path d="M217.484 250.078c-.002-.078.015-.078.047-.078.032-.077.076-.094.122-.091.093 0 .169.091.169.169v.751a.749.749 0 0 1 0-.084 1.687 1.687 0 0 1 1.375-.845.16.16 0 0 1 .122.047c.032.053.049.053.047.122a.169.169 0 0 1-.17.17 1.248 1.248 0 0 0-.995.557c-.201.204-.313.517-.413.802a.153.153 0 0 0 0 .05v1.504a.169.169 0 0 1-.169.17.16.16 0 0 1-.169-.17z"/></g><g><path fill="#ce3592" d="M210.08 306.35h92.84v19.571h-92.84z"/></g><g><path fill="#fff" d="M223.831 317.3l.844-2.3.844 2.3zm2.65 2.525c.084.175.296.365.519.363a.54.54 0 0 0 .215 0 .592.592 0 0 0 .346-.752l-2.312-6.183c-.094-.253-.315-.368-.557-.363-.243-.007-.465.11-.557.363l-2.32 6.183a.591.591 0 0 0 .346.752.54.54 0 0 0 .202 0c.239 0 .454-.188.549-.363l.506-1.368h2.531z"/></g><g><path fill="#fff" d="M230.144 314h.65c1.206.185 2.206 1.255 2.206 2.516 0 1.261-1 2.33-2.206 2.484h-.65zM229 319.616c0 .317.237.574.554.574h1.24a3.673 3.673 0 0 0 3.495-3.67 3.673 3.673 0 0 0-3.495-3.67h-1.24a.623.623 0 0 0-.408.15c-.146.124-.146.271-.146.425z"/></g><g><path fill="#fff" d="M237.364 314H238a2.546 2.546 0 0 1 2.188 2.516A2.49 2.49 0 0 1 238 319h-.635zm-1.164 5.616c0 .317.257.574.574.574H238c2-.094 3.509-1.709 3.509-3.67a3.654 3.654 0 0 0-3.509-3.67h-1.226a.623.623 0 0 0-.408.15.631.631 0 0 0-.166.425z"/></g><g><path fill="#fff" d="M251.363 314h-1.687v5.616a.582.582 0 0 1-1.156 0V314h-1.688a.576.576 0 0 1-.582-.575.618.618 0 0 1 .168-.425.61.61 0 0 1 .414-.15h4.472c.153-.002.3.058.409.15a.633.633 0 0 1 .165.425c-.002.295-.222.575-.515.575z"/></g><g><path fill="#fff" d="M258.739 316.416a2.56 2.56 0 0 1-.739 1.824c-.4.48-1 .76-1.658.76a2.296 2.296 0 0 1-1.687-.76 2.63 2.63 0 0 1-.71-1.824 2.688 2.688 0 0 1 .71-1.842 2.328 2.328 0 0 1 1.687-.743c.658 0 1.254.27 1.658.743.488.504.74 1.16.739 1.842zm-2.397-3.776c-.977-.001-1.91.36-2.573 1.124a3.905 3.905 0 0 0 0 5.304 3.534 3.534 0 0 0 2.573 1.124 3.373 3.373 0 0 0 2.532-1.124 3.838 3.838 0 0 0 0-5.304c-.645-.764-1.566-1.13-2.532-1.124z"/></g><g><path fill="#fff" d="M264.82 316.416a3.841 3.841 0 0 1 3.848-3.776 3.887 3.887 0 0 1 2.413.845c.17.13.258.34.231.515a.604.604 0 0 1-.363.515.599.599 0 0 1-.594-.076 2.605 2.605 0 0 0-1.687-.583 2.825 2.825 0 0 0-1.89.76 2.538 2.538 0 0 0-.778 1.825c0 .688.283 1.347.778 1.825a2.802 2.802 0 0 0 1.89.734c.612 0 1.21-.174 1.687-.557a.63.63 0 0 1 .844.118.617.617 0 0 1-.11.845c-.686.594-1.536.843-2.413.845-1.02.006-2.001-.395-2.676-1.115a3.69 3.69 0 0 1-1.18-2.72z"/></g><g><path fill="#fff" d="M274.692 317.3l.844-2.3.844 2.3zm2.632 2.525c.086.175.302.368.54.363a.472.472 0 0 0 .195 0 .683.683 0 0 0 .329-.303.583.583 0 0 0 .017-.449l-2.312-6.183c-.093-.253-.314-.37-.557-.363-.243-.005-.464.11-.536.363l-2.333 6.183a.584.584 0 0 0 .016.449c.065.115.184.25.317.303a.564.564 0 0 0 .207 0c.24.004.458-.188.548-.363l.515-1.368h2.531z"/></g><g><path fill="#fff" d="M283.229 315.1a1.08 1.08 0 0 1-1.08 1.055h-1.291V314h1.29c.29 0 .565.112.768.318.202.206.315.484.313.773zm1.468 4.214c-.067-.197-.235-.314-.44-.38a3.108 3.108 0 0 1-.041-.625 1.98 1.98 0 0 0-.346-1.132c-.101-.177-.223-.278-.363-.388.493-.41.829-1.029.844-1.69a2.24 2.24 0 0 0-2.186-2.289h-1.881a.528.528 0 0 0-.408.19.477.477 0 0 0-.166.384v6.192c0 .317.29.574.574.574a.637.637 0 0 0 .414-.15.646.646 0 0 0 .177-.424v-2.28h1.231c.209.054.408.14.591.253a.805.805 0 0 1 .303.304c.092.147.136.29.136.448-.023.43.052.86.22 1.258.08.15.195.278.337.372.121.069.307.069.405.069.075.058.152.058.227 0 .302-.055.467-.38.372-.686z"/></g><g><path fill="#fff" d="M290.665 314H289v5.616c0 .153-.08.3-.188.384a.504.504 0 0 1-.408.19.486.486 0 0 1-.404-.19.464.464 0 0 1-.179-.384V314h-1.687a.573.573 0 0 1-.574-.576.63.63 0 0 1 .166-.424.663.663 0 0 1 .408-.15h4.472a.556.556 0 0 1 .394.15c.126.123.188.27.188.424-.002.3-.188.576-.523.576z"/></g><g><path fill="#ebebeb" d="M201.19 119.39h110.618v110.737H201.19z"/></g><g><path fill="#dbdbdb" d="M256.496 224c25.127 0 45.504-2.79 45.504-6.283 0-3.494-20.377-6.327-45.504-6.327S211 214.223 211 217.717c0 3.494 20.37 6.283 45.496 6.283z"/></g><g><path fill="#ce3592" d="M284.117 217.331h-55.233c-14.884 0-12.53-11.952-8.944-24.495 3.586-12.544 8.876-31.566 22.225-31.566h28.688c13.34 0 18.647 19.014 22.225 31.566 3.577 12.551 5.974 24.495-8.961 24.495z"/></g><g opacity=".1"><g opacity=".1"><path d="M240.588 161.874a.574.574 0 1 1-1.102-.225.566.566 0 0 1 .514-.349c.336.005.588.26.588.574z"/></g><g opacity=".1"><path d="M250 161.874a.568.568 0 0 1-.349.532.624.624 0 0 1-.651-.128.619.619 0 0 1-.094-.63.568.568 0 0 1 1.094.226z"/></g><g opacity=".1"><path d="M259.427 161.874a.574.574 0 1 1-1.148.001.574.574 0 0 1 1.148 0z"/></g><g opacity=".1"><path d="M268.838 161.874a.583.583 0 0 1-.574.575.574.574 0 0 1 0-1.149c.315.005.569.26.574.574z"/></g><g opacity=".1"><path d="M231.188 174a.573.573 0 0 1-.976.404c-.212-.164-.212-.404-.13-.627a.574.574 0 0 1 1.105.223z"/></g><g opacity=".1"><path d="M240 174.569c.34 0 .598-.257.598-.569a.58.58 0 0 0-.598-.58c-.293 0-.55.257-.55.58 0 .312.257.569.55.569z"/></g><g opacity=".1"><path d="M250 174c0 .22-.128.432-.343.523a.63.63 0 0 1-.657-.122.619.619 0 0 1-.095-.63.578.578 0 0 1 .537-.35c.312 0 .558.252.558.579z"/></g><g opacity=".1"><path d="M259.427 174a.573.573 0 1 1-.574-.58.573.573 0 0 1 .406.163.575.575 0 0 1 .168.417z"/></g><g opacity=".1"><path d="M268.838 174a.573.573 0 0 1-1.148 0c0-.323.257-.58.574-.58.317 0 .574.257.574.58z"/></g><g opacity=".1"><path d="M278.257 174a.573.573 0 1 1-.574-.58c.317 0 .57.252.574.58z"/></g><g opacity=".1"><path d="M235.888 167.784a.574.574 0 1 1-1.149 0 .574.574 0 0 1 1.149 0z"/></g><g opacity=".1"><path d="M245.297 167.784c0 .216-.14.443-.356.532a.573.573 0 0 1-.626-.129c-.163-.187-.21-.414-.119-.628a.574.574 0 0 1 .536-.349c.152 0 .268.06.403.169a.566.566 0 0 1 .162.405z"/></g><g opacity=".1"><path d="M254.718 167.784a.574.574 0 1 1-.574-.574.565.565 0 0 1 .574.574z"/></g><g opacity=".1"><path d="M264.098 167.784a.574.574 0 0 1-.574.575c-.317 0-.524-.257-.524-.575 0-.317.207-.574.524-.574.153-.002.3.058.408.166.068.108.168.255.166.408z"/></g><g opacity=".1"><path d="M273.547 167.784c0 .318-.256.575-.547.575a.58.58 0 0 1-.6-.575.58.58 0 0 1 .6-.574c.29 0 .547.257.547.574z"/></g><g opacity=".1"><path d="M282.883 168.058a.548.548 0 0 1-.49.295.51.51 0 0 1-.393-.165.527.527 0 0 1-.18-.409.603.603 0 0 1 .397-.549c.227.27.447.54.666.828z"/></g><g opacity=".1"><path d="M231.188 186.106a.574.574 0 0 1-.977.418c-.211-.164-.211-.412-.128-.627a.574.574 0 0 1 1.104.209z"/></g><g opacity=".1"><path d="M240 186.679a.58.58 0 0 0 .598-.575.58.58 0 0 0-.598-.574.57.57 0 0 0-.55.574.57.57 0 0 0 .55.575z"/></g><g opacity=".1"><path d="M250 186.106a.573.573 0 0 1-.343.537.63.63 0 0 1-.657-.122.624.624 0 0 1-.095-.63.578.578 0 0 1 .537-.35.56.56 0 0 1 .558.565z"/></g><g opacity=".1"><path d="M259.427 186.106a.574.574 0 1 1-.573-.566.574.574 0 0 1 .405.163.656.656 0 0 1 .168.403z"/></g><g opacity=".1"><path d="M268.838 186.104a.574.574 0 1 1-1.149.001.574.574 0 0 1 1.149 0z"/></g><g opacity=".1"><path d="M278.257 186.106a.574.574 0 1 1-1.148.017.574.574 0 0 1 1.148-.017z"/></g><g opacity=".1"><path d="M287.104 186.679a.574.574 0 1 0 0-1.148.574.574 0 0 0 0 1.148z"/></g><g opacity=".1"><path d="M226.478 179.894a.574.574 0 1 1-1.149 0 .574.574 0 0 1 1.149 0z"/></g><g opacity=".1"><path d="M235.888 179.894a.574.574 0 1 1-.574-.574c.315.005.569.26.574.574z"/></g><g opacity=".1"><path d="M245.297 179.894a.574.574 0 1 1-.565-.574c.268.005.566.26.565.574z"/></g><g opacity=".1"><path d="M254.718 179.894a.574.574 0 1 1-1.149.001.574.574 0 0 1 1.149 0z"/></g><g opacity=".1"><path d="M264.098 179.894a.574.574 0 0 1-.574.575c-.317 0-.524-.257-.524-.575 0-.317.207-.574.524-.574.317 0 .574.257.574.574z"/></g><g opacity=".1"><path d="M273.547 179.894c0 .318-.256.575-.547.575a.58.58 0 0 1-.6-.575.58.58 0 0 1 .6-.574c.289.005.543.26.547.574z"/></g><g opacity=".1"><path d="M283 179.894c0 .234-.183.443-.399.532a.525.525 0 0 1-.601-.128.542.542 0 0 1-.144-.63.574.574 0 0 1 .536-.348c.314.005.608.26.608.574z"/></g><g opacity=".1"><path d="M221.767 198.216a.574.574 0 0 1-.348.537c-.214.091-.419.044-.628-.12a.583.583 0 0 1-.128-.633.623.623 0 0 1 .53-.35.565.565 0 0 1 .574.566z"/></g><g opacity=".1"><path d="M231.188 198.216a.574.574 0 0 1-.977.418c-.211-.164-.211-.412-.128-.634a.574.574 0 0 1 1.105.216z"/></g><g opacity=".1"><path d="M240 198.789a.58.58 0 0 0 .598-.575.58.58 0 0 0-.598-.574.57.57 0 0 0-.55.574.57.57 0 0 0 .55.575z"/></g><g opacity=".1"><path d="M250 198.216a.573.573 0 0 1-.343.537.63.63 0 0 1-.657-.122.625.625 0 0 1-.095-.631.578.578 0 0 1 .537-.35.56.56 0 0 1 .558.566z"/></g><g opacity=".1"><path d="M259.427 198.216a.574.574 0 1 1-.573-.566.566.566 0 0 1 .574.566z"/></g><g opacity=".1"><path d="M268.838 198.214a.574.574 0 1 1-1.149.001.574.574 0 0 1 1.149 0z"/></g><g opacity=".1"><path d="M278.257 198.216a.574.574 0 1 1-1.148.017.574.574 0 0 1 1.148-.017z"/></g><g opacity=".1"><path d="M287.104 198.789a.574.574 0 1 0 0-1.148.574.574 0 0 0 0 1.148z"/></g><g opacity=".1"><path d="M226.478 192a.575.575 0 0 1-.574.579.575.575 0 0 1 0-1.149c.317 0 .574.257.574.57z"/></g><g opacity=".1"><path d="M235.888 192a.575.575 0 0 1-.574.579.575.575 0 0 1 0-1.149c.315.005.569.259.574.57z"/></g><g opacity=".1"><path d="M245.297 192a.573.573 0 1 1-.565-.57c.268.005.566.26.565.57z"/></g><g opacity=".1"><path d="M254.718 192a.575.575 0 0 1-.574.579.575.575 0 0 1 0-1.149c.317 0 .574.257.574.57z"/></g><g opacity=".1"><path d="M264.098 192a.575.575 0 0 1-.574.579c-.317 0-.524-.257-.524-.579 0-.313.207-.57.524-.57.317 0 .574.257.574.57z"/></g><g opacity=".1"><path d="M273.547 192c0 .322-.256.579-.547.579a.581.581 0 0 1-.6-.579c0-.313.257-.57.6-.57.289.005.543.259.547.57z"/></g><g opacity=".1"><path d="M283 192c0 .238-.183.447-.399.536a.525.525 0 0 1-.601-.128.54.54 0 0 1-.144-.63.574.574 0 0 1 .536-.348c.314.005.608.26.608.57z"/></g><g opacity=".1"><path d="M292.378 192c0 .238-.141.447-.378.536a.547.547 0 0 1-.605-.128.573.573 0 0 1 .417-.978c.314.005.566.26.566.57z"/></g><g opacity=".1"><path d="M221.768 210.334a.574.574 0 1 1-1.148 0c0-.334.257-.574.574-.574.153-.002.3.058.408.166.108.074.168.255.166.408z"/></g><g opacity=".1"><path d="M231.188 210.334a.574.574 0 0 1-.574.575c-.317 0-.614-.257-.614-.575 0-.334.297-.574.614-.574.152 0 .298.06.386.168.127.072.188.254.188.406z"/></g><g opacity=".1"><path d="M240 210.909a.58.58 0 0 0 .598-.575c0-.334-.257-.574-.598-.574-.293 0-.55.24-.55.574a.57.57 0 0 0 .55.575z"/></g><g opacity=".1"><path d="M250 210.334a.568.568 0 0 1-.349.532c-.215.134-.463.038-.651-.128a.619.619 0 0 1-.094-.63.576.576 0 0 1 .939-.18c.155.072.155.255.155.406z"/></g><g opacity=".1"><path d="M259.427 210.334a.574.574 0 1 1-1.147 0c0-.334.257-.574.574-.574.146-.002.3.058.408.166.108.074.168.255.165.408z"/></g><g opacity=".1"><path d="M268.838 210.334a.574.574 0 0 1-.574.566.595.595 0 0 1-.504-.57c0-.33.24-.535.504-.57.152 0 .298.06.406.168.108.072.168.254.168.406z"/></g><g opacity=".1"><path d="M278.258 210.334a.575.575 0 0 1-1.148 0c0-.334.257-.574.574-.574.152 0 .316.06.405.168.108.072.169.254.169.406z"/></g><g opacity=".1"><path d="M287.104 210.909a.574.574 0 0 0 .573-.575.563.563 0 0 0-.573-.574.563.563 0 0 0-.574.574c0 .318.257.575.574.575z"/></g><g opacity=".1"><path d="M226.478 204.116a.575.575 0 1 1-.574-.566.565.565 0 0 1 .405.163.635.635 0 0 1 .169.403z"/></g><g opacity=".1"><path d="M235.887 204.116a.574.574 0 1 1-1.148.017.574.574 0 0 1 1.148-.017z"/></g><g opacity=".1"><path d="M245.297 204.116a.574.574 0 1 1-.565-.566c.15 0 .268.06.4.166a.632.632 0 0 1 .165.4z"/></g><g opacity=".1"><path d="M254.718 204.116a.575.575 0 1 1-.574-.566.565.565 0 0 1 .405.163.635.635 0 0 1 .169.403z"/></g><g opacity=".1"><path d="M264.098 204.116c.003.233-.098.445-.349.537a.573.573 0 0 1-.628-.12c-.121-.163-.216-.41-.121-.626a.557.557 0 0 1 .524-.357.565.565 0 0 1 .405.163c.071.106.169.287.169.403z"/></g><g opacity=".1"><path d="M273.547 204.116a.574.574 0 1 1-1.104-.21.584.584 0 0 1 .557-.356c.287 0 .543.252.547.566z"/></g><g opacity=".1"><path d="M283 204.116c0 .234-.178.446-.393.537a.531.531 0 0 1-.607-.122.546.546 0 0 1-.145-.63.574.574 0 0 1 .537-.351c.15 0 .294.06.4.166.106.106.208.284.208.4z"/></g><g opacity=".1"><path d="M292.377 204.116a.56.56 0 0 1-.377.537.54.54 0 0 1-.602-.122.575.575 0 0 1 .414-.981c.188 0 .294.06.4.166a.632.632 0 0 1 .165.4z"/></g><g opacity=".1"><path d="M225.904 216.809a.574.574 0 1 0 0-1.148.574.574 0 0 0 0 1.148z"/></g><g opacity=".1"><path d="M235.887 216.236a.574.574 0 0 1-.976.418.608.608 0 0 1-.128-.654.594.594 0 0 1 .53-.33c.314 0 .57.252.574.566z"/></g><g opacity=".1"><path d="M245.297 216.236a.574.574 0 0 1-.979.415.6.6 0 0 1-.123-.651.59.59 0 0 1 .537-.33c.15 0 .268.06.4.166.106.106.165.25.165.4z"/></g><g opacity=".1"><path d="M254.718 216.236a.575.575 0 0 1-.977.418.608.608 0 0 1-.128-.654.594.594 0 0 1 .53-.33.565.565 0 0 1 .575.566z"/></g><g opacity=".1"><path d="M263.554 216.809a.574.574 0 0 0 0-1.149.557.557 0 0 0-.554.574c0 .318.237.575.554.575z"/></g><g opacity=".1"><path d="M273 216.809c.29 0 .547-.257.547-.575 0-.317-.256-.574-.547-.574a.58.58 0 0 0-.6.574.58.58 0 0 0 .6.575z"/></g><g opacity=".1"><path d="M283 216.236c0 .234-.178.446-.393.537a.531.531 0 0 1-.607-.122.57.57 0 0 1-.145-.651.59.59 0 0 1 .937-.164c.106.106.208.25.208.4z"/></g><g opacity=".1"><path d="M291.694 215.674a2.191 2.191 0 0 1-.304.177.531.531 0 0 1 .304-.177z"/></g></g><g opacity=".1"><path d="M241.233 172.456a4.576 4.576 0 0 0 4.573-4.578 4.576 4.576 0 0 0-4.573-4.578 4.576 4.576 0 0 0-4.573 4.578 4.576 4.576 0 0 0 4.573 4.578z"/></g><g opacity=".1"><path d="M271.763 172.456a4.576 4.576 0 0 0 4.573-4.578 4.576 4.576 0 0 0-4.573-4.578 4.576 4.576 0 0 0-4.573 4.578 4.576 4.576 0 0 0 4.573 4.578z"/></g><g><path fill="#263238" d="M241.235 171c1.715 0 3.105-1.405 3.105-3.122a3.107 3.107 0 0 0-3.105-3.108 3.107 3.107 0 0 0-3.105 3.108c0 1.717 1.39 3.122 3.105 3.122z"/></g><g><path fill="#263238" d="M271.755 171c1.715 0 3.105-1.405 3.105-3.122a3.107 3.107 0 0 0-3.105-3.108 3.081 3.081 0 0 0-3.105 3.108c0 1.717 1.35 3.122 3.105 3.122z"/></g><g><path fill="#ce3592" d="M271.764 168.546a1.763 1.763 0 0 1-1.764-1.748 85.72 85.72 0 0 0-2.59-16.472C265.655 143.78 262.407 136 256.914 136 246.789 136 243 161.57 243 166.798c0 .965-.799 1.748-1.763 1.748a1.748 1.748 0 0 1-1.747-1.748c0-.338 2.126-34.328 17.424-34.328 14.842 0 16.597 33.99 16.597 34.328.002.464-.181.91-.511 1.202a1.628 1.628 0 0 1-1.236.546z"/></g><g><path fill="#ebebeb" d="M201.19 258.15h19.71v19.732h-19.71z"/></g><g><path fill="#455a64" d="M216 275.613h-9.874c-2.658 0-2.236-2.13-1.595-4.367.641-2.246 1.586-5.626 3.957-5.626h5.114c2.398 0 3.324 3.38 3.965 5.626.642 2.246 1.064 4.367-1.567 4.367z"/></g><g opacity=".1"><g opacity=".1"><path d="M208.203 265.732a.101.101 0 0 1-.101.102c-.102-.004-.102-.047-.102-.102 0-.056 0-.101.102-.101.056 0 .101.045.101.101z"/></g><g opacity=".1"><path d="M209.883 265.732a.101.101 0 1 1-.203 0 .101.101 0 0 1 .203 0z"/></g><g opacity=".1"><path d="M211.563 265.732a.101.101 0 1 1-.202 0 .101.101 0 0 1 .202 0z"/></g><g opacity=".1"><path d="M213.243 265.732a.11.11 0 0 1-.101.102c-.056 0-.142-.046-.142-.102 0-.056.086-.101.142-.101.056 0 .101.045.101.101z"/></g><g opacity=".1"><path d="M206.523 267.882c0 .056-.045.118-.101.118-.056 0-.101-.062-.101-.118a.11.11 0 0 1 .1-.101.101.101 0 0 1 .102.101z"/></g><g opacity=".1"><path d="M208.203 267.882c0 .056-.045.118-.101.118-.102 0-.102-.062-.102-.118 0-.054 0-.097.102-.101.056 0 .101.045.101.101z"/></g><g opacity=".1"><path d="M209.883 267.882c0 .056-.045.118-.101.118-.056 0-.101-.062-.101-.118a.101.101 0 1 1 .202 0z"/></g><g opacity=".1"><path d="M211.563 267.882c0 .056-.045.118-.101.118-.056 0-.101-.062-.101-.118a.101.101 0 1 1 .202 0z"/></g><g opacity=".1"><path d="M213.243 267.882c0 .056-.045.118-.101.118-.056 0-.142-.062-.142-.118 0-.056.086-.101.142-.101a.11.11 0 0 1 .101.101z"/></g><g opacity=".1"><path d="M214.923 267.882c0 .056-.045.118-.101.118-.056 0-.101-.062-.101-.118 0-.056.045-.101.1-.101a.11.11 0 0 1 .102.101z"/></g><g opacity=".1"><path d="M207.271 266.883a.101.101 0 1 0 0-.203.101.101 0 0 0 0 .203z"/></g><g opacity=".1"><path d="M209 266.883s.052-.046.052-.102c0-.056-.052-.101-.052-.101-.105 0-.15.045-.15.101 0 .056.045.102.15.102z"/></g><g opacity=".1"><path d="M210.631 266.883a.101.101 0 1 0 0-.203.101.101 0 0 0 0 .203z"/></g><g opacity=".1"><path d="M212.403 266.782a.101.101 0 0 1-.202 0 .11.11 0 0 1 .1-.101c.057 0 .102.045.102.101z"/></g><g opacity=".1"><path d="M214.083 266.782c0 .027-.01.053-.03.072-.053.019-.053.03-.053.03-.074 0-.12-.046-.12-.102.005-.054.048-.097.12-.101 0 0 0 .01.053.03.02.019.03.044.03.071z"/></g><g opacity=".1"><path d="M215.745 266.828a.076.076 0 0 1-.085.051.101.101 0 0 1-.1-.101.101.101 0 0 1 .067-.093.98.98 0 0 1 .118.143z"/></g><g opacity=".1"><path d="M206.523 270c0 .098-.045.144-.101.144-.056 0-.101-.046-.101-.144 0 0 .045-.059.1-.059.057 0 .102.059.102.059z"/></g><g opacity=".1"><path d="M208.203 270c0 .098-.045.144-.101.144-.102 0-.102-.046-.102-.144 0 0 0-.059.102-.059.056 0 .101.059.101.059z"/></g><g opacity=".1"><path d="M209.883 270c0 .098-.045.144-.101.144-.056 0-.101-.046-.101-.144 0 0 .045-.059.1-.059.057 0 .102.059.102.059z"/></g><g opacity=".1"><path d="M211.563 270c0 .098-.045.144-.101.144-.056 0-.101-.046-.101-.144 0 0 .045-.059.1-.059.057 0 .102.059.102.059z"/></g><g opacity=".1"><path d="M213.243 270c0 .098-.045.144-.101.144-.056 0-.142-.046-.142-.144 0 0 .086-.059.142-.059.056 0 .101.059.101.059z"/></g><g opacity=".1"><path d="M214.923 270c0 .098-.045.144-.101.144-.056 0-.101-.046-.101-.144 0 0 .045-.059.1-.059.057 0 .102.059.102.059z"/></g><g opacity=".1"><path d="M216.603 270c0 .098-.045.144-.101.144-.056 0-.101-.046-.101-.144 0 0 .045-.059.1-.059.057 0 .102.059.102.059z"/></g><g opacity=".1"><path d="M205.591 269c.056 0 .102 0 .102-.059a.101.101 0 1 0-.203 0c0 .059.045.059.101.059z"/></g><g opacity=".1"><path d="M207.271 269c.056 0 .102 0 .102-.059a.101.101 0 0 0-.203 0c0 .059.045.059.101.059z"/></g><g opacity=".1"><path d="M209 269s.052 0 .052-.059c0-.056-.052-.101-.052-.101-.105 0-.15.045-.15.101 0 .059.045.059.15.059z"/></g><g opacity=".1"><path d="M210.631 269c.056 0 .102 0 .102-.059a.101.101 0 0 0-.203 0c0 .059.045.059.101.059z"/></g><g opacity=".1"><path d="M212.403 268.942c0 .058-.045.058-.101.058-.056 0-.101 0-.101-.058a.101.101 0 1 1 .202 0z"/></g><g opacity=".1"><path d="M214.083 268.942c0 .058-.01.058-.03.058H214c-.074 0-.12 0-.12-.058 0-.056.046-.101.12-.101 0 0 0 .01.053.03.02.019.03.044.03.071z"/></g><g opacity=".1"><path d="M215.763 268.942c0 .058-.045.058-.101.058-.056 0-.101 0-.101-.058a.101.101 0 1 1 .202 0z"/></g><g opacity=".1"><path d="M204.853 272.207a.11.11 0 0 1-.1.1.101.101 0 0 1-.102-.1.102.102 0 0 1 .101-.11.11.11 0 0 1 .101.11z"/></g><g opacity=".1"><path d="M206.523 272.207a.101.101 0 0 1-.101.1.11.11 0 0 1-.102-.1.11.11 0 0 1 .102-.11.101.101 0 0 1 .101.11z"/></g><g opacity=".1"><path d="M208.203 272.207a.101.101 0 0 1-.101.1c-.102-.003-.102-.046-.102-.1 0-.058 0-.106.102-.11a.101.101 0 0 1 .101.11z"/></g><g opacity=".1"><path d="M209.883 272.212a.101.101 0 1 1-.203 0 .101.101 0 0 1 .203 0z"/></g><g opacity=".1"><path d="M211.563 272.212a.101.101 0 1 1-.202 0 .101.101 0 0 1 .202 0z"/></g><g opacity=".1"><path d="M213.243 272.207a.11.11 0 0 1-.1.1c-.057 0-.143-.044-.143-.1 0-.029 0-.057.067-.078a.101.101 0 0 1 .075-.032.11.11 0 0 1 .101.11z"/></g><g opacity=".1"><path d="M214.923 272.207a.11.11 0 0 1-.101.1.101.101 0 0 1-.101-.1.101.101 0 0 1 .101-.11.11.11 0 0 1 .101.11z"/></g><g opacity=".1"><path d="M216.607 272.207a.11.11 0 0 1-.1.1.11.11 0 0 1-.11-.1c0-.061.049-.11.11-.11a.11.11 0 0 1 .1.11z"/></g><g opacity=".1"><path d="M205.591 271.193a.101.101 0 0 0 .102-.102c0-.091-.046-.091-.102-.091-.056 0-.101 0-.101.091 0 .056.045.102.101.102z"/></g><g opacity=".1"><path d="M207.271 271.193a.101.101 0 0 0 .102-.102c0-.091-.046-.091-.102-.091-.056 0-.101 0-.101.091 0 .056.045.102.101.102z"/></g><g opacity=".1"><path d="M209 271.193s.052-.046.052-.102c0-.091-.052-.091-.052-.091-.105 0-.15 0-.15.091 0 .056.045.102.15.102z"/></g><g opacity=".1"><path d="M210.631 271.193a.101.101 0 0 0 .102-.102c0-.091-.046-.091-.102-.091-.056 0-.101 0-.101.091 0 .056.045.102.101.102z"/></g><g opacity=".1"><path d="M212.403 271.098a.102.102 0 0 1-.101.11.11.11 0 0 1-.102-.11c.004-.098.048-.098.102-.098.056 0 .101 0 .101.098z"/></g><g opacity=".1"><path d="M214.083 271.098a.102.102 0 0 1-.026.077c-.057.021-.057.033-.057.033-.076-.005-.12-.052-.12-.11.005-.098.047-.098.12-.098h.053c.02 0 .03.071.03.098z"/></g><g opacity=".1"><path d="M215.763 271.092a.101.101 0 0 1-.202 0c0-.092.045-.092.1-.092.057 0 .102 0 .102.092z"/></g><g opacity=".1"><path d="M217.433 271.092a.101.101 0 1 1-.202 0c0-.092.045-.092.1-.092.057 0 .102 0 .102.092z"/></g><g opacity=".1"><path d="M204.751 274.463a.101.101 0 1 0 0-.203.101.101 0 0 0 0 .203z"/></g><g opacity=".1"><path d="M206.431 274.463a.101.101 0 1 0 0-.203.101.101 0 0 0 0 .203z"/></g><g opacity=".1"><path d="M208.203 274.392a.101.101 0 0 1-.101.102c-.102 0-.102-.046-.102-.102 0-.056 0-.101.102-.101.056 0 .101.045.101.101z"/></g><g opacity=".1"><path d="M209.883 274.392a.101.101 0 1 1-.203 0 .101.101 0 0 1 .203 0z"/></g><g opacity=".1"><path d="M211.461 274.463a.101.101 0 1 0 0-.203.101.101 0 0 0 0 .203z"/></g><g opacity=".1"><path d="M213.141 274.463a.101.101 0 0 0 0-.203c-.056 0-.141.045-.141.101 0 .056.085.102.141.102z"/></g><g opacity=".1"><path d="M214.821 274.463a.101.101 0 1 0 0-.203.101.101 0 0 0 0 .203z"/></g><g opacity=".1"><path d="M216.501 274.463a.101.101 0 1 0 0-.203.101.101 0 0 0 0 .203z"/></g><g opacity=".1"><path d="M205.591 273.363a.101.101 0 1 0 0-.203.101.101 0 0 0 0 .203z"/></g><g opacity=".1"><path d="M207.271 273.363a.101.101 0 1 0 0-.203.101.101 0 0 0 0 .203z"/></g><g opacity=".1"><path d="M209 273.363s.052-.046.052-.102c0-.056-.052-.101-.052-.101-.105 0-.15.045-.15.101 0 .056.045.102.15.102z"/></g><g opacity=".1"><path d="M210.631 273.363a.101.101 0 1 0 0-.203.101.101 0 0 0 0 .203z"/></g><g opacity=".1"><path d="M212.403 273.252a.101.101 0 1 1-.203 0 .101.101 0 0 1 .203 0z"/></g><g opacity=".1"><path d="M214.083 273.252c0 .027-.01.053-.03.072-.053.019-.053.03-.053.03-.074 0-.12-.046-.12-.102 0-.056.046-.101.12-.101 0 0 0 .01.053.03.02.019.03.044.03.071z"/></g><g opacity=".1"><path d="M215.763 273.252a.101.101 0 1 1-.203 0 .101.101 0 0 1 .203 0z"/></g><g opacity=".1"><path d="M217.433 273.252a.101.101 0 1 1-.202 0 .101.101 0 0 1 .202 0z"/></g><g opacity=".1"><path d="M205.591 275.523a.101.101 0 1 0 0-.203.101.101 0 0 0 0 .203z"/></g><g opacity=".1"><path d="M207.271 275.523a.101.101 0 1 0 0-.203.101.101 0 0 0 0 .203z"/></g><g opacity=".1"><path d="M209 275.523s.052-.046.052-.102c0-.056-.052-.101-.052-.101-.105 0-.15.045-.15.101 0 .056.045.102.15.102z"/></g><g opacity=".1"><path d="M210.631 275.523a.101.101 0 1 0 0-.203.101.101 0 0 0 0 .203z"/></g><g opacity=".1"><path d="M212.403 275.422a.101.101 0 0 1-.101.102.11.11 0 0 1-.101-.102.101.101 0 1 1 .202 0z"/></g><g opacity=".1"><path d="M214.083 275.422c0 .027-.01.053-.03.072-.053.019-.053.03-.053.03-.072-.004-.115-.047-.12-.102 0-.056.046-.101.12-.101 0 0 0 .01.053.03.02.019.03.044.03.071z"/></g><g opacity=".1"><path d="M215.763 275.422a.101.101 0 1 1-.203 0 .101.101 0 0 1 .203 0z"/></g><g opacity=".1"><path d="M217.321 275.314h-.059a.126.126 0 0 1 .06 0z"/></g></g><g opacity=".1"><path d="M209.148 266.785a.844.844 0 1 1-1.689 0 .844.844 0 0 1 1.689 0z"/></g><g opacity=".1"><path d="M214.578 266.785a.844.844 0 1 1-1.689 0 .844.844 0 0 1 1.689 0z"/></g><g><path fill="#263238" d="M208.875 266.789a.552.552 0 1 1-1.105 0 .543.543 0 0 1 .557-.549c.303 0 .548.246.548.549z"/></g><g><path fill="#263238" d="M213.768 267.348a.549.549 0 1 0 0-1.097.549.549 0 0 0 0 1.097z"/></g><g><path fill="#455a64" d="M213.765 266.913a.304.304 0 0 1-.313-.304 16.901 16.901 0 0 0-.452-2.94c-.324-1.166-.906-2.534-1.885-2.534-1.806 0-2.48 4.561-2.48 5.499a.312.312 0 0 1-.313.304.304.304 0 0 1-.22-.086c-.102-.057-.102-.136-.102-.218 0-.068.39-6.124 3.115-6.124s2.962 6.056 2.962 6.124a.312.312 0 0 1-.312.279z"/></g><g><path fill="#ebebeb" d="M225.55 258.15h19.71v19.732h-19.71z"/></g><g><path fill="#263238" d="M226 258.575h18.83v18.895H226zm19.674-.845H225.12v20.585h20.554z"/></g><g><path fill="#ce3592" d="M240.317 275.613h-9.839c-2.666 0-2.236-2.13-1.594-4.367.64-2.246 1.578-5.626 3.957-5.626h5.096c2.38 0 3.325 3.38 3.958 5.626.632 2.246 1.105 4.367-1.578 4.367z"/></g><g opacity=".1"><g opacity=".1"><path d="M232.563 265.732a.101.101 0 1 1-.202 0 .101.101 0 0 1 .202 0z"/></g><g opacity=".1"><path d="M234.243 265.732a.101.101 0 0 1-.101.102c-.056 0-.142-.046-.142-.102 0-.056.086-.101.142-.101.056 0 .101.045.101.101z"/></g><g opacity=".1"><path d="M235.923 265.732a.11.11 0 0 1-.101.102.101.101 0 1 1 .101-.102z"/></g><g opacity=".1"><path d="M237.607 265.733a.11.11 0 0 1-.1.1.11.11 0 0 1-.11-.1.102.102 0 0 1 .11-.102c.055 0 .1.046.1.102z"/></g><g opacity=".1"><path d="M230.883 267.882c0 .056-.045.118-.101.118-.056 0-.101-.062-.101-.118a.101.101 0 1 1 .202 0z"/></g><g opacity=".1"><path d="M232.563 267.882c0 .056-.045.118-.101.118-.056 0-.101-.062-.101-.118a.101.101 0 1 1 .202 0z"/></g><g opacity=".1"><path d="M234.243 267.882c0 .056-.045.118-.101.118-.056 0-.142-.062-.142-.118 0-.056.086-.101.142-.101.056 0 .101.045.101.101z"/></g><g opacity=".1"><path d="M235.923 267.882c0 .056-.045.118-.101.118-.056 0-.101-.062-.101-.118 0-.056.045-.101.1-.101a.11.11 0 0 1 .102.101z"/></g><g opacity=".1"><path d="M237.607 267.882c0 .056-.045.118-.1.118h-.078c-.02-.062-.033-.09-.033-.118a.11.11 0 0 1 .11-.101.11.11 0 0 1 .101.101z"/></g><g opacity=".1"><path d="M239.273 267.882c0 .056-.045.118-.101.118-.056 0-.101-.062-.101-.118a.11.11 0 0 1 .1-.101c.057 0 .102.045.102.101z"/></g><g opacity=".1"><path d="M231.733 266.782a.101.101 0 1 1-.101-.101.11.11 0 0 1 .101.101z"/></g><g opacity=".1"><path d="M233.301 266.883a.101.101 0 1 0 0-.203.101.101 0 0 0 0 .203z"/></g><g opacity=".1"><path d="M235 266.883s.083-.046.083-.102c0-.056-.083-.101-.083-.101-.075 0-.12.045-.12.101 0 .056.045.102.12.102z"/></g><g opacity=".1"><path d="M236.661 266.883a.101.101 0 1 0 0-.203.101.101 0 0 0 0 .203z"/></g><g opacity=".1"><path d="M238.341 266.883a.101.101 0 1 0 0-.203.101.101 0 0 0 0 .203z"/></g><g opacity=".1"><path d="M240.105 266.829c-.016.031-.05.051-.105.05 0 0-.08-.045-.08-.1-.003-.044.025-.082.08-.094 0 .044.07.092.105.144z"/></g><g opacity=".1"><path d="M230.883 270c0 .098-.045.144-.101.144-.056 0-.101-.046-.101-.144 0 0 .045-.059.1-.059.057 0 .102.059.102.059z"/></g><g opacity=".1"><path d="M232.563 270c0 .098-.045.144-.101.144-.056 0-.101-.046-.101-.144 0 0 .045-.059.1-.059.057 0 .102.059.102.059z"/></g><g opacity=".1"><path d="M234.243 270c0 .098-.045.144-.101.144-.056 0-.142-.046-.142-.144 0 0 .086-.059.142-.059.056 0 .101.059.101.059z"/></g><g opacity=".1"><path d="M235.923 270c0 .098-.045.144-.101.144-.056 0-.101-.046-.101-.144 0 0 .045-.059.1-.059.057 0 .102.059.102.059z"/></g><g opacity=".1"><path d="M237.603 270c0 .098-.045.144-.101.144-.056 0-.101-.046-.101-.144 0 0 .045-.059.1-.059.057 0 .102.059.102.059z"/></g><g opacity=".1"><path d="M239.273 270c0 .098-.045.144-.101.144-.056 0-.101-.046-.101-.144 0 0 .045-.059.1-.059.057 0 .102.059.102.059z"/></g><g opacity=".1"><path d="M241 270c0 .098-.092.144-.148.144-.056 0-.101-.046-.101-.144 0 0 .045-.059.1-.059A.39.39 0 0 1 241 270z"/></g><g opacity=".1"><path d="M230.053 268.942A.054.054 0 0 1 230 269c-.104 0-.15 0-.15-.058 0-.056.046-.101.15-.101 0 0 .053.045.053.101z"/></g><g opacity=".1"><path d="M231.733 268.942c0 .058-.045.058-.101.058-.056 0-.101 0-.101-.058a.101.101 0 1 1 .202 0z"/></g><g opacity=".1"><path d="M233.301 269c.056 0 .101 0 .101-.059a.101.101 0 1 0-.202 0c0 .059.045.059.101.059z"/></g><g opacity=".1"><path d="M235 269s.083 0 .083-.059c0-.056-.083-.101-.083-.101-.075 0-.12.045-.12.101 0 .059.045.059.12.059z"/></g><g opacity=".1"><path d="M236.661 269c.056 0 .101 0 .101-.059a.101.101 0 1 0-.202 0c0 .059.045.059.101.059z"/></g><g opacity=".1"><path d="M238.341 269c.056 0 .102 0 .102-.059a.101.101 0 1 0-.203 0c0 .059.045.059.101.059z"/></g><g opacity=".1"><path d="M240.123 268.942c0 .058-.045.058-.123.058 0 0-.08 0-.08-.058 0-.056.08-.101.08-.101.078 0 .123.045.123.101z"/></g><g opacity=".1"><path d="M229.213 272.207a.101.101 0 0 1-.101.1c-.055-.003-.112-.046-.112-.1 0-.058.054-.106.112-.11a.101.101 0 0 1 .101.11z"/></g><g opacity=".1"><path d="M230.883 272.212a.101.101 0 1 1-.203 0 .101.101 0 0 1 .203 0z"/></g><g opacity=".1"><path d="M232.563 272.212a.101.101 0 1 1-.202 0 .101.101 0 0 1 .202 0z"/></g><g opacity=".1"><path d="M234.243 272.212a.101.101 0 0 1-.101.102c-.056 0-.142-.046-.142-.102 0-.056.086-.101.142-.101.056 0 .101.045.101.101z"/></g><g opacity=".1"><path d="M235.923 272.207a.11.11 0 0 1-.101.1.101.101 0 0 1-.101-.1.101.101 0 0 1 .101-.11.11.11 0 0 1 .101.11z"/></g><g opacity=".1"><path d="M237.607 272.207a.11.11 0 0 1-.1.1.11.11 0 0 1-.11-.1c0-.061.049-.11.11-.11a.11.11 0 0 1 .1.11z"/></g><g opacity=".1"><path d="M239.273 272.207a.101.101 0 0 1-.101.1.11.11 0 0 1-.102-.1.11.11 0 0 1 .102-.11.101.101 0 0 1 .101.11z"/></g><g opacity=".1"><path d="M241 272.207c0 .056-.092.1-.148.1a.11.11 0 0 1-.102-.1.11.11 0 0 1 .102-.11c.028 0 .055.011.075.032.019.021.073.05.073.078z"/></g><g opacity=".1"><path d="M230.053 271.098c0 .058-.053.105-.053.11-.076 0-.103-.012-.123-.033a.101.101 0 0 1-.026-.077c0-.027.01-.098.03-.098H230l.053.098z"/></g><g opacity=".1"><path d="M231.733 271.098a.11.11 0 0 1-.1.11.101.101 0 0 1-.102-.11c0-.098.045-.098.101-.098.054 0 .097 0 .101.098z"/></g><g opacity=".1"><path d="M233.301 271.193a.101.101 0 0 0 .101-.102c0-.091-.045-.091-.1-.091-.057 0-.102 0-.102.091 0 .056.045.102.101.102z"/></g><g opacity=".1"><path d="M235 271.193s.083-.046.083-.102c0-.091-.083-.091-.083-.091-.075 0-.12 0-.12.091 0 .056.045.102.12.102z"/></g><g opacity=".1"><path d="M236.661 271.193a.101.101 0 0 0 .101-.102c0-.091-.045-.091-.1-.091-.057 0-.102 0-.102.091 0 .056.045.102.101.102z"/></g><g opacity=".1"><path d="M238.341 271.193a.101.101 0 0 0 .102-.102c0-.091-.046-.091-.102-.091-.056 0-.101 0-.101.091 0 .056.045.102.101.102z"/></g><g opacity=".1"><path d="M240.113 271.098c0 .058-.044.105-.113.11 0 0 0-.012-.063-.033a.102.102 0 0 1-.026-.077c0-.098.089-.098.089-.098.066 0 .11 0 .113.098z"/></g><g opacity=".1"><path d="M241.691 271.193a.101.101 0 0 0 .101-.102c0-.091-.045-.091-.1-.091-.057 0-.102 0-.102.091 0 .056.045.102.101.102z"/></g><g opacity=".1"><path d="M229.111 274.463a.101.101 0 0 0 0-.203c-.056 0-.111.045-.111.101 0 .056.055.102.111.102z"/></g><g opacity=".1"><path d="M230.781 274.463a.101.101 0 1 0 0-.203.101.101 0 0 0 0 .203z"/></g><g opacity=".1"><path d="M232.461 274.463a.101.101 0 1 0 0-.203.101.101 0 0 0 0 .203z"/></g><g opacity=".1"><path d="M234.243 274.392a.101.101 0 0 1-.101.102c-.056 0-.142-.046-.142-.102 0-.056.086-.101.142-.101.056 0 .101.045.101.101z"/></g><g opacity=".1"><path d="M235.923 274.392a.101.101 0 1 1-.202 0 .101.101 0 0 1 .202 0z"/></g><g opacity=".1"><path d="M237.603 274.392a.101.101 0 1 1-.203 0 .101.101 0 0 1 .203 0z"/></g><g opacity=".1"><path d="M239.273 274.392a.101.101 0 1 1-.203 0 .101.101 0 0 1 .203 0z"/></g><g opacity=".1"><path d="M241 274.392c0 .056-.092.102-.148.102a.101.101 0 0 1 0-.203c.056 0 .148.045.148.101z"/></g><g opacity=".1"><path d="M230.053 273.252c0 .056-.053.102-.053.102-.104 0-.15-.046-.15-.102 0-.056.046-.101.15-.101 0 0 .053.045.053.101z"/></g><g opacity=".1"><path d="M231.733 273.252a.101.101 0 1 1-.203 0 .101.101 0 0 1 .203 0z"/></g><g opacity=".1"><path d="M233.301 273.363a.101.101 0 1 0 0-.203.101.101 0 0 0 0 .203z"/></g><g opacity=".1"><path d="M235 273.363s.083-.046.083-.102c0-.056-.083-.101-.083-.101-.075 0-.12.045-.12.101 0 .056.045.102.12.102z"/></g><g opacity=".1"><path d="M236.661 273.363a.101.101 0 1 0 0-.203.101.101 0 0 0 0 .203z"/></g><g opacity=".1"><path d="M238.341 273.363a.101.101 0 1 0 0-.203.101.101 0 0 0 0 .203z"/></g><g opacity=".1"><path fill="#00b4a3" d="M240.123 273.252c0 .056-.045.102-.123.102 0 0-.08-.046-.08-.102 0-.056.08-.101.08-.101.078 0 .123.045.123.101z"/></g><g opacity=".1"><path d="M241.691 273.363a.101.101 0 1 0 0-.203.101.101 0 0 0 0 .203z"/></g><g opacity=".1"><path d="M230.053 275.422c-.053.055-.053.098-.053.102-.075 0-.1-.011-.12-.03a.102.102 0 0 1 0-.143c.02-.02.045-.03.12-.03v.03c0 .019.053.044.053.071z"/></g><g opacity=".1"><path d="M231.733 275.422a.11.11 0 0 1-.101.102.101.101 0 1 1 .101-.102z"/></g><g opacity=".1"><path d="M233.301 275.523a.101.101 0 1 0 0-.203.101.101 0 0 0 0 .203z"/></g><g opacity=".1"><path d="M235 275.523s.083-.046.083-.102c0-.056-.083-.101-.083-.101-.075 0-.12.045-.12.101 0 .056.045.102.12.102z"/></g><g opacity=".1"><path d="M236.661 275.523a.101.101 0 1 0 0-.203.101.101 0 0 0 0 .203z"/></g><g opacity=".1"><path d="M238.341 275.523a.101.101 0 1 0 0-.203.101.101 0 0 0 0 .203z"/></g><g opacity=".1"><path d="M240.123 275.422c-.004.055-.047.098-.123.102 0 0-.08-.046-.08-.102 0-.056.08-.101.08-.101s.074.01.094.03c.018.019.03.044.03.071z"/></g><g opacity=".1"><path d="M241.667 275.322h-.05"/></g></g><g opacity=".1"><path d="M233.498 266.785a.844.844 0 1 1-1.689 0 .844.844 0 0 1 1.689 0z"/></g><g opacity=".1"><path d="M238.938 266.785a.844.844 0 1 1-1.689 0 .844.844 0 0 1 1.689 0z"/></g><g><path fill="#263238" d="M232.688 267.348a.543.543 0 0 0 .549-.549.549.549 0 1 0-.548.549z"/></g><g><path fill="#263238" d="M238.118 267.348a.549.549 0 1 0 0-1.097.549.549 0 0 0 0 1.097z"/></g><g><path fill="#ce3592" d="M238.116 266.913a.312.312 0 0 1-.312-.304 15.125 15.125 0 0 0-.464-2.94c-.34-1.166-.886-2.534-1.865-2.534-1.806 0-2.475 4.561-2.475 5.499 0 .15-.17.261-.322.261a.312.312 0 0 1-.308-.261c0-.068.371-6.124 3.105-6.124s2.953 6.056 2.953 6.124a.304.304 0 0 1-.312.279z"/></g><g><path fill="#ebebeb" d="M249.9 258.15h19.71v19.732H249.9z"/></g><g><path fill="#a6a6a6" d="M264.676 275.613h-9.864c-2.658 0-2.227-2.13-1.594-4.367.632-2.246 1.586-5.626 3.965-5.626h5.114c2.37 0 3.316 3.38 3.957 5.626.641 2.246 1.08 4.367-1.578 4.367z"/></g><g opacity=".1"><g opacity=".1"><path d="M256.923 265.732a.11.11 0 0 1-.101.102.101.101 0 1 1 .101-.102z"/></g><g opacity=".1"><path d="M258.603 265.732a.11.11 0 0 1-.101.102.101.101 0 1 1 .101-.102z"/></g><g opacity=".1"><path d="M260.273 265.732a.101.101 0 0 1-.101.102.11.11 0 0 1-.101-.102.101.101 0 1 1 .202 0z"/></g><g opacity=".1"><path d="M262 265.732c0 .056-.092.102-.148.102a.11.11 0 0 1-.101-.102c0-.056.045-.101.1-.101.057 0 .149.045.149.101z"/></g><g opacity=".1"><path d="M255.243 267.882c0 .056-.045.118-.101.118-.056 0-.142-.062-.142-.118 0-.056.086-.101.142-.101.056 0 .101.045.101.101z"/></g><g opacity=".1"><path d="M256.923 267.882c0 .056-.045.118-.101.118-.056 0-.101-.062-.101-.118 0-.056.045-.101.1-.101a.11.11 0 0 1 .102.101z"/></g><g opacity=".1"><path d="M258.603 267.882c0 .056-.045.118-.101.118-.056 0-.101-.062-.101-.118 0-.056.045-.101.1-.101a.11.11 0 0 1 .102.101z"/></g><g opacity=".1"><path d="M260.273 267.882c0 .056-.045.118-.101.118h-.072c-.019-.065-.03-.09-.03-.118a.11.11 0 0 1 .102-.101c.056 0 .101.045.101.101z"/></g><g opacity=".1"><path d="M262 267.882c0 .056-.092.118-.148.118-.056 0-.101-.062-.101-.118a.11.11 0 0 1 .1-.101c.057 0 .149.045.149.101z"/></g><g opacity=".1"><path d="M263.633 267.882c0 .056-.045.118-.101.118-.056 0-.101-.062-.101-.118a.101.101 0 1 1 .202 0z"/></g><g opacity=".1"><path d="M256.083 266.782c0 .056-.083.102-.083.102-.074 0-.12-.046-.12-.102.005-.054.048-.097.12-.101 0 0 .083.045.083.101z"/></g><g opacity=".1"><path d="M257.763 266.782a.101.101 0 0 1-.202 0 .11.11 0 0 1 .1-.101c.057 0 .102.045.102.101z"/></g><g opacity=".1"><path d="M259.443 266.782a.101.101 0 1 1-.202 0 .101.101 0 0 1 .202 0z"/></g><g opacity=".1"><path d="M261.123 266.782c0 .056-.045.102-.123.102 0 0-.08-.046-.08-.102 0-.056.08-.101.08-.101.078 0 .123.045.123.101z"/></g><g opacity=".1"><path d="M262.803 266.782a.101.101 0 1 1-.101-.101.11.11 0 0 1 .101.101z"/></g><g opacity=".1"><path d="M264.465 266.829a.093.093 0 0 1-.085.05.101.101 0 0 1-.1-.1.093.093 0 0 1 .067-.094c.042.042.075.102.118.144z"/></g><g opacity=".1"><path d="M255.243 270c0 .098-.045.144-.101.144-.056 0-.142-.046-.142-.144 0 0 .086-.059.142-.059.056 0 .101.059.101.059z"/></g><g opacity=".1"><path d="M256.923 270c0 .098-.045.144-.101.144-.056 0-.101-.046-.101-.144 0 0 .045-.059.1-.059.057 0 .102.059.102.059z"/></g><g opacity=".1"><path d="M258.603 270c0 .098-.045.144-.101.144-.056 0-.101-.046-.101-.144 0 0 .045-.059.1-.059.057 0 .102.059.102.059z"/></g><g opacity=".1"><path d="M260.273 270c0 .098-.045.144-.101.144-.056 0-.101-.046-.101-.144 0 0 .045-.059.1-.059.057 0 .102.059.102.059z"/></g><g opacity=".1"><path d="M262 270c0 .098-.092.144-.148.144-.056 0-.101-.046-.101-.144 0 0 .045-.059.1-.059A.39.39 0 0 1 262 270z"/></g><g opacity=".1"><path d="M263.633 270c0 .098-.045.144-.101.144-.056 0-.101-.046-.101-.144 0 0 .045-.059.1-.059.057 0 .102.059.102.059z"/></g><g opacity=".1"><path d="M265.313 270c0 .098-.045.144-.101.144-.056 0-.101-.046-.101-.144 0 0 .045-.059.1-.059.057 0 .102.059.102.059z"/></g><g opacity=".1"><path d="M254.301 269c.056 0 .101 0 .101-.059a.101.101 0 1 0-.202 0c0 .059.045.059.101.059z"/></g><g opacity=".1"><path d="M256.083 268.942c0 .058-.083.058-.083.058-.074 0-.12 0-.12-.058 0-.056.046-.101.12-.101 0 0 .083.045.083.101z"/></g><g opacity=".1"><path d="M257.763 268.942c0 .058-.045.058-.101.058-.056 0-.101 0-.101-.058a.101.101 0 1 1 .202 0z"/></g><g opacity=".1"><path d="M259.443 268.942c0 .058-.045.058-.101.058-.056 0-.101 0-.101-.058a.101.101 0 1 1 .202 0z"/></g><g opacity=".1"><path d="M261.123 268.942c0 .058-.045.058-.123.058 0 0-.08 0-.08-.058 0-.056.08-.101.08-.101.078 0 .123.045.123.101z"/></g><g opacity=".1"><path d="M262.803 268.942c0 .058-.045.058-.101.058-.056 0-.101 0-.101-.058a.101.101 0 1 1 .202 0z"/></g><g opacity=".1"><path d="M264.473 268.942c0 .058-.045.058-.101.058-.056 0-.101 0-.101-.058a.101.101 0 1 1 .202 0z"/></g><g opacity=".1"><path d="M253.563 272.212a.101.101 0 1 1-.202 0 .101.101 0 0 1 .202 0z"/></g><g opacity=".1"><path d="M255.243 272.212a.101.101 0 0 1-.101.102c-.056 0-.142-.046-.142-.102 0-.056.086-.101.142-.101.056 0 .101.045.101.101z"/></g><g opacity=".1"><path d="M256.923 272.207a.11.11 0 0 1-.101.1.101.101 0 0 1-.101-.1.101.101 0 0 1 .101-.11.11.11 0 0 1 .101.11z"/></g><g opacity=".1"><path d="M258.603 272.207a.11.11 0 0 1-.1.1.101.101 0 0 1-.102-.1.102.102 0 0 1 .101-.11.11.11 0 0 1 .101.11z"/></g><g opacity=".1"><path d="M260.273 272.207a.101.101 0 0 1-.101.1.11.11 0 0 1-.102-.1.11.11 0 0 1 .102-.11.101.101 0 0 1 .1.11z"/></g><g opacity=".1"><path d="M262 272.207c0 .056-.092.1-.148.1a.11.11 0 0 1-.102-.1.11.11 0 0 1 .102-.11c.028 0 .055.011.075.032.019.021.073.05.073.078z"/></g><g opacity=".1"><path d="M263.633 272.212a.101.101 0 1 1-.203 0 .101.101 0 0 1 .203 0z"/></g><g opacity=".1"><path d="M265.313 272.212a.101.101 0 1 1-.202 0 .101.101 0 0 1 .202 0z"/></g><g opacity=".1"><path d="M254.301 271.193a.101.101 0 0 0 .101-.102c0-.091-.045-.091-.1-.091-.057 0-.102 0-.102.091 0 .056.045.102.101.102z"/></g><g opacity=".1"><path d="M256.083 271.098a.102.102 0 0 1-.026.077c-.057.021-.057.033-.057.033-.076-.005-.12-.052-.12-.11.005-.098.047-.098.12-.098h.053c.02 0 .03.071.03.098z"/></g><g opacity=".1"><path d="M257.763 271.098a.101.101 0 0 1-.101.11.11.11 0 0 1-.102-.11c.004-.098.048-.098.102-.098h.071c.02 0 .03.071.03.098z"/></g><g opacity=".1"><path d="M259.443 271.092a.101.101 0 1 1-.202 0c0-.092.045-.092.1-.092.057 0 .102 0 .102.092z"/></g><g opacity=".1"><path d="M261.123 271.092c0 .056-.045.102-.123.102 0 0-.08-.046-.08-.102 0-.092.08-.092.08-.092.078 0 .123 0 .123.092z"/></g><g opacity=".1"><path d="M262.803 271.098a.11.11 0 0 1-.101.11.101.101 0 0 1-.101-.11c0-.098.045-.098.101-.098.054 0 .097 0 .101.098z"/></g><g opacity=".1"><path d="M264.477 271.098a.11.11 0 0 1-.1.11.11.11 0 0 1-.11-.11c.004-.098.052-.098.11-.098.053 0 .096 0 .1.098z"/></g><g opacity=".1"><path d="M266.153 271.098a.102.102 0 0 1-.101.11c-.052-.005-.052-.052-.052-.11 0-.098 0-.098.052-.098h.071c.02 0 .03.071.03.098z"/></g><g opacity=".1"><path d="M253.563 274.392a.101.101 0 1 1-.202 0 .101.101 0 0 1 .202 0z"/></g><g opacity=".1"><path d="M255.141 274.463a.101.101 0 0 0 0-.203c-.056 0-.141.045-.141.101 0 .056.085.102.141.102z"/></g><g opacity=".1"><path d="M256.821 274.463a.101.101 0 1 0 0-.203.101.101 0 0 0 0 .203z"/></g><g opacity=".1"><path d="M258.501 274.463a.101.101 0 1 0 0-.203.101.101 0 0 0 0 .203z"/></g><g opacity=".1"><path d="M260.171 274.463a.101.101 0 1 0 0-.203.101.101 0 0 0 0 .203z"/></g><g opacity=".1"><path d="M262 274.392c0 .056-.092.102-.148.102a.101.101 0 0 1 0-.203c.056 0 .148.045.148.101z"/></g><g opacity=".1"><path d="M263.531 274.463a.101.101 0 1 0 0-.203.101.101 0 0 0 0 .203z"/></g><g opacity=".1"><path d="M265.211 274.463a.101.101 0 1 0 0-.203.101.101 0 0 0 0 .203z"/></g><g opacity=".1"><path d="M254.301 273.363a.101.101 0 1 0 0-.203.101.101 0 0 0 0 .203z"/></g><g opacity=".1"><path d="M256.083 273.252c0 .056-.083.102-.083.102-.074 0-.12-.046-.12-.102 0-.056.046-.101.12-.101 0 0 .083.045.083.101z"/></g><g opacity=".1"><path d="M257.763 273.252a.101.101 0 1 1-.203 0 .101.101 0 0 1 .203 0z"/></g><g opacity=".1"><path d="M259.443 273.252a.101.101 0 1 1-.202 0 .101.101 0 0 1 .202 0z"/></g><g opacity=".1"><path d="M261.123 273.252c0 .056-.045.102-.123.102 0 0-.08-.046-.08-.102 0-.056.08-.101.08-.101.078 0 .123.045.123.101z"/></g><g opacity=".1"><path d="M262.803 273.252a.101.101 0 1 1-.202 0 .101.101 0 0 1 .202 0z"/></g><g opacity=".1"><path d="M264.473 273.252a.101.101 0 1 1-.202 0 .101.101 0 0 1 .202 0z"/></g><g opacity=".1"><path d="M266.153 273.252a.101.101 0 0 1-.101.102c-.052 0-.052-.046-.052-.102 0-.056 0-.101.052-.101.056 0 .101.045.101.101z"/></g><g opacity=".1"><path d="M254.301 275.523a.101.101 0 1 0 0-.203.101.101 0 0 0 0 .203z"/></g><g opacity=".1"><path d="M256.083 275.422c0 .056-.083.102-.083.102-.072-.004-.115-.047-.12-.102 0-.056.046-.101.12-.101 0 0 .083.045.083.101z"/></g><g opacity=".1"><path d="M257.763 275.422a.101.101 0 0 1-.101.102.11.11 0 0 1-.101-.102.101.101 0 1 1 .202 0z"/></g><g opacity=".1"><path d="M259.443 275.422a.101.101 0 1 1-.202 0 .101.101 0 0 1 .202 0z"/></g><g opacity=".1"><path d="M261.123 275.422c0 .056-.045.102-.123.102 0 0-.08-.046-.08-.102 0-.056.08-.101.08-.101.078 0 .123.045.123.101z"/></g><g opacity=".1"><path d="M262.803 275.422a.11.11 0 0 1-.101.102.101.101 0 1 1 .101-.102z"/></g><g opacity=".1"><path d="M264.477 275.423a.11.11 0 0 1-.1.1.11.11 0 0 1-.11-.1.102.102 0 0 1 .11-.102.101.101 0 0 1 .1.102z"/></g><g opacity=".1"><path d="M266 275.315"/></g></g><g opacity=".1"><path d="M257.858 266.785a.847.847 0 0 1-.858.844.841.841 0 0 1-.83-.844c0-.467.378-.845.83-.845.48 0 .858.378.858.845z"/></g><g opacity=".1"><path d="M263.297 266.785a.844.844 0 0 1-.843.844.852.852 0 0 1-.844-.844c0-.467.39-.845.844-.845.466 0 .843.378.843.845z"/></g><g><path fill="#263238" d="M257 267.348c.341 0 .587-.246.587-.549 0-.303-.246-.549-.587-.549-.264 0-.51.246-.51.549 0 .303.246.55.51.55z"/></g><g><path fill="#263238" d="M262.478 267.348c.303 0 .522-.246.522-.549 0-.303-.219-.549-.522-.549a.549.549 0 0 0 0 1.098z"/></g><g><path fill="#a6a6a6" d="M262.474 266.913a.312.312 0 0 1-.312-.304 15.125 15.125 0 0 0-.464-2.94c-.312-1.166-.894-2.534-1.873-2.534-1.825 0-2.48 4.561-2.48 5.499 0 .082-.034.16-.093.218-.058.057-.138.088-.252.086-.137 0-.275-.135-.28-.304 0-.068.38-6.124 3.105-6.124s2.962 6.056 2.962 6.124a.312.312 0 0 1-.313.279z"/></g></g><g><g><path fill="#dfdfdf" d="M32.474 377.47l123.901.53c30.12-23.588 33.228-58.558 11.743-79.754-13-12.813-29.547-10.246-45.24-12.246a46.905 46.905 0 0 1-15.947-4.695C90.739 272.788 81.605 252.662 68 235.762c-1.691-2.114-3.473-4.212-5.338-6.166-11.203-11.938-33.49-12.325-45.156 4.456-29.665 42.628-16.09 106.08 14.968 143.417z"/></g><g><path fill="#fff" d="M29.697 279.918c3.25 50.732 61.955 69.67 98.618 54.472 31.885-13.218 21.45-43.39-5.462-48.39a47.025 47.025 0 0 1-15.947-4.7C90.715 272.783 81.581 252.657 68 235.757c-20.339-10.522-40.658 7.018-38.303 44.161z"/></g></g><g><g><path fill="#f7a9a0" d="M146.684 385.286c-1.916-.701-45.21-35.339-46.028-37.704-.321-.896 4.344-7.502 10.222-15.316 1.274-1.69 2.591-3.43 3.942-5.188 8.753-11.405 18.3-23.308 18.3-23.308l29.028 23.08-19.093 22.675-4.22 4.984s10.652 20.681 11.268 23.376c.616 2.695-1.503 8.115-3.419 7.4z"/></g><g><path fill="#fff" d="M146.683 385.288c-1.916-.702-45.21-35.339-46.028-37.704-.38-1.09 6.592-10.584 14.164-20.504l28.235 22.447-4.22 4.984s10.652 20.681 11.268 23.376c.616 2.695-1.502 8.113-3.419 7.4z"/></g><g><path fill="#ce3592" d="M146.684 385.29c-1.916-.7-45.21-35.29-46.028-37.704-.321-.895 4.344-7.502 10.222-15.316l27.981 22.244s10.653 20.68 11.27 23.376c.615 2.695-1.529 8.11-3.445 7.4z"/></g><g><path fill="#263238" d="M147.452 383.063c-7.116-5.981-36.38-29.45-43.893-34.823-.068 0-.093 0-.042.05 6.921 6.083 36.38 29.307 43.808 34.891.186.11.27 0 .127-.118z"/></g><g><path fill="#263238" d="M148.595 374.09a7.478 7.478 0 0 0-5.756-1.69 7.23 7.23 0 0 0-4.719 2.6s0 .095.084.053a8.62 8.62 0 0 1 10.315-.845.07.07 0 1 0 .076-.118z"/></g><g><path fill="#263238" d="M141.1 357.482c-2.87-2.365-7.1-4.03-10.763-3.1-.144.042-.085.245 0 .27a50.799 50.799 0 0 1 10.56 3.227.228.228 0 0 0 .202-.397z"/></g><g><path fill="#263238" d="M142.642 360.152c-2.87-2.365-7.057-4.03-10.762-3.1-.144.042-.093.245 0 .27 3.602.678 7.12 1.78 10.492 3.227a.24.24 0 1 0 .27-.397z"/></g><g><path fill="#263238" d="M144.192 362.792c-2.87-2.365-7.057-4.03-10.762-3.1-.144.042-.093.245 0 .308 3.57.66 7.12 1.743 10.492 3.19a.24.24 0 0 0 .239.017.242.242 0 0 0 .135-.207.235.235 0 0 0-.104-.208z"/></g><g><path fill="#263238" d="M145.732 365.492c-2.87-2.365-7.057-4.03-10.732-3.1-.174 0-.123.245 0 .262a52.317 52.317 0 0 1 10.462 3.235c.11.111.259.047.333-.063a.24.24 0 0 0-.063-.334z"/></g><g><path fill="#fff" d="M110.944 342.822c-3.267-2.602-7.302 2.475-4.035 5.068"/></g><g><path fill="#263238" d="M141.941 355.566c-1.587-.068-3.156-.22-4.743-.228a56.863 56.863 0 0 1 5.064-3c.85-.428 1.738-.8 2.625-1.114 1.402-.457 6.196-.609 3.96 2.776-1.2 1.887-5.023 1.65-6.906 1.566zm8.492-3.329c-.49-2.399-3.3-2.686-5.216-2.145a19.62 19.62 0 0 0-8.576 5.322.102.102 0 0 0 0 .16.474.474 0 0 0 0 .426.467.467 0 0 0 .359.225c3.186.22 6.596.845 9.778.093 1.883-.456 4.128-1.816 3.655-4.08z"/></g><g><path fill="#263238" d="M128.131 347.666c0-4.072 3.925-1.276 4.869-.118a26.266 26.266 0 0 1 1.53 2.382 58.17 58.17 0 0 1 2.532 5.322c-1.326-.845-2.71-1.622-4.062-2.45-1.594-.997-4.886-2.897-4.869-5.136zm.43 3.058c2.22 2.408 5.439 3.776 8.197 5.373.13.064.242.06.413-.01.128-.087.213-.2.228-.345.06 0 .119 0 .11-.11a19.573 19.573 0 0 0-4.22-9.2c-1.289-1.52-3.782-2.838-5.53-1.123-1.759 1.691-.497 4.004.803 5.415z"/></g><g><path fill="#37474f" d="M191.474 282.459c-1.984 15.097-39.158 58.672-43.474 63.673l-1 1.132-30.702-23.654.355-.457 27.07-35.482L63 287.198l30.626-23.857s2.49 1.436 7.656.659c17.827-2.585 58.015-8.372 67.528-8 12.19.515 24.487 12.604 22.664 26.459z"/></g><g><path fill="#263238" d="M153.445 274.496a36.041 36.041 0 0 0-2.794 3.582c-.954 1.25-1.925 2.534-2.887 3.75v.043c.169-.372.338-.735.515-1.107.6-1.25 1.08-2.534 1.798-3.764.042 0-.077-.114-.077 0-.767 1.145-1.62 2.277-2.245 3.527a43.138 43.138 0 0 0-.844 1.783c-.143.33-.295.69-.422 1.005-.059.152-.126.313-.177.482-.422.583-.844 1.203-1.258 1.766-.911 1.317-1.688 2.72-2.642 4.03-.05.067.068.134.118.067.929-1.234 1.976-2.382 2.93-3.607.953-1.225 1.882-2.535 2.785-3.819.903-1.284 1.755-2.534 2.634-3.785a37.748 37.748 0 0 0 2.659-3.894.055.055 0 1 0-.093-.06z"/></g><g><path fill="#263238" d="M67.458 198.667c-6.407 5.069-12.746 38.017-15.194 41.683-1.747 2.577-3.942 5.153-3.84 6.65.1 1.41 6.246 8.557 17.869 10.804S89.37 254.5 90.535 253c1.165-1.422-1.899-6.44-1.78-10.943.118-4.503 4.135-29.223 1.687-36.59-2.827-8.354-15.632-12.578-22.984-6.8z"/></g><g><path fill="#263238" d="M91.337 251.638a21.61 21.61 0 0 1-1.747-9.335c.067-3.608.523-7.215.92-10.797.422-3.78.841-7.558 1.258-11.337.363-3.337.844-6.708.232-10.037-.587-3.23-2-6.249-4.124-8.752 0 0-.092 0-.059.042a20.11 20.11 0 0 1 3.824 8.744c.6 3.565 0 7.206-.38 10.78-.422 3.709-.844 7.409-1.261 11.118-.35 3.379-.773 6.843-.824 10.272 0 3.16.279 6.664 1.959 9.395.076.101.253.017.202-.093z"/></g><g><path fill="#263238" d="M68.482 198.445c-2.971 1.614-4.423 4.807-5.613 7.874A241.814 241.814 0 0 0 58.403 219c-1.403 4.376-2.617 8.836-4.026 13.23-1.377 4.265-3.459 8.3-6.044 11.979-.059.084 0 .186.118.11 5.549-6.48 7.234-15.207 9.767-23.165a393.505 393.505 0 0 1 4.431-13.095c1.258-3.514 2.532-7.493 5.909-9.512.017-.06-.034-.127-.076-.102z"/></g><g><path fill="#263238" d="M71.19 197.25c-6.19 2.434-8.669 9.395-10.67 15.334-2.38 7.054-4.093 14.32-6.195 21.416-1.173 4.072-2.237 8.448-4.854 11.794-.075.101.068.206.152.135 2.01-2.4 3.04-5.382 3.993-8.33 1.14-3.54 2.136-7.122 3.115-10.704 1.958-7.096 3.748-14.42 6.803-21.12 1.612-3.531 4.018-6.978 7.681-8.448.043-.025.017-.118-.025-.076z"/></g><g><path fill="#f7a9a0" d="M73.064 241.892c5.479 7.865 24.243 28.276 37.217 31.258 7.158 1.63 41.719 6.463 46.425 2.154 5.546-5.069 2.971-24.094-1.435-24.304-13.506-.491-38.364 2.145-44.585.776C107.875 251.151 93 241.52 77 233.816c-6-2.924-7.464 2.999-3.936 8.076z"/></g><g><path fill="#ce3592" d="M148 250l-2.35 28.485s-31.35-.485-40.812-5.82c-9.463-5.323-24.838-18.908-30.76-28.353-5.891-9.445-3.924-14.59 7.597-8.777 11.522 5.812 27.012 15.122 29.071 15.612C112.806 251.637 148 250 148 250z"/></g><g><path fill="#263238" d="M142.92 252c0-.106-.119-.14-.136 0-.38 1.93-.548 3.94-.784 5.884a547.645 547.645 0 0 0-.591 6.116c-.409 4.14-.845 8.263-.929 12.368 0 .178.236.178.262 0 .616-4.03.937-8.135 1.325-12.199.186-2.019.371-4.03.515-6.049.143-2.019.363-4.12.337-6.12z"/></g><g><path fill="#ce3592" d="M45 294c1.688.528 50.595-13.622 50.595-13.622l-5.773-16.99s2.853-5.457 1.527-10.712c-1.764-7.02-14.746-18.586-15.767-19.236-4.094-2.72-7.935-2.67-11.328-.845C50.124 240.09 45 294 45 294z"/></g><g><path fill="#263238" d="M82.295 239.554c1.258 1.446 2.608 2.856 3.908 4.292-.607-1.064-1.203-2.146-1.857-3.185 0 0 0-.05 0 0a23.955 23.955 0 0 1 2.474 3.945 32.106 32.106 0 0 1 2.7 3.447 15.458 15.458 0 0 1 2.22 4.731c.427 1.716.496 3.502.203 5.216-.37 2-.943 4-1.646 5.885-.093.253-.447.115-.38-.152.92-3.32 1.959-6.818 1.224-10.281-.734-3.452-2.87-6.32-4.946-9.04-1.195-1.664-2.559-3.25-3.984-4.748-.085-.093.025-.177.084-.11z"/></g><g><path fill="#f7a9a0" d="M67.312 233.529c.194.887 4.33 6.69 8.374 6.556 1.314-.085 1.384-7.24 1.384-7.24l.127-.532L79 224.887l-9.94-6.497s-1.824 14.759-1.748 15.139z"/></g><g><path fill="#263238" d="M79 224.88l-1.807 7.426c-4.05-1.593-7.193-4.833-8.753-8.912.304-2.535.56-4.69.56-5.002v-.042l1.297.76z"/></g><g><path fill="#f7a9a0" d="M90.545 215.792c-.844 13.374-8.93 14.362-11.817 14.208-2.608-.175-11.497-1.08-12.045-14.47-.549-13.39 5.908-17.217 11.935-17.15 6.027.068 12.763 4.014 11.927 17.412z"/></g><g><path fill="#263238" d="M88.568 214.471c-.303-.084-.568-.203-.844-.312a1.494 1.494 0 0 1-.844-.482.454.454 0 0 1 .12-.583 1.071 1.071 0 0 1 1.155-.094c.413.095.767.363.996.728a.516.516 0 0 1-.048.562c-.103.162-.336.233-.535.181z"/></g><g><path fill="#263238" d="M79.809 213.332c.307-.005.615-.028.92-.067.329.02.656-.068.928-.265a.447.447 0 0 0 .076-.563A1.227 1.227 0 0 0 80.62 212c-.431 0-.845.18-1.165.47a.497.497 0 0 0-.095.53.507.507 0 0 0 .45.332z"/></g><g><path fill="#263238" d="M81.43 215.57s-.075 0-.084.076c-.067.912-.346 1.943-1.156 2.154v.051c1.021-.034 1.317-1.402 1.24-2.281z"/></g><g><path fill="#263238" d="M80.726 214.538c-1.443-.27-1.882 2.636-.54 2.889"/></g><g><path fill="#263238" d="M80.121 214.61c-.279.126-.574.39-.886.39-.313 0-.583-.39-.768-.72h-.06c-.084.558 0 1.166.593 1.335.657.169 1-.279 1.256-.845.05-.042-.017-.211-.135-.16z"/></g><g><path fill="#263238" d="M86.41 216.1s.058.05.05.093c-.169.895-.211 1.951.54 2.374v.05c-1-.287-.895-1.698-.59-2.517z"/></g><g><path fill="#263238" d="M87.362 215.283c1.468.118 1.122 3.04-.228 2.931"/></g><g><path fill="#263238" d="M88 215.55c.161.187.355.45.634.541.278.051.59-.228.844-.506h.042c-.05.566-.304 1.123-.844 1.165-.54.043-.802-.481-.844-1.056-.067-.067.034-.22.168-.143z"/></g><g><path fill="#263238" d="M80.173 223.39c.169.254.33.61.65.668.33.075.674.075 1.005 0 0 0 .05 0 0 .05-.33.312-.828.416-1.233.27a1.056 1.056 0 0 1-.595-.928c0-.035 0-.077.08-.093a.07.07 0 0 1 .093.033z"/></g><g><path fill="#263238" d="M84.393 220.644s0 1.356-.085 2.011c0 .06-.169.068-.388.05a3.047 3.047 0 0 1-2.777-1.528.068.068 0 0 1 .101-.076 4.689 4.689 0 0 0 2.659 1.165c.097-.169-.084-2.348 0-2.348.488.082.959.296 1.401.532.085-2.864-.304-5.72-.177-8.575a.093.093 0 0 1 .177 0c.498 3.049.696 6.125.574 9.226 0 .338-1.25-.313-1.485-.457z"/></g><g><path fill="#263238" d="M66.615 216.219c1.893-.466 3.385-1.894 3.975-3.76 2.512-.459 4.844-1.67 6.753-3.379-.152.254-1.199 2.07-1.764 2.982 8.66.229 12.602-5.6 12.602-5.6a14.8 14.8 0 0 1 2.532 6.065s1.157-5.069-.713-9.09a8.527 8.527 0 0 0-6.9-5.027 12.037 12.037 0 0 0-12.257 1.082c-6.76 4.714-4.228 16.727-4.228 16.727z"/></g><g><path fill="#263238" d="M82.169 212c-1.496.458-3.049.68-4.609.672a13.48 13.48 0 0 0 6.905-2.382c.86-.612 1.642-1.29 2.33-2.129a8.795 8.795 0 0 0 1.789-2.94.068.068 0 1 1 .127 0c-.275 1.118-.711 2.18-1.368 3.143a9.29 9.29 0 0 1-2.44 2.365c-.846.554-1.767.983-2.734 1.271"/></g><g><path fill="#f7a9a0" d="M68.744 216.639s-2.262-4.57-4.297-3.827c-2.034.743-.76 7.07 1.325 8.188a2.114 2.114 0 0 0 1.748.344 2.254 2.254 0 0 0 1.426-1.056z"/></g><g><path fill="#263238" d="M64.863 214.64s-.051.042 0 .06c1.451.844 2.05 2.407 2.397 3.978-.135-.34-.411-.605-.757-.678a1.098 1.098 0 0 0-1.041.061.05.05 0 0 0 0 .093c.538-.098 1.165.187 1.443.71.232.422.413.87.54 1.335.051.143.313.11.287-.06.33-2.001-.785-4.984-2.87-5.499z"/></g><g><path fill="#f7a9a0" d="M56.876 244.513c-3.876 22.312-.126 39.022 3.655 41.092 10.197 5.576 34.676-5.728 41.589-7.975 2.785-.904-9.935-22.27-12.788-20.951-6.71 3.1-16.114 8.372-16.494 8.321-.76-.067-1.637-5.761-5.537-22.362-3.149-13.399-8.813-7.223-10.425 1.875z"/></g><g><path fill="#f7a9a0" d="M124.367 246.128c.701 2.804-6.367 3.945-6.367 3.945a5.272 5.272 0 0 1 2.814 2.306c1.021 1.943-1.562 4.402-1.562 4.402a6.604 6.604 0 0 1 2.532 2.906c.794 1.951-1.468 4.807-1.468 4.807a6.05 6.05 0 0 1 .684 3.979c-.887 3.599-6.416 5.01-9.657 6.527-3.47 1.727-9.21 2.31-11.817 3.484l-11.286-20.69s10.931-11.59 17.203-13.348c3.376-.988 17.86-2.602 18.924 1.682z"/></g><g><path fill="#263238" d="M118 250c-4-.165-7.933.603-11.749 1.389-.084 0-.05.144 0 .127 3.749-.845 7.876-.65 11.674-1.327.075.005.075-.009.075-.035v-.093V250z"/></g><g><path fill="#263238" d="M119.082 256.52c-.895.05-1.78.215-2.633.48a118.123 118.123 0 0 0-8.171 2.51c-.076 0-.05.161 0 .136a133.422 133.422 0 0 1 8.247-2.146c.885-.148 1.75-.391 2.583-.727a.135.135 0 0 0-.026-.253z"/></g><g><path fill="#263238" d="M120.265 264.52a7.17 7.17 0 0 0-2.347.566l-2.481.769c-1.689.507-3.31 1.014-4.989 1.453-.076 0-.05.16 0 .135 1.688-.443 3.376-.845 5.107-1.326l2.532-.693a6.344 6.344 0 0 0 2.203-.845.05.05 0 0 0-.025-.059z"/></g><g><path fill="#d955a5" d="M88.627 256.518l11.758 25.09s-36.385 10.62-41.31 4.225c-4.93-6.396-4.592-26.494-2.279-40.4 2.313-13.905 8.568-14.175 11.303-1.604 2.735 12.57 4.355 20.512 4.845 20.444.49-.068 15.683-7.755 15.683-7.755z"/></g><g><path fill="#263238" d="M83.88 259.895c0-.06-.152 0-.127.05.658 1.884 1.536 3.7 2.338 5.525.802 1.825 1.688 3.76 2.583 5.627 1.747 3.717 3.46 7.493 5.427 11.1a.127.127 0 1 0 .22-.118c-1.503-3.801-3.321-7.501-5.014-11.202a129.73 129.73 0 0 0-2.608-5.483c-.92-1.816-1.764-3.734-2.82-5.5z"/></g><g><path fill="#263238" d="M81.117 286.22a15.022 15.022 0 0 0-3.039.507 66.374 66.374 0 0 1-3.165.49 58.09 58.09 0 0 1-6.17.533c-2.035.05-7.066-.254-8.61-1.69a9.674 9.674 0 0 1-2.626-4.528c-.507-2.36-.964-4.75-1.249-7.156a92.816 92.816 0 0 1-.481-15.316c.059-1.42.152-2.847.223-4.266.131-1.42.309-2.89.35-4.343 0-.05-.084-.059-.092 0a50.049 50.049 0 0 0-.962 7.012C55.203 256 55 254.532 55 253.062c0-.062 0-.062-.059-.062-.037 0-.067 0-.067.062 0 1.546-.076 3.092 0 4.638 0 .845.126 1.732.21 2.593-.084 1.969-.177 3.937-.151 5.914a60.62 60.62 0 0 0 1.798 15.4c.599 2.189 1.528 4.276 3.52 5.45 1.5.72 3.125 1.145 4.749 1.25 3.545.242 7.07.02 10.52-.659a40.51 40.51 0 0 0 2.887-.648 9.77 9.77 0 0 0 2.76-.712s0-.067-.05-.067z"/></g><g><path fill="#263238" d="M89.092 256.718v.009-.009z"/></g><g><path fill="#ce3592" d="M88.566 256c-2.676 1.392-5.36 2.736-8.027 4.104l-3.942 2.02c-1.266.658-3.68 1.96-3.68 1.96 0-.61-.49-2.358-.743-3.49-.254-1.132-.566-2.458-.844-3.683a24.437 24.437 0 0 0-.262-.911c-.068-.627-.068-1.218-.16-1.81-.093-.946-.17-1.909-.313-2.855h-.059c-.088.902-.088 1.81 0 2.665-.405-1.44-.844-2.91-1.266-4.38.481 2.484.988 4.968 1.553 7.434.279 1.192.583 2.383.895 3.574a36.102 36.102 0 0 0 1.063 3.802 41.346 41.346 0 0 0 4.01-1.775c1.367-.655 2.73-1.312 4.085-1.993 2.625-1.318 5.276-2.662 7.817-4.148 0 0 .177.338.202.38.026.042.105-.076.105-.194 0-.119-.366-.7-.434-.7z"/></g><g><path fill="#263238" d="M111.65 280.801h34.279L161 232.25h-34.317l-15.033 48.551z"/></g><g><path fill="#455a64" d="M113.33 280.801h34.279l15.033-48.551h-34.279l-15.033 48.551z"/></g><g><path fill="#fff" d="M141.59 255c-.59 1.901-2.249 3.24-4.221 3.34a2.493 2.493 0 0 1-2.125-1.007 2.491 2.491 0 0 1-.332-2.333 4.644 4.644 0 0 1 4.22-3.376c.868-.049 1.654.376 2.15 1.019a2.48 2.48 0 0 1 .307 2.357z"/></g><g><path fill="#f7a9a0" d="M157.37 249.27c1.688 3.084 6.112 6.868 6.559 9.437.279 1.293-.322 2.608-1.477 3.293 0 0 2.65 1.091 2.675 3.49 0 1.234-1.941 2.34-1.941 2.34a3.57 3.57 0 0 1 1.975 3.17c-.084 1.654-2.026 2.5-2.026 2.5s1.545 1.892.865 3.598c-1.261 3.455-15.83 4.275-18.388-.971-1.182-2.45 2.388-2.45 2.388-2.45s-5.14-1.234-5.385-4.224c-.244-2.991 4.385-2.73 4.385-2.73s-5-1.233-4.9-4.375c.06-3.143 4.66-2.197 4.66-2.197s-3.376-2.019-2.76-4.41c1-3.953 8.272.744 11.429-.194z"/></g><g><path fill="#263238" d="M162.84 273.706a25.303 25.303 0 0 1-15.067-.059c-.152-.05-.136-.32.05-.295 4.962.846 10.02.966 15.017.354z"/></g><g><path fill="#263238" d="M163.254 267.856c.05 0 .068.084 0 .144a23.95 23.95 0 0 1-16.451-1.124c-.178-.085-.254-.338 0-.262 3.579 1.386 11.817 1.9 16.451 1.242z"/></g><g><path fill="#263238" d="M146.43 259.857c5.065 2.213 10.35 2.534 15.819 2.143.068 0 .068.113 0 .138-2.617.93-6.128.862-8.863.515a14.197 14.197 0 0 1-7.04-2.653c-.076 0-.025-.185.085-.143z"/></g><g><path fill="#f7a9a0" d="M258.94 346c-.71 1.949-35.453 45.17-37.816 46-.895.293-7.48-4.404-15.279-10.31-1.688-1.275-3.376-2.601-5.165-3.953-11.37-8.794-23.23-18.392-23.23-18.392l23.154-28.985 22.596 19.194 4.963 4.224s20.698-10.594 23.39-11.202c2.693-.576 8.095 1.538 7.386 3.424z"/></g><g><path fill="#fff" d="M258.94 346c-.71 2-35.452 45.179-37.816 46-1.124.361-10.585-6.65-20.444-14.254l22.52-28.183 4.964 4.224s20.697-10.594 23.39-11.202c2.692-.585 8.095 1.538 7.386 3.415z"/></g><g><path fill="#ce3592" d="M258.934 346c-.71 2-35.452 45.175-37.816 46-.895.299-7.479-4.399-15.278-10.304l22.318-27.93s20.697-10.593 23.39-11.201c2.693-.565 8.095 1.554 7.386 3.435z"/></g><g><path fill="#263238" d="M256.706 345.264c-6.001 7.104-29.543 36.326-34.929 43.795-.042.059 0 .092.043.042 6.102-6.91 29.408-36.327 35.013-43.736.167-.16 0-.245-.127-.101z"/></g><g><path fill="#263238" d="M247.76 344.09a7.455 7.455 0 0 0-1.689 5.754 7.242 7.242 0 0 0 2.533 4.73c.042 0 .11 0 .067-.084a8.648 8.648 0 0 1-.844-10.332.06.06 0 0 0-.067-.067z"/></g><g><path fill="#263238" d="M231.138 351.535c-2.372 2.864-4.052 7.054-3.138 10.763 0 .144.25.093.276 0 .724-3.605 1.797-7.123 3.258-10.493a.24.24 0 0 0-.396-.27z"/></g><g><path fill="#263238" d="M233.817 350c-2.371 2.859-4.051 7-3.131 10.758 0 .144.236.093.262 0a51.427 51.427 0 0 1 3.266-10.493.24.24 0 0 0-.063-.333c-.151-.075-.259-.047-.334.068z"/></g><g><path fill="#263238" d="M236.488 348.425c-2.372 2.872-4.052 7.054-3.132 10.763.042.144.245.093.27 0a51.044 51.044 0 0 1 3.258-10.493.24.24 0 0 0-.396-.27z"/></g><g><path fill="#263238" d="M239.158 346.927c-2.372 2.872-4.052 7.073-3.158 10.763 0 .143.262.093.288 0a51.673 51.673 0 0 1 3.266-10.501.238.238 0 0 0-.396-.262z"/></g><g><path fill="#fff" d="M216.386 381.674c-2.609 3.26 2.456 7.326 5.064 4.055"/></g><g><path fill="#263238" d="M229.221 350.687c-.076 1.58-.221 3.151-.221 4.74a52.995 52.995 0 0 1-3-5.07 21.929 21.929 0 0 1-1.109-2.627c-.447-1.402-.582-6.2 2.802-3.953 1.832 1.223 1.621 5.026 1.528 6.91zm-3.292-8.515c-2.397.49-2.7 3.294-2.16 5.212A19.32 19.32 0 0 0 229.06 356c.017.051.046.066.076.066s.058-.015.076-.066c.13.093.285.093.416 0 .13 0 .22-.166.242-.311.228-3.21.844-6.615.129-9.809-.475-1.88-1.808-4.173-4.07-3.708z"/></g><g><path fill="#263238" d="M221.285 364.482c-4.068-.042-1.285-3.937-.11-4.84a22.438 22.438 0 0 1 2.398-1.564c1.688-.988 3.528-1.69 5.317-2.534-.89 1.318-1.629 2.703-2.456 4.055-.98 1.614-2.912 4.875-5.149 4.875zm3.056-.422c2.414-2.214 3.79-5.399 5.402-8.187a.457.457 0 0 0-.355-.642.101.101 0 0 0-.118-.11 19.592 19.592 0 0 0-9.2 4.149c-1.52 1.292-2.845 3.73-1.14 5.533 1.705 1.757 4.001.515 5.41-.743z"/></g><g><path fill="#37474f" d="M222 345.186l-24.11 32.542-81.32-56.476-7.841-5.449s-2.22 1.495-5.563 3.38c-4.642 2.534-11.446 5.817-17.464 6.707-10.13 1.496-26.952 1.335-35.452-10.053-7.167-9.589-3.25-22.1-3.25-22.1L58.058 289s26.234-21.9 43.226-22.56c7.217-.286 17.716 5.188 27.458 10.907 9.733 5.72 93.258 67.839 93.258 67.839z"/></g><g><path fill="#263238" d="M108.73 315.805s-2.22 1.495-5.562 3.379c-5.909-7.08-18.418-19.938-18.798-20.394z"/></g><g><path fill="#263238" d="M67.667 281.614c-1.57 1.09-3.08 2.248-4.667 3.386-1.52 1.126-3.056 2.131-4.5 3.373a96.623 96.623 0 0 0-4.22 3.844 71.116 71.116 0 0 0-1.976 1.934 18.96 18.96 0 0 0-1.89 2.045c-.051.076.05.152.118.11.735-.516 1.468-1.08 2.093-1.69l2.178-1.951c1.41-1.2 2.845-2.366 4.197-3.574 1.4-1.208 2.716-2.534 4.1-3.709a131.943 131.943 0 0 1 4.584-3.725c.042.025.017-.068-.017-.043z"/></g><g><path fill="#263238" d="M216.338 344c-1.57 1.708-3.014 3.524-4.474 5.307-1.46 1.782-2.92 3.59-4.364 5.398-2.887 3.607-5.807 7.206-8.643 10.864-1.562 2.003-3.098 4.022-4.55 6.117-.068.093.084.194.152.11 3.115-3.422 5.95-7.072 8.838-10.679a826.871 826.871 0 0 0 8.601-10.906c1.553-2.003 3.157-3.996 4.575-6.091.059-.12-.068-.178-.135-.12z"/></g><g><path fill="#263238" d="M149.595 344.35c-4.043-3.194-8.238-6.202-12.434-9.192-4.161-2.991-8.348-5.965-12.585-8.854-1.216-.845-2.44-1.647-3.663-2.458-1.224-.846-2.533-1.572-3.698-2.417-.067-.042-.135.068-.067.119 1.106.794 2.144 1.69 3.224 2.452 1.08.843 2.06 1.62 3.098 2.389 2.035 1.503 4.086 2.982 6.137 4.469 4.153 2.999 8.34 5.972 12.56 8.87a579.481 579.481 0 0 0 7.25 4.875c.144.093.322-.144.178-.254z"/></g><g><path fill="#263238" d="M175.602 310.772c-3.739-3.1-7.748-5.913-11.665-8.772-3.937-2.835-7.937-5.818-11.885-8.69l-11.817-8.575c-3.833-2.735-7.64-5.584-11.683-8.034A78.264 78.264 0 0 0 121.74 273a44.38 44.38 0 0 0-7.04-2.88c-.075 0-.11.084-.05.118 1.992 1.115 4.085 2.053 6.103 3.126a107.7 107.7 0 0 1 5.909 3.38c4.009 2.432 7.8 5.203 11.606 7.94 7.9 5.686 15.793 11.406 23.732 17.015 4.478 3.143 8.842 6.454 13.467 9.301.102.102.27-.118.135-.228z"/></g></g><g><g><path fill="#ce3592" d="M358.73 297.755c-10.187 13.943-20.84 30.11-23.4 47.59 0 .269.392.353.45.092 1.22-4.77 2.68-9.437 4.51-14.002 6.71-1.861 13.272-3.368 16.79-10.104 3.585-6.896 3.126-15.897 2.45-23.416-.05-.446-.591-.463-.8-.16z"/></g><g><path fill="#263238" d="M340.39 331.265c4.61-10.373 10.462-20.789 17.965-29.265.05-.095.125 0 .075 0-4.885 6.119-8.603 12.737-12.23 19.473 3.377-3.473 7.07-6.56 10.263-10.23a.075.075 0 0 1 .095.005.076.076 0 0 1 .013.096c-3.176 3.848-6.67 8.032-10.779 10.878a5960.391 5960.391 0 0 0-3.335 6.206c.284-.16.543-.295.834-.428.05 0 .1 0 .042.066-.333.16-.625.328-.95.471-.534.977-1.068 1.962-1.618 2.939-.175.202-.475.008-.375-.21z"/></g><g><path fill="#263238" d="M343.794 327.645a59.322 59.322 0 0 0 7.82-5.27c.066-.05.166.042.1.092a40.945 40.945 0 0 1-7.803 5.372.112.112 0 0 1-.155-.038.114.114 0 0 1 .038-.156z"/></g><g><path fill="#ce3592" d="M334.181 342.705c0 .21.375.202.375 0 .05-5.76 0-11.544.084-17.32 1.467-2.98 4.593-4.622 6.777-7.013a29.898 29.898 0 0 0 4.06-5.71 41.246 41.246 0 0 0 4.719-15.879c.6-6.155-1.71-26.472-4.285-25.783-1.326.38-5.644 10.442-6.786 13.768a96.082 96.082 0 0 0-4.052 16.84c-2.073 13.556-1.934 27.465-.892 41.097z"/></g><g><path fill="#263238" d="M334.113 317.874c.317-7.283 1.887-14.634 3.46-21.698 1.667-7.578 3.551-14.777 7.427-21.563.076-.127.26 0 .192.117a80.366 80.366 0 0 0-5.968 16.546c.258-.405.575-.8.833-1.188.1-.151.35 0 .25.152-.307.614-.756 1.192-1.217 1.76H339c-1.294 5.405-2.252 11-3.07 16.52.07-.077.07-.15.184-.22.042 0 .109 0 .083.068-.1.185-.197.362-.325.547-.416 2.82-.872 5.633-1.183 8.42 5.001-4.335 9.17-9.335 11.596-15.568h.05c-2.335 6.45-6.036 12.233-11.721 16.115-.109.75-.209 1.5-.317 2.249 0 .151-.297.109-.297-.043 0-.656 0-1.321.088-1.987-.027-.033-.088-.101-.035-.101.005-.06.027-.1.06-.126z"/></g><g><path fill="#263238" d="M336.461 307.32c3.793-5.725 7.336-11.32 10.112-17.597a.067.067 0 0 1 .088-.038.068.068 0 0 1 .037.088c-2.342 6.282-5.618 12.63-10.053 17.682-.084.11-.267-.025-.184-.135z"/></g><g><path fill="#263238" d="M341.501 288.311c1.568-2.812 3.227-5.54 4.702-8.42.042-.075.15 0 .117.109a43.551 43.551 0 0 1-4.577 8.488c-.108.11-.333 0-.242-.177z"/></g><g><path fill="#ce3592" d="M330.3 326.057a60.71 60.71 0 0 1-1.3 11.333l.15 1.246A53.893 53.893 0 0 0 331.157 326a.404.404 0 0 0 0-.39 84.948 84.948 0 0 0-1.258-17.126c-1.768-10.575-5.62-20.73-12.9-28.627a.6.6 0 0 0-.49-.137.55.55 0 0 0-.374.28c-2.951 7.603-1.917 16.62.592 24.173 1.363 4.088 3.272 7.952 5.785 11.468 2.56 3.52 5.753 6.526 7.787 10.416z"/></g><g><path fill="#263238" d="M317.847 283.355c6.92 11.35 11.738 24.805 12.33 38.2 0 .245-.384.304-.417.06-.167-1.204-.35-2.4-.542-3.615-2.868-2.742-5.836-5.664-7.853-9.133-.042-.059.05-.126.092-.076a94.182 94.182 0 0 0 7.636 8.42 127.21 127.21 0 0 0-1.784-8.748l-.542-.648c-.125-.144.075-.354.233-.21l.134.184c-.971-3.938-2.134-7.789-3.618-11.602-1.76-2.122-3.735-3.958-5.002-6.517 0-.06.058-.11.092-.06 1.033 1.466 2.034 2.94 3.2 4.295.468.539.985 1.044 1.468 1.574a89.766 89.766 0 0 0-5.669-11.93.161.161 0 0 1 .045-.194.157.157 0 0 1 .197 0z"/></g><g><path fill="#263238" d="M319.254 297.352c2.235 3.04 4.746 5.936 6.87 9.085.058.084-.124.177-.124.11-2.694-2.547-5-5.987-6.896-9.11-.104-.102.075-.178.15-.085z"/></g><g><path fill="#263238" d="M326.427 307.14l.1.1c.067.068-.041.169-.108.101l-.092-.092c-.066-.067.034-.177.1-.11z"/></g><g><path fill="#ce3592" d="M307 305.167a35.111 35.111 0 0 0 7.308 17.303c1.633 1.957 3.692 3.53 5.927 4.673 2.568 1.28 5.252 2.753 7.903 3.806A52.637 52.637 0 0 1 330.94 341c.061-.3.167-.604.259-.899-1.71-14.777-11.198-27.406-23.284-35.515a.587.587 0 0 0-.639-.003c-.195.125-.275.353-.275.584z"/></g><g><path fill="#263238" d="M311.194 309.537a.102.102 0 0 1 .125-.16C318 314.375 323.28 321 326.749 328.59c.092.202-.183.409-.3.177a89.019 89.019 0 0 0-1.717-2.922c-2.732-.53-5.385-2.526-7.436-4.361-.058-.05 0-.135.083-.085 1.052.99 2.226 1.84 3.493 2.526 1.128.581 2.343.943 3.518 1.407a79.801 79.801 0 0 0-3.21-4.75 31.9 31.9 0 0 1-8.336-4.714.08.08 0 0 1-.025-.11.078.078 0 0 1 .108-.025 82.24 82.24 0 0 0 7.72 4.168c-1.647-2.247-3.51-4.39-5.452-6.416a61.668 61.668 0 0 1-2.801-1.541c-.075-.042 0-.177.058-.143.758.265 1.48.624 2.151 1.07a47.582 47.582 0 0 0-3.41-3.335z"/></g><g><path fill="#263238" d="M311.45 314.633c.161.103.317.215.466.367 0 0 0 .071-.058.054-.169-.054-.33-.178-.484-.286-.083-.05-.008-.177.075-.135z"/></g><g><path fill="#455a64" d="M350.097 373H316.91l2.676-30.524.592-6.736h26.652l.591 6.736L350.097 373z"/></g><g><path fill="#263238" d="M347.415 342.476H319.58l.592-6.736h26.651l.592 6.736z"/></g><g><path fill="#455a64" d="M318.58 331h29.828v6.7H318.58z"/></g></g></g></g></svg>