<svg width="361" height="752" viewBox="0 0 361 752" fill="none" xmlns="http://www.w3.org/2000/svg">
<rect width="361" height="752" fill="#FFC200"/>
<path fill-rule="evenodd" clip-rule="evenodd" d="M65.6778 365.851C68.7963 362.736 72.7544 361.178 77.3123 361.178C81.8702 361.178 85.8283 362.736 88.9468 365.851C92.1853 368.966 93.7446 372.799 93.7446 377.472C93.7446 382.024 92.0654 385.978 88.9468 389.093C85.8283 392.327 81.8702 393.885 77.3123 393.885C72.6345 393.885 68.7963 392.207 65.6778 389.093C62.5593 385.978 61 382.024 61 377.472C61 372.919 62.5593 368.966 65.6778 365.851ZM71.9149 382.983C73.3542 384.54 75.1533 385.259 77.3123 385.259C79.1115 385.259 80.7907 384.66 82.23 383.342C79.2314 382.623 77.0724 380.227 77.0724 377.352C77.0724 374.477 79.2314 372.08 82.11 371.362C80.7907 370.283 79.1115 369.684 77.3123 369.684C75.2733 369.684 73.3542 370.403 71.9149 371.961C70.3556 373.518 69.6359 375.315 69.6359 377.472C69.6359 379.628 70.4755 381.425 71.9149 382.983Z" fill="#FFC200"/>
<path d="M113.535 361.178C108.977 361.178 105.019 362.736 101.901 365.851C98.7822 368.966 97.2229 372.919 97.2229 377.472V402.51C97.2229 403.828 97.5827 404.787 98.4223 405.625C99.2619 406.464 100.221 406.823 101.541 406.823C102.86 406.823 103.82 406.464 104.659 405.625C105.499 404.787 105.859 403.709 105.859 402.51V377.472C105.859 375.315 106.578 373.518 108.138 372.08C109.577 370.643 111.496 369.804 113.535 369.804C115.694 369.804 117.493 370.523 119.053 372.08C120.612 373.638 121.332 375.435 121.332 377.591C121.332 379.748 120.612 381.545 119.053 383.102C117.493 384.66 115.694 385.379 113.535 385.379C112.216 385.379 111.256 385.738 110.417 386.577C109.577 387.415 109.217 388.374 109.217 389.692C109.217 391.009 109.577 391.968 110.417 392.806C111.256 393.645 112.216 394.004 113.535 394.004C118.093 394.004 122.051 392.447 125.17 389.212C128.288 386.097 129.967 382.144 129.967 377.591C129.967 372.919 128.408 369.085 125.17 365.97C122.051 362.736 118.093 361.178 113.535 361.178Z" fill="#FFC200"/>
<path d="M137.644 348C136.565 348 135.605 348.359 134.885 348.958L126.969 355.548C126.009 356.386 125.41 357.345 125.29 358.423C125.17 359.501 125.53 360.579 126.369 361.538C127.209 362.496 128.168 363.095 129.248 363.215C130.327 363.335 131.407 362.975 132.366 362.137L133.206 361.418V389.452C133.206 390.77 133.566 391.728 134.406 392.567C135.245 393.405 136.205 393.765 137.524 393.765C138.843 393.765 139.803 393.405 140.643 392.567C141.482 391.728 141.842 390.77 141.842 389.452V352.313C141.842 350.995 141.482 350.037 140.643 349.198C140.043 348.479 138.963 348 137.644 348Z" fill="black"/>
<path d="M256.028 349.198C255.188 348.359 254.229 348 252.91 348C251.83 348 250.871 348.359 250.151 348.958L242.235 355.548C241.275 356.386 240.675 357.345 240.675 358.423C240.555 359.501 240.915 360.579 241.755 361.538C242.594 362.496 243.554 363.095 244.633 363.215C245.713 363.335 246.792 362.975 247.752 362.137L248.592 361.418V389.452C248.592 390.77 248.951 391.728 249.791 392.567C250.631 393.405 251.59 393.765 252.91 393.765C254.229 393.765 255.188 393.405 256.028 392.567C256.868 391.728 257.228 390.77 257.228 389.452V352.313C257.228 350.995 256.748 350.037 256.028 349.198Z" fill="black"/>
<path fill-rule="evenodd" clip-rule="evenodd" d="M152.037 354.709C156.475 350.276 161.992 348 168.349 348C174.826 348 180.224 350.276 184.662 354.709C189.22 359.142 191.379 364.653 191.379 371.002C191.379 377.472 189.1 382.863 184.662 387.295C180.224 391.848 174.706 394.004 168.349 394.004C161.873 394.004 156.475 391.728 152.037 387.295C147.479 382.863 145.32 377.352 145.32 371.002C145.32 364.533 147.599 359.142 152.037 354.709ZM168.349 385.139C172.428 385.139 175.786 383.821 178.545 381.066C181.303 378.31 182.623 374.956 182.623 371.002C182.623 366.929 181.303 363.574 178.545 360.819C175.786 358.063 172.308 356.626 168.349 356.626C164.271 356.626 160.913 357.944 158.154 360.699C155.396 363.455 154.076 366.809 154.076 370.882C154.076 374.956 155.396 378.31 158.154 381.066C160.913 383.821 164.391 385.139 168.349 385.139Z" fill="black"/>
<path fill-rule="evenodd" clip-rule="evenodd" d="M201.334 354.709C205.772 350.276 211.289 348 217.646 348C224.003 348 229.401 350.276 233.959 354.709C238.517 359.142 240.676 364.653 240.676 371.002C240.676 377.472 238.397 382.863 233.959 387.295C229.521 391.848 224.003 394.004 217.646 394.004C211.169 394.004 205.772 391.728 201.334 387.295C196.776 382.863 194.617 377.352 194.617 371.002C194.617 364.533 196.896 359.142 201.334 354.709ZM217.526 385.139C221.604 385.139 224.963 383.821 227.722 381.066C230.48 378.31 231.92 374.956 231.8 371.002C231.8 366.929 230.48 363.574 227.722 360.819C224.963 358.063 221.485 356.626 217.526 356.626C213.448 356.626 210.09 357.944 207.331 360.699C204.573 363.455 203.253 366.809 203.253 370.882C203.253 374.956 204.573 378.31 207.331 381.066C210.09 383.821 213.568 385.139 217.526 385.139Z" fill="black"/>
<path d="M261.666 376.873C261.186 376.393 261.066 375.914 261.066 375.315C261.066 374.716 261.306 374.117 261.786 373.758C262.265 373.278 262.745 373.159 263.345 373.159C263.945 373.159 264.544 373.398 264.904 373.758C265.384 374.237 265.624 374.716 265.624 375.315C265.624 375.914 265.384 376.513 265.024 376.873C264.544 377.352 264.065 377.472 263.465 377.472C262.625 377.472 262.145 377.232 261.666 376.873Z" fill="#FFC200"/>
<path d="M273.54 367.528C272.58 367.528 271.861 367.887 271.261 368.486C270.661 369.085 270.302 369.924 270.302 370.763C270.302 371.721 270.661 372.44 271.261 373.039C271.861 373.638 272.7 373.997 273.54 373.997C274.14 373.997 274.5 374.117 274.859 374.477C275.219 374.836 275.339 375.315 275.339 375.794C275.339 376.393 275.219 376.753 274.859 377.112C274.5 377.472 274.02 377.591 273.54 377.591C271.621 377.591 269.942 376.873 268.622 375.555C267.303 374.237 266.583 372.56 266.583 370.643C266.583 368.726 267.303 367.049 268.622 365.731C269.942 364.413 271.621 363.694 273.54 363.694C274.14 363.694 274.5 363.814 274.859 364.173C275.219 364.533 275.339 365.012 275.339 365.491C275.339 365.97 275.219 366.45 274.859 366.809C274.5 367.408 274.14 367.528 273.54 367.528Z" fill="#FFC200"/>
<path fill-rule="evenodd" clip-rule="evenodd" d="M288.773 365.97C287.453 364.653 285.774 363.934 283.855 363.934C281.816 363.934 280.257 364.533 278.937 365.97C277.618 367.288 276.898 368.966 276.898 370.882C276.898 372.799 277.618 374.477 278.937 375.794C280.257 377.112 281.936 377.831 283.855 377.831C285.774 377.831 287.453 377.112 288.773 375.794C290.092 374.477 290.812 372.799 290.812 370.882C290.812 368.966 290.092 367.288 288.773 365.97ZM281.576 368.486C282.176 367.887 282.896 367.528 283.855 367.528C284.695 367.528 285.534 367.887 286.134 368.486C286.734 369.085 287.094 369.804 287.094 370.763C287.094 371.601 286.734 372.44 286.134 373.039C285.534 373.638 284.815 373.997 283.855 373.997C283.016 373.997 282.176 373.638 281.576 373.039C280.977 372.44 280.617 371.721 280.617 370.763C280.617 369.924 280.977 369.085 281.576 368.486Z" fill="#FFC200"/>
<path d="M307.964 369.684C307.964 369.085 307.724 368.606 307.364 368.127C306.884 367.648 306.404 367.528 305.805 367.528C305.085 367.528 304.485 367.768 304.006 368.367V375.914C304.006 376.513 303.886 376.873 303.526 377.232C303.166 377.591 302.686 377.711 302.206 377.711C301.727 377.711 301.247 377.591 300.887 377.232C300.527 376.873 300.407 376.513 300.407 375.914V369.684C300.407 369.085 300.167 368.606 299.808 368.127C299.328 367.648 298.848 367.528 298.248 367.528C297.649 367.528 297.169 367.768 296.689 368.127C296.209 368.486 296.089 369.085 296.089 369.684V375.914C296.089 376.513 295.969 376.873 295.609 377.232C295.25 377.591 294.89 377.711 294.29 377.711C293.69 377.711 293.331 377.591 292.971 377.232C292.611 376.873 292.491 376.513 292.491 375.914V369.804C292.491 368.127 293.091 366.809 294.17 365.611C295.25 364.533 296.689 363.934 298.368 363.934C299.808 363.934 301.127 364.413 302.206 365.371C303.286 364.413 304.605 363.934 306.045 363.934C307.724 363.934 309.043 364.533 310.243 365.611C311.322 366.689 311.922 368.127 311.922 369.804V377.951C311.922 378.55 312.162 379.149 312.522 379.508C313.001 379.987 313.481 380.107 314.081 380.107H314.201C314.8 380.107 315.16 380.227 315.52 380.586C315.88 380.946 316 381.425 316 381.904C316 382.503 315.88 382.863 315.52 383.222C315.16 383.582 314.681 383.701 314.201 383.701H314.081C312.402 383.701 311.082 383.102 309.883 382.024C308.803 380.946 308.204 379.508 308.204 377.831V369.684H307.964Z" fill="#FFC200"/>
<path d="M142.082 410.777V398.916C142.082 398.437 142.442 398.078 142.921 398.078C143.401 398.078 143.761 398.437 143.761 398.916V404.667H143.881L149.878 398.317C150.118 398.078 150.238 397.958 150.478 397.958C150.958 397.958 151.197 398.317 151.197 398.677C151.197 398.916 151.078 399.036 150.958 399.156L146.4 403.948L151.557 410.058C151.677 410.298 151.797 410.418 151.797 410.657C151.797 411.136 151.437 411.496 150.958 411.496C150.598 411.496 150.478 411.376 150.238 411.136L145.32 405.146L143.881 406.704V410.657C143.881 411.136 143.521 411.496 143.041 411.496C142.442 411.616 142.082 411.256 142.082 410.777Z" fill="black"/>
<path fill-rule="evenodd" clip-rule="evenodd" d="M156.955 401.672C154.316 401.672 152.517 403.589 152.517 406.704C152.517 409.699 154.316 411.616 156.955 411.735C159.594 411.735 161.393 409.818 161.393 406.704C161.393 403.589 159.594 401.672 156.955 401.672ZM157.075 403.11C158.754 403.11 159.833 404.427 159.833 406.704C159.833 408.98 158.754 410.298 157.075 410.298C155.276 410.298 154.196 408.98 154.196 406.704C154.196 404.427 155.395 403.11 157.075 403.11Z" fill="black"/>
<path d="M163.192 410.777V398.797C163.192 398.317 163.552 397.958 164.031 397.958C164.511 397.958 164.871 398.317 164.871 398.797V410.777C164.871 411.256 164.511 411.616 164.031 411.616C163.432 411.616 163.192 411.256 163.192 410.777Z" fill="black"/>
<path fill-rule="evenodd" clip-rule="evenodd" d="M170.029 405.985C167.87 406.105 166.55 407.063 166.55 408.74C166.55 410.537 167.87 411.616 169.789 411.496C171.108 411.496 172.308 410.777 172.907 409.699V410.657C172.907 411.136 173.147 411.496 173.627 411.496C173.987 411.496 174.347 411.136 174.347 410.657V404.667C174.347 402.75 172.907 401.552 170.628 401.552C169.069 401.552 167.75 402.271 167.15 403.349C167.03 403.589 166.91 403.828 166.91 404.068C166.91 404.547 167.27 404.787 167.63 404.787C167.99 404.787 168.23 404.667 168.349 404.427C168.829 403.469 169.549 403.11 170.628 403.11C172.068 403.11 172.787 403.828 172.787 405.026V405.865L170.029 405.985ZM172.787 406.943V407.782C172.787 409.22 171.588 410.298 170.029 410.178C168.829 410.178 168.11 409.579 168.11 408.621C168.11 407.662 168.829 407.183 170.149 407.063L172.787 406.943Z" fill="black"/>
<path d="M176.266 414.251C176.266 413.892 176.506 413.652 176.865 413.652C177.105 413.652 177.105 413.652 177.465 413.652C178.065 413.652 178.665 413.293 179.024 412.095L179.264 411.376L175.906 402.75C175.906 402.63 175.786 402.391 175.786 402.271C175.786 401.792 176.146 401.552 176.625 401.552C176.985 401.552 177.225 401.672 177.345 402.151L179.984 409.699L182.623 402.151C182.743 401.672 182.983 401.552 183.342 401.552C183.822 401.552 184.182 401.912 184.182 402.271C184.182 402.391 184.182 402.511 184.062 402.75L180.464 412.095C179.624 414.251 178.784 414.97 177.225 414.97C176.625 415.09 176.266 414.85 176.266 414.251Z" fill="black"/>
<path fill-rule="evenodd" clip-rule="evenodd" d="M189.699 398.916V410.897C189.699 411.376 189.939 411.616 190.539 411.855C191.019 411.855 191.379 411.496 191.379 411.017V410.058C191.978 411.136 193.058 411.855 194.497 411.855C196.896 411.855 198.575 409.818 198.575 406.823C198.575 403.709 196.896 401.792 194.497 401.792C193.058 401.792 191.978 402.51 191.379 403.589V398.916C191.379 398.437 191.019 398.078 190.539 398.078C190.059 398.078 189.699 398.437 189.699 398.916ZM194.017 403.109C195.697 403.109 196.776 404.547 196.776 406.704C196.776 408.86 195.817 410.298 194.017 410.298C192.458 410.298 191.259 408.86 191.259 406.704C191.259 404.547 192.338 403.109 194.017 403.109Z" fill="black"/>
<path fill-rule="evenodd" clip-rule="evenodd" d="M200.974 398.317C200.494 398.317 200.015 398.677 200.015 399.276C200.015 399.755 200.494 400.234 200.974 400.234C201.454 400.234 201.934 399.875 201.934 399.276C201.934 398.797 201.574 398.317 200.974 398.317ZM200.135 402.51V410.777C200.135 411.256 200.494 411.616 200.974 411.616C201.454 411.616 201.814 411.256 201.814 410.777V402.51C201.814 402.031 201.454 401.672 200.974 401.672C200.494 401.672 200.135 402.031 200.135 402.51Z" fill="black"/>
<path d="M203.973 410.777V402.51C203.973 402.031 204.332 401.672 204.692 401.672C205.172 401.672 205.412 402.031 205.412 402.51V403.469C205.652 402.51 206.611 401.672 207.571 401.672C207.931 401.672 208.171 401.792 208.291 401.911C208.411 402.031 208.531 402.271 208.531 402.391C208.531 402.63 208.411 402.87 208.291 402.99C208.171 403.11 207.931 403.229 207.571 403.229C206.132 403.229 205.532 404.308 205.532 405.506V410.777C205.532 411.256 205.172 411.616 204.692 411.616C204.332 411.616 203.973 411.256 203.973 410.777Z" fill="black"/>
<path fill-rule="evenodd" clip-rule="evenodd" d="M217.646 401.672C215.007 401.672 213.208 403.589 213.208 406.704C213.208 409.699 215.007 411.616 217.646 411.735C220.285 411.735 222.084 409.818 222.084 406.704C222.084 403.589 220.285 401.672 217.646 401.672ZM217.766 403.11C219.445 403.11 220.525 404.427 220.525 406.704C220.525 408.98 219.445 410.298 217.766 410.298C215.967 410.298 214.887 408.98 214.887 406.704C214.887 404.427 216.087 403.11 217.766 403.11Z" fill="black"/>
<path d="M223.883 410.777V398.797C223.883 398.317 224.243 397.958 224.723 397.958C225.203 397.958 225.563 398.317 225.563 398.797V410.777C225.563 411.256 225.203 411.616 224.723 411.616C224.243 411.616 223.883 411.256 223.883 410.777Z" fill="black"/>
<path fill-rule="evenodd" clip-rule="evenodd" d="M230.72 405.985C228.561 406.105 227.242 407.063 227.242 408.74C227.242 410.537 228.561 411.616 230.48 411.496C231.8 411.496 232.999 410.777 233.599 409.699V410.657C233.599 411.136 233.839 411.496 234.318 411.496C234.678 411.496 235.038 411.136 235.038 410.657V404.667C235.038 402.75 233.599 401.552 231.32 401.552C229.761 401.552 228.441 402.271 227.841 403.349C227.721 403.589 227.602 403.828 227.602 404.068C227.602 404.547 227.961 404.787 228.321 404.787C228.681 404.787 228.921 404.667 229.041 404.427C229.521 403.469 230.24 403.11 231.32 403.11C232.759 403.11 233.479 403.828 233.479 405.026V405.865L230.72 405.985ZM233.479 406.943V407.782C233.479 409.22 232.399 410.298 230.72 410.178C229.521 410.178 228.801 409.579 228.801 408.621C228.801 407.662 229.521 407.183 230.84 407.063L233.479 406.943Z" fill="black"/>
<path d="M236.957 414.251C236.957 413.892 237.197 413.652 237.557 413.652C237.797 413.652 237.797 413.652 238.157 413.652C238.756 413.652 239.356 413.293 239.716 412.095L239.956 411.376L236.597 402.75C236.597 402.63 236.478 402.391 236.478 402.271C236.478 401.792 236.837 401.552 237.317 401.552C237.677 401.552 237.917 401.672 238.037 402.151L240.676 409.699L243.314 402.151C243.434 401.672 243.674 401.552 244.034 401.552C244.514 401.552 244.874 401.912 244.874 402.271C244.874 402.391 244.874 402.511 244.754 402.75L241.155 412.095C240.316 414.251 239.596 414.97 237.917 414.97C237.317 415.09 236.957 414.85 236.957 414.251Z" fill="black"/>
<path fill-rule="evenodd" clip-rule="evenodd" d="M246.673 398.797L246.792 406.464C246.792 406.943 247.032 407.183 247.512 407.183C247.992 407.183 248.232 406.943 248.232 406.464L248.352 398.797C248.352 398.317 247.992 397.958 247.512 397.958C247.032 397.958 246.673 398.317 246.673 398.797ZM247.512 409.459C246.912 409.459 246.433 409.938 246.433 410.537C246.433 411.136 246.912 411.616 247.512 411.616C248.112 411.616 248.592 411.136 248.592 410.537C248.592 409.938 248.112 409.459 247.512 409.459Z" fill="black"/>
</svg>
