<svg width="213" height="56" viewBox="0 0 213 56" fill="none" xmlns="http://www.w3.org/2000/svg">
<g id="logo-renkli">
<path id="Shape" fill-rule="evenodd" clip-rule="evenodd" d="M3.9 14.9C6.5 12.3 9.79998 11 13.6 11C17.4 11 20.7 12.3 23.3 14.9C26 17.5 27.3 20.7 27.3 24.6C27.3 28.4 25.9 31.7 23.3 34.3C20.7 37 17.4 38.3 13.6 38.3C9.69998 38.3 6.5 36.9 3.9 34.3C1.3 31.7 0 28.4 0 24.6C0 20.8 1.3 17.5 3.9 14.9ZM9.1 29.2C10.3 30.5 11.8 31.1 13.6 31.1C15.1 31.1 16.5 30.6 17.7 29.5C15.2 28.9 13.4 26.9 13.4 24.5C13.4 22.1 15.2 20.1 17.6 19.5C16.5 18.6 15.1 18.1 13.6 18.1C11.9 18.1 10.3 18.7 9.1 20C7.8 21.3 7.2 22.8 7.2 24.6C7.2 26.4 7.9 27.9 9.1 29.2Z" fill="#FFC200"/>
<path id="Path" d="M43.8 11C40 11 36.7 12.3 34.1 14.9C31.5 17.5 30.2 20.8 30.2 24.6V45.5C30.2 46.6 30.5 47.4 31.2 48.1C31.9 48.8 32.7 49.1 33.8 49.1C34.9 49.1 35.7 48.8 36.4 48.1C37.1 47.4 37.4 46.5 37.4 45.5V24.6C37.4 22.8 38 21.3 39.3 20.1C40.5 18.9 42.1 18.2 43.8 18.2C45.6 18.2 47.1 18.8 48.4 20.1C49.7 21.4 50.3 22.9 50.3 24.7C50.3 26.5 49.7 28 48.4 29.3C47.1 30.6 45.6 31.2 43.8 31.2C42.7 31.2 41.9 31.5 41.2 32.2C40.5 32.9 40.2 33.7 40.2 34.8C40.2 35.9 40.5 36.7 41.2 37.4C41.9 38.1 42.7 38.4 43.8 38.4C47.6 38.4 50.9 37.1 53.5 34.4C56.1 31.8 57.5 28.5 57.5 24.7C57.5 20.8 56.2 17.6 53.5 15C50.9 12.3 47.6 11 43.8 11Z" fill="#FFC200"/>
<path id="Path_2" d="M63.9 0C63 0 62.2 0.300002 61.6 0.800002L55 6.3C54.2 7 53.7 7.8 53.6 8.7C53.5 9.60001 53.8 10.5 54.5 11.3C55.2 12.1 56 12.6 56.9 12.7C57.8 12.8 58.7 12.5 59.5 11.8L60.2 11.2V34.6C60.2 35.7 60.5 36.5 61.2 37.2C61.9 37.9 62.7 38.2 63.8 38.2C64.9 38.2 65.7 37.9 66.4 37.2C67.1 36.5 67.4 35.7 67.4 34.6V3.6C67.4 2.5 67.1 1.7 66.4 1C65.9 0.400002 65 0 63.9 0Z" fill="black"/>
<path id="Path_3" d="M162.6 1C161.9 0.300002 161.1 0 160 0C159.1 0 158.3 0.300002 157.7 0.800002L151.1 6.3C150.3 7 149.8 7.8 149.8 8.7C149.7 9.60001 150 10.5 150.7 11.3C151.4 12.1 152.2 12.6 153.1 12.7C154 12.8 154.9 12.5 155.7 11.8L156.4 11.2V34.6C156.4 35.7 156.7 36.5 157.4 37.2C158.1 37.9 158.9 38.2 160 38.2C161.1 38.2 161.9 37.9 162.6 37.2C163.3 36.5 163.6 35.7 163.6 34.6V3.6C163.6 2.5 163.2 1.7 162.6 1Z" fill="black"/>
<path id="Shape_2" fill-rule="evenodd" clip-rule="evenodd" d="M75.9 5.6C79.6 1.9 84.2 0 89.5 0C94.9 0 99.4 1.9 103.1 5.6C106.9 9.30001 108.7 13.9 108.7 19.2C108.7 24.6 106.8 29.1 103.1 32.8C99.4 36.6 94.8 38.4 89.5 38.4C84.1 38.4 79.6 36.5 75.9 32.8C72.1 29.1 70.3 24.5 70.3 19.2C70.3 13.8 72.2 9.30001 75.9 5.6ZM89.5 31C92.9 31 95.7 29.9 98 27.6C100.3 25.3 101.4 22.5 101.4 19.2C101.4 15.8 100.3 13 98 10.7C95.7 8.4 92.8 7.2 89.5 7.2C86.1 7.2 83.3 8.3 81 10.6C78.7 12.9 77.6 15.7 77.6 19.1C77.6 22.5 78.7 25.3 81 27.6C83.3 29.9 86.2 31 89.5 31Z" fill="black"/>
<path id="Shape_3" fill-rule="evenodd" clip-rule="evenodd" d="M117 5.6C120.7 1.9 125.3 0 130.6 0C135.9 0 140.4 1.9 144.2 5.6C148 9.30001 149.8 13.9 149.8 19.2C149.8 24.6 147.9 29.1 144.2 32.8C140.5 36.6 135.9 38.4 130.6 38.4C125.2 38.4 120.7 36.5 117 32.8C113.2 29.1 111.4 24.5 111.4 19.2C111.4 13.8 113.3 9.30001 117 5.6ZM130.5 31C133.9 31 136.7 29.9 139 27.6C141.3 25.3 142.5 22.5 142.4 19.2C142.4 15.8 141.3 13 139 10.7C136.7 8.4 133.8 7.2 130.5 7.2C127.1 7.2 124.3 8.3 122 10.6C119.7 12.9 118.6 15.7 118.6 19.1C118.6 22.5 119.7 25.3 122 27.6C124.3 29.9 127.2 31 130.5 31Z" fill="black"/>
<path id="Path_4" d="M167.3 24.1C166.9 23.7 166.8 23.3 166.8 22.8C166.8 22.3 167 21.8 167.4 21.5C167.8 21.1 168.2 21 168.7 21C169.2 21 169.7 21.2 170 21.5C170.4 21.9 170.6 22.3 170.6 22.8C170.6 23.3 170.4 23.8 170.1 24.1C169.7 24.5 169.3 24.6 168.8 24.6C168.1 24.6 167.7 24.4 167.3 24.1Z" fill="#FFC200"/>
<path id="Path_5" d="M177.2 16.3C176.4 16.3 175.8 16.6 175.3 17.1C174.8 17.6 174.5 18.3 174.5 19C174.5 19.8 174.8 20.4 175.3 20.9C175.8 21.4 176.5 21.7 177.2 21.7C177.7 21.7 178 21.8 178.3 22.1C178.6 22.4 178.7 22.8 178.7 23.2C178.7 23.7 178.6 24 178.3 24.3C178 24.6 177.6 24.7 177.2 24.7C175.6 24.7 174.2 24.1 173.1 23C172 21.9 171.4 20.5 171.4 18.9C171.4 17.3 172 15.9 173.1 14.8C174.2 13.7 175.6 13.1 177.2 13.1C177.7 13.1 178 13.2 178.3 13.5C178.6 13.8 178.7 14.2 178.7 14.6C178.7 15 178.6 15.4 178.3 15.7C178 16.2 177.7 16.3 177.2 16.3Z" fill="#FFC200"/>
<path id="Shape_4" fill-rule="evenodd" clip-rule="evenodd" d="M189.9 15C188.8 13.9 187.4 13.3 185.8 13.3C184.1 13.3 182.8 13.8 181.7 15C180.6 16.1 180 17.5 180 19.1C180 20.7 180.6 22.1 181.7 23.2C182.8 24.3 184.2 24.9 185.8 24.9C187.4 24.9 188.8 24.3 189.9 23.2C191 22.1 191.6 20.7 191.6 19.1C191.6 17.5 191 16.1 189.9 15ZM183.9 17.1C184.4 16.6 185 16.3 185.8 16.3C186.5 16.3 187.2 16.6 187.7 17.1C188.2 17.6 188.5 18.2 188.5 19C188.5 19.7 188.2 20.4 187.7 20.9C187.2 21.4 186.6 21.7 185.8 21.7C185.1 21.7 184.4 21.4 183.9 20.9C183.4 20.4 183.1 19.8 183.1 19C183.1 18.3 183.4 17.6 183.9 17.1Z" fill="#FFC200"/>
<path id="Path_6" d="M205.9 18.1C205.9 17.6 205.7 17.2 205.4 16.8C205 16.4 204.6 16.3 204.1 16.3C203.5 16.3 203 16.5 202.6 17V23.3C202.6 23.8 202.5 24.1 202.2 24.4C201.9 24.7 201.5 24.8 201.1 24.8C200.7 24.8 200.3 24.7 200 24.4C199.7 24.1 199.6 23.8 199.6 23.3V18.1C199.6 17.6 199.4 17.2 199.1 16.8C198.7 16.4 198.3 16.3 197.8 16.3C197.3 16.3 196.9 16.5 196.5 16.8C196.1 17.1 196 17.6 196 18.1V23.3C196 23.8 195.9 24.1 195.6 24.4C195.3 24.7 195 24.8 194.5 24.8C194 24.8 193.7 24.7 193.4 24.4C193.1 24.1 193 23.8 193 23.3V18.2C193 16.8 193.5 15.7 194.4 14.7C195.3 13.8 196.5 13.3 197.9 13.3C199.1 13.3 200.2 13.7 201.1 14.5C202 13.7 203.1 13.3 204.3 13.3C205.7 13.3 206.8 13.8 207.8 14.7C208.7 15.6 209.2 16.8 209.2 18.2V25C209.2 25.5 209.4 26 209.7 26.3C210.1 26.7 210.5 26.8 211 26.8H211.1C211.6 26.8 211.9 26.9 212.2 27.2C212.5 27.5 212.6 27.9 212.6 28.3C212.6 28.8 212.5 29.1 212.2 29.4C211.9 29.7 211.5 29.8 211.1 29.8H211C209.6 29.8 208.5 29.3 207.5 28.4C206.6 27.5 206.1 26.3 206.1 24.9V18.1H205.9Z" fill="#FFC200"/>
<path id="Path_7" d="M67.6001 52.4V42.5C67.6001 42.1 67.9001 41.8 68.3001 41.8C68.7001 41.8 69.0001 42.1 69.0001 42.5V47.3H69.1001L74.1001 42C74.3001 41.8 74.4001 41.7 74.6001 41.7C75.0001 41.7 75.2001 42 75.2001 42.3C75.2001 42.5 75.1001 42.6 75.0001 42.7L71.2001 46.7L75.5001 51.8C75.6001 52 75.7001 52.1 75.7001 52.3C75.7001 52.7 75.4001 53 75.0001 53C74.7001 53 74.6001 52.9 74.4001 52.7L70.3001 47.7L69.1001 49V52.3C69.1001 52.7 68.8001 53 68.4001 53C67.9001 53.1 67.6001 52.8 67.6001 52.4Z" fill="black"/>
<path id="Shape_5" fill-rule="evenodd" clip-rule="evenodd" d="M80 44.8C77.8 44.8 76.3 46.4 76.3 49C76.3 51.5 77.8 53.1 80 53.2C82.2 53.2 83.7 51.6 83.7 49C83.7 46.4 82.2 44.8 80 44.8ZM80.1 46C81.5 46 82.4 47.1 82.4 49C82.4 50.9 81.5 52 80.1 52C78.6 52 77.7 50.9 77.7 49C77.7 47.1 78.7 46 80.1 46Z" fill="black"/>
<path id="Path_8" d="M85.2 52.4V42.4C85.2 42 85.5 41.7 85.9 41.7C86.3 41.7 86.6 42 86.6 42.4V52.4C86.6 52.8 86.3 53.1 85.9 53.1C85.4 53.1 85.2 52.8 85.2 52.4Z" fill="black"/>
<path id="Shape_6" fill-rule="evenodd" clip-rule="evenodd" d="M90.9 48.4C89.1 48.5 88 49.3 88 50.7C88 52.2 89.1 53.1 90.7 53C91.8 53 92.8 52.4 93.3 51.5V52.3C93.3 52.7 93.5 53 93.9 53C94.2 53 94.5 52.7 94.5 52.3V47.3C94.5 45.7 93.3 44.7 91.4 44.7C90.1 44.7 89 45.3 88.5 46.2C88.4 46.4 88.3 46.6 88.3 46.8C88.3 47.2 88.6 47.4 88.9 47.4C89.2 47.4 89.4 47.3 89.5 47.1C89.9 46.3 90.5 46 91.4 46C92.6 46 93.2 46.6 93.2 47.6V48.3L90.9 48.4ZM93.2 49.2V49.9C93.2 51.1 92.2 52 90.9 51.9C89.9 51.9 89.3 51.4 89.3 50.6C89.3 49.8 89.9 49.4 91 49.3L93.2 49.2Z" fill="black"/>
<path id="Path_9" d="M96.1 55.3C96.1 55 96.3 54.8 96.6 54.8C96.8 54.8 96.8 54.8 97.1 54.8C97.6 54.8 98.1 54.5 98.4 53.5L98.6 52.9L95.8 45.7C95.8 45.6 95.7 45.4 95.7 45.3C95.7 44.9 96 44.7 96.4 44.7C96.7 44.7 96.9 44.8 97 45.2L99.2 51.5L101.4 45.2C101.5 44.8 101.7 44.7 102 44.7C102.4 44.7 102.7 45 102.7 45.3C102.7 45.4 102.7 45.5 102.6 45.7L99.6 53.5C98.9 55.3 98.2 55.9 96.9 55.9C96.4 56 96.1 55.8 96.1 55.3Z" fill="black"/>
<path id="Shape_7" fill-rule="evenodd" clip-rule="evenodd" d="M107.3 42.5V52.5C107.3 52.9 107.5 53.1 108 53.3C108.4 53.3 108.7 53 108.7 52.6V51.8C109.2 52.7 110.1 53.3 111.3 53.3C113.3 53.3 114.7 51.6 114.7 49.1C114.7 46.5 113.3 44.9 111.3 44.9C110.1 44.9 109.2 45.5 108.7 46.4V42.5C108.7 42.1 108.4 41.8 108 41.8C107.6 41.8 107.3 42.1 107.3 42.5ZM110.9 46C112.3 46 113.2 47.2 113.2 49C113.2 50.8 112.4 52 110.9 52C109.6 52 108.6 50.8 108.6 49C108.6 47.2 109.5 46 110.9 46Z" fill="black"/>
<path id="Shape_8" fill-rule="evenodd" clip-rule="evenodd" d="M116.7 42C116.3 42 115.9 42.3 115.9 42.8C115.9 43.2 116.3 43.6 116.7 43.6C117.1 43.6 117.5 43.3 117.5 42.8C117.5 42.4 117.2 42 116.7 42ZM116 45.5V52.4C116 52.8 116.3 53.1 116.7 53.1C117.1 53.1 117.4 52.8 117.4 52.4V45.5C117.4 45.1 117.1 44.8 116.7 44.8C116.3 44.8 116 45.1 116 45.5Z" fill="black"/>
<path id="Path_10" d="M119.2 52.4V45.5C119.2 45.1 119.5 44.8 119.8 44.8C120.2 44.8 120.4 45.1 120.4 45.5V46.3C120.6 45.5 121.4 44.8 122.2 44.8C122.5 44.8 122.7 44.9 122.8 45C122.9 45.1 123 45.3 123 45.4C123 45.6 122.9 45.8 122.8 45.9C122.7 46 122.5 46.1 122.2 46.1C121 46.1 120.5 47 120.5 48V52.4C120.5 52.8 120.2 53.1 119.8 53.1C119.5 53.1 119.2 52.8 119.2 52.4Z" fill="black"/>
<path id="Shape_9" fill-rule="evenodd" clip-rule="evenodd" d="M130.6 44.8C128.4 44.8 126.9 46.4 126.9 49C126.9 51.5 128.4 53.1 130.6 53.2C132.8 53.2 134.3 51.6 134.3 49C134.3 46.4 132.8 44.8 130.6 44.8ZM130.7 46C132.1 46 133 47.1 133 49C133 50.9 132.1 52 130.7 52C129.2 52 128.3 50.9 128.3 49C128.3 47.1 129.3 46 130.7 46Z" fill="black"/>
<path id="Path_11" d="M135.8 52.4V42.4C135.8 42 136.1 41.7 136.5 41.7C136.9 41.7 137.2 42 137.2 42.4V52.4C137.2 52.8 136.9 53.1 136.5 53.1C136.1 53.1 135.8 52.8 135.8 52.4Z" fill="black"/>
<path id="Shape_10" fill-rule="evenodd" clip-rule="evenodd" d="M141.5 48.4C139.7 48.5 138.6 49.3 138.6 50.7C138.6 52.2 139.7 53.1 141.3 53C142.4 53 143.4 52.4 143.9 51.5V52.3C143.9 52.7 144.1 53 144.5 53C144.8 53 145.1 52.7 145.1 52.3V47.3C145.1 45.7 143.9 44.7 142 44.7C140.7 44.7 139.6 45.3 139.1 46.2C139 46.4 138.9 46.6 138.9 46.8C138.9 47.2 139.2 47.4 139.5 47.4C139.8 47.4 140 47.3 140.1 47.1C140.5 46.3 141.1 46 142 46C143.2 46 143.8 46.6 143.8 47.6V48.3L141.5 48.4ZM143.8 49.2V49.9C143.8 51.1 142.9 52 141.5 51.9C140.5 51.9 139.9 51.4 139.9 50.6C139.9 49.8 140.5 49.4 141.6 49.3L143.8 49.2Z" fill="black"/>
<path id="Path_12" d="M146.7 55.3C146.7 55 146.9 54.8 147.2 54.8C147.4 54.8 147.4 54.8 147.7 54.8C148.2 54.8 148.7 54.5 149 53.5L149.2 52.9L146.4 45.7C146.4 45.6 146.3 45.4 146.3 45.3C146.3 44.9 146.6 44.7 147 44.7C147.3 44.7 147.5 44.8 147.6 45.2L149.8 51.5L152 45.2C152.1 44.8 152.3 44.7 152.6 44.7C153 44.7 153.3 45 153.3 45.3C153.3 45.4 153.3 45.5 153.2 45.7L150.2 53.5C149.5 55.3 148.9 55.9 147.5 55.9C147 56 146.7 55.8 146.7 55.3Z" fill="black"/>
<path id="Shape_11" fill-rule="evenodd" clip-rule="evenodd" d="M154.8 42.4L154.9 48.8C154.9 49.2 155.1 49.4 155.5 49.4C155.9 49.4 156.1 49.2 156.1 48.8L156.2 42.4C156.2 42 155.9 41.7 155.5 41.7C155.1 41.7 154.8 42 154.8 42.4ZM155.5 51.3C155 51.3 154.6 51.7 154.6 52.2C154.6 52.7 155 53.1 155.5 53.1C156 53.1 156.4 52.7 156.4 52.2C156.4 51.7 156 51.3 155.5 51.3Z" fill="black"/>
</g>
</svg>
