<svg width="306" height="80" viewBox="0 0 306 80" fill="none" xmlns="http://www.w3.org/2000/svg">
<path fill-rule="evenodd" clip-rule="evenodd" d="M5.61335 21.3143C9.35559 17.595 14.1053 15.7354 19.5748 15.7354C25.0442 15.7354 29.7939 17.595 33.5362 21.3143C37.4224 25.0335 39.2935 29.6111 39.2935 35.19C39.2935 40.6258 37.2784 45.3464 33.5362 49.0657C29.7939 52.928 25.0442 54.7876 19.5748 54.7876C13.9614 54.7876 9.35559 52.785 5.61335 49.0657C1.87111 45.3464 0 40.6258 0 35.19C0 29.7541 1.87111 25.0335 5.61335 21.3143ZM13.0978 41.7702C14.825 43.6298 16.984 44.4881 19.5748 44.4881C21.7337 44.4881 23.7488 43.7729 25.476 42.1994C21.8777 41.3411 19.2869 38.4801 19.2869 35.0469C19.2869 31.6138 21.8777 28.7528 25.332 27.8945C23.7488 26.6071 21.7337 25.8918 19.5748 25.8918C17.1279 25.8918 14.825 26.7501 13.0978 28.6097C11.2267 30.4694 10.3631 32.6151 10.3631 35.19C10.3631 37.7649 11.3706 39.9106 13.0978 41.7702Z" fill="#FFC200"/>
<path d="M63.0423 15.7354C57.5729 15.7354 52.8231 17.595 49.0809 21.3143C45.3386 25.0335 43.4675 29.7541 43.4675 35.19V65.0872C43.4675 66.6607 43.8993 67.8051 44.9069 68.8064C45.9144 69.8078 47.0658 70.2369 48.6491 70.2369C50.2323 70.2369 51.3838 69.8078 52.3913 68.8064C53.3989 67.8051 53.8307 66.5176 53.8307 65.0872V35.19C53.8307 32.6151 54.6942 30.4694 56.5654 28.7528C58.2926 27.0362 60.5955 26.0349 63.0423 26.0349C65.6331 26.0349 67.7921 26.8931 69.6632 28.7528C71.5343 30.6124 72.3979 32.7581 72.3979 35.333C72.3979 37.9079 71.5343 40.0536 69.6632 41.9133C67.7921 43.7729 65.6331 44.6312 63.0423 44.6312C61.4591 44.6312 60.3076 45.0603 59.3001 46.0617C58.2926 47.063 57.8608 48.2074 57.8608 49.7809C57.8608 51.3545 58.2926 52.4989 59.3001 53.5002C60.3076 54.5015 61.4591 54.9307 63.0423 54.9307C68.5117 54.9307 73.2615 53.0711 77.0037 49.2087C80.746 45.4895 82.761 40.7689 82.761 35.333C82.761 29.7541 80.8899 25.1766 77.0037 21.4573C73.2615 17.595 68.5117 15.7354 63.0423 15.7354Z" fill="#FFC200"/>
<path d="M91.9726 0C90.6772 0 89.5258 0.429149 88.6622 1.14439L79.1626 9.01207C78.0112 10.0134 77.2915 11.1578 77.1476 12.4452C77.0037 13.7327 77.4355 15.0201 78.443 16.1645C79.4505 17.3089 80.602 18.0242 81.8974 18.1672C83.1927 18.3103 84.4881 17.8811 85.6396 16.8798L86.6471 16.0215V49.4949C86.6471 51.0684 87.0789 52.2128 88.0864 53.2141C89.094 54.2155 90.2454 54.6446 91.8287 54.6446C93.4119 54.6446 94.5634 54.2155 95.5709 53.2141C96.5785 52.2128 97.0102 51.0684 97.0102 49.4949V5.14976C97.0102 3.57622 96.5785 2.43183 95.5709 1.43049C94.8513 0.572198 93.5559 0 91.9726 0Z" fill="black"/>
<path d="M234.034 1.43049C233.026 0.429149 231.875 0 230.292 0C228.996 0 227.845 0.429149 226.981 1.14439L217.482 9.01207C216.33 10.0134 215.61 11.1578 215.61 12.4452C215.467 13.7327 215.898 15.0201 216.906 16.1645C217.913 17.3089 219.065 18.0242 220.36 18.1672C221.656 18.3103 222.951 17.8811 224.102 16.8798L225.11 16.0215V49.4949C225.11 51.0684 225.542 52.2128 226.549 53.2141C227.557 54.2155 228.708 54.6446 230.292 54.6446C231.875 54.6446 233.026 54.2155 234.034 53.2141C235.041 52.2128 235.473 51.0684 235.473 49.4949V5.14976C235.473 3.57622 234.897 2.43183 234.034 1.43049Z" fill="black"/>
<path fill-rule="evenodd" clip-rule="evenodd" d="M109.245 8.01073C114.57 2.71793 121.191 0 128.819 0C136.592 0 143.069 2.71793 148.394 8.01073C153.864 13.3035 156.454 19.8838 156.454 27.4654C156.454 35.19 153.72 41.6272 148.394 46.92C143.069 52.3558 136.448 54.9307 128.819 54.9307C121.047 54.9307 114.57 52.2128 109.245 46.92C103.775 41.6272 101.184 35.0469 101.184 27.4654C101.184 19.7407 103.919 13.3035 109.245 8.01073ZM128.819 44.3451C133.713 44.3451 137.743 42.7716 141.054 39.4815C144.364 36.1913 145.947 32.186 145.947 27.4654C145.947 22.6017 144.364 18.5963 141.054 15.3062C137.743 12.0161 133.569 10.2995 128.819 10.2995C123.926 10.2995 119.896 11.873 116.585 15.1632C113.275 18.4533 111.691 22.4587 111.691 27.3223C111.691 32.186 113.275 36.1913 116.585 39.4815C119.896 42.7716 124.07 44.3451 128.819 44.3451Z" fill="black"/>
<path fill-rule="evenodd" clip-rule="evenodd" d="M168.401 8.01073C173.726 2.71793 180.347 0 187.976 0C195.604 0 202.081 2.71793 207.55 8.01073C213.02 13.3035 215.611 19.8838 215.611 27.4654C215.611 35.19 212.876 41.6272 207.55 46.92C202.225 52.3558 195.604 54.9307 187.976 54.9307C180.203 54.9307 173.726 52.2128 168.401 46.92C162.931 41.6272 160.341 35.0469 160.341 27.4654C160.341 19.7407 163.075 13.3035 168.401 8.01073ZM187.832 44.3451C192.725 44.3451 196.755 42.7716 200.066 39.4815C203.376 36.1913 205.104 32.186 204.96 27.4654C204.96 22.6017 203.376 18.5963 200.066 15.3062C196.755 12.0161 192.581 10.2995 187.832 10.2995C182.938 10.2995 178.908 11.873 175.597 15.1632C172.287 18.4533 170.704 22.4587 170.704 27.3223C170.704 32.186 172.287 36.1913 175.597 39.4815C178.908 42.7716 183.082 44.3451 187.832 44.3451Z" fill="black"/>
<path d="M240.799 34.4748C240.223 33.9026 240.079 33.3304 240.079 32.6152C240.079 31.8999 240.367 31.1847 240.943 30.7555C241.518 30.1833 242.094 30.0403 242.814 30.0403C243.533 30.0403 244.253 30.3264 244.685 30.7555C245.261 31.3277 245.549 31.8999 245.549 32.6152C245.549 33.3304 245.261 34.0456 244.829 34.4748C244.253 35.047 243.677 35.19 242.958 35.19C241.95 35.19 241.374 34.9039 240.799 34.4748Z" fill="#FFC200"/>
<path d="M255.048 23.3169C253.897 23.3169 253.033 23.7461 252.313 24.4613C251.594 25.1766 251.162 26.1779 251.162 27.1793C251.162 28.3236 251.594 29.1819 252.313 29.8972C253.033 30.6124 254.04 31.0416 255.048 31.0416C255.768 31.0416 256.199 31.1846 256.631 31.6138C257.063 32.0429 257.207 32.6151 257.207 33.1873C257.207 33.9025 257.063 34.3317 256.631 34.7608C256.199 35.19 255.624 35.333 255.048 35.333C252.745 35.333 250.73 34.4747 249.147 32.9012C247.564 31.3277 246.7 29.325 246.7 27.0362C246.7 24.7474 247.564 22.7447 249.147 21.1712C250.73 19.5977 252.745 18.7394 255.048 18.7394C255.768 18.7394 256.199 18.8824 256.631 19.3116C257.063 19.7407 257.207 20.3129 257.207 20.8851C257.207 21.4573 257.063 22.0295 256.631 22.4586C256.199 23.1739 255.768 23.3169 255.048 23.3169Z" fill="#FFC200"/>
<path fill-rule="evenodd" clip-rule="evenodd" d="M273.327 21.4573C271.744 19.8838 269.729 19.0255 267.426 19.0255C264.979 19.0255 263.108 19.7408 261.525 21.4573C259.942 23.0309 259.078 25.0336 259.078 27.3223C259.078 29.6111 259.942 31.6138 261.525 33.1873C263.108 34.7609 265.123 35.6192 267.426 35.6192C269.729 35.6192 271.744 34.7609 273.327 33.1873C274.911 31.6138 275.774 29.6111 275.774 27.3223C275.774 25.0336 274.911 23.0309 273.327 21.4573ZM264.691 24.4614C265.411 23.7461 266.275 23.317 267.426 23.317C268.434 23.317 269.441 23.7461 270.161 24.4614C270.881 25.1766 271.312 26.0349 271.312 27.1793C271.312 28.1806 270.881 29.182 270.161 29.8972C269.441 30.6125 268.578 31.0416 267.426 31.0416C266.419 31.0416 265.411 30.6125 264.691 29.8972C263.972 29.182 263.54 28.3237 263.54 27.1793C263.54 26.1779 263.972 25.1766 264.691 24.4614Z" fill="#FFC200"/>
<path d="M296.357 25.8918C296.357 25.1766 296.069 24.6044 295.637 24.0322C295.061 23.46 294.485 23.317 293.766 23.317C292.902 23.317 292.183 23.6031 291.607 24.3183V33.3304C291.607 34.0456 291.463 34.4748 291.031 34.9039C290.599 35.3331 290.024 35.4761 289.448 35.4761C288.872 35.4761 288.296 35.3331 287.865 34.9039C287.433 34.4748 287.289 34.0456 287.289 33.3304V25.8918C287.289 25.1766 287.001 24.6044 286.569 24.0322C285.993 23.46 285.418 23.317 284.698 23.317C283.978 23.317 283.403 23.6031 282.827 24.0322C282.251 24.4614 282.107 25.1766 282.107 25.8918V33.3304C282.107 34.0456 281.963 34.4748 281.532 34.9039C281.1 35.3331 280.668 35.4761 279.948 35.4761C279.229 35.4761 278.797 35.3331 278.365 34.9039C277.933 34.4748 277.789 34.0456 277.789 33.3304V26.0349C277.789 24.0322 278.509 22.4587 279.804 21.0282C281.1 19.7408 282.827 19.0255 284.842 19.0255C286.569 19.0255 288.152 19.5977 289.448 20.7421C290.743 19.5977 292.326 19.0255 294.054 19.0255C296.069 19.0255 297.652 19.7408 299.091 21.0282C300.387 22.3156 301.106 24.0322 301.106 26.0349V35.7622C301.106 36.4775 301.394 37.1927 301.826 37.6218C302.402 38.194 302.977 38.3371 303.697 38.3371H303.841C304.561 38.3371 304.993 38.4801 305.424 38.9093C305.856 39.3384 306 39.9106 306 40.4828C306 41.1981 305.856 41.6272 305.424 42.0564C304.993 42.4855 304.417 42.6285 303.841 42.6285H303.697C301.682 42.6285 300.099 41.9133 298.659 40.6259C297.364 39.3384 296.644 37.6218 296.644 35.6192V25.8918H296.357Z" fill="#FFC200"/>
<path d="M97.2981 74.9576V60.7958C97.2981 60.2236 97.7299 59.7944 98.3056 59.7944C98.8814 59.7944 99.3131 60.2236 99.3131 60.7958V67.6621H99.4571L106.654 60.0805C106.942 59.7944 107.085 59.6514 107.373 59.6514C107.949 59.6514 108.237 60.0805 108.237 60.5097C108.237 60.7958 108.093 60.9388 107.949 61.0819L102.48 66.8038L108.669 74.0993C108.813 74.3854 108.957 74.5284 108.957 74.8145C108.957 75.3867 108.525 75.8159 107.949 75.8159C107.517 75.8159 107.373 75.6728 107.085 75.3867L101.184 68.2343L99.4571 70.0939V74.8145C99.4571 75.3867 99.0253 75.8159 98.4496 75.8159C97.7299 75.9589 97.2981 75.5298 97.2981 74.9576Z" fill="black"/>
<path fill-rule="evenodd" clip-rule="evenodd" d="M115.146 64.0858C111.979 64.0858 109.82 66.3746 109.82 70.0939C109.82 73.6701 111.979 75.9589 115.146 76.1019C118.312 76.1019 120.471 73.8131 120.471 70.0939C120.471 66.3746 118.312 64.0858 115.146 64.0858ZM115.29 65.8024C117.305 65.8024 118.6 67.3759 118.6 70.0939C118.6 72.8118 117.305 74.3853 115.29 74.3853C113.131 74.3853 111.835 72.8118 111.835 70.0939C111.835 67.3759 113.275 65.8024 115.29 65.8024Z" fill="black"/>
<path d="M122.63 74.9576V60.6527C122.63 60.0805 123.062 59.6514 123.638 59.6514C124.214 59.6514 124.645 60.0805 124.645 60.6527V74.9576C124.645 75.5298 124.214 75.9589 123.638 75.9589C122.918 75.9589 122.63 75.5298 122.63 74.9576Z" fill="black"/>
<path fill-rule="evenodd" clip-rule="evenodd" d="M130.834 69.2356C128.244 69.3786 126.66 70.523 126.66 72.5257C126.66 74.6714 128.244 75.9588 130.547 75.8158C132.13 75.8158 133.569 74.9575 134.289 73.6701V74.8145C134.289 75.3866 134.577 75.8158 135.152 75.8158C135.584 75.8158 136.016 75.3866 136.016 74.8145V67.662C136.016 65.3732 134.289 63.9427 131.554 63.9427C129.683 63.9427 128.1 64.801 127.38 66.0885C127.236 66.3746 127.092 66.6607 127.092 66.9468C127.092 67.519 127.524 67.8051 127.956 67.8051C128.388 67.8051 128.675 67.662 128.819 67.3759C129.395 66.2315 130.259 65.8024 131.554 65.8024C133.281 65.8024 134.145 66.6607 134.145 68.0912V69.0925L130.834 69.2356ZM134.145 70.3799V71.3813C134.145 73.0979 132.706 74.3853 130.834 74.2423C129.395 74.2423 128.532 73.527 128.532 72.3826C128.532 71.2382 129.395 70.666 130.978 70.523L134.145 70.3799Z" fill="black"/>
<path d="M138.319 79.1059C138.319 78.6768 138.607 78.3907 139.039 78.3907C139.326 78.3907 139.326 78.3907 139.758 78.3907C140.478 78.3907 141.198 77.9615 141.629 76.531L141.917 75.6727L137.887 65.3732C137.887 65.2302 137.743 64.9441 137.743 64.801C137.743 64.2288 138.175 63.9427 138.751 63.9427C139.182 63.9427 139.47 64.0858 139.614 64.658L142.781 73.6701L145.947 64.658C146.091 64.0858 146.379 63.9427 146.811 63.9427C147.387 63.9427 147.818 64.3719 147.818 64.801C147.818 64.9441 147.818 65.0871 147.674 65.3732L143.357 76.531C142.349 79.1059 141.341 79.9642 139.47 79.9642C138.751 80.1073 138.319 79.8212 138.319 79.1059Z" fill="black"/>
<path fill-rule="evenodd" clip-rule="evenodd" d="M154.439 60.7958V75.1006C154.439 75.6728 154.727 75.9589 155.447 76.245C156.022 76.245 156.454 75.8159 156.454 75.2437V74.0993C157.174 75.3867 158.469 76.245 160.197 76.245C163.075 76.245 165.09 73.8132 165.09 70.237C165.09 66.5177 163.075 64.2289 160.197 64.2289C158.469 64.2289 157.174 65.0872 156.454 66.3747V60.7958C156.454 60.2236 156.022 59.7944 155.447 59.7944C154.871 59.7944 154.439 60.2236 154.439 60.7958ZM159.621 65.8025C161.636 65.8025 162.931 67.5191 162.931 70.0939C162.931 72.6688 161.78 74.3854 159.621 74.3854C157.75 74.3854 156.31 72.6688 156.31 70.0939C156.31 67.5191 157.606 65.8025 159.621 65.8025Z" fill="black"/>
<path fill-rule="evenodd" clip-rule="evenodd" d="M167.969 60.0804C167.393 60.0804 166.817 60.5096 166.817 61.2248C166.817 61.797 167.393 62.3692 167.969 62.3692C168.545 62.3692 169.12 61.9401 169.12 61.2248C169.12 60.6526 168.689 60.0804 167.969 60.0804ZM166.961 65.0871V74.9575C166.961 75.5297 167.393 75.9588 167.969 75.9588C168.545 75.9588 168.976 75.5297 168.976 74.9575V65.0871C168.976 64.515 168.545 64.0858 167.969 64.0858C167.393 64.0858 166.961 64.515 166.961 65.0871Z" fill="black"/>
<path d="M171.567 74.9575V65.0872C171.567 64.515 171.999 64.0858 172.431 64.0858C173.006 64.0858 173.294 64.515 173.294 65.0872V66.2315C173.582 65.0872 174.734 64.0858 175.885 64.0858C176.317 64.0858 176.605 64.2289 176.749 64.3719C176.893 64.515 177.037 64.8011 177.037 64.9441C177.037 65.2302 176.893 65.5163 176.749 65.6594C176.605 65.8024 176.317 65.9454 175.885 65.9454C174.158 65.9454 173.438 67.2329 173.438 68.6634V74.9575C173.438 75.5297 173.006 75.9589 172.431 75.9589C171.999 75.9589 171.567 75.5297 171.567 74.9575Z" fill="black"/>
<path fill-rule="evenodd" clip-rule="evenodd" d="M187.976 64.0858C184.809 64.0858 182.65 66.3746 182.65 70.0939C182.65 73.6701 184.809 75.9589 187.976 76.1019C191.142 76.1019 193.301 73.8131 193.301 70.0939C193.301 66.3746 191.142 64.0858 187.976 64.0858ZM188.12 65.8024C190.135 65.8024 191.43 67.3759 191.43 70.0939C191.43 72.8118 190.135 74.3853 188.12 74.3853C185.961 74.3853 184.665 72.8118 184.665 70.0939C184.665 67.3759 186.105 65.8024 188.12 65.8024Z" fill="black"/>
<path d="M195.46 74.9576V60.6527C195.46 60.0805 195.892 59.6514 196.467 59.6514C197.043 59.6514 197.475 60.0805 197.475 60.6527V74.9576C197.475 75.5298 197.043 75.9589 196.467 75.9589C195.892 75.9589 195.46 75.5298 195.46 74.9576Z" fill="black"/>
<path fill-rule="evenodd" clip-rule="evenodd" d="M203.664 69.2356C201.073 69.3786 199.49 70.523 199.49 72.5257C199.49 74.6714 201.073 75.9588 203.376 75.8158C204.96 75.8158 206.399 74.9575 207.119 73.6701V74.8145C207.119 75.3866 207.407 75.8158 207.982 75.8158C208.414 75.8158 208.846 75.3866 208.846 74.8145V67.662C208.846 65.3732 207.119 63.9427 204.384 63.9427C202.513 63.9427 200.93 64.801 200.21 66.0885C200.066 66.3746 199.922 66.6607 199.922 66.9468C199.922 67.519 200.354 67.8051 200.786 67.8051C201.217 67.8051 201.505 67.662 201.649 67.3759C202.225 66.2315 203.089 65.8024 204.384 65.8024C206.111 65.8024 206.975 66.6607 206.975 68.0912V69.0925L203.664 69.2356ZM206.975 70.3799V71.3813C206.975 73.0979 205.679 74.3853 203.664 74.2423C202.225 74.2423 201.361 73.527 201.361 72.3826C201.361 71.2382 202.225 70.666 203.808 70.523L206.975 70.3799Z" fill="black"/>
<path d="M211.149 79.1059C211.149 78.6768 211.437 78.3907 211.868 78.3907C212.156 78.3907 212.156 78.3907 212.588 78.3907C213.308 78.3907 214.027 77.9615 214.459 76.531L214.747 75.6727L210.717 65.3732C210.717 65.2302 210.573 64.9441 210.573 64.801C210.573 64.2288 211.005 63.9427 211.581 63.9427C212.012 63.9427 212.3 64.0858 212.444 64.658L215.611 73.6701L218.777 64.658C218.921 64.0858 219.209 63.9427 219.641 63.9427C220.216 63.9427 220.648 64.3719 220.648 64.801C220.648 64.9441 220.648 65.0871 220.504 65.3732L216.186 76.531C215.179 79.1059 214.315 79.9642 212.3 79.9642C211.581 80.1073 211.149 79.8212 211.149 79.1059Z" fill="black"/>
<path fill-rule="evenodd" clip-rule="evenodd" d="M222.807 60.6527L222.951 69.8078C222.951 70.38 223.239 70.6661 223.815 70.6661C224.39 70.6661 224.678 70.38 224.678 69.8078L224.822 60.6527C224.822 60.0805 224.39 59.6514 223.815 59.6514C223.239 59.6514 222.807 60.0805 222.807 60.6527ZM223.815 73.384C223.095 73.384 222.519 73.9562 222.519 74.6715C222.519 75.3867 223.095 75.9589 223.815 75.9589C224.534 75.9589 225.11 75.3867 225.11 74.6715C225.11 73.9562 224.534 73.384 223.815 73.384Z" fill="black"/>
</svg>
