<?xml version="1.0" encoding="UTF-8"?>
<svg width="682px" height="100px" viewBox="0 0 682 100" version="1.1" xmlns="http://www.w3.org/2000/svg" xmlns:xlink="http://www.w3.org/1999/xlink">
    <title>logo (2)</title>
    <g id="Mobil-Anasayfa" stroke="none" stroke-width="1" fill="none" fill-rule="evenodd">
        <g id="logo-(2)" transform="translate(-0.000000, 0.000000)" fill-rule="nonzero">
            <g id="Group" transform="translate(31.000000, 0.000000)" fill="#989898">
                <path d="M140.5,38.6 C140.2,36.8 139.7,35.2 138.7,33.8 C137.7,32.4 136.7,31.1 135.3,30 C133.9,28.9 132.4,28 130.7,27.4 C129,26.8 127.2,26.5 125.3,26.5 C121.9,26.5 118.9,27.2 116.6,28.5 C114.2,29.8 112.3,31.6 110.8,33.8 C109.3,36 108.2,38.6 107.5,41.4 C106.8,44.3 106.5,47.2 106.5,50.2 C106.5,53.1 106.8,56 107.5,58.7 C108.2,61.5 109.3,63.9 110.8,66.1 C112.3,68.3 114.2,70.1 116.6,71.4 C119,72.7 121.9,73.4 125.3,73.4 C130,73.4 133.6,72 136.2,69.1 C138.8,66.2 140.4,62.5 141,57.8 L155.8,57.8 C155.4,62.1 154.4,66.1 152.8,69.6 C151.2,73.1 149,76.1 146.4,78.5 C143.7,81 140.6,82.8 137.1,84.1 C133.5,85.4 129.6,86 125.3,86 C120,86 115.2,85.1 111,83.2 C106.8,81.4 103.2,78.8 100.3,75.6 C97.4,72.4 95.1,68.6 93.6,64.2 C92,59.8 91.3,55.1 91.3,50.1 C91.3,44.9 92.1,40.1 93.6,35.7 C95.2,31.3 97.4,27.4 100.3,24.1 C103.2,20.8 106.8,18.2 111,16.3 C115.2,14.4 120,13.5 125.3,13.5 C129.1,13.5 132.7,14.1 136.1,15.2 C139.5,16.3 142.5,17.9 145.2,20 C147.9,22.1 150.1,24.7 151.9,27.8 C153.7,30.9 154.8,34.5 155.2,38.5 L140.5,38.5 L140.5,38.6 Z" id="Path"></path>
                <path d="M163.2,59.6 C163.2,55.6 163.8,51.9 165,48.7 C166.2,45.5 168,42.6 170.2,40.3 C172.4,38 175.2,36.2 178.4,35 C181.6,33.7 185.1,33.1 189.1,33.1 C193.1,33.1 196.6,33.7 199.8,35 C203,36.3 205.7,38 208,40.3 C210.3,42.6 212,45.4 213.2,48.7 C214.4,52 215,55.6 215,59.6 C215,63.6 214.4,67.2 213.2,70.5 C212,73.7 210.2,76.5 208,78.8 C205.7,81.1 203,82.9 199.8,84.1 C196.6,85.3 193,85.9 189.1,85.9 C185.1,85.9 181.6,85.3 178.4,84.1 C175.2,82.9 172.5,81.1 170.2,78.8 C167.9,76.5 166.2,73.7 165,70.5 C163.9,67.3 163.2,63.7 163.2,59.6 M177,59.6 C177,61.6 177.2,63.6 177.6,65.5 C178,67.4 178.7,69.1 179.6,70.7 C180.5,72.2 181.8,73.4 183.3,74.3 C184.9,75.2 186.8,75.7 189.1,75.7 C191.4,75.7 193.4,75.2 195,74.3 C196.6,73.4 197.9,72.2 198.8,70.7 C199.7,69.2 200.4,67.5 200.8,65.5 C201.2,63.6 201.4,61.6 201.4,59.6 C201.4,57.6 201.2,55.6 200.8,53.7 C200.4,51.8 199.7,50 198.8,48.5 C197.9,47 196.6,45.8 195,44.9 C193.4,44 191.5,43.5 189.1,43.5 C186.7,43.5 184.8,44 183.3,44.9 C181.7,45.8 180.5,47.1 179.6,48.5 C178.7,50 178,51.7 177.6,53.7 C177.2,55.7 177,57.6 177,59.6" id="Shape"></path>
                <path d="M224.2,34.5 L237.3,34.5 L237.3,41.5 L237.6,41.5 C239.4,38.6 241.6,36.5 244.4,35.1 C247.2,33.8 250,33.1 253,33.1 C256.7,33.1 259.7,33.6 262.1,34.6 C264.5,35.6 266.3,37 267.7,38.8 C269.1,40.6 270,42.8 270.6,45.3 C271.2,47.9 271.4,50.7 271.4,53.8 L271.4,84.7 L257.6,84.7 L257.6,56.3 C257.6,52.2 257,49.1 255.7,47 C254.4,45 252.1,43.9 248.8,43.9 C245,43.9 242.3,45 240.6,47.3 C238.9,49.5 238.1,53.2 238.1,58.3 L238.1,84.6 L224.3,84.6 L224.2,34.5 L224.2,34.5 Z" id="Path"></path>
                <path d="M281.8,34.5 L294.9,34.5 L294.9,41.5 L295.2,41.5 C297,38.6 299.2,36.5 302,35.1 C304.8,33.8 307.6,33.1 310.6,33.1 C314.3,33.1 317.3,33.6 319.7,34.6 C322.1,35.6 323.9,37 325.3,38.8 C326.7,40.6 327.6,42.8 328.2,45.3 C328.8,47.8 329,50.7 329,53.8 L329,84.7 L315.2,84.7 L315.2,56.3 C315.2,52.2 314.6,49.1 313.3,47 C312,45 309.7,43.9 306.4,43.9 C302.6,43.9 299.9,45 298.2,47.3 C296.5,49.5 295.7,53.2 295.7,58.3 L295.7,84.6 L281.8,84.6 L281.8,34.5 L281.8,34.5 Z" id="Path"></path>
                <path d="M350.8,62.9 C351,67.4 352.1,70.6 354.2,72.6 C356.3,74.6 359.3,75.6 363.1,75.6 C365.9,75.6 368.3,74.9 370.3,73.5 C372.3,72.1 373.5,70.6 374,69.1 L386.1,69.1 C384.2,75.1 381.2,79.4 377.2,82 C373.2,84.6 368.3,85.9 362.6,85.9 C358.6,85.9 355.1,85.3 351.9,84 C348.7,82.7 346,80.9 343.8,78.6 C341.6,76.3 339.9,73.5 338.7,70.2 C337.5,67 336.9,63.4 336.9,59.5 C336.9,55.7 337.5,52.2 338.7,49 C339.9,45.8 341.7,43 343.9,40.6 C346.2,38.2 348.9,36.4 352,35 C355.1,33.6 358.6,33 362.4,33 C366.7,33 370.4,33.8 373.6,35.5 C376.8,37.2 379.4,39.4 381.4,42.2 C383.4,45 384.9,48.2 385.8,51.7 C386.7,55.3 387,59 386.8,62.9 L350.8,62.9 L350.8,62.9 Z M373.3,54.2 C372.7,50.7 371.5,48 369.8,46.2 C368.1,44.4 365.6,43.5 362.3,43.5 C360.1,43.5 358.3,43.9 356.8,44.6 C355.3,45.3 354.2,46.3 353.3,47.4 C352.4,48.5 351.8,49.7 351.5,50.9 C351.1,52.1 350.9,53.2 350.9,54.2 L373.3,54.2 Z" id="Shape"></path>
                <path d="M429.5,52.2 C428.6,46.4 425.2,43.5 419.3,43.5 C417.1,43.5 415.3,44 413.8,45 C412.3,46 411.1,47.3 410.2,48.9 C409.3,50.5 408.6,52.2 408.2,54.1 C407.8,56 407.6,57.9 407.6,59.8 C407.6,61.6 407.8,63.5 408.2,65.3 C408.6,67.2 409.2,68.9 410.1,70.4 C411,71.9 412.2,73.2 413.6,74.1 C415.1,75.1 416.9,75.6 419,75.6 C422.3,75.6 424.8,74.7 426.6,72.8 C428.4,71 429.5,68.5 430,65.4 L443.3,65.4 C442.4,72.1 439.8,77.2 435.5,80.7 C431.2,84.2 425.7,85.9 419.1,85.9 C415.3,85.9 411.9,85.3 408.7,84 C405.6,82.7 402.9,81 400.7,78.7 C398.5,76.4 396.8,73.7 395.5,70.6 C394.3,67.5 393.7,64 393.7,60.2 C393.7,56.3 394.3,52.7 395.4,49.4 C396.5,46.1 398.2,43.2 400.4,40.7 C402.6,38.3 405.3,36.4 408.5,35 C411.7,33.6 415.3,33 419.4,33 C422.4,33 425.2,33.4 428,34.2 C430.8,35 433.2,36.2 435.4,37.7 C437.6,39.3 439.3,41.3 440.7,43.6 C442.1,46 442.8,48.8 443,52 C443,52.2 429.5,52.2 429.5,52.2 Z" id="Path"></path>
                <path d="M468.5,34.5 L478.6,34.5 L478.6,43.7 L468.5,43.7 L468.5,68.6 C468.5,70.9 468.9,72.5 469.7,73.3 C470.5,74.1 472,74.5 474.4,74.5 C475.2,74.5 475.9,74.5 476.6,74.4 C477.3,74.3 478,74.2 478.6,74.1 L478.6,84.8 C477.4,85 476.1,85.1 474.7,85.2 C473.3,85.3 471.9,85.3 470.5,85.3 C468.4,85.3 466.3,85.2 464.4,84.9 C462.5,84.6 460.8,84 459.3,83.2 C457.8,82.4 456.7,81.2 455.8,79.6 C455,78 454.5,76 454.5,73.5 L454.5,43.7 L446.1,43.7 L446.1,34.5 L454.5,34.5 L454.5,19.4 L468.3,19.4 L468.5,34.5 L468.5,34.5 Z" id="Path"></path>
                <path d="M62.5,16.7 L50.2,4.5 C47.3,1.6 43.5,0 39.4,0 C35.3,0 31.5,1.6 28.6,4.5 L4.5,28.7 C-1.5,34.7 -1.5,44.3 4.5,50.3 L16.7,62.5 C19.7,65.5 23.6,67 27.5,67 C31.4,67 35.3,65.5 38.3,62.5 L44.7,56.1 L44.7,56.1 L44.7,56.1 L37.8,49.1 L37.8,49.1 L37.8,49.1 L31.4,55.5 C29.3,57.6 25.9,57.6 23.7,55.5 L11.5,43.3 C9.4,41.2 9.4,37.8 11.5,35.6 L35.7,11.4 C36.7,10.4 38.1,9.8 39.5,9.8 C40.9,9.8 42.3,10.4 43.3,11.4 L55.5,23.6 C56.5,24.6 57.1,26 57.1,27.4 C57.1,28.8 56.5,30.2 55.5,31.2 L49.2,37.5 L56.2,44.5 L62.5,38.2 C65.4,35.3 67,31.5 67,27.4 C66.9,23.4 65.4,19.6 62.5,16.7" id="Path"></path>
            </g>
            <g id="Group" opacity="0.6" transform="translate(0.000000, 15.200000)" fill="#000000">
                <path d="M518,0.1 L548.8,0.1 C551.9,0.1 554.7,0.5 557.3,1.4 C559.8,2.3 562,3.6 563.8,5.3 C565.6,7 567,9.1 568,11.6 C569,14.1 569.5,16.8 569.5,20 C569.5,23.2 569,25.9 568,28.4 C567,30.9 565.6,33 563.8,34.7 C562,36.4 559.8,37.7 557.3,38.6 C554.8,39.5 552,39.9 548.8,39.9 L524.6,39.9 L524.6,69.6 L518,69.6 L518,0.1 L518,0.1 Z M524.6,34.1 L547.3,34.1 C551.9,34.1 555.6,32.9 558.5,30.6 C561.4,28.3 562.8,24.7 562.8,19.9 C562.8,15.1 561.4,11.5 558.5,9.2 C555.6,6.9 551.9,5.7 547.3,5.7 L524.6,5.7 L524.6,34.1 Z" id="Shape"></path>
                <path d="M578.1,19.4 L583.7,19.4 L583.7,31.2 L583.9,31.2 C585.5,27.1 587.9,24 591.1,21.8 C594.4,19.6 598.3,18.6 602.8,18.8 L602.8,24.9 C600,24.8 597.5,25.1 595.2,26 C592.9,26.9 591,28.1 589.3,29.7 C587.6,31.3 586.4,33.2 585.5,35.5 C584.6,37.7 584.1,40.2 584.1,42.8 L584.1,69.5 L578,69.5 L578,19.4 L578.1,19.4 Z" id="Path"></path>
                <path d="M628.1,17.9 C631.9,17.9 635.3,18.6 638.3,20 C641.3,21.4 643.7,23.3 645.7,25.7 C647.7,28.1 649.2,30.9 650.3,34.1 C651.3,37.3 651.9,40.7 651.9,44.4 C651.9,48 651.4,51.4 650.3,54.7 C649.3,57.9 647.7,60.7 645.7,63.1 C643.7,65.5 641.2,67.4 638.3,68.8 C635.4,70.2 632,70.9 628.1,70.9 C624.2,70.9 620.9,70.2 617.9,68.8 C615,67.4 612.5,65.5 610.5,63.1 C608.5,60.7 607,57.9 605.9,54.7 C604.9,51.5 604.3,48.1 604.3,44.4 C604.3,40.7 604.8,37.4 605.9,34.1 C606.9,30.9 608.5,28.1 610.5,25.7 C612.5,23.3 615,21.4 617.9,20 C620.9,18.6 624.3,17.9 628.1,17.9 M628.1,23.1 C625.2,23.1 622.6,23.7 620.4,24.9 C618.2,26.1 616.4,27.8 614.9,29.8 C613.4,31.8 612.3,34.1 611.6,36.7 C610.9,39.3 610.5,41.9 610.5,44.5 C610.5,47.2 610.9,49.8 611.6,52.3 C612.3,54.9 613.4,57.1 614.9,59.2 C616.4,61.2 618.2,62.8 620.4,64.1 C622.6,65.3 625.2,65.9 628.1,65.9 C631,65.9 633.6,65.3 635.8,64.1 C638,62.9 639.8,61.2 641.3,59.2 C642.8,57.2 643.9,54.9 644.6,52.3 C645.3,49.7 645.7,47.1 645.7,44.5 C645.7,41.8 645.3,39.2 644.6,36.7 C643.9,34.1 642.8,31.9 641.3,29.8 C639.8,27.8 638,26.2 635.8,24.9 C633.6,23.7 631.1,23.1 628.1,23.1" id="Shape"></path>
                <path d="M680.3,24.5 L670.4,24.5 L670.4,69.5 L664.3,69.5 L664.3,24.5 L655.7,24.5 L655.7,19.3 L664.3,19.3 L664.3,14.7 C664.3,12.6 664.5,10.6 664.8,8.8 C665.1,7 665.7,5.4 666.6,4.1 C667.5,2.8 668.8,1.8 670.3,1.1 C671.9,0.4 673.9,0 676.4,0 C677.3,0 678.2,0 678.9,0.1 C679.7,0.2 680.6,0.3 681.5,0.4 L681.5,5.6 C680.7,5.5 679.9,5.4 679.2,5.3 C678.5,5.2 677.8,5.2 677.1,5.2 C675.4,5.2 674.1,5.5 673.2,6 C672.3,6.5 671.6,7.2 671.2,8.1 C670.8,9 670.5,10 670.5,11.2 C670.5,12.4 670.4,13.6 670.4,15 L670.4,19.4 L680.3,19.4 L680.3,24.5 L680.3,24.5 Z" id="Path"></path>
                <path d="M87.5,34.3 L75.3,22.1 C72.4,19.2 68.6,17.6 64.5,17.6 C60.4,17.6 56.6,19.2 53.7,22.1 L47.4,28.4 L54.4,35.4 L60.7,29.1 C61.7,28.1 63.1,27.5 64.5,27.5 C65.9,27.5 67.3,28.1 68.3,29.1 L80.5,41.3 C82.6,43.4 82.6,46.8 80.5,49 L56.3,73.2 C54.3,75.2 50.7,75.2 48.6,73.2 L36.5,60.9 C35.5,59.9 34.9,58.5 34.9,57.1 C34.9,55.8 35.4,54.6 36.2,53.6 L38.6,51.1 L42.7,47 L35.7,40 L29.4,46.3 L0,75.6 C4.3,79.6 11,79.5 15,75.3 L26.5,63.5 C27.2,65.1 28.2,66.5 29.5,67.8 L41.7,80 C44.6,82.9 48.4,84.5 52.5,84.5 C56.6,84.5 60.4,82.9 63.3,80 L87.5,55.8 C93.5,50 93.5,40.3 87.5,34.3 Z" id="Path"></path>
            </g>
        </g>
    </g>
</svg>