<?xml version="1.0" encoding="utf-8"?>
<!-- Generator: Adobe Illustrator 20.0.0, SVG Export Plug-In . SVG Version: 6.00 Build 0)  -->
<svg version="1.1" id="Layer_1" xmlns="http://www.w3.org/2000/svg" xmlns:xlink="http://www.w3.org/1999/xlink" x="0px" y="0px"
	 viewBox="0 0 700 126" style="enable-background:new 0 0 700 126;" xml:space="preserve">
<style type="text/css">
	.st0{opacity:0.6;}
</style>
<g>
	<g>
		<path d="M180.7,51.7c-0.3-1.8-0.8-3.4-1.8-4.8s-2-2.7-3.4-3.8s-2.9-2-4.6-2.6c-1.7-0.6-3.5-0.9-5.4-0.9c-3.4,0-6.4,0.7-8.7,2
			c-2.4,1.3-4.3,3.1-5.8,5.3c-1.5,2.2-2.6,4.8-3.3,7.6c-0.7,2.9-1,5.8-1,8.8c0,2.9,0.3,5.8,1,8.5c0.7,2.8,1.8,5.2,3.3,7.4
			c1.5,2.2,3.4,4,5.8,5.3c2.4,1.3,5.3,2,8.7,2c4.7,0,8.3-1.4,10.9-4.3c2.6-2.9,4.2-6.6,4.8-11.3h14.8c-0.4,4.3-1.4,8.3-3,11.8
			c-1.6,3.5-3.8,6.5-6.4,8.9c-2.7,2.5-5.8,4.3-9.3,5.6c-3.6,1.3-7.5,1.9-11.8,1.9c-5.3,0-10.1-0.9-14.3-2.8
			c-4.2-1.8-7.8-4.4-10.7-7.6s-5.2-7-6.7-11.4c-1.6-4.4-2.3-9.1-2.3-14.1c0-5.2,0.8-10,2.3-14.4c1.6-4.4,3.8-8.3,6.7-11.6
			c2.9-3.3,6.5-5.9,10.7-7.8s9-2.8,14.3-2.8c3.8,0,7.4,0.6,10.8,1.7c3.4,1.1,6.4,2.7,9.1,4.8c2.7,2.1,4.9,4.7,6.7,7.8
			c1.8,3.1,2.9,6.7,3.3,10.7H180.7z"/>
		<path d="M203.4,72.7c0-4,0.6-7.7,1.8-10.9s3-6.1,5.2-8.4s5-4.1,8.2-5.3c3.2-1.3,6.7-1.9,10.7-1.9c4,0,7.5,0.6,10.7,1.9
			c3.2,1.3,5.9,3,8.2,5.3c2.3,2.3,4,5.1,5.2,8.4c1.2,3.3,1.8,6.9,1.8,10.9c0,4-0.6,7.6-1.8,10.9c-1.2,3.2-3,6-5.2,8.3
			c-2.3,2.3-5,4.1-8.2,5.3c-3.2,1.2-6.8,1.8-10.7,1.8c-4,0-7.5-0.6-10.7-1.8c-3.2-1.2-5.9-3-8.2-5.3s-4-5.1-5.2-8.3
			C204.1,80.4,203.4,76.8,203.4,72.7 M217.2,72.7c0,2,0.2,4,0.6,5.9c0.4,1.9,1.1,3.6,2,5.2c0.9,1.5,2.2,2.7,3.7,3.6
			c1.6,0.9,3.5,1.4,5.8,1.4s4.3-0.5,5.9-1.4c1.6-0.9,2.9-2.1,3.8-3.6c0.9-1.5,1.6-3.2,2-5.2c0.4-1.9,0.6-3.9,0.6-5.9s-0.2-4-0.6-5.9
			c-0.4-1.9-1.1-3.7-2-5.2c-0.9-1.5-2.2-2.7-3.8-3.6c-1.6-0.9-3.5-1.4-5.9-1.4s-4.3,0.5-5.8,1.4c-1.6,0.9-2.8,2.2-3.7,3.6
			c-0.9,1.5-1.6,3.2-2,5.2C217.4,68.8,217.2,70.7,217.2,72.7"/>
		<path d="M264.4,47.6h13.1v7h0.3c1.8-2.9,4-5,6.8-6.4c2.8-1.3,5.6-2,8.6-2c3.7,0,6.7,0.5,9.1,1.5c2.4,1,4.2,2.4,5.6,4.2
			c1.4,1.8,2.3,4,2.9,6.5c0.6,2.6,0.8,5.4,0.8,8.5v30.9h-13.8V69.4c0-4.1-0.6-7.2-1.9-9.3c-1.3-2-3.6-3.1-6.9-3.1
			c-3.8,0-6.5,1.1-8.2,3.4c-1.7,2.2-2.5,5.9-2.5,11v26.3h-13.8L264.4,47.6L264.4,47.6z"/>
		<path d="M322,47.6h13.1v7h0.3c1.8-2.9,4-5,6.8-6.4c2.8-1.3,5.6-2,8.6-2c3.7,0,6.7,0.5,9.1,1.5c2.4,1,4.2,2.4,5.6,4.2
			c1.4,1.8,2.3,4,2.9,6.5s0.8,5.4,0.8,8.5v30.9h-13.8V69.4c0-4.1-0.6-7.2-1.9-9.3c-1.3-2-3.6-3.1-6.9-3.1c-3.8,0-6.5,1.1-8.2,3.4
			c-1.7,2.2-2.5,5.9-2.5,11v26.3H322L322,47.6L322,47.6z"/>
		<path d="M391,76c0.2,4.5,1.3,7.7,3.4,9.7c2.1,2,5.1,3,8.9,3c2.8,0,5.2-0.7,7.2-2.1c2-1.4,3.2-2.9,3.7-4.4h12.1
			c-1.9,6-4.9,10.3-8.9,12.9c-4,2.6-8.9,3.9-14.6,3.9c-4,0-7.5-0.6-10.7-1.9c-3.2-1.3-5.9-3.1-8.1-5.4c-2.2-2.3-3.9-5.1-5.1-8.4
			c-1.2-3.2-1.8-6.8-1.8-10.7c0-3.8,0.6-7.3,1.8-10.5c1.2-3.2,3-6,5.2-8.4c2.3-2.4,5-4.2,8.1-5.6s6.6-2,10.4-2c4.3,0,8,0.8,11.2,2.5
			c3.2,1.7,5.8,3.9,7.8,6.7c2,2.8,3.5,6,4.4,9.5c0.9,3.6,1.2,7.3,1,11.2L391,76L391,76z M413.5,67.3c-0.6-3.5-1.8-6.2-3.5-8
			c-1.7-1.8-4.2-2.7-7.5-2.7c-2.2,0-4,0.4-5.5,1.1s-2.6,1.7-3.5,2.8s-1.5,2.3-1.8,3.5c-0.4,1.2-0.6,2.3-0.6,3.3H413.5z"/>
		<path d="M469.7,65.3c-0.9-5.8-4.3-8.7-10.2-8.7c-2.2,0-4,0.5-5.5,1.5c-1.5,1-2.7,2.3-3.6,3.9s-1.6,3.3-2,5.2
			c-0.4,1.9-0.6,3.8-0.6,5.7c0,1.8,0.2,3.7,0.6,5.5c0.4,1.9,1,3.6,1.9,5.1c0.9,1.5,2.1,2.8,3.5,3.7c1.5,1,3.3,1.5,5.4,1.5
			c3.3,0,5.8-0.9,7.6-2.8c1.8-1.8,2.9-4.3,3.4-7.4h13.3c-0.9,6.7-3.5,11.8-7.8,15.3c-4.3,3.5-9.8,5.2-16.4,5.2
			c-3.8,0-7.2-0.6-10.4-1.9c-3.1-1.3-5.8-3-8-5.3s-3.9-5-5.2-8.1c-1.2-3.1-1.8-6.6-1.8-10.4c0-3.9,0.6-7.5,1.7-10.8s2.8-6.2,5-8.7
			c2.2-2.4,4.9-4.3,8.1-5.7c3.2-1.4,6.8-2,10.9-2c3,0,5.8,0.4,8.6,1.2c2.8,0.8,5.2,2,7.4,3.5c2.2,1.6,3.9,3.6,5.3,5.9
			c1.4,2.4,2.1,5.2,2.3,8.4C483.2,65.3,469.7,65.3,469.7,65.3z"/>
		<path d="M508.7,47.6h10.1v9.2h-10.1v24.9c0,2.3,0.4,3.9,1.2,4.7c0.8,0.8,2.3,1.2,4.7,1.2c0.8,0,1.5,0,2.2-0.1
			c0.7-0.1,1.4-0.2,2-0.3v10.7c-1.2,0.2-2.5,0.3-3.9,0.4c-1.4,0.1-2.8,0.1-4.2,0.1c-2.1,0-4.2-0.1-6.1-0.4c-1.9-0.3-3.6-0.9-5.1-1.7
			c-1.5-0.8-2.6-2-3.5-3.6c-0.8-1.6-1.3-3.6-1.3-6.1V56.8h-8.4v-9.2h8.4V32.5h13.8L508.7,47.6L508.7,47.6z"/>
		<path d="M102.7,29.8L90.4,17.6c-2.9-2.9-6.7-4.5-10.8-4.5c-4.1,0-7.9,1.6-10.8,4.5L44.7,41.8c-6,6-6,15.6,0,21.6l12.2,12.2
			c3,3,6.9,4.5,10.8,4.5c3.9,0,7.8-1.5,10.8-4.5l6.4-6.4l0,0l0,0L78,62.2l0,0l0,0l-6.4,6.4c-2.1,2.1-5.5,2.1-7.7,0L51.7,56.4
			c-2.1-2.1-2.1-5.5,0-7.7l24.2-24.2c1-1,2.4-1.6,3.8-1.6c1.4,0,2.8,0.6,3.8,1.6l12.2,12.2c1,1,1.6,2.4,1.6,3.8
			c0,1.4-0.6,2.8-1.6,3.8l-6.3,6.3l7,7l6.3-6.3c2.9-2.9,4.5-6.7,4.5-10.8C107.1,36.5,105.6,32.7,102.7,29.8"/>
	</g>
	<g class="st0">
		<path d="M527.2,28.4H558c3.1,0,5.9,0.4,8.5,1.3c2.5,0.9,4.7,2.2,6.5,3.9c1.8,1.7,3.2,3.8,4.2,6.3c1,2.5,1.5,5.2,1.5,8.4
			s-0.5,5.9-1.5,8.4c-1,2.5-2.4,4.6-4.2,6.3c-1.8,1.7-4,3-6.5,3.9c-2.5,0.9-5.3,1.3-8.5,1.3h-24.2v29.7h-6.6L527.2,28.4L527.2,28.4z
			 M533.8,62.4h22.7c4.6,0,8.3-1.2,11.2-3.5c2.9-2.3,4.3-5.9,4.3-10.7s-1.4-8.4-4.3-10.7c-2.9-2.3-6.6-3.5-11.2-3.5h-22.7V62.4z"/>
		<path d="M587.3,47.7h5.6v11.8h0.2c1.6-4.1,4-7.2,7.2-9.4c3.3-2.2,7.2-3.2,11.7-3v6.1c-2.8-0.1-5.3,0.2-7.6,1.1s-4.2,2.1-5.9,3.7
			s-2.9,3.5-3.8,5.8c-0.9,2.2-1.4,4.7-1.4,7.3v26.7h-6.1V47.7z"/>
		<path d="M637.3,46.2c3.8,0,7.2,0.7,10.2,2.1s5.4,3.3,7.4,5.7c2,2.4,3.5,5.2,4.6,8.4c1,3.2,1.6,6.6,1.6,10.3c0,3.6-0.5,7-1.6,10.3
			c-1,3.2-2.6,6-4.6,8.4c-2,2.4-4.5,4.3-7.4,5.7c-2.9,1.4-6.3,2.1-10.2,2.1s-7.2-0.7-10.2-2.1c-2.9-1.4-5.4-3.3-7.4-5.7
			c-2-2.4-3.5-5.2-4.6-8.4c-1-3.2-1.6-6.6-1.6-10.3s0.5-7,1.6-10.3c1-3.2,2.6-6,4.6-8.4s4.5-4.3,7.4-5.7
			C630.1,46.9,633.5,46.2,637.3,46.2 M637.3,51.4c-2.9,0-5.5,0.6-7.7,1.8s-4,2.9-5.5,4.9s-2.6,4.3-3.3,6.9c-0.7,2.6-1.1,5.2-1.1,7.8
			c0,2.7,0.4,5.3,1.1,7.8c0.7,2.6,1.8,4.8,3.3,6.9c1.5,2,3.3,3.6,5.5,4.9c2.2,1.2,4.8,1.8,7.7,1.8s5.5-0.6,7.7-1.8
			c2.2-1.2,4-2.9,5.5-4.9c1.5-2,2.6-4.3,3.3-6.9c0.7-2.6,1.1-5.2,1.1-7.8c0-2.7-0.4-5.3-1.1-7.8c-0.7-2.6-1.8-4.8-3.3-6.9
			c-1.5-2-3.3-3.6-5.5-4.9C642.8,52,640.3,51.4,637.3,51.4"/>
		<path d="M689.5,52.8h-9.9v45h-6.1v-45h-8.6v-5.2h8.6v-4.6c0-2.1,0.2-4.1,0.5-5.9c0.3-1.8,0.9-3.4,1.8-4.7c0.9-1.3,2.2-2.3,3.7-3
			c1.6-0.7,3.6-1.1,6.1-1.1c0.9,0,1.8,0,2.5,0.1c0.8,0.1,1.7,0.2,2.6,0.3v5.2c-0.8-0.1-1.6-0.2-2.3-0.3c-0.7-0.1-1.4-0.1-2.1-0.1
			c-1.7,0-3,0.3-3.9,0.8s-1.6,1.2-2,2.1c-0.4,0.9-0.7,1.9-0.7,3.1s-0.1,2.4-0.1,3.8v4.4h9.9L689.5,52.8L689.5,52.8z"/>
		<path d="M96.7,62.6L84.5,50.4c-2.9-2.9-6.7-4.5-10.8-4.5c-4.1,0-7.9,1.6-10.8,4.5l-6.3,6.3l7,7l6.3-6.3c1-1,2.4-1.6,3.8-1.6
			s2.8,0.6,3.8,1.6l12.2,12.2c2.1,2.1,2.1,5.5,0,7.7l-24.2,24.2c-2,2-5.6,2-7.7,0L45.7,89.2c-1-1-1.6-2.4-1.6-3.8
			c0-1.3,0.5-2.5,1.3-3.5l2.4-2.5l4.1-4.1l-7-7l-6.3,6.3L9.2,103.9c4.3,4,11,3.9,15-0.3l11.5-11.8c0.7,1.6,1.7,3,3,4.3l12.2,12.2
			c2.9,2.9,6.7,4.5,10.8,4.5c4.1,0,7.9-1.6,10.8-4.5l24.2-24.2C102.7,78.3,102.7,68.6,96.7,62.6z"/>
	</g>
</g>
</svg>
