<svg width="242" height="253" viewBox="0 0 242 253" fill="none" xmlns="http://www.w3.org/2000/svg">
<g id="vector">
<g id="freepik--background-complete--inject-37">
<path id="Path" d="M86.8932 153.822C86.8932 153.822 81.1139 149.792 78.4608 150.522C75.8077 151.253 72.406 154.983 72.406 154.983C72.406 154.983 79.1375 153.043 81.1678 153.45C83.0641 153.719 84.9781 153.843 86.8932 153.822Z" fill="#E0E0E0"/>
<path id="Path_2" d="M88.8396 155.277C87.9952 157.181 86.5459 158.768 85.7314 160.666C84.8045 162.884 84.7894 165.378 85.6895 167.607C87.1846 165.937 88.2025 163.895 88.636 161.696C89.0593 159.663 89.2859 157.593 89.3128 155.516L88.8396 155.277Z" fill="#E0E0E0"/>
<path id="Path_3" d="M87.9533 154.792C88.2168 154.013 81.677 154.355 79.5689 156.876C77.4608 159.397 75.3766 162.139 77.1733 168.505C77.1733 168.505 81.12 161.606 81.12 161.708C81.12 161.81 87.4263 156.313 87.9533 154.792Z" fill="#E0E0E0"/>
<path id="Path_4" d="M88.0011 154.702C87.4023 154.935 93.3373 156.744 96.0802 156.966C97.5833 157.137 99.1048 156.897 100.482 156.271C100.482 156.271 96.4994 151.402 88.0011 154.702Z" fill="#E0E0E0"/>
<path id="Path_5" d="M118.024 179.739C118.024 179.739 120.886 178.541 121.695 179.38C122.503 180.218 125.803 184.566 128.935 184.835C128.935 184.835 126.073 178.751 123.48 177.769C121.773 177.122 118.024 179.739 118.024 179.739Z" fill="#E0E0E0"/>
<path id="Path_6" d="M118.76 179.41C118.76 179.41 118.646 177.26 117.562 176.128C116.478 174.996 112.592 174.23 112.592 174.23C113.377 175.467 114.337 176.585 115.442 177.547C116.47 178.297 117.584 178.923 118.76 179.41Z" fill="#E0E0E0"/>
<path id="Path_7" d="M118.76 179.284C118.76 179.284 116.766 179.284 115.359 181.745C114.421 183.435 113.727 185.25 113.298 187.135C113.418 186.925 117.059 185.338 118.018 183.314C118.594 182.052 118.849 180.668 118.76 179.284V179.284Z" fill="#E0E0E0"/>
<path id="Path_8" d="M119.209 179.284C119.209 179.284 119.569 184.027 120.371 184.835C121.174 185.644 122.342 188.59 122.342 188.59C122.342 188.59 124.138 184.296 123.144 182.242C122.15 180.188 119.209 179.284 119.209 179.284Z" fill="#E0E0E0"/>
<path id="Path_9" d="M101.83 188.446C101.602 188.787 97.0384 192.344 96.3258 194.069C95.6131 195.794 96.212 198.429 96.3258 199.231C96.4396 200.033 100.452 198.195 101.117 195.099C101.562 192.909 101.801 190.681 101.83 188.446Z" fill="#E0E0E0"/>
<path id="Path_10" d="M102.728 185.781C102.728 186.35 102.794 191.973 104.273 193.937C105.516 195.438 106.922 196.795 108.465 197.985C108.465 197.985 109.436 190.877 107.387 188.68C106.101 187.339 104.499 186.342 102.728 185.781Z" fill="#E0E0E0"/>
<path id="Path_11" d="M102.051 186.745C101.716 186.668 97.5654 186.272 95.589 188.638C94.3402 190.174 93.3047 191.872 92.5107 193.686C92.5107 193.686 98.7871 190.572 99.937 189.195C101.087 187.817 102.051 186.745 102.051 186.745Z" fill="#E0E0E0"/>
<path id="Path_12" d="M104.908 184.17C105.972 183.441 107.366 183.406 108.465 184.081C110.328 185.242 113.43 189.757 113.43 189.757C113.43 189.757 109.633 189.524 107.657 187.608C106.552 186.626 105.623 185.464 104.908 184.17Z" fill="#E0E0E0"/>
<path id="Path_13" d="M102.207 184.871C102.207 184.871 99.8114 182.823 97.9608 182.368C96.1102 181.913 90.7322 183.254 90.7322 183.254C92.5689 184.495 94.7766 185.066 96.9846 184.871C100.716 184.548 102.207 184.871 102.207 184.871Z" fill="#E0E0E0"/>
<path id="Path_14" d="M94.2178 205.692C94.2178 205.692 92.4929 209.022 94.2178 210.86C95.9426 212.699 96.8649 216.37 96.8649 216.37C96.8649 216.37 99.8593 213.495 98.3501 210.285C97.469 208.372 96.0281 206.77 94.2178 205.692Z" fill="#E0E0E0"/>
<path id="Path_15" d="M91.4868 205.776C91.0257 206.01 88.0432 210.022 87.8156 212.89C87.588 215.759 87.3545 220.675 87.8156 220.352C88.2768 220.028 91.6006 216.909 92.5169 213.926C93.4332 210.944 91.4868 205.776 91.4868 205.776Z" fill="#E0E0E0"/>
<path id="Path_16" d="M90.331 205.465C89.8758 205.579 85.5398 204.776 83.1023 207.86C81.4049 210.216 79.9804 212.758 78.8562 215.435C78.8562 215.435 85.1685 212.208 86.6418 210.435C88.1151 208.663 90.331 205.465 90.331 205.465Z" fill="#E0E0E0"/>
<path id="Path_17" d="M114.963 199.956C114.963 199.956 113.652 203.86 114.963 207.303C115.713 209.3 116.652 211.221 117.766 213.04C117.766 213.04 119.707 206.153 118.449 204.315C117.191 202.477 114.963 199.956 114.963 199.956Z" fill="#E0E0E0"/>
<path id="Path_18" d="M115.682 199.542C116.143 199.974 121.527 207.698 125.186 208.387C128.846 209.076 125.755 208.094 125.755 208.094C125.755 208.094 124.605 202.89 122.964 200.734C121.323 198.578 115.682 199.542 115.682 199.542Z" fill="#E0E0E0"/>
<path id="Path_19" d="M114.844 199.405C114.844 199.405 118.814 196.65 120.365 195.949C121.916 195.249 127.055 196.171 127.055 196.171C127.055 196.171 120.832 199.417 119.335 199.105C117.838 198.794 114.861 200.087 114.861 200.087" fill="#E0E0E0"/>
<path id="Path_20" d="M128.666 161.84C128.666 161.84 125.228 165.487 125.672 168.337C126.001 170.237 126.494 172.104 127.145 173.918L128.654 168.906L128.666 161.84Z" fill="#E0E0E0"/>
<path id="Path_21" d="M129.133 161.109C129.133 161.109 128.336 166.697 129.929 168.972C131.523 171.248 133.691 175.559 133.918 175.242C134.146 174.924 137.452 171.936 135.062 167.721C133.563 165.131 131.544 162.88 129.133 161.109Z" fill="#E0E0E0"/>
<path id="Path_22" d="M127.977 162.097C127.977 162.097 122.479 160.505 121.689 163.127C120.898 165.75 120.233 168.026 120.233 168.026C121.397 166.81 122.7 165.735 124.114 164.822C125.455 163.992 126.745 163.082 127.977 162.097Z" fill="#E0E0E0"/>
<path id="Path_23" d="M103.321 163.577L103.77 163.187C105.07 162.08 108.861 159.031 110.777 159.499C112.672 160.035 114.526 160.709 116.323 161.517C116.323 161.517 108.016 165.828 103.321 163.577Z" fill="#E0E0E0"/>
<path id="Path_24" d="M104.435 163.613C104.435 163.199 101.937 162.535 99.7274 164.81C97.5175 167.086 97.1821 168.493 97.1821 168.493C97.1821 168.493 104.279 167.547 104.435 163.613Z" fill="#E0E0E0"/>
<path id="Path_25" d="M104.063 164.074C104.063 164.074 101.536 166.978 103.465 169.828C105.393 172.679 107.058 175.415 107.058 175.415C107.653 173.572 107.653 171.588 107.058 169.745C106.366 167.708 105.355 165.794 104.063 164.074Z" fill="#E0E0E0"/>
<path id="Path_26" d="M113.49 171.307C113.376 170.613 114.292 164.924 106.764 165.487H106.076C106.076 165.487 109.669 171.296 110.501 173.122C110.996 174.366 111.797 175.464 112.831 176.314C113.718 177.11 113.604 172.002 113.49 171.307Z" fill="#E0E0E0"/>
<path id="Path_27" d="M114.945 199.704C115.04 197.907 114.39 196.15 113.149 194.848C113.035 194.722 112.867 194.596 112.717 194.668C112.622 194.729 112.555 194.826 112.532 194.937C112.259 195.994 112.41 197.116 112.951 198.063C113.498 198.997 114.185 199.841 114.987 200.566" fill="#E0E0E0"/>
<path id="Path_28" d="M93.7326 204.968C92.3674 202.487 90.2225 200.525 87.6299 199.387C87.4749 199.301 87.297 199.265 87.1208 199.285C86.8565 199.368 86.6722 199.607 86.6597 199.884C86.6512 200.45 86.8664 200.996 87.2586 201.405C88.9178 203.572 91.3434 205.022 94.038 205.459" fill="#E0E0E0"/>
<path id="Path_29" d="M123.893 196.566C123.893 196.566 123.509 196.566 122.815 196.674C121.842 196.802 120.888 197.05 119.976 197.411C118.623 197.949 117.348 198.666 116.185 199.542C114.774 200.636 113.438 201.823 112.184 203.093C109.447 205.758 107.034 208.225 105.363 210.082C104.531 211.01 103.866 211.771 103.411 212.303L102.878 212.902C102.758 213.04 102.692 213.112 102.68 213.106C102.722 213.02 102.775 212.94 102.836 212.866C102.949 212.723 103.111 212.501 103.327 212.232C103.758 211.681 104.399 210.896 105.219 209.95C106.86 208.058 109.256 205.555 111.993 202.896C113.252 201.612 114.603 200.421 116.035 199.333C117.224 198.453 118.527 197.742 119.91 197.219C120.842 196.872 121.817 196.652 122.809 196.566C123.076 196.551 123.344 196.551 123.611 196.566C123.705 196.556 123.799 196.556 123.893 196.566Z" fill="#E0E0E0"/>
<path id="Path_30" d="M102.536 211.459C102.494 211.489 102.045 210.711 101.069 209.663C98.4977 206.905 94.8158 205.461 91.0555 205.734C89.6301 205.83 88.7737 206.094 88.7617 206.046C88.9512 205.951 89.1527 205.882 89.3606 205.842C89.9123 205.696 90.4752 205.596 91.0435 205.543C94.8815 205.155 98.6712 206.64 101.225 209.531C101.607 209.957 101.951 210.416 102.255 210.902C102.371 211.076 102.466 211.263 102.536 211.459Z" fill="#E0E0E0"/>
<path id="Path_31" d="M104.016 163.535C104.021 163.59 104.021 163.647 104.016 163.702C104.016 163.822 104.016 163.984 103.974 164.181C103.932 164.619 103.872 165.235 103.794 166.02C103.632 167.613 103.399 169.924 103.141 172.781C102.638 178.487 102.039 186.398 102.051 195.147C102.063 203.896 102.692 211.806 103.135 217.519C103.369 220.364 103.554 222.675 103.686 224.292C103.746 225.077 103.794 225.693 103.83 226.13C103.83 226.328 103.83 226.49 103.86 226.61C103.868 226.665 103.868 226.722 103.86 226.777C103.845 226.724 103.835 226.67 103.83 226.615C103.83 226.49 103.83 226.334 103.776 226.136C103.728 225.699 103.662 225.082 103.584 224.298C103.423 222.705 103.195 220.394 102.944 217.537C102.452 211.824 101.806 203.914 101.746 195.147C101.686 186.38 102.345 178.47 102.944 172.763C103.225 169.906 103.489 167.601 103.68 166.008C103.78 165.209 103.858 164.599 103.914 164.175L103.986 163.696C103.987 163.641 103.997 163.587 104.016 163.535Z" fill="#E0E0E0"/>
<path id="Path_32" d="M121.18 178.937C120.917 179.007 120.648 179.049 120.377 179.062C119.862 179.116 119.114 179.218 118.197 179.362C113.41 180.131 108.799 181.754 104.584 184.152C103.776 184.608 103.135 184.997 102.692 185.278C102.473 185.436 102.238 185.57 101.991 185.679C102.193 185.498 102.409 185.333 102.638 185.188C103.057 184.883 103.692 184.47 104.489 183.991C108.681 181.492 113.332 179.863 118.167 179.2C119.096 179.08 119.844 179.008 120.365 178.985C120.635 178.945 120.907 178.929 121.18 178.937Z" fill="#E0E0E0"/>
<path id="Path_33" d="M102.596 176.398C102.566 176.297 102.542 176.195 102.524 176.092C102.482 175.859 102.434 175.565 102.368 175.206C102.303 174.738 102.211 174.274 102.093 173.817C101.955 173.284 101.853 172.661 101.62 172.02C101.512 171.691 101.404 171.343 101.29 170.984C101.177 170.625 101.015 170.266 100.871 169.882C100.59 169.116 100.194 168.337 99.7992 167.487C98.8695 165.727 97.7725 164.06 96.5233 162.511C94.1999 159.727 91.4963 157.284 88.4922 155.253C87.9352 154.84 87.3902 154.528 86.929 154.217C86.4679 153.905 86.0547 153.672 85.7313 153.474L84.9587 152.995C84.8671 152.946 84.7808 152.888 84.7012 152.822C84.8021 152.851 84.8987 152.893 84.9886 152.947L85.7792 153.373C86.1265 153.552 86.5458 153.78 87.0129 154.079C87.48 154.379 88.037 154.678 88.6119 155.079C91.6632 157.081 94.4 159.525 96.7329 162.331C97.9944 163.896 99.0959 165.583 100.021 167.367C100.416 168.146 100.77 168.946 101.081 169.763C101.219 170.152 101.386 170.511 101.488 170.882C101.59 171.254 101.704 171.595 101.806 171.93C101.982 172.535 102.128 173.149 102.243 173.769C102.352 174.23 102.43 174.698 102.476 175.17C102.518 175.535 102.554 175.829 102.578 176.062C102.602 176.172 102.608 176.286 102.596 176.398Z" fill="#E0E0E0"/>
<path id="Path_34" d="M129.528 161.577C129.438 161.632 129.342 161.676 129.241 161.708L128.396 162.026C127.66 162.289 126.6 162.69 125.306 163.223C121.929 164.576 118.636 166.128 115.442 167.87C112.258 169.631 109.182 171.58 106.231 173.709C105.093 174.523 104.189 175.2 103.572 175.679L102.854 176.224C102.772 176.29 102.683 176.349 102.59 176.398C102.59 176.398 102.662 176.314 102.818 176.176L103.506 175.577C104.105 175.074 104.992 174.38 106.118 173.529C111.975 169.161 118.408 165.622 125.234 163.014C126.54 162.517 127.63 162.139 128.354 161.906L129.217 161.636C129.318 161.606 129.423 161.586 129.528 161.577Z" fill="#E0E0E0"/>
<path id="Path_35" d="M113.634 252.449H92.0137L89.7559 226.041H116.167L113.634 252.449Z" fill="#E0E0E0"/>
<rect id="Rectangle" x="88.085" y="226.041" width="29.8368" height="4.06007" fill="#E0E0E0"/>
<path id="Path_36" d="M117.73 230.113C117.73 230.185 111.053 230.25 102.83 230.25C94.607 230.25 87.9233 230.185 87.9233 230.113C87.9233 230.041 94.595 229.975 102.83 229.975C111.064 229.975 117.73 230.035 117.73 230.113Z" fill="#EBEBEB"/>
<path id="Rectangle_2" d="M227.021 252.989L208.66 252.844L208.842 229.67L227.203 229.815L227.021 252.989Z" fill="#EBEBEB"/>
<path id="Path_37" d="M220.015 230.508L219.685 252.946L216.787 252.922L217.41 230.484L220.015 230.508Z" fill="#FAFAFA"/>
<path id="Path_38" d="M198.293 230.34L208.828 230.418L227.19 230.562L208.804 232.981L208.648 252.862L198.119 252.778L198.293 230.34Z" fill="#E0E0E0"/>
<path id="Path_39" d="M204.024 230.382L203.605 252.82L200.485 252.796L200.994 230.358L204.024 230.382Z" fill="#FAFAFA"/>
<path id="Path_40" d="M212.361 223.555C212.361 223.693 212.061 223.843 211.498 223.981C210.123 224.282 208.711 224.385 207.306 224.286C206.995 224.286 206.665 224.226 206.33 224.172C205.967 224.124 205.609 224.048 205.258 223.945C205.028 223.876 204.807 223.782 204.599 223.663C204.317 223.502 204.077 223.276 203.899 223.005C203.71 222.702 203.606 222.355 203.599 221.999C203.596 221.736 203.626 221.475 203.689 221.22C203.851 220.424 204.086 219.644 204.39 218.891C204.57 218.469 204.795 218.067 205.06 217.693C205.2 217.504 205.352 217.324 205.516 217.154C205.695 216.968 205.896 216.803 206.114 216.663C206.369 216.501 206.651 216.387 206.947 216.328C207.26 216.256 207.586 216.256 207.899 216.328C208.366 216.459 208.797 216.697 209.157 217.022C210.134 217.849 210.947 218.853 211.552 219.98C211.961 220.725 212.235 221.536 212.361 222.376C212.433 222.975 212.361 223.316 212.229 223.352C211.93 223.418 211.498 222.238 210.331 220.753C209.652 219.896 208.858 219.136 207.971 218.495C207.817 218.363 207.635 218.269 207.438 218.22C207.405 218.211 207.37 218.211 207.336 218.22C207.281 218.241 207.229 218.269 207.18 218.304C207.096 218.364 207.018 218.432 206.947 218.507C206.855 218.61 206.769 218.718 206.689 218.831C206.513 219.084 206.365 219.355 206.246 219.639C205.988 220.28 205.776 220.938 205.611 221.609C205.585 221.703 205.567 221.799 205.557 221.897H205.504C205.438 221.897 205.42 221.933 205.462 221.897L205.534 221.843C205.549 221.862 205.567 221.878 205.587 221.891C205.67 221.947 205.758 221.993 205.851 222.028C206.118 222.124 206.39 222.206 206.665 222.274C206.953 222.352 207.264 222.412 207.51 222.466C208.061 222.579 208.588 222.657 209.073 222.723C210.049 222.855 210.87 222.939 211.427 223.046C211.984 223.154 212.361 223.412 212.361 223.555Z" fill="#E0E0E0"/>
<path id="Path_41" d="M211.984 223.723C211.936 223.43 213.307 222.999 215.451 222.37C216.676 222.017 217.876 221.585 219.045 221.076C219.323 220.964 219.587 220.818 219.829 220.639C219.913 220.573 219.949 220.507 219.937 220.513C219.925 220.519 219.937 220.597 219.937 220.555C219.904 220.445 219.86 220.339 219.805 220.238C219.721 220.052 219.631 219.873 219.542 219.687C219.377 219.344 219.191 219.012 218.985 218.693C218.801 218.405 218.581 218.142 218.332 217.909C218.214 217.804 218.09 217.706 217.961 217.615C217.856 217.543 217.743 217.482 217.625 217.435C217.457 217.358 217.267 217.339 217.086 217.382C216.845 217.461 216.623 217.589 216.433 217.759C215.483 218.555 214.639 219.471 213.924 220.483C212.696 222.238 212.373 223.603 212.067 223.561C211.93 223.561 211.828 223.166 211.876 222.496C211.972 221.542 212.242 220.615 212.672 219.759C213.3 218.478 214.152 217.32 215.188 216.34C215.558 215.976 216.001 215.695 216.487 215.513C217.073 215.324 217.705 215.335 218.284 215.543C218.552 215.639 218.809 215.763 219.051 215.914C219.7 216.344 220.253 216.905 220.673 217.561C220.933 217.956 221.161 218.371 221.356 218.801L221.626 219.4C221.753 219.668 221.843 219.952 221.895 220.244C221.961 220.655 221.889 221.076 221.692 221.442C221.523 221.739 221.29 221.995 221.009 222.19C220.622 222.448 220.2 222.649 219.757 222.789C218.456 223.258 217.106 223.582 215.733 223.753C213.445 224.07 212.031 223.987 211.984 223.723Z" fill="#EBEBEB"/>
<path id="Rectangle_3" d="M221.947 230.515L194.956 230.303L195.016 222.632L222.007 222.844L221.947 230.515Z" fill="#E0E0E0"/>
<path id="Rectangle_4" d="M229.278 230.568L204.88 230.377L204.94 222.706L229.339 222.898L229.278 230.568Z" fill="#EBEBEB"/>
<path id="Path_42" d="M221.847 222.849L221.674 230.556L218.829 230.496L219.026 222.831L221.847 222.849Z" fill="#FAFAFA"/>
<path id="Path_43" d="M201.629 222.729L201.353 230.37L198.227 230.346L198.395 222.669L201.629 222.729Z" fill="#FAFAFA"/>
<path id="Rectangle_5" d="M239.39 252.991L228.988 252.91L229.091 239.778L239.494 239.859L239.39 252.991Z" fill="#EBEBEB"/>
<path id="Path_44" d="M235.412 240.257L235.227 252.97L233.586 252.958L233.939 240.245L235.412 240.257Z" fill="#FAFAFA"/>
<path id="Path_45" d="M223.105 240.161L229.076 240.203L239.479 240.287L229.064 241.658L228.974 252.922L223.009 252.874L223.105 240.161Z" fill="#E0E0E0"/>
<path id="Path_46" d="M226.351 240.185L226.117 252.898L224.345 252.886L224.632 240.173L226.351 240.185Z" fill="#FAFAFA"/>
<path id="Path_47" d="M231.076 236.317C231.076 236.508 230.394 236.742 229.202 236.844C228.47 236.902 227.734 236.842 227.022 236.664C226.678 236.572 226.378 236.36 226.177 236.065C226.054 235.874 225.987 235.652 225.986 235.424C225.982 235.263 226 235.102 226.04 234.945C226.132 234.487 226.266 234.038 226.441 233.604C226.548 233.359 226.68 233.126 226.836 232.909C227.011 232.67 227.231 232.467 227.483 232.31C227.813 232.098 228.215 232.029 228.597 232.119C228.881 232.202 229.142 232.347 229.363 232.544C229.93 233.025 230.396 233.613 230.735 234.275C231.298 235.412 231.214 236.215 231.034 236.245C230.855 236.275 230.543 235.646 229.872 234.831C229.482 234.365 229.033 233.95 228.537 233.598C228.464 233.537 228.378 233.494 228.285 233.472C228.27 233.479 228.255 233.489 228.243 233.502C228.15 233.576 228.069 233.665 228.004 233.766C227.91 233.901 227.83 234.045 227.764 234.197C227.625 234.552 227.509 234.916 227.417 235.287L227.387 235.418H227.291H227.213C227.171 235.418 227.165 235.418 227.213 235.418C227.251 235.393 227.286 235.363 227.315 235.329H227.345C227.382 235.356 227.422 235.379 227.465 235.394C228.05 235.587 228.652 235.727 229.262 235.814C230.346 235.981 231.076 236.107 231.076 236.317Z" fill="#E0E0E0"/>
<path id="Path_48" d="M230.861 236.412C230.825 236.191 231.597 235.891 232.795 235.502C233.478 235.283 234.148 235.025 234.801 234.73C234.944 234.674 235.077 234.597 235.197 234.502C235.233 234.502 235.233 234.454 235.197 234.502C235.171 234.55 235.158 234.604 235.161 234.658C235.089 234.514 235.017 234.37 234.951 234.221C234.859 234.036 234.757 233.856 234.646 233.682C234.551 233.534 234.438 233.4 234.31 233.281C234.214 233.185 234.103 233.106 233.981 233.047C233.928 233.016 233.867 233.006 233.807 233.017C233.693 233.047 233.588 233.104 233.502 233.185C232.971 233.617 232.495 234.112 232.082 234.658C231.37 235.604 231.13 236.353 230.885 236.323C230.639 236.293 230.519 235.4 231.1 234.095C231.449 233.344 231.934 232.663 232.532 232.089C232.759 231.862 233.033 231.686 233.334 231.574C233.711 231.448 234.119 231.448 234.496 231.574C234.661 231.636 234.819 231.714 234.969 231.807C235.103 231.892 235.23 231.988 235.346 232.095C235.576 232.301 235.778 232.536 235.945 232.795C236.098 233.028 236.232 233.272 236.346 233.526L236.502 233.861C236.578 234.032 236.634 234.211 236.67 234.394C236.713 234.676 236.663 234.964 236.526 235.215C236.418 235.409 236.267 235.575 236.083 235.7C235.851 235.861 235.597 235.988 235.328 236.077C234.577 236.339 233.797 236.51 233.005 236.586C231.705 236.718 230.897 236.616 230.861 236.412Z" fill="#E0E0E0"/>
<path id="Rectangle_6" d="M236.52 240.255L221.225 240.135L221.259 235.788L236.554 235.908L236.52 240.255Z" fill="#E0E0E0"/>
<path id="Rectangle_7" d="M240.671 240.283L226.849 240.175L226.883 235.827L240.705 235.936L240.671 240.283Z" fill="#EBEBEB"/>
<path id="Path_49" d="M236.448 235.915L236.352 240.281L234.741 240.251L234.855 235.903L236.448 235.915Z" fill="#FAFAFA"/>
<path id="Path_50" d="M224.998 235.849L224.842 240.179L223.069 240.161L223.165 235.814L224.998 235.849Z" fill="#FAFAFA"/>
<rect id="Rectangle_8" x="3.74902" width="79.2812" height="131.216" fill="#E0E0E0"/>
<rect id="Rectangle_9" x="1.11401" width="79.2812" height="131.216" fill="#EBEBEB"/>
<rect id="Rectangle_10" x="4.4917" y="2.66479" width="72.5257" height="125.892" fill="#FAFAFA"/>
<rect id="Rectangle_11" x="18.2961" y="19.0189" width="44.5994" height="93.1781" fill="#EBEBEB"/>
<path id="Path_51" d="M18.2963 79.2253C18.1945 70.5243 26.022 62.0269 34.64 60.8113C38.7484 60.2124 43.1203 61.0448 46.9592 59.4699C53.8165 56.6614 55.9965 47.5531 62.8957 44.8524L63.2071 112.197H18.2903L18.2963 79.2253Z" fill="#E0E0E0"/>
</g>
<g id="freepik--Device--inject-37">
<path id="Path_52" d="M234.981 209.938L111.442 209.884C107.623 209.878 104.531 206.78 104.531 202.962L104.626 19.6776C104.625 17.8411 105.354 16.0795 106.652 14.7809C107.951 13.4823 109.713 12.7535 111.55 12.7551L235.083 12.821C236.917 12.821 238.677 13.5497 239.974 14.8468C241.271 16.1439 242 17.9031 242 19.7375L241.898 203.022C241.898 206.841 238.801 209.938 234.981 209.938Z" fill="#263238"/>
<rect id="Rectangle_12" x="108.657" y="26.4084" width="128.708" height="164.619" fill="white"/>
<path id="Path_53" d="M178.488 200.003C178.484 202.914 176.122 205.271 173.211 205.267C170.301 205.264 167.944 202.902 167.947 199.992C167.95 197.081 170.313 194.724 173.223 194.728C174.621 194.728 175.962 195.284 176.95 196.274C177.937 197.263 178.491 198.605 178.488 200.003Z" fill="#455A64"/>
<rect id="Rectangle_13" x="152.627" y="18.4619" width="41.3714" height="2.17974" rx="0.732" fill="#455A64"/>
<path id="Path_54" d="M231.885 168.253C231.474 168.253 231.08 168.09 230.79 167.799C230.5 167.508 230.338 167.113 230.34 166.703L230.4 49.8347C230.399 49.4239 230.563 49.03 230.854 48.7401C231.145 48.4502 231.54 48.2881 231.951 48.2897C232.803 48.293 233.492 48.9828 233.496 49.8347L233.424 166.703C233.425 167.112 233.264 167.506 232.976 167.797C232.687 168.088 232.295 168.252 231.885 168.253Z" fill="#E0E0E0"/>
<path id="Path_55" d="M199.97 39.8761C199.97 39.966 188.028 40.0258 173.301 40.0199C158.574 40.0139 146.633 39.936 146.633 39.8522C146.633 39.7683 158.574 39.7025 173.301 39.7085C188.028 39.7144 199.97 39.8163 199.97 39.8761Z" fill="#263238"/>
<path id="Path_56" d="M121.162 42.8464H121.335H121.814L123.569 42.7984L123.515 42.8583C123.515 42.4631 123.515 42.0379 123.515 41.5768C123.515 41.3433 123.515 41.1217 123.515 40.8403C123.573 40.5457 123.816 40.3228 124.114 40.2893C124.402 40.2893 124.647 40.2893 124.959 40.2893C125.302 40.3372 125.558 40.6311 125.557 40.978C125.557 41.5768 125.557 42.1757 125.557 42.8404L125.468 42.7505H127.69L127.594 42.8464C127.594 41.9541 127.594 41.0499 127.594 40.0798C127.594 39.8462 127.594 39.6067 127.594 39.3731C127.574 39.1628 127.46 38.973 127.282 38.8581L126.312 37.9L125.378 36.9778C125.228 36.8221 125.072 36.6724 124.923 36.5287C124.773 36.385 124.647 36.2233 124.468 36.1874C124.296 36.1443 124.114 36.1793 123.97 36.2832C123.839 36.391 123.689 36.5526 123.557 36.6844L122.719 37.4209C122.216 37.9419 121.689 38.421 121.311 38.8641C121.204 39.1254 121.166 39.4104 121.204 39.6905C121.204 39.966 121.204 40.2235 121.204 40.475C121.204 40.9481 121.204 41.3672 121.204 41.7325C121.204 42.0978 121.204 42.3314 121.204 42.541C121.212 42.6386 121.212 42.7368 121.204 42.8344C121.196 42.7447 121.196 42.6546 121.204 42.5649C121.204 42.3493 121.204 42.0858 121.204 41.7744V40.4989C121.204 40.2474 121.204 39.9839 121.204 39.7025V39.2653C121.203 39.1013 121.247 38.9401 121.329 38.7983C121.743 38.2893 122.234 37.8461 122.737 37.3072L123.527 36.4987C123.663 36.3496 123.807 36.2077 123.958 36.0736C124.145 35.9325 124.385 35.884 124.611 35.9418C124.824 36.0181 125.011 36.1531 125.15 36.3311L125.605 36.7742L126.546 37.6964L127.516 38.6545C127.73 38.8039 127.866 39.0411 127.887 39.3013C127.887 39.5408 127.887 39.7744 127.887 40.0139C127.887 40.96 127.887 41.8882 127.887 42.7805V42.8763H127.791H125.569H125.48V42.8104C125.48 42.1637 125.48 41.5469 125.48 40.9481C125.489 40.6869 125.301 40.4604 125.042 40.4211C124.791 40.4211 124.485 40.4211 124.24 40.4211C124.006 40.4429 123.813 40.6157 123.767 40.8463C123.767 41.0678 123.767 41.3313 123.767 41.5529V42.8883H123.713H121.916H121.455L121.162 42.8464Z" fill="#263238"/>
<path id="Shape" fill-rule="evenodd" clip-rule="evenodd" d="M222.955 36.864C222.98 36.865 223.004 36.8758 223.021 36.894C223.03 36.9043 223.036 36.9166 223.039 36.9299L222.799 38.2234L222.356 40.6187C222.348 40.6612 222.31 40.6914 222.266 40.6906L216.242 40.6127L216.373 41.6247L222.111 41.7026C222.248 41.7086 222.314 41.7146 222.314 41.8044C222.314 41.8942 222.248 41.8942 222.111 41.8942H220.506H216.23C216.207 41.8959 216.185 41.8886 216.169 41.874C216.152 41.8593 216.141 41.8386 216.14 41.8164L215.397 36.0796H214.068C213.954 36.0796 213.876 36.0796 213.876 35.9838C213.876 35.8879 213.954 35.8879 214.068 35.8879H215.523C215.566 35.8904 215.601 35.9231 215.607 35.9658L215.691 36.5646L215.727 36.864H217.715H222.955ZM222.752 37.1215L215.756 37.0257L216.236 40.475H217.859H222.153L222.752 37.1215Z" fill="#263238"/>
<path id="Shape_2" fill-rule="evenodd" clip-rule="evenodd" d="M217.607 42.8523C217.731 42.9556 217.817 43.0966 217.853 43.2536C217.861 43.3091 217.863 43.3653 217.859 43.4212C217.868 43.4767 217.868 43.5334 217.859 43.5889C217.826 43.747 217.737 43.8877 217.607 43.9841C217.482 44.0816 217.328 44.1343 217.17 44.1338C217.088 44.1341 217.007 44.1199 216.93 44.0919C216.644 43.9897 216.454 43.7189 216.454 43.4152C216.454 43.1116 216.644 42.8407 216.93 42.7386C217.16 42.6559 217.417 42.699 217.607 42.8523ZM216.695 43.4093C216.695 43.6066 216.817 43.7833 217.002 43.8524L216.978 43.8584C217.14 43.9172 217.32 43.8853 217.451 43.7745C217.54 43.7085 217.605 43.6163 217.637 43.5111C217.643 43.4796 217.644 43.4473 217.638 43.4157C217.641 43.3857 217.641 43.3554 217.637 43.3254C217.605 43.2202 217.54 43.1279 217.451 43.0619C217.368 43.0009 217.267 42.9674 217.164 42.9661C217.11 42.9576 217.056 42.9576 217.002 42.9661C216.817 43.0352 216.695 43.2119 216.695 43.4093Z" fill="#263238"/>
<path id="Shape_3" fill-rule="evenodd" clip-rule="evenodd" d="M221.422 42.8883C221.547 42.9864 221.633 43.1269 221.662 43.2835C221.675 43.3383 221.679 43.395 221.674 43.4512C221.683 43.5067 221.683 43.5633 221.674 43.6188C221.641 43.7769 221.552 43.9176 221.422 44.0141C221.297 44.1115 221.143 44.1643 220.985 44.1638C220.903 44.164 220.822 44.1498 220.745 44.1218C220.459 44.0197 220.269 43.7488 220.269 43.4452C220.269 43.1415 220.459 42.8707 220.745 42.7685C220.976 42.685 221.234 42.7306 221.422 42.8883ZM220.518 43.4332C220.516 43.6302 220.635 43.8084 220.817 43.8823L220.847 43.8883C220.998 43.9432 221.167 43.9184 221.296 43.8224C221.386 43.7577 221.451 43.665 221.482 43.5589C221.488 43.5253 221.488 43.4908 221.482 43.4571C221.472 43.3111 221.397 43.1772 221.278 43.0919C221.195 43.0308 221.094 42.9973 220.991 42.996C220.937 42.9875 220.883 42.9875 220.829 42.996C220.644 43.0616 220.519 43.2364 220.518 43.4332Z" fill="#263238"/>
<path id="Shape_4" fill-rule="evenodd" clip-rule="evenodd" d="M139.877 174.745C140.907 174.745 141.506 174.23 141.506 173.385C141.512 172.529 140.895 172.014 139.865 172.014H138.374V176.002H138.799V174.745H139.877ZM139.889 172.379C140.668 172.379 141.087 172.745 141.087 173.385C141.087 174.008 140.668 174.374 139.859 174.374H138.799V172.379H139.889Z" fill="#263238"/>
<path id="Path_57" d="M145.093 173.008V176.002H144.71V175.457C144.489 175.841 144.075 176.071 143.632 176.056C143.284 176.089 142.939 175.963 142.694 175.713C142.449 175.464 142.329 175.117 142.368 174.769V173.032H142.776V174.727C142.734 174.981 142.812 175.241 142.988 175.43C143.164 175.618 143.417 175.715 143.674 175.691C143.961 175.705 144.24 175.592 144.436 175.382C144.632 175.172 144.726 174.886 144.692 174.601V173.032L145.093 173.008Z" fill="#263238"/>
<path id="Path_58" d="M147.735 172.99V173.356H147.639C147.348 173.34 147.067 173.455 146.87 173.67C146.674 173.885 146.585 174.176 146.627 174.463V175.984H146.225V172.99H146.615V173.589C146.833 173.182 147.275 172.945 147.735 172.99Z" fill="#263238"/>
<path id="Path_59" d="M148.13 174.505C148.118 174.095 148.277 173.697 148.571 173.41C148.864 173.122 149.264 172.97 149.675 172.99C150.154 172.954 150.614 173.184 150.873 173.589L150.567 173.793C150.372 173.507 150.045 173.34 149.699 173.35C149.088 173.393 148.615 173.902 148.615 174.514C148.615 175.127 149.088 175.635 149.699 175.679C150.045 175.694 150.374 175.529 150.567 175.242L150.873 175.451C150.61 175.852 150.153 176.081 149.675 176.05C149.26 176.069 148.855 175.913 148.561 175.619C148.267 175.325 148.111 174.921 148.13 174.505Z" fill="#263238"/>
<path id="Path_60" d="M154.37 174.272V176.008H153.969V174.314C154.006 174.061 153.926 173.804 153.751 173.618C153.576 173.431 153.326 173.334 153.071 173.356C152.781 173.335 152.498 173.443 152.296 173.65C152.093 173.858 151.993 174.145 152.022 174.433V176.008H151.615V171.781H151.975V173.535C152.226 173.169 152.651 172.963 153.094 172.99C153.445 172.949 153.795 173.071 154.044 173.321C154.293 173.571 154.413 173.922 154.37 174.272Z" fill="#263238"/>
<path id="Shape_5" fill-rule="evenodd" clip-rule="evenodd" d="M157.712 176.008V174.152C157.746 173.823 157.625 173.496 157.384 173.269C157.144 173.041 156.811 172.938 156.484 172.99C156.05 172.984 155.627 173.127 155.286 173.397L155.466 173.697C155.745 173.465 156.098 173.34 156.46 173.344C157.023 173.344 157.311 173.625 157.311 174.134V174.32H156.358C155.502 174.32 155.203 174.643 155.203 175.164C155.203 175.685 155.622 176.038 156.299 176.038C156.707 176.072 157.101 175.882 157.329 175.541V176.008H157.712ZM157.305 174.619V175.11C157.154 175.499 156.769 175.746 156.353 175.721C155.873 175.721 155.598 175.469 155.598 175.158C155.598 174.847 155.766 174.619 156.364 174.619H157.305Z" fill="#263238"/>
<path id="Path_61" d="M158.395 175.667L158.574 175.35C158.885 175.572 159.259 175.689 159.64 175.685C160.209 175.685 160.443 175.493 160.443 175.2C160.443 174.415 158.503 175.032 158.503 173.847C158.503 173.356 158.922 172.996 159.7 172.996C160.07 172.991 160.435 173.086 160.754 173.272L160.581 173.601C160.321 173.426 160.013 173.336 159.7 173.344C159.155 173.344 158.916 173.553 158.916 173.835C158.916 174.643 160.856 174.038 160.856 175.188C160.856 175.703 160.401 176.038 159.623 176.038C159.183 176.057 158.75 175.926 158.395 175.667Z" fill="#263238"/>
<path id="Shape_6" fill-rule="evenodd" clip-rule="evenodd" d="M161.695 174.643H164.198C164.198 174.595 164.204 174.553 164.222 174.517C164.222 173.714 163.571 173.062 162.767 173.062C161.963 173.062 161.312 173.714 161.312 174.517C161.333 175.153 161.735 175.714 162.33 175.941C162.925 176.167 163.597 176.014 164.036 175.553L163.809 175.29C163.576 175.548 163.241 175.693 162.893 175.685C162.595 175.708 162.301 175.611 162.075 175.415C161.85 175.219 161.713 174.941 161.695 174.643ZM163.821 174.338H161.695C161.737 173.781 162.2 173.352 162.758 173.352C163.316 173.352 163.779 173.781 163.821 174.338Z" fill="#263238"/>
<path id="Path_62" d="M170.918 173.02L169.786 176.014H169.402L168.462 173.559L167.516 176.014H167.133L166.007 173.02H166.396L167.33 175.565L168.294 173.02H168.642L169.6 175.565L170.552 173.02H170.918Z" fill="#263238"/>
<path id="Shape_7" fill-rule="evenodd" clip-rule="evenodd" d="M173.696 176.02V174.164C173.733 173.834 173.612 173.506 173.371 173.278C173.13 173.05 172.796 172.948 172.469 173.002C172.035 172.994 171.612 173.136 171.271 173.403L171.451 173.709C171.728 173.475 172.081 173.349 172.445 173.356C173.008 173.356 173.295 173.631 173.295 174.146V174.326H172.343C171.486 174.326 171.187 174.661 171.187 175.176C171.187 175.691 171.6 176.044 172.283 176.044C172.69 176.078 173.083 175.891 173.313 175.553V176.02H173.696ZM173.295 174.631V175.116C173.143 175.512 172.748 175.761 172.325 175.727C171.846 175.727 171.57 175.469 171.57 175.164C171.57 174.859 171.738 174.631 172.337 174.631H173.295Z" fill="#263238"/>
<path id="Path_63" d="M174.379 175.679L174.565 175.362C174.875 175.584 175.249 175.701 175.631 175.697C176.2 175.697 176.433 175.499 176.433 175.206C176.433 174.427 174.493 175.038 174.493 173.859C174.493 173.367 174.912 173.002 175.691 173.002C176.061 172.997 176.426 173.094 176.745 173.284L176.571 173.607C176.31 173.431 176 173.341 175.685 173.35C175.146 173.35 174.906 173.559 174.906 173.847C174.906 174.655 176.847 174.044 176.847 175.194C176.847 175.715 176.391 176.05 175.613 176.05C175.172 176.065 174.739 175.934 174.379 175.679H174.379Z" fill="#263238"/>
<path id="Path_64" d="M178.661 175.679L178.841 175.362C179.153 175.582 179.525 175.699 179.907 175.697C180.476 175.697 180.71 175.505 180.71 175.206C180.71 174.427 178.769 175.044 178.769 173.859C178.769 173.367 179.188 173.002 179.967 173.002C180.337 172.998 180.702 173.096 181.021 173.284L180.847 173.607C180.586 173.435 180.28 173.345 179.967 173.35C179.422 173.35 179.182 173.565 179.182 173.847C179.182 174.655 181.129 174.044 181.123 175.2C181.123 175.715 180.668 176.05 179.889 176.05C179.45 176.065 179.019 175.935 178.661 175.679Z" fill="#263238"/>
<path id="Path_65" d="M184.56 173.032V176.026H184.171V175.475C183.95 175.859 183.535 176.089 183.093 176.074C182.745 176.107 182.4 175.981 182.155 175.731C181.909 175.482 181.79 175.135 181.829 174.787V173.05H182.237V174.751C182.199 175.004 182.279 175.26 182.454 175.447C182.629 175.633 182.88 175.73 183.135 175.709C183.422 175.725 183.701 175.614 183.897 175.405C184.093 175.195 184.187 174.91 184.153 174.625V173.056L184.56 173.032Z" fill="#263238"/>
<path id="Path_66" d="M185.393 174.553C185.379 174.143 185.537 173.745 185.83 173.456C186.122 173.167 186.522 173.014 186.932 173.032C187.411 172.996 187.871 173.226 188.13 173.631L187.83 173.835C187.632 173.55 187.303 173.383 186.956 173.391C186.411 173.516 186.024 174 186.024 174.559C186.024 175.118 186.411 175.603 186.956 175.727C187.302 175.738 187.631 175.573 187.83 175.29L188.13 175.493C187.868 175.894 187.41 176.123 186.932 176.092C186.518 176.111 186.116 175.955 185.823 175.662C185.53 175.369 185.374 174.967 185.393 174.553Z" fill="#263238"/>
<path id="Path_67" d="M188.543 174.553C188.531 174.142 188.691 173.744 188.984 173.456C189.277 173.167 189.677 173.014 190.088 173.032C190.567 172.999 191.025 173.228 191.286 173.631L190.981 173.841C190.788 173.551 190.46 173.381 190.112 173.391C189.567 173.516 189.18 174 189.18 174.559C189.18 175.118 189.567 175.603 190.112 175.727C190.457 175.739 190.785 175.574 190.981 175.29L191.286 175.493C191.025 175.895 190.566 176.124 190.088 176.092C189.674 176.109 189.272 175.953 188.979 175.66C188.686 175.368 188.528 174.967 188.543 174.553Z" fill="#263238"/>
<path id="Shape_8" fill-rule="evenodd" clip-rule="evenodd" d="M192.1 174.655H194.61C194.61 174.613 194.616 174.553 194.616 174.553C194.648 174.155 194.511 173.761 194.239 173.469C193.967 173.176 193.584 173.011 193.184 173.014C192.785 173.007 192.4 173.166 192.122 173.453C191.844 173.74 191.697 174.13 191.717 174.529C191.742 175.163 192.143 175.722 192.736 175.948C193.329 176.175 194 176.027 194.442 175.571L194.215 175.308C193.98 175.564 193.646 175.706 193.298 175.697C193 175.723 192.704 175.627 192.478 175.431C192.252 175.234 192.116 174.954 192.1 174.655ZM194.226 174.356H192.106C192.106 173.77 192.581 173.296 193.166 173.296C193.752 173.296 194.226 173.77 194.226 174.356Z" fill="#263238"/>
<path id="Path_68" d="M195.023 175.691L195.209 175.368C195.517 175.591 195.888 175.71 196.269 175.709C196.868 175.709 197.071 175.511 197.071 175.218C197.071 174.439 195.131 175.05 195.131 173.865C195.131 173.379 195.556 173.014 196.329 173.014C196.701 173.008 197.068 173.105 197.389 173.296L197.215 173.619C196.944 173.434 196.62 173.341 196.293 173.356C195.754 173.356 195.514 173.565 195.514 173.847C195.514 174.661 197.454 174.05 197.454 175.2C197.454 175.715 196.999 176.056 196.221 176.05C195.793 176.06 195.374 175.935 195.023 175.691H195.023Z" fill="#263238"/>
<path id="Path_69" d="M197.808 175.691L197.994 175.374C198.303 175.595 198.674 175.712 199.054 175.709C199.623 175.709 199.856 175.511 199.856 175.218C199.856 174.439 197.916 175.05 197.916 173.871C197.916 173.379 198.341 173.014 199.113 173.014C199.486 173.008 199.853 173.105 200.173 173.296L200 173.619C199.737 173.447 199.428 173.357 199.113 173.362C198.574 173.362 198.335 173.571 198.335 173.859C198.335 174.667 200.275 174.056 200.275 175.206C200.275 175.727 199.82 176.062 199.042 176.062C198.601 176.077 198.167 175.946 197.808 175.691Z" fill="#263238"/>
<path id="Path_70" d="M201.473 172.685V173.038H202.395V173.356H201.485V176.008H201.084V173.356H200.551V173.014H201.084V172.643C201.065 172.399 201.155 172.16 201.329 171.989C201.504 171.818 201.745 171.733 201.988 171.757C202.204 171.749 202.416 171.817 202.587 171.948L202.449 172.248C202.324 172.147 202.167 172.094 202.006 172.098C201.683 172.122 201.473 172.314 201.473 172.685Z" fill="#263238"/>
<path id="Path_71" d="M205.641 173.044V176.038H205.276V175.487C205.055 175.871 204.64 176.101 204.198 176.086C203.85 176.119 203.505 175.993 203.26 175.743C203.014 175.494 202.895 175.146 202.934 174.799V173.062H203.342V174.763C203.304 175.016 203.384 175.272 203.559 175.459C203.734 175.645 203.985 175.742 204.24 175.721C204.527 175.737 204.806 175.626 205.002 175.416C205.198 175.207 205.292 174.922 205.258 174.637V173.068L205.641 173.044Z" fill="#263238"/>
<path id="Path_72" d="M206.773 171.811H207.181V176.038H206.779L206.773 171.811Z" fill="#263238"/>
<path id="Path_73" d="M147.902 162.169H145.758V161.151H151.256V162.169H149.106V167.631H147.908L147.902 162.169Z" fill="#FFC100"/>
<path id="Path_74" d="M156.922 164.798V167.631H155.766V164.972C155.766 164.092 155.329 163.666 154.568 163.666C154.177 163.643 153.795 163.796 153.529 164.084C153.262 164.371 153.138 164.763 153.191 165.152V167.655H152.035V160.78H153.191V163.277C153.628 162.848 154.225 162.62 154.837 162.648C156.041 162.63 156.922 163.307 156.922 164.798Z" fill="#FFC100"/>
<path id="Shape_9" fill-rule="evenodd" clip-rule="evenodd" d="M162.533 167.631V164.732C162.533 163.307 161.707 162.63 160.281 162.648C159.538 162.619 158.806 162.829 158.191 163.247L158.646 164.092C159.077 163.766 159.604 163.593 160.144 163.601C160.97 163.601 161.377 163.996 161.377 164.672V164.75H160.096C158.598 164.75 158.042 165.331 158.042 166.217C158.042 167.104 158.754 167.703 159.886 167.703C160.484 167.763 161.071 167.509 161.437 167.032V167.631H162.533ZM161.377 165.487V166.086C161.159 166.573 160.658 166.87 160.126 166.828C159.533 166.828 159.179 166.511 159.179 166.146C159.179 165.78 159.395 165.487 160.18 165.487H161.377Z" fill="#FFC100"/>
<path id="Path_75" d="M168.881 164.798V167.631H167.726V164.972C167.726 164.092 167.288 163.666 166.528 163.666C166.135 163.641 165.752 163.794 165.484 164.081C165.216 164.369 165.091 164.762 165.144 165.152V167.655H164.012V162.708H165.114V163.349C165.55 162.872 166.177 162.617 166.821 162.654C168.007 162.63 168.881 163.307 168.881 164.798Z" fill="#FFC100"/>
<path id="Path_76" d="M172.373 165.511L171.511 166.325V167.631H170.355V160.78H171.511V164.924L173.906 162.702H175.332L173.265 164.78L175.523 167.649H174.116L172.373 165.511Z" fill="#FFC100"/>
<path id="Path_77" d="M183.429 162.684L181.111 168.026C180.662 169.152 180.033 169.493 179.206 169.493C178.725 169.502 178.256 169.341 177.883 169.038L178.344 168.188C178.575 168.403 178.878 168.525 179.194 168.529C179.602 168.529 179.847 168.331 180.069 167.846L180.153 167.649L177.991 162.684H179.188L180.746 166.343L182.309 162.684H183.429Z" fill="#FFC100"/>
<path id="Shape_10" fill-rule="evenodd" clip-rule="evenodd" d="M185.162 162.655C184.18 163.093 183.563 164.083 183.602 165.158C183.588 165.851 183.863 166.519 184.362 167.001C184.861 167.483 185.539 167.735 186.231 167.697C187.306 167.698 188.274 167.047 188.678 166.051C189.081 165.055 188.839 163.913 188.066 163.166C187.293 162.42 186.144 162.218 185.162 162.655ZM186.19 163.769C186.989 163.742 187.662 164.36 187.705 165.158C187.735 165.563 187.592 165.963 187.312 166.258C187.031 166.552 186.638 166.714 186.231 166.703C185.432 166.698 184.783 166.055 184.772 165.256C184.761 164.457 185.391 163.796 186.19 163.769Z" fill="#FFC100"/>
<path id="Path_78" d="M194.771 162.684V167.631H193.669V167.002C193.27 167.461 192.685 167.716 192.076 167.697C190.807 167.697 189.944 167.002 189.944 165.511V162.684H191.1V165.355C191.1 166.253 191.531 166.679 192.262 166.679C192.65 166.695 193.026 166.538 193.286 166.25C193.547 165.961 193.665 165.572 193.61 165.187V162.684L194.771 162.684Z" fill="#FFC100"/>
<path id="Shape_11" fill-rule="evenodd" clip-rule="evenodd" d="M197.49 161.151H196.137L196.34 165.481H197.263L197.49 161.151ZM196.3 166.457C196.159 166.591 196.078 166.777 196.077 166.972C196.075 167.169 196.154 167.358 196.296 167.495C196.437 167.632 196.629 167.705 196.826 167.697C197.222 167.697 197.544 167.375 197.544 166.978C197.544 166.581 197.222 166.259 196.826 166.259C196.631 166.251 196.441 166.323 196.3 166.457Z" fill="#FFC100"/>
</g>
<g id="freepik--character-2--inject-37">
<path id="Path_79" d="M188.13 64.1288L186.381 88.9204C186.101 92.9671 182.736 96.1066 178.679 96.1063C176.542 96.1077 174.501 95.2235 173.04 93.6642C171.579 92.105 170.83 90.0102 170.971 87.8784C171.127 85.519 171.265 83.5908 171.265 83.5908C171.265 83.5908 165.276 82.6566 165.192 76.6623C165.15 73.201 165.749 65.3444 166.264 59.2962C166.612 55.2301 170.016 52.1078 174.098 52.1102H177.727C180.715 52.2868 183.505 53.6627 185.463 55.9256C187.422 58.1886 188.384 61.1468 188.13 64.1288Z" fill="#FFBE9D"/>
<path id="Path_80" d="M171.265 83.5608C174.027 83.5491 176.728 82.7493 179.051 81.2553C179.051 81.2553 177.128 85.6148 171.139 85.0759L171.265 83.5608Z" fill="#EB996E"/>
<path id="Path_81" d="M167.384 65.021C167.492 65.1288 168.145 64.6498 169.061 64.6557C169.977 64.6617 170.66 65.1168 170.762 65.0031C170.864 64.8893 170.702 64.7516 170.409 64.536C170.008 64.2618 169.534 64.1157 169.049 64.1168C168.57 64.1163 168.102 64.2671 167.713 64.548C167.432 64.7695 167.336 64.9671 167.384 65.021Z" fill="#263238"/>
<path id="Path_82" d="M175.601 67.578C175.597 68.0418 175.964 68.4241 176.427 68.4404C176.647 68.4551 176.863 68.3819 177.028 68.237C177.193 68.092 177.294 67.8872 177.308 67.6679C177.314 67.2028 176.946 66.8186 176.481 66.8055C176.261 66.7874 176.043 66.8594 175.877 67.0051C175.711 67.1507 175.611 67.3575 175.601 67.578Z" fill="#263238"/>
<path id="Path_83" d="M167.372 67.578C167.369 68.0418 167.735 68.4242 168.199 68.4404C168.419 68.4568 168.637 68.3844 168.803 68.2392C168.97 68.0941 169.071 67.8883 169.085 67.6679C169.088 67.2041 168.722 66.8218 168.258 66.8055C168.038 66.7874 167.819 66.8593 167.652 67.0047C167.485 67.1502 167.384 67.357 167.372 67.578Z" fill="#263238"/>
<path id="Path_84" d="M176.284 65.1408C176.391 65.2546 177.044 64.7755 177.96 64.7755C178.877 64.7755 179.559 65.2426 179.661 65.1288C179.763 65.015 179.601 64.8773 179.302 64.6617C178.905 64.3849 178.432 64.2384 177.948 64.2425C177.469 64.242 177.002 64.3929 176.613 64.6737C176.331 64.8893 176.236 65.0929 176.284 65.1408Z" fill="#263238"/>
<path id="Path_85" d="M173.008 72.3088C172.522 72.1566 172.019 72.0661 171.51 72.0393C171.277 72.0393 171.055 71.9675 171.013 71.8058C170.994 71.5638 171.048 71.3215 171.169 71.1111L171.87 69.3146C172.834 66.7636 173.535 64.6677 173.427 64.6258C173.319 64.5839 172.457 66.6259 171.492 69.1769C171.259 69.8057 171.037 70.4045 170.828 70.9734C170.679 71.2564 170.634 71.583 170.702 71.8956C170.772 72.0648 170.915 72.1927 171.091 72.2429C171.222 72.2766 171.357 72.2947 171.492 72.2968C171.995 72.3649 172.504 72.369 173.008 72.3088Z" fill="#263238"/>
<path id="Path_86" d="M175.721 72.9495C175.571 72.9495 175.571 73.9376 174.714 74.6502C173.858 75.3628 172.792 75.249 172.786 75.3868C172.78 75.5245 173.02 75.5844 173.469 75.5964C174.055 75.6042 174.626 75.4049 175.08 75.0335C175.514 74.6762 175.795 74.1662 175.864 73.6083C175.93 73.1891 175.786 72.9436 175.721 72.9495Z" fill="#263238"/>
<path id="Path_87" d="M176.343 61.8053C176.433 62.0508 177.355 61.937 178.433 62.0628C179.511 62.1886 180.392 62.488 180.536 62.2664C180.595 62.1586 180.446 61.9191 180.092 61.6676C179.624 61.3648 179.09 61.178 178.535 61.1226C177.983 61.0546 177.422 61.1203 176.9 61.3143C176.529 61.4879 176.301 61.6855 176.343 61.8053Z" fill="#263238"/>
<path id="Path_88" d="M167.246 62.2365C167.408 62.4461 168.043 62.2365 168.804 62.2365C169.564 62.2365 170.217 62.3802 170.361 62.1586C170.427 62.0508 170.325 61.8412 170.043 61.6436C169.268 61.1593 168.277 61.1901 167.534 61.7215C167.264 61.9191 167.175 62.1347 167.246 62.2365Z" fill="#263238"/>
<path id="Path_89" d="M186.111 68.632C186.213 68.5841 190.232 67.4343 190.1 71.5123C189.968 75.5904 185.878 74.6322 185.878 74.5065C185.878 74.3807 186.111 68.632 186.111 68.632Z" fill="#FFBE9D"/>
<path id="Path_90" d="M187.177 73.0034C187.177 73.0034 187.249 73.0514 187.363 73.1112C187.53 73.1905 187.721 73.2013 187.896 73.1412C188.448 72.8198 188.781 72.2229 188.765 71.5842C188.787 71.2332 188.732 70.8815 188.603 70.5542C188.54 70.2803 188.344 70.0559 188.082 69.9554C187.912 69.907 187.732 69.9846 187.651 70.141C187.597 70.2548 187.621 70.3327 187.597 70.3386C187.573 70.3446 187.513 70.2728 187.549 70.0991C187.576 69.9994 187.635 69.9112 187.716 69.8476C187.835 69.7713 187.978 69.7394 188.118 69.7578C188.456 69.8391 188.729 70.0876 188.842 70.4165C189.003 70.7774 189.075 71.1717 189.052 71.5663C188.998 72.3926 188.555 73.1532 187.956 73.3029C187.731 73.3624 187.49 73.3161 187.303 73.1771C187.183 73.0993 187.165 73.0094 187.177 73.0034Z" fill="#EB996E"/>
<path id="Path_91" d="M188.387 68.4882C187.594 68.4353 186.836 68.8246 186.417 69.5003C186.147 70.0991 186.093 70.7518 185.818 71.3327C185.603 71.9604 184.988 72.3606 184.327 72.3028C183.895 72.1663 183.569 71.8104 183.47 71.3686C183.386 70.9315 183.386 70.4824 183.47 70.0452C183.716 68.129 184.117 66.2307 184.195 64.3024C184.354 62.3685 183.937 60.4308 182.997 58.7333C181.985 57.0925 180.123 55.8829 178.206 56.0386C176.93 56.1404 175.763 56.8051 174.499 56.9787C172.972 57.1815 171.436 56.669 170.337 55.5894C170.199 55.4577 169.558 55.0325 169.558 55.0325C169.578 54.5769 169.728 54.1365 169.989 53.763C172.505 51.4455 177.026 50.7688 180.344 51.6312C183.758 52.4676 186.631 54.7656 188.196 57.9129C189.621 61.0208 189.202 65.3444 188.411 68.4882" fill="#263238"/>
<path id="Path_92" d="M165.605 58.2123C166.243 59.4405 167.481 60.2415 168.863 60.3202C170.223 60.3748 171.58 60.1716 172.864 59.7214C174.884 59.2185 176.948 58.9136 179.026 58.8112C179.23 58.8112 179.47 58.8112 179.577 58.6435C179.685 58.4758 179.494 58.1405 179.284 57.9788C177.487 56.5775 173.175 55.7152 170.9 55.6254C168.59 55.4697 166.366 56.524 165.024 58.4099" fill="#263238"/>
<path id="Path_93" d="M166.192 58.38C167.422 57.2383 168.99 56.5297 170.66 56.3619C175.846 55.9188 184.351 57.5117 188.812 66.4403C189.31 64.9019 189.624 63.3098 189.747 61.6975C189.747 60.4999 189.016 53.2181 181.548 50.9186C181.548 50.9186 170.289 46.6249 166.192 58.38Z" fill="#FFC100"/>
<g id="Group" opacity="0.4">
<path id="Path_94" d="M166.192 58.38C167.502 57.0001 169.298 56.1858 171.199 56.1104C175.834 55.9008 184.608 58.0267 188.812 66.4403C189.31 64.9019 189.624 63.3098 189.747 61.6975C189.747 60.4999 189.016 53.2181 181.548 50.9186C181.548 50.9186 170.289 46.6249 166.192 58.38Z" fill="black"/>
</g>
<path id="Path_95" d="M188.118 65.1588C185.878 61.3742 182.518 58.8052 178.925 56.5476C175.331 54.29 169.342 52.0504 165.21 50.9605C163.992 50.558 162.701 50.4212 161.425 50.5593C160.126 50.7246 159.035 51.6176 158.616 52.8588C158.221 54.4157 160.982 56.8111 162.275 57.7512C163.544 58.5988 164.857 59.3764 166.21 60.0807C166.21 60.0807 166.174 57.1883 170.792 56.6015C177.062 55.811 188.303 65.3204 188.118 65.1588Z" fill="#FFC100"/>
<path id="Path_96" d="M179.739 53.9067C177.093 52.4196 174.089 51.6903 171.055 51.7988C171.485 51.6643 171.934 51.6015 172.385 51.6132C174.57 51.5436 176.733 52.0694 178.643 53.1342C179.048 53.3305 179.418 53.5914 179.739 53.9067Z" fill="white"/>
<path id="Path_97" d="M210.696 151.606C210.696 151.69 195.364 151.762 176.451 151.762C157.538 151.762 142.207 151.69 142.207 151.606C142.207 151.522 157.538 151.45 176.451 151.45C195.364 151.45 210.696 151.522 210.696 151.606Z" fill="#263238"/>
<path id="Path_98" d="M147.183 102.61L138.368 106.592L124.689 95.4416L120.497 102.029C120.497 102.029 128.282 111.041 131.175 114.107C134.068 117.173 135.966 118.802 138.26 118.509C140.554 118.215 153.526 112.095 153.526 112.095C153.526 112.095 150.459 102.993 147.183 102.61Z" fill="#FFBE9D"/>
<path id="Path_99" d="M109.675 89.8186C109.675 89.8186 111.394 91.1121 112.52 91.0163C113.646 90.9205 117.91 90.9145 118.215 90.9384C118.521 90.9624 122.683 93.22 122.683 93.22L125.725 96.1423L120.934 102.777C120.934 102.777 120.149 101.873 119.61 101.939C119.071 102.005 112.514 101.448 111.525 101.113C110.537 100.777 109.274 100.58 108.944 99.9748C108.615 99.37 108.543 98.9328 109.447 98.1783C109.447 98.1783 108.25 97.2381 109.112 96.0764C109.112 96.0764 107.746 95.0763 108.238 94.1541C108.238 94.1541 107.465 93.8368 107.339 93.3457C107.282 92.8328 107.3 92.3143 107.393 91.8067L109.351 91.2079C109.351 91.2079 108.777 90.5013 109.675 89.8186Z" fill="#FFBE9D"/>
<path id="Path_100" d="M108.908 91.3157C108.908 91.3157 108.998 91.2798 109.16 91.2319C109.397 91.1534 109.642 91.1032 109.89 91.0822C110.281 91.1001 110.656 91.2452 110.957 91.4953C111.359 91.8164 111.521 92.3526 111.364 92.8427C111.276 93.1001 111.082 93.3074 110.831 93.4116C110.625 93.4972 110.41 93.5594 110.19 93.5972L109.136 93.8128C108.816 93.9083 108.482 93.9508 108.148 93.9386C108.442 93.7798 108.759 93.6667 109.088 93.6032L110.124 93.3158C110.519 93.22 110.951 93.1302 111.07 92.717C111.182 92.3434 111.062 91.9393 110.765 91.687C110.517 91.4684 110.211 91.3268 109.884 91.2798C109.65 91.2771 109.416 91.2931 109.184 91.3277C109.004 91.3696 108.908 91.3456 108.908 91.3157Z" fill="#EB996E"/>
<path id="Path_101" d="M111.364 93.0463C111.364 93.0463 111.519 92.9745 111.819 92.9146C112.245 92.8282 112.678 92.7801 113.112 92.7709C113.777 92.7404 114.436 92.9093 115.005 93.2559C115.359 93.4806 115.614 93.8319 115.718 94.238C115.823 94.7008 115.626 95.1798 115.227 95.4357C114.836 95.6068 114.413 95.6926 113.987 95.6872L112.861 95.777L110.962 95.9087C110.378 95.9748 109.789 95.9888 109.202 95.9506C109.773 95.8089 110.357 95.7207 110.944 95.6872L112.837 95.4895L113.963 95.3818C114.342 95.3808 114.718 95.3076 115.071 95.1662C115.361 94.9858 115.509 94.6447 115.442 94.3099C115.353 93.9754 115.139 93.688 114.843 93.5074C114.323 93.1789 113.721 93.0045 113.106 93.0044C112.04 92.9745 111.37 93.1122 111.364 93.0463Z" fill="#EB996E"/>
<path id="Path_102" d="M115.442 95.4416C115.442 95.4416 115.562 95.4416 115.688 95.6273C115.858 95.8769 115.9 96.1921 115.802 96.4776C115.641 96.8904 115.302 97.2077 114.879 97.3399C114.397 97.4795 113.896 97.5462 113.394 97.5375C111.328 97.6333 109.693 98.0346 109.669 97.9447C110.851 97.4815 112.107 97.2379 113.376 97.2261C113.85 97.2348 114.323 97.1825 114.783 97.0704C115.137 96.9714 115.433 96.7279 115.598 96.3997C115.694 96.174 115.694 95.9189 115.598 95.6931C115.478 95.5075 115.394 95.4656 115.442 95.4416Z" fill="#EB996E"/>
<path id="Path_103" d="M122.204 96.5974C121.946 96.7733 121.651 96.888 121.341 96.9327C120.606 97.0975 119.848 97.132 119.102 97.0345C118.356 96.9329 117.634 96.6998 116.969 96.3459C116.466 96.0704 116.203 95.8249 116.227 95.795C118.066 96.76 120.187 97.0442 122.216 96.5974H122.204Z" fill="#EB996E"/>
<path id="Path_104" d="M115.376 93.5373C115.418 93.4595 115.843 93.6092 116.37 93.5373C116.897 93.4655 117.281 93.2439 117.335 93.3158C117.389 93.3876 117.035 93.7829 116.406 93.8487C115.778 93.9146 115.328 93.6032 115.376 93.5373Z" fill="#EB996E"/>
<path id="Path_105" d="M114.909 100.083C114.972 99.4313 115.299 98.8341 115.814 98.4298C116.256 97.9513 116.869 97.6671 117.52 97.6393C117.001 97.9452 116.503 98.2853 116.029 98.6574C115.623 99.1055 115.248 99.5817 114.909 100.083Z" fill="#EB996E"/>
<path id="Path_106" d="M100.703 117.305H126.713L131.54 155.343H95.6189L100.703 117.305Z" fill="#FFC100"/>
<path id="Path_107" d="M126.713 117.305H129.726L138.601 155.343H131.54L126.713 117.305Z" fill="#FFC100"/>
<path id="Path_108" opacity="0.3" d="M126.713 117.305H129.726L138.601 155.343H131.54L126.713 117.305Z" fill="black"/>
<path id="Path_109" d="M112.184 97.5256C112.184 97.5256 112.262 97.4836 112.394 97.5256C112.585 97.5802 112.748 97.7068 112.849 97.8789C113.012 98.1369 113.043 98.4567 112.933 98.7412C112.802 99.0777 112.55 99.3532 112.226 99.5137C111.813 99.6995 111.362 99.7876 110.909 99.7712L111.022 99.6933C110.681 100.346 110.274 100.639 110.244 100.598C110.214 100.556 110.513 100.208 110.783 99.5795L110.813 99.5137H110.897C111.31 99.5012 111.717 99.4076 112.094 99.2382C112.36 99.1182 112.573 98.9053 112.693 98.6394C112.79 98.4325 112.79 98.1935 112.693 97.9867C112.484 97.6034 112.172 97.5735 112.184 97.5256Z" fill="#EB996E"/>
<path id="Path_110" d="M107.309 118.964C107.304 118.705 107.324 118.446 107.369 118.191C107.423 117.7 107.525 116.994 107.669 116.107C107.95 114.353 108.429 111.915 108.986 109.293C109.543 106.67 110.058 104.244 110.4 102.502C110.555 101.675 110.693 100.987 110.795 100.436C110.828 100.179 110.888 99.9258 110.974 99.6813C110.98 99.9402 110.96 100.199 110.915 100.454C110.861 100.951 110.759 101.651 110.615 102.538C110.334 104.292 109.855 106.73 109.292 109.358C108.729 111.987 108.226 114.407 107.884 116.149C107.729 116.97 107.591 117.664 107.489 118.209C107.458 118.467 107.398 118.72 107.309 118.964Z" fill="#FFC100"/>
<path id="Path_111" d="M121.042 119.347C120.923 119.064 120.827 118.771 120.754 118.473C120.581 117.874 120.353 117.035 120.084 116.077C119.527 114.035 118.784 111.209 117.976 108.083C117.167 104.957 116.46 102.095 115.957 100.059C115.73 99.0705 115.532 98.2621 115.358 97.6214C115.275 97.3257 115.219 97.023 115.191 96.7171C115.309 97.0005 115.406 97.2929 115.478 97.5914C115.652 98.1903 115.879 99.0286 116.149 99.9867C116.706 102.029 117.448 104.855 118.257 107.987C119.066 111.119 119.772 113.945 120.269 115.999L120.868 118.443C120.954 118.738 121.012 119.041 121.042 119.347Z" fill="#FFC100"/>
<path id="Path_112" d="M138.601 155.343C138.152 155.1 137.732 154.807 137.35 154.468C136.601 153.899 135.553 153.091 134.463 152.187L133.9 151.726L134.127 151.69C133.427 152.744 132.798 153.672 132.331 154.325C132.108 154.694 131.843 155.035 131.54 155.343C131.7 154.946 131.901 154.567 132.139 154.211C132.552 153.528 133.151 152.582 133.846 151.522L133.936 151.378L134.074 151.486L134.637 151.941C135.75 152.852 136.751 153.684 137.463 154.301C137.876 154.61 138.257 154.959 138.601 155.343Z" fill="#263238"/>
<path id="Path_113" d="M128.294 117.305C128.378 117.305 129.726 124.958 131.289 134.431C132.852 143.905 134.074 151.594 133.984 151.606C133.894 151.618 132.552 143.953 130.989 134.479C129.426 125.006 128.211 117.317 128.294 117.305Z" fill="#263238"/>
<path id="Path_114" d="M128.235 128.102C128.047 128.314 127.847 128.513 127.636 128.701C127.027 129.224 126.362 129.678 125.653 130.054C124.53 130.656 123.316 131.072 122.06 131.288C120.391 131.588 118.675 131.488 117.053 130.994C116.103 130.695 115.239 130.169 114.538 129.461C113.763 128.69 113.278 127.675 113.166 126.587C113.074 125.395 113.557 124.231 114.466 123.455C114.938 123.048 115.528 122.803 116.149 122.754C116.785 122.71 117.422 122.843 117.988 123.138C118.559 123.424 119.059 123.833 119.455 124.335C119.855 124.871 120.143 125.482 120.299 126.132C120.605 127.438 120.605 128.796 120.299 130.102C119.726 132.867 118.297 135.381 116.215 137.288C115.161 138.255 113.944 139.03 112.621 139.575C111.344 140.123 109.954 140.362 108.567 140.27C107.217 140.164 105.928 139.664 104.86 138.833C103.819 138.041 103.114 136.887 102.884 135.599C102.654 134.372 102.903 133.104 103.578 132.054C104.208 131.028 105.339 130.417 106.543 130.455C107.118 130.511 107.647 130.796 108.01 131.246C108.342 131.648 108.57 132.125 108.675 132.635C108.845 133.624 108.726 134.64 108.333 135.563C107.656 137.132 106.485 138.436 104.998 139.276C103.878 139.899 102.664 140.336 101.404 140.57C100.613 140.721 99.8129 140.821 99.0087 140.869C98.7392 140.869 98.5296 140.899 98.4098 140.899H98.2002H98.4098L99.0087 140.839C99.8034 140.764 100.593 140.644 101.374 140.48C102.605 140.228 103.788 139.781 104.878 139.156C106.32 138.324 107.451 137.043 108.1 135.509C108.469 134.626 108.577 133.656 108.411 132.713C108.323 132.226 108.118 131.767 107.812 131.377C107.49 130.981 107.021 130.731 106.513 130.683C105.407 130.658 104.373 131.23 103.806 132.18C103.171 133.17 102.94 134.366 103.159 135.521C103.38 136.738 104.052 137.826 105.04 138.569C106.063 139.36 107.295 139.835 108.585 139.935C111.226 140.138 113.915 138.899 115.969 137.024C117.999 135.17 119.396 132.726 119.964 130.036C120.26 128.776 120.26 127.464 119.964 126.204C119.818 125.602 119.554 125.036 119.185 124.539C118.817 124.06 118.349 123.668 117.814 123.389C117.296 123.12 116.714 122.998 116.131 123.036C115.57 123.071 115.034 123.28 114.598 123.635C113.759 124.354 113.314 125.431 113.4 126.533C113.502 127.564 113.957 128.529 114.688 129.264C115.353 129.948 116.175 130.46 117.083 130.755C118.671 131.25 120.354 131.363 121.994 131.084C123.235 130.882 124.437 130.488 125.558 129.916C126.267 129.555 126.937 129.121 127.558 128.623C127.773 128.461 127.923 128.317 128.037 128.228C128.096 128.175 128.162 128.133 128.235 128.102Z" fill="white"/>
<path id="Path_115" d="M165.048 90.9564H160.359C158.85 91.4893 146.674 101.843 146.674 101.843L153.556 112.658L162.479 107.442L165.048 90.9564Z" fill="#455A64"/>
<path id="Path_116" d="M160.359 90.9564L170.72 87.0221C170.72 87.0221 172.235 90.2018 176.846 89.5192C181.458 88.8365 186.902 85.5909 186.902 85.5909C186.902 85.5909 194.843 90.124 197.191 92.0163C199.538 93.9086 195.298 133.527 195.298 133.527L194.238 145.402C194.238 145.402 195.071 146.001 195.071 148.049C195.071 150.097 195.149 151.45 195.149 151.45H154.101C154.101 151.45 153.1 146.69 153.855 144.797C154.411 143.481 155.082 142.216 155.861 141.019L156.502 122.718L156.73 106.382L160.359 90.9564Z" fill="#455A64"/>
<path id="Path_117" d="M197.191 92.0163C197.191 92.0163 200.503 92.9505 201.485 97.8609C202.467 102.771 202.281 121.527 202.281 121.527L183.788 117.521C183.788 117.521 186.291 109.652 186.291 109.137C186.291 108.622 191.382 95.9207 191.561 95.6512C191.741 95.3818 197.191 92.0163 197.191 92.0163Z" fill="#455A64"/>
<path id="Path_118" d="M156.418 98.6693C156.502 98.6693 156.622 101.945 156.682 105.993C156.742 110.041 156.718 113.317 156.634 113.317C156.55 113.317 156.43 110.041 156.37 105.999C156.31 101.957 156.328 98.6693 156.418 98.6693Z" fill="#263238"/>
<path id="Path_119" d="M188.615 100.43C188.619 100.648 188.595 100.865 188.543 101.077C188.483 101.496 188.375 102.095 188.231 102.831C187.938 104.304 187.489 106.334 186.902 108.55C186.315 110.766 185.704 112.742 185.243 114.185C185.003 114.898 184.806 115.473 184.644 115.868C184.584 116.078 184.495 116.28 184.381 116.467C184.407 116.25 184.457 116.037 184.53 115.832C184.662 115.359 184.824 114.79 185.021 114.119C185.441 112.682 186.01 110.688 186.591 108.472C187.171 106.257 187.657 104.244 188.004 102.783L188.417 101.053C188.452 100.836 188.518 100.627 188.615 100.43V100.43Z" fill="#263238"/>
<path id="Path_120" d="M186.878 100.029C186.966 101.287 186.952 102.551 186.836 103.807C186.818 105.066 186.7 106.322 186.483 107.562C186.388 106.306 186.402 105.043 186.525 103.789C186.54 102.528 186.658 101.271 186.878 100.029V100.029Z" fill="#263238"/>
<path id="Path_121" d="M182.266 106.227C179.623 106.434 176.968 106.434 174.325 106.227C175.642 106.069 176.97 106.017 178.296 106.071C179.621 106.017 180.949 106.069 182.266 106.227Z" fill="white"/>
<path id="Path_122" d="M161.072 133.15L181.536 130.689L184.764 117.73L196.209 120.209C196.209 120.209 191.681 138.174 187.016 139.935C182.35 141.695 159.263 138.737 159.263 138.737L161.072 133.15Z" fill="#FFBE9D"/>
<path id="Path_123" d="M160.239 133C159.131 132.532 157.99 132.146 156.826 131.845C155.879 131.707 154.759 131.916 154.478 132.372L148.98 135.575C148.98 135.575 144.902 135.186 144.512 136.102C144.512 136.102 141.907 135.36 141.488 135.887C141.488 135.887 140.182 136.312 140.398 136.911C140.614 137.509 145.321 139.162 145.321 139.162L151.771 139.821C151.771 139.821 154.232 138.486 155.251 138.378C156.234 138.374 157.215 138.452 158.185 138.611C158.101 138.611 161.958 139.048 161.958 139.048C161.958 139.048 162.743 138.204 163.06 135.881C163.378 133.557 163.06 133.072 163.06 133.072L160.239 133Z" fill="#FFBE9D"/>
<path id="Path_124" d="M157.502 135.953C157.502 135.953 157.329 135.953 157.101 135.797C156.873 135.641 156.676 135.252 156.317 135.006C156.096 134.893 155.856 134.82 155.61 134.791C155.283 134.754 154.976 134.618 154.729 134.402C154.46 134.145 154.29 133.801 154.25 133.431C154.195 133.027 154.323 132.619 154.598 132.318C155.144 131.796 155.916 131.584 156.652 131.755C157.224 131.888 157.754 132.159 158.197 132.545C158.491 132.795 158.765 133.067 159.018 133.36C159.191 133.563 159.275 133.683 159.263 133.701C159.251 133.719 158.814 133.294 158.065 132.719C157.633 132.385 157.132 132.152 156.598 132.036C155.954 131.895 155.281 132.081 154.801 132.533C154.404 133.032 154.448 133.751 154.903 134.198C155.292 134.605 155.969 134.491 156.418 134.797C156.868 135.102 156.963 135.509 157.161 135.683C157.359 135.857 157.514 135.929 157.502 135.953Z" fill="#EB996E"/>
<path id="Path_125" d="M154.089 134.887C154.089 134.935 153.777 134.917 153.34 135.114C152.777 135.444 152.185 135.725 151.573 135.953C150.913 136.03 150.243 135.977 149.603 135.797C149.338 135.774 149.074 135.736 148.812 135.683C149.066 135.562 149.352 135.526 149.627 135.581C150.246 135.687 150.877 135.71 151.502 135.647C152.184 135.473 152.765 135.048 153.298 134.911C153.831 134.773 154.101 134.851 154.089 134.887Z" fill="#EB996E"/>
<path id="Path_126" d="M154.226 137.462C154.116 137.563 153.988 137.644 153.849 137.701C153.489 137.888 153.11 138.035 152.717 138.138C151.416 138.453 150.069 138.53 148.741 138.366C147.974 138.27 147.243 138.15 146.579 138.054C145.975 138.003 145.38 137.871 144.812 137.659C144.584 137.553 144.399 137.374 144.285 137.15C144.204 136.981 144.177 136.791 144.207 136.605C144.273 136.288 144.471 136.216 144.471 136.234C144.471 136.252 144.345 136.354 144.327 136.617C144.32 136.999 144.563 137.341 144.926 137.462C145.483 137.627 146.058 137.729 146.639 137.767L148.789 138.054C150.085 138.214 151.399 138.169 152.681 137.923C153.646 137.707 154.203 137.426 154.226 137.462Z" fill="#EB996E"/>
<path id="Path_127" d="M184.914 135.923C184.525 135.043 184.081 134.189 183.584 133.366C183.003 132.599 182.375 131.869 181.704 131.18C182.586 131.643 183.326 132.339 183.842 133.192C184.445 133.986 184.816 134.931 184.914 135.923Z" fill="#EB996E"/>
</g>
<g id="freepik--character-1--inject-37">
<path id="Path_128" d="M32.3221 206.639L31.5376 246.616L41.2217 247.652L47.8754 206.95L42.647 200.375L32.3221 206.639Z" fill="#FFDECD"/>
<path id="Path_129" d="M42.4076 245.676V246.329C42.4076 246.329 53.4272 250.904 53.517 253L31.5437 252.635V245.317C34.9561 246.948 38.8949 247.078 42.4076 245.676Z" fill="white"/>
<path id="Path_130" d="M31.5376 252.635L31.6394 250.88L52.6665 251.874C52.6665 251.874 53.6367 252.317 53.5109 253L31.5376 252.635Z" fill="#263238"/>
<path id="Path_131" d="M28.3216 84.501C28.1599 82.6566 27.0579 80.7942 25.3271 80.2373L23.2969 81.3991C21.1162 82.488 20.0732 85.0185 20.8534 87.3275C18.1632 89.0134 17.3369 92.5536 19.0028 95.256C17.6852 95.8548 17.1223 97.4717 17.1462 98.9209C17.1702 100.37 17.6373 101.777 17.7451 103.22C17.8469 104.334 17.7451 105.466 17.9488 106.568C18.0855 107.7 18.7771 108.691 19.7933 109.209C20.9418 109.574 22.1974 109.215 22.9794 108.299C23.7212 107.378 24.1845 106.264 24.315 105.089C24.86 101.741 24.1473 98.2502 24.9917 94.9626C25.5519 93.2017 26.2591 91.491 27.1058 89.8486C27.8544 88.1599 28.4773 86.3394 28.3216 84.501Z" fill="#263238"/>
<path id="Path_132" d="M27.3453 84.2615C24.9947 84.244 22.8394 82.9505 21.7185 80.8845C20.5976 78.8185 20.6883 76.3066 21.9553 74.3269C22.1195 74.0175 22.3773 73.7681 22.6919 73.6143C23.3687 73.3448 24.0814 73.8957 24.6024 74.4107L28.3934 78.0995" fill="#263238"/>
<path id="Path_133" d="M27.4531 79.5307C24.6084 78.1834 22.3685 74.9916 21.5421 71.9555C20.7156 68.9194 21.6678 62.7695 22.4823 59.7334C23.4825 56.0326 25.0216 60.7933 26.2793 61.1826C27.024 61.4675 27.5829 62.0978 27.7765 62.8713C27.9632 63.6368 28.0218 64.428 27.9502 65.2127C27.7825 70.0033 27.6168 74.776 27.4531 79.5307Z" fill="#263238"/>
<path id="Path_134" d="M34.7298 49.3616C39.485 46.8046 43.3059 48.3137 45.1625 49.7628C47.019 51.212 48.1569 53.4277 48.8217 55.6853C49.4865 57.9429 49.7979 60.2903 50.3489 62.5838C50.6905 63.9018 50.9367 65.2426 51.0855 66.596C51.355 68.5541 51.2652 72.0573 50.265 73.7819C49.4114 75.4276 48.1799 76.8477 46.6717 77.9258C46.0728 78.3031 45.42 78.6983 44.7672 78.4888C44.3097 78.2858 43.9311 77.9388 43.6892 77.5007C38.5195 70.1185 34.4654 62.0152 31.6575 53.4516" fill="#263238"/>
<path id="Path_135" d="M29.4296 54.8589L37.6703 51.5354L39.8323 51.7749C44.6834 51.7749 48.0551 57.1045 48.109 61.0388C48.1629 65.4043 48.0611 70.7399 47.3844 73.9616C46.0189 80.4409 40.9702 81.0218 40.9702 81.0218C40.9702 81.0218 41.0301 82.7883 41.078 84.9621C41.1243 86.8331 40.4029 88.6415 39.0817 89.9672C37.7604 91.2928 35.9543 92.0202 34.083 91.9804C30.3576 91.9088 27.3725 88.8734 27.3634 85.1477L27.2556 57.0805C27.2943 55.8883 28.2383 54.9235 29.4296 54.8589Z" fill="#FFBE9D"/>
<path id="Path_136" d="M46.0067 65.3624C45.9873 65.816 45.6103 66.1717 45.1563 66.1648C44.9404 66.1713 44.731 66.0904 44.5754 65.9405C44.4199 65.7906 44.3313 65.5844 44.3298 65.3684C44.3492 64.9138 44.7253 64.5563 45.1803 64.56C45.3967 64.5551 45.6061 64.6374 45.7615 64.7882C45.9168 64.939 46.0052 65.1459 46.0067 65.3624Z" fill="#263238"/>
<path id="Path_137" d="M46.3842 63.2665C46.2764 63.3683 45.6656 62.8712 44.7672 62.8293C43.8689 62.7874 43.1802 63.2006 43.0844 63.0868C42.9885 62.973 43.1562 62.8413 43.4557 62.6497C43.8579 62.3968 44.3288 62.2754 44.8032 62.3024C45.2733 62.3267 45.7239 62.4985 46.0908 62.7934C46.3543 63.021 46.4381 63.2186 46.3842 63.2665Z" fill="#263238"/>
<path id="Path_138" d="M40.8804 70.3207C41.3641 70.1981 41.8607 70.1338 42.3597 70.1291C42.5872 70.1291 42.8088 70.0872 42.8567 69.9315C42.8856 69.6932 42.8439 69.4517 42.737 69.2368C42.5513 68.6739 42.3537 68.0751 42.1381 67.4403C41.3176 64.8953 40.7367 62.8114 40.8385 62.7814C40.9403 62.7515 41.6889 64.7815 42.5094 67.3265C42.707 67.9254 42.8927 68.5242 43.0723 69.123C43.2046 69.4057 43.2322 69.7262 43.1502 70.0273C43.0733 70.1887 42.9284 70.3072 42.7549 70.3506C42.625 70.3772 42.4922 70.3872 42.3597 70.3806C41.8661 70.426 41.3687 70.4059 40.8804 70.3207Z" fill="#263238"/>
<path id="Path_139" d="M40.9701 81.0218C37.8925 80.9125 34.9054 79.9528 32.3401 78.2492C32.3401 78.2492 34.4422 82.8901 41.012 82.6087L40.9701 81.0218Z" fill="#EB996E"/>
<path id="Path_140" d="M40.3053 72.2729C39.9934 71.7742 39.4377 71.4815 38.85 71.5064C38.4386 71.4969 38.0473 71.6836 37.796 72.0094C37.5387 72.3715 37.513 72.8494 37.7301 73.237C38.0068 73.6277 38.4896 73.8161 38.9578 73.7161C39.4014 73.5953 39.8113 73.374 40.1556 73.0693C40.2627 72.9962 40.3543 72.9026 40.4251 72.7939C40.4537 72.6113 40.4108 72.4247 40.3053 72.2729Z" fill="#EB996E"/>
<path id="Path_141" d="M38.1854 70.8117C38.3291 70.8117 38.2872 71.7878 39.0897 72.5244C39.8922 73.2609 40.9343 73.2071 40.9403 73.3448C40.9463 73.4825 40.6948 73.5244 40.2576 73.5125C39.6826 73.492 39.1333 73.2693 38.7064 72.8837C38.2988 72.5141 38.0499 72.0013 38.0117 71.4525C38.0117 71.0393 38.1315 70.8057 38.1854 70.8117Z" fill="#263238"/>
<path id="Path_142" d="M46.2585 60.7753C46.0908 60.9729 45.4799 60.7334 44.7313 60.6855C43.9827 60.6376 43.3478 60.7514 43.2101 60.5298C43.1502 60.422 43.264 60.2244 43.5455 60.0448C44.3282 59.6061 45.2985 59.6842 46.0009 60.2424C46.2585 60.434 46.3303 60.6496 46.2585 60.7753Z" fill="#263238"/>
<path id="Path_143" d="M36.0472 65.3085C36.0337 65.7637 36.3887 66.1453 36.8438 66.1648C37.0587 66.1847 37.2726 66.1171 37.4371 65.9774C37.6017 65.8377 37.703 65.6376 37.7182 65.4223C37.7285 64.9682 37.3753 64.5885 36.9216 64.5659C36.7063 64.5443 36.4915 64.6113 36.3266 64.7514C36.1617 64.8914 36.0608 65.0925 36.0472 65.3085Z" fill="#263238"/>
<path id="Path_144" d="M34.3583 63.1707C34.4602 63.2844 35.101 62.8233 36.0053 62.8353C36.9096 62.8473 37.5624 63.3084 37.6582 63.2006C37.7541 63.0928 37.6043 62.9551 37.3229 62.7395C36.9357 62.4609 36.4703 62.3121 35.9933 62.3143C35.5248 62.3068 35.0659 62.4472 34.6817 62.7156C34.4003 62.9132 34.3044 63.1108 34.3583 63.1707Z" fill="#263238"/>
<path id="Path_145" d="M34.7478 60.3023C34.9035 60.5059 35.5323 60.3023 36.2809 60.3023C37.0296 60.3023 37.6584 60.4579 37.8081 60.2424C37.874 60.1406 37.7722 59.937 37.5027 59.7394C37.1367 59.4947 36.703 59.3711 36.263 59.386C35.8231 59.3898 35.3947 59.5277 35.0353 59.7813C34.7717 59.9909 34.6819 60.1765 34.7478 60.3023Z" fill="#263238"/>
<path id="Path_146" d="M36.7241 50.8407C34.6339 49.9964 31.4418 50.2838 29.6512 51.6432C27.8814 53.0706 26.7002 55.1003 26.3333 57.344C25.9201 59.5597 26.471 62.8353 27.052 65.0091C30.4297 60.6556 33.9093 55.6374 37.1672 51.194L36.7241 50.8407Z" fill="#263238"/>
<path id="Path_147" d="M38.317 48.8646C49.7678 47.2477 48.7077 64.5599 48.7077 64.5599C47.5638 58.1824 38.6883 51.5114 38.6883 51.5114L36.8916 51.206L38.317 48.8646Z" fill="#263238"/>
<path id="Path_148" d="M27.9682 68.117C27.9682 67.6319 27.489 66.4582 27.0099 66.3564C25.7343 66.0929 23.4166 66.081 23.2369 69.3506C22.9794 73.7999 27.501 73.1352 27.519 73.0094C27.537 72.8837 27.8903 69.7997 27.9682 68.117Z" fill="#FFBE9D"/>
<path id="Path_149" d="M26.8482 71.2309C26.8482 71.2309 26.7644 71.2848 26.6326 71.3387C26.4407 71.4173 26.2256 71.4173 26.0337 71.3387C25.4613 70.9297 25.1581 70.2406 25.2432 69.5422C25.254 69.1605 25.3502 68.7861 25.5247 68.4464C25.6226 68.1736 25.8453 67.9643 26.1236 67.8835C26.31 67.8441 26.4976 67.9455 26.5668 68.123C26.6207 68.2488 26.5668 68.3386 26.6087 68.3446C26.6506 68.3506 26.7105 68.2787 26.6865 68.0931C26.6652 67.9806 26.6085 67.8778 26.5248 67.7996C26.4077 67.702 26.2578 67.6528 26.1056 67.6619C25.7287 67.7142 25.4063 67.9594 25.2552 68.3086C25.046 68.6743 24.9289 69.0853 24.9138 69.5063C24.9138 70.4045 25.3031 71.2669 25.9379 71.4884C26.1745 71.5759 26.4385 71.5471 26.6506 71.4106C26.8063 71.3387 26.8602 71.2429 26.8482 71.2309Z" fill="#EB996E"/>
<path id="Path_150" d="M22.7339 57.4698C23.9698 54.4287 26.108 51.8393 28.8605 50.0503C30.2701 48.9976 31.9143 48.3031 33.6517 48.0262C35.4144 47.7543 37.1997 48.3523 38.4428 49.6311L38.7602 49.9545C36.7958 54.3199 35.4064 58.0147 32.8731 62.0748C31.9388 63.5659 31.5376 68.6619 31.316 70.3926C30.5494 76.3509 27.2855 78.9019 27.2855 78.9019C20.2185 78.9079 21.596 60.5238 22.7339 57.4698Z" fill="#263238"/>
<path id="Path_151" d="M26.2074 78.2013C25.8961 78.1814 25.5942 78.0869 25.327 77.9258C24.6495 77.5951 24.04 77.1401 23.5304 76.5845C23.0115 76.0378 22.6046 75.395 22.3326 74.6922C22.1963 74.4127 22.1286 74.1048 22.1349 73.7939C22.5509 74.7201 23.0865 75.5879 23.728 76.3749C24.4679 77.0932 25.302 77.7077 26.2074 78.2013Z" fill="#455A64"/>
<path id="Path_152" d="M25.3392 83.998C23.9806 83.9087 22.8044 83.0219 22.3447 81.7404C22.7729 82.2063 23.2247 82.65 23.6982 83.0698C24.2266 83.411 24.7745 83.721 25.3392 83.998Z" fill="#455A64"/>
<path id="Path_153" d="M22.3627 89.4653C22.2968 89.5192 21.8896 89.0701 21.4524 88.4653C21.0152 87.8605 20.7277 87.3275 20.7996 87.2676C20.8714 87.2077 21.2727 87.6629 21.7099 88.2677C22.1471 88.8725 22.4345 89.4174 22.3627 89.4653Z" fill="#455A64"/>
<path id="Path_154" d="M20.0689 96.2082C20.003 96.2621 19.6916 96.0105 19.3682 95.6393C19.0448 95.268 18.8351 94.9267 18.901 94.8668C18.9669 94.8069 19.2783 95.0644 19.6017 95.4357C19.9251 95.8069 20.1347 96.1483 20.0689 96.2082Z" fill="#455A64"/>
<path id="Path_155" d="M21.4163 67.5481C21.6854 67.3641 21.9676 67.2 22.2607 67.0571C22.5362 66.9074 22.8596 66.7277 23.2489 66.4583C23.6381 66.1888 24.0753 65.9852 24.5305 65.6618C25.6257 64.945 26.6739 64.159 27.6687 63.3084C30.1096 61.2228 32.2039 58.763 33.8732 56.0206C34.5545 54.9024 35.1646 53.7424 35.6998 52.5474C35.9454 52.0444 36.1131 51.5713 36.2987 51.1581C36.4844 50.7449 36.5982 50.3856 36.7 50.0862C36.7926 49.7736 36.9108 49.4692 37.0533 49.176C36.9986 49.4992 36.9185 49.8175 36.8138 50.1281C36.7147 50.4972 36.5968 50.861 36.4604 51.218C36.3107 51.6372 36.155 52.1222 35.9214 52.6372C35.4056 53.8554 34.8052 55.0359 34.1247 56.1703C33.287 57.5542 32.3439 58.8715 31.304 60.1106C30.2462 61.3377 29.0949 62.4809 27.8603 63.53C26.8473 64.3757 25.7767 65.1501 24.6563 65.8474C24.1891 66.1588 23.734 66.3924 23.3447 66.6139C22.9554 66.8355 22.6081 67.0032 22.3206 67.1349C22.0309 67.297 21.7284 67.4352 21.4163 67.5481H21.4163Z" fill="#455A64"/>
<path id="Path_156" d="M32.4421 62.2125C32.4421 62.2125 32.3402 62.3802 32.1187 62.6377C31.8971 62.8952 31.5198 63.2365 31.1005 63.6797C28.7567 65.8947 25.9502 67.5616 22.8838 68.5601C22.4235 68.7135 21.9558 68.8434 21.4823 68.9494C21.3111 69.0005 21.1339 69.0287 20.9553 69.0332C21.5618 68.7752 22.1816 68.5493 22.8119 68.3565C24.2971 67.8023 25.7317 67.1211 27.0999 66.3205C28.4637 65.5102 29.7543 64.5825 30.9568 63.5479C31.8731 62.7156 32.4061 62.1766 32.4421 62.2125Z" fill="#455A64"/>
<path id="Path_157" d="M49.0613 67.9014C49.1023 67.5724 49.1643 67.2464 49.2469 66.9253C49.418 66.0446 49.5161 65.1514 49.5404 64.2545C49.7794 58.1903 46.4618 52.5429 41.0481 49.7988C40.2519 49.3835 39.4226 49.0349 38.5687 48.7568C38.2491 48.6701 37.9352 48.5641 37.6284 48.4394C37.6284 48.4394 37.7183 48.4394 37.8859 48.4754C38.0536 48.5113 38.2932 48.5472 38.6046 48.637C39.4803 48.8754 40.3307 49.1983 41.1439 49.6012C46.7178 52.2946 50.1195 58.0808 49.762 64.2605C49.7175 65.1675 49.5851 66.0679 49.3667 66.9493C49.2948 67.2607 49.205 67.5002 49.1571 67.6619C49.1365 67.7458 49.1043 67.8265 49.0613 67.9014Z" fill="#455A64"/>
<path id="Path_158" d="M102.135 108.382C101.831 108.779 101.756 109.306 101.937 109.772C102.14 110.151 102.448 110.465 102.824 110.676C103.428 110.06 103.926 109.347 104.297 108.568" fill="#EB996E"/>
<path id="Path_159" d="M99.5358 107.622C99.1428 107.932 98.9388 108.424 98.9968 108.921C99.0976 109.34 99.3181 109.721 99.6316 110.017C100.369 109.571 101.029 109.006 101.584 108.346" fill="#EB996E"/>
<path id="Path_160" d="M40.4731 87.8784C40.4731 87.8784 60.1707 103.376 63.7221 103.885C67.2735 104.394 83.8868 102.376 90.7081 102.167L91.6724 107.885C91.6724 107.885 72.8492 114.275 66.0039 114.526C59.1586 114.778 55.2238 112.933 55.2238 112.933L42.4255 99.8251L40.4731 87.8784Z" fill="#FFBE9D"/>
<path id="Path_161" d="M90.2888 102.226C90.2888 102.226 99.0865 100.969 100.47 101.658C101.853 102.346 105.764 105.658 105.764 105.658C105.764 105.658 107.076 109.341 106.249 109.514C105.423 109.688 104.572 108.317 104.572 108.317L103.428 106.286L98.5116 105.089L90.3607 105.813L90.2888 102.226Z" fill="#FFBE9D"/>
<path id="Path_162" d="M91.6722 107.885C91.798 108.041 94.9421 109.556 96.5412 109.514C98.1402 109.472 99.9668 108.221 101.332 108.412C102.698 108.604 105.56 108.826 105.908 108.328C106.316 107.908 106.316 107.24 105.908 106.819C105.441 106.376 103.135 105.939 101.47 105.49C100.579 105.286 99.7387 104.901 99.0026 104.358L89.3186 105.424L88.7676 108.418L91.6722 107.885Z" fill="#FFBE9D"/>
<path id="Path_163" d="M95.8586 104.256C96.026 104.222 96.1972 104.21 96.3677 104.221C96.8291 104.234 97.2882 104.29 97.7392 104.388C99.2063 104.76 100.65 105.218 102.063 105.76C102.843 106.02 103.645 106.209 104.459 106.322C104.849 106.353 105.221 106.497 105.531 106.736C105.788 106.985 105.92 107.337 105.89 107.694C105.862 107.984 105.717 108.249 105.489 108.43C105.315 108.561 105.107 108.638 104.89 108.652C104.543 108.652 104.381 108.544 104.387 108.532C104.55 108.547 104.715 108.547 104.878 108.532C105.303 108.459 105.624 108.106 105.657 107.676C105.673 107.393 105.558 107.119 105.345 106.933C105.068 106.739 104.743 106.625 104.405 106.604C103.571 106.506 102.75 106.321 101.955 106.053C100.266 105.49 98.7992 104.855 97.6793 104.604C96.5593 104.352 95.8586 104.316 95.8586 104.256Z" fill="#EB996E"/>
<path id="Path_164" d="M102.201 106.083C101.666 105.986 101.171 105.736 100.775 105.364C100.075 104.813 99.6795 104.167 99.7454 104.167C99.8113 104.167 100.302 104.616 100.943 105.137C101.584 105.658 102.267 105.999 102.201 106.083Z" fill="#EB996E"/>
<path id="Path_165" d="M23.5004 205.327L5.64746 213.274L7.79748 222.807C7.79748 222.807 30.2439 216.112 37.5863 214.627C44.9287 213.142 56.8287 211.249 60.1885 204.123L23.5004 205.327Z" fill="#FFDECD"/>
<path id="Path_166" d="M9.51036 222.981L8.91147 223.148C8.91147 223.148 7.47413 234.849 5.49779 235.496L0.0239258 214.477L6.99502 212.531C6.33945 216.213 7.25126 220.001 9.51036 222.981Z" fill="white"/>
<path id="Path_167" d="M0 214.477L1.70085 214.106L6.32429 234.388C6.32429 234.388 6.16259 235.43 5.47387 235.496L0 214.477Z" fill="#263238"/>
<path id="Path_168" d="M60.1226 204.399C60.0797 204.573 60.0175 204.742 59.937 204.902C59.7066 205.362 59.4188 205.79 59.0805 206.177C57.7852 207.55 56.301 208.732 54.6727 209.687C53.5507 210.351 52.3675 210.907 51.1392 211.345C49.7279 211.826 48.2902 212.226 46.8332 212.543C43.7908 213.31 40.449 214.184 36.9455 215.112L18.9788 219.849L13.5408 221.262L12.0556 221.621C11.8832 221.67 11.7068 221.704 11.5286 221.723C11.694 221.655 11.8641 221.599 12.0376 221.555L13.5109 221.148L18.9369 219.663C23.5244 218.418 29.8546 216.669 36.8677 214.837C40.3712 213.908 43.713 213.04 46.7673 212.286C48.2158 211.966 49.6453 211.566 51.0494 211.088C54.0412 210.048 56.7555 208.338 58.9847 206.088C59.4475 205.586 59.8311 205.016 60.1226 204.399V204.399Z" fill="#EB996E"/>
<path id="Path_169" d="M31.7653 127.844L32.1725 131.36C32.1725 131.36 25.986 143.043 25.986 149.324C25.986 155.606 23.1353 205.501 23.1353 205.501C23.1353 205.501 56.6732 207.411 60.2126 204.135L63.7581 200.866L75.7359 197.596L57.0205 129.329V125.671L31.7653 127.844Z" fill="#263238"/>
<path id="Path_170" d="M54.7086 144.755C54.7279 144.801 54.74 144.85 54.7446 144.899L54.8104 145.306C54.8643 145.69 54.9362 146.217 55.032 146.881C55.2297 148.276 55.5052 150.253 55.8465 152.678C56.5412 157.57 57.5833 164.313 58.9308 171.733C60.2783 179.152 61.6677 185.835 62.7338 190.662C63.2668 193.057 63.698 194.997 64.0094 196.375L64.3508 197.932C64.3807 198.093 64.4107 198.225 64.4286 198.333C64.4365 198.38 64.4365 198.429 64.4286 198.476C64.4076 198.435 64.3915 198.39 64.3807 198.345L64.2729 197.944C64.1711 197.566 64.0394 197.051 63.8717 196.405C63.5303 195.063 63.0572 193.123 62.5002 190.71C61.3803 185.919 59.9549 179.212 58.6014 171.787C57.2479 164.361 56.2538 157.606 55.607 152.708C55.2836 150.259 55.044 148.271 54.8943 146.893C54.8224 146.228 54.7685 145.696 54.7266 145.312C54.7266 145.145 54.7266 145.013 54.6907 144.899C54.6891 144.851 54.6952 144.802 54.7086 144.755Z" fill="#455A64"/>
<path id="Path_171" d="M30.6213 151.007C30.6816 151.134 30.7297 151.266 30.7651 151.402C30.8489 151.698 30.9627 152.081 31.1064 152.552C31.4059 153.588 31.8251 155.019 32.3402 156.78C33.4002 160.343 34.9334 165.241 36.8019 170.595C38.6704 175.948 40.539 180.739 41.9344 184.182C42.6291 185.877 43.1981 187.26 43.6053 188.26L44.0545 189.368C44.1086 189.497 44.1546 189.629 44.1922 189.763C44.1115 189.648 44.0451 189.524 43.9946 189.392L43.4915 188.308C43.0603 187.362 42.4554 185.985 41.7308 184.266C40.2815 180.841 38.389 176.062 36.5084 170.703C34.6279 165.343 33.1367 160.421 32.1305 156.84C31.6275 155.043 31.2382 153.594 30.9867 152.582C30.8669 152.103 30.777 151.72 30.7052 151.42C30.6657 151.285 30.6377 151.147 30.6213 151.007H30.6213Z" fill="#455A64"/>
<path id="Path_172" d="M58.1822 130.952C57.8511 131.022 57.5144 131.062 57.1761 131.072C56.5293 131.138 55.589 131.204 54.4212 131.276C52.0975 131.413 48.8755 131.539 45.324 131.557C41.7726 131.575 38.5446 131.467 36.2149 131.348C35.053 131.288 34.1128 131.228 33.46 131.174C33.1217 131.164 32.785 131.124 32.4539 131.054C32.7909 131.032 33.129 131.032 33.466 131.054L36.2269 131.132C38.5506 131.198 41.7666 131.264 45.318 131.252C48.8695 131.24 52.0855 131.144 54.4152 131.06L57.1701 130.958C57.5068 130.929 57.8452 130.927 58.1822 130.952Z" fill="#455A64"/>
<path id="Path_173" d="M41.0121 85.3633C40.8504 84.9861 52.9061 94.5973 54.4213 99.2802C55.9365 103.963 56.2179 117.473 56.2179 117.473L57.0624 126.144L32.969 127.844L32.3222 126.144L30.5255 121.311L28.0641 114.011C28.0641 114.011 22.129 104.795 20.9492 100.837C19.4879 95.9087 21.9134 90.8606 21.9134 90.8606L27.3574 84.7286L41.0121 85.3633Z" fill="#FFC100"/>
<path id="Path_174" d="M27.3634 85.1478C27.3634 85.1478 26.0279 82.6746 26.8483 81.5907C27.5071 80.7344 39.0957 81.8123 41.4613 82.3093C42.8507 82.6087 41.4613 85.7047 41.4613 85.7047L27.3634 85.1478Z" fill="#FFC100"/>
<g id="Group_2" opacity="0.3">
<path id="Path_175" d="M34.3045 96.825C35.3167 99.4418 33.8853 107.556 33.6697 109.484C33.3943 111.41 32.9494 113.308 32.3402 115.155C32.0767 116.023 31.8251 117.018 32.3402 117.778C33.1307 118.976 35.1669 118.652 36.1551 119.73C34.3036 120.589 32.2244 120.829 30.2261 120.413C29.8717 120.371 29.5411 120.213 29.2858 119.964C29.1301 119.737 29.0315 119.476 28.9984 119.203C28.3488 116.37 28.2533 113.438 28.7169 110.568C29.2379 107.724 31.9569 100.897 34.2446 99.1005" fill="black"/>
</g>
<path id="Path_176" d="M34.7296 100.412C34.5242 101.404 34.1297 102.347 33.5678 103.191C33.0937 104.086 32.4439 104.876 31.6573 105.514C31.5915 105.454 32.4599 104.436 33.3043 103.029C34.1487 101.622 34.6398 100.376 34.7296 100.412Z" fill="#263238"/>
<path id="Path_177" d="M41.4612 85.4052C41.287 85.4862 41.101 85.5388 40.9102 85.5609C40.5509 85.6388 40.0298 85.7286 39.377 85.8184C35.9834 86.2677 32.5365 86.1014 29.2019 85.3274C28.5611 85.1777 28.052 85.034 27.7046 84.9202C27.5173 84.8781 27.3375 84.8074 27.1716 84.7106C27.1716 84.6627 27.9682 84.8663 29.2498 85.1118C30.9146 85.429 32.5996 85.6291 34.2924 85.7106C35.9879 85.7894 37.6868 85.7514 39.377 85.5969C40.6527 85.4831 41.4492 85.3573 41.4612 85.4052Z" fill="#263238"/>
<path id="Path_178" d="M49.9416 108.682C49.8877 108.682 50.0973 108.017 50.259 106.945C50.6827 104.135 50.1736 101.264 48.8097 98.7712C48.2886 97.819 47.8694 97.2861 47.9113 97.2501C47.9533 97.2142 48.0491 97.3639 48.2467 97.5974C48.5269 97.9315 48.7793 98.288 49.0013 98.6634C50.5037 101.161 51.0306 104.125 50.4806 106.987C50.3979 107.415 50.2817 107.835 50.1332 108.245C50.0941 108.4 50.0293 108.548 49.9416 108.682Z" fill="#263238"/>
<g id="Group_3" opacity="0.3">
<path id="Path_179" d="M33.9931 85.8184C31.9788 85.6802 29.9773 85.396 28.0042 84.9681C30.8179 86.4989 34.0285 87.1438 37.2151 86.8185C38.3769 86.6688 39.6107 86.3454 40.3653 85.4651C38.5985 86.1538 35.8856 85.9861 33.9931 85.8184Z" fill="black"/>
</g>
<g id="Group_4" opacity="0.3">
<path id="Path_180" d="M47.5759 111.436C49.7546 109.134 50.7855 105.976 50.3847 102.831C50.6718 103.849 50.8228 104.9 50.8339 105.957C50.9618 107.174 50.6634 108.397 49.9895 109.418C49.2528 110.43 48.8276 111.041 47.5939 111.436" fill="black"/>
</g>
<path id="Path_181" d="M30.7951 91.5612C29.5639 90.5114 27.9604 90.0044 26.3494 90.1555C24.7385 90.3067 23.2572 91.1032 22.2429 92.3637C22.1591 92.4714 22.0752 92.5912 21.9974 92.705C20.7457 94.5793 17.2961 123.772 18.6735 127.269C20.051 130.767 22.0453 130.521 22.0453 130.521C22.0453 130.521 31.0766 130.419 37.5745 128.916C44.0725 127.413 51.3131 124.958 51.3131 124.958L50.1153 117.886C50.1153 117.886 34.2088 119.994 29.8368 119.497L31.5078 105.28C31.5078 105.28 35.3107 100.651 34.2207 96.4058C33.6937 94.3877 32.1965 92.7349 30.7951 91.5612Z" fill="#FFBE9D"/>
<path id="Path_182" d="M55.1279 113.544L58.7213 111.149L61.2905 108.981C61.4548 109.776 61.2789 110.603 60.8054 111.263C60.0089 112.46 58.6674 114.257 58.6674 114.257L55.1279 113.544Z" fill="#FFBE9D"/>
<path id="Path_183" d="M60.4522 112.095C60.4223 112.095 60.6558 111.82 60.9074 111.305C61.2402 110.59 61.3205 109.783 61.1349 109.017L61.3505 109.077L58.7933 111.263L58.6016 111.389L56.3498 112.892C55.7436 113.311 55.1159 113.699 54.4693 114.053C53.8952 114.41 53.2946 114.723 52.6726 114.987C53.207 114.568 53.7738 114.192 54.3675 113.862C54.9125 113.544 55.5233 113.119 56.2061 112.664L58.4399 111.149L58.6316 111.017L61.2128 108.867L61.3865 108.73L61.4284 108.933C61.6147 109.761 61.4911 110.628 61.081 111.371C60.9668 111.571 60.8302 111.758 60.6738 111.927C60.5301 112.047 60.4642 112.107 60.4522 112.095Z" fill="#EB996E"/>
<path id="Path_184" d="M53.8342 119.569C53.954 119.329 63.3446 108.867 65.6623 106.286C65.9643 105.948 66.4571 105.857 66.8601 106.065C67.1397 106.204 67.3383 106.466 67.3971 106.772C67.4558 107.079 67.368 107.395 67.1596 107.628L55.1338 121L53.8342 119.569Z" fill="#263238"/>
<path id="Path_185" d="M63.8298 114.999C64.2191 114.478 63.6442 113.454 63.1111 113.173C62.5781 112.892 60.4521 114.065 60.4521 114.065L59.6855 114.137C59.6855 114.137 55.5591 113.299 55.4214 113.371C54.3476 113.833 53.3406 114.438 52.4269 115.167C52.0109 115.547 51.6519 115.984 51.3609 116.467C51.0495 116.952 50.2769 117.742 48.4802 118.173L50.229 125.281C50.229 125.281 54.0679 124.377 54.3553 124.371C54.6428 124.365 57.8589 124.114 58.2841 124.042C59.5749 123.718 60.7937 123.155 61.8774 122.383C63.2549 121.359 62.6141 120.491 62.6141 120.491C64.0334 119.527 62.9255 118.569 62.9255 118.569L63.3267 117.886C63.9256 116.802 62.7278 116.203 62.7278 116.203C63.1262 115.831 63.4946 115.429 63.8298 114.999Z" fill="#FFBE9D"/>
<path id="Path_186" d="M60.979 117.203C60.979 117.125 61.4042 116.922 61.9133 116.604C62.4223 116.287 62.8116 116.006 62.8715 116.041C62.9314 116.077 62.614 116.515 62.063 116.85C61.512 117.185 61.003 117.281 60.979 117.203Z" fill="#EB996E"/>
<path id="Path_187" d="M62.1828 119.137C62.1349 119.072 62.2786 118.868 62.5122 118.682C62.7457 118.497 62.9733 118.389 63.0212 118.449C63.0691 118.509 62.9254 118.712 62.6918 118.904C62.4583 119.095 62.2367 119.197 62.1828 119.137Z" fill="#EB996E"/>
<path id="Path_188" d="M61.7637 120.712C61.7637 120.628 61.9913 120.545 62.2727 120.437C62.5542 120.329 62.7878 120.239 62.8357 120.299C62.8836 120.359 62.6979 120.581 62.3745 120.706C62.0511 120.832 61.7637 120.79 61.7637 120.712Z" fill="#EB996E"/>
<path id="Path_189" d="M60.4521 114.071C59.7471 114.273 59.0174 114.376 58.2841 114.377C57.5594 114.471 56.8288 114.511 56.0981 114.496C56.0981 114.401 57.0444 114.149 58.2601 114.065C58.9872 113.961 59.7256 113.963 60.4521 114.071Z" fill="#EB996E"/>
<path id="Path_190" d="M30.0404 119.365C29.5956 120.11 29.0606 120.798 28.4474 121.413C27.9145 122.101 27.299 122.72 26.6147 123.257C27.0688 122.517 27.6052 121.83 28.2138 121.209C28.7493 120.526 29.3623 119.907 30.0404 119.365Z" fill="#EB996E"/>
<path id="Path_191" d="M34.077 100.059C34.077 100.059 34.1189 99.7412 34.1728 99.1724C34.2581 98.3728 34.2198 97.5649 34.059 96.777C33.4206 94.175 31.6334 92.0045 29.202 90.8786C27.8895 90.2597 26.3907 90.1633 25.0097 90.6091C23.8659 90.9345 22.8879 91.6813 22.2728 92.699C21.8734 93.399 21.5845 94.1565 21.4164 94.9446C21.3638 95.238 21.2939 95.5279 21.2068 95.8129C21.2068 95.8129 21.2068 95.7351 21.2068 95.5794C21.2068 95.4237 21.2427 95.2081 21.2966 94.9207C21.4035 94.1093 21.6464 93.3218 22.0153 92.5912C22.2958 92.0845 22.6697 91.6354 23.1173 91.2678C23.635 90.8541 24.2234 90.5375 24.854 90.3336C26.3099 89.8461 27.898 89.9405 29.2858 90.5971C31.8165 91.7359 33.6643 93.9983 34.2746 96.7052C34.4195 97.5172 34.4195 98.3484 34.2746 99.1604C34.2414 99.3829 34.1934 99.603 34.1309 99.8191C34.1274 99.9015 34.1091 99.9827 34.077 100.059Z" fill="#263238"/>
</g>
<g id="freepik--speech-bubble--inject-37">
<path id="Path_192" d="M78.4967 71.7579H53.9422C52.9579 71.777 52.1646 72.5702 52.1455 73.5544V97.3519C52.1486 98.3477 52.9464 99.1588 53.9422 99.1783H62.9854L66.5129 104.179L69.5792 99.1783H78.4967C78.9836 99.1865 79.453 98.9967 79.7974 98.6524C80.1417 98.3081 80.3315 97.8388 80.3233 97.3519V73.5843C80.3315 73.0975 80.1417 72.6281 79.7974 72.2838C79.453 71.9395 78.9836 71.7497 78.4967 71.7579Z" fill="#FAFAFA"/>
<path id="Path_193" d="M78.4967 71.7579C78.7443 71.7387 78.993 71.7798 79.2213 71.8776C79.5007 71.9971 79.7488 72.1795 79.946 72.4106C80.2139 72.737 80.3637 73.1442 80.3712 73.5664C80.3712 75.4287 80.3712 78.1294 80.4131 81.5188C80.455 84.9082 80.4131 89.0282 80.449 93.6811C80.449 94.8787 80.449 96.0764 80.449 97.2741C80.4792 97.9518 80.1607 98.598 79.6046 98.9867C79.3211 99.1834 78.9904 99.3012 78.6464 99.3281C78.305 99.3281 77.9996 99.3281 77.6762 99.3281H69.5792L69.7049 99.2562L66.6446 104.262L66.5248 104.46L66.3931 104.274L62.8536 99.2682L62.9854 99.334H56.6431C55.6549 99.334 54.7087 99.334 53.7026 99.334C53.1749 99.2702 52.6955 98.9959 52.373 98.5735C52.0643 98.1587 51.9174 97.6456 51.9598 97.1303C51.9598 95.2221 51.9598 93.3417 51.9598 91.4894C51.9598 87.7946 51.9598 84.2315 51.9598 80.8302C51.9598 79.1355 51.9598 77.4767 51.9598 75.8659C51.9598 75.0634 51.9598 74.267 51.9598 73.4705C51.9984 72.6214 52.5821 71.8948 53.4031 71.674C53.7823 71.6056 54.1684 71.5835 54.553 71.6082H57.805H61.8355L74.005 71.6561H77.3168H78.1733C78.271 71.6507 78.369 71.6507 78.4667 71.6561C78.4667 71.6561 78.3709 71.6561 78.1733 71.6561H77.3168H74.005L61.8355 71.71H54.5829C54.2203 71.692 53.8567 71.7141 53.4989 71.7758C52.7878 71.9665 52.2831 72.5972 52.2532 73.3328V75.7281C52.2532 77.339 52.2532 78.9977 52.2532 80.6924C52.2532 84.0938 52.2532 87.6568 52.2532 91.3516V96.9926C52.2114 97.4402 52.335 97.8875 52.6006 98.2502C52.8746 98.6023 53.2776 98.8307 53.7205 98.8849C54.6488 98.9149 55.6549 98.8849 56.6251 98.8849H63.0453L63.0932 98.9508L66.6206 103.957H66.3691L69.4354 98.9568L69.4774 98.8849H69.5612L77.7121 99.1005C78.0295 99.1005 78.3649 99.1005 78.6643 99.1005C78.9583 99.074 79.2407 98.973 79.4848 98.8071C79.9723 98.4714 80.2511 97.9071 80.2215 97.316C80.2215 96.0824 80.2215 94.8847 80.2215 93.723C80.2215 89.0701 80.2215 84.9681 80.2574 81.5607C80.2933 78.1534 80.2574 75.4766 80.2993 73.6083C80.2971 72.896 79.8742 72.2524 79.2213 71.9675C78.9924 71.8598 78.7478 71.789 78.4967 71.7579Z" fill="#263238"/>
<path id="Path_194" d="M70.3339 89.118H70.1662H69.6811H67.8844H61.8955H61.8476V89.0701C61.7997 88.7527 61.7518 88.4173 61.7038 88.076C61.3026 85.1717 60.9433 82.5787 60.7097 80.89L60.7456 80.926H59.1526H58.7274H58.5776H58.7274H59.1466H60.7396H60.7696C61.0151 82.6207 61.3685 85.2136 61.8057 88.1119C61.8536 88.4473 61.9015 88.7886 61.9434 89.106L61.8895 89.0521H67.8784H69.6751H70.1602C70.2201 89.0683 70.2783 89.0904 70.3339 89.118Z" fill="#263238"/>
<path id="Path_195" d="M61.8355 89.2917C61.7883 89.2864 61.751 89.2491 61.7457 89.2018L60.6198 81.0877H58.7213C58.5536 81.0877 58.4758 81.0877 58.4698 80.9739C58.4638 80.8601 58.5536 80.8541 58.7213 80.8481H59.1465H60.7755C60.8307 80.8478 60.8772 80.8891 60.8833 80.944L62.0451 89.0162L70.1661 89.0521C70.3637 89.0521 70.4356 89.0521 70.4416 89.1659C70.4416 89.2737 70.3637 89.2797 70.1661 89.2857H69.687H67.8903H61.8475L61.8355 89.2917Z" fill="#263238"/>
<path id="Path_196" d="M61.6558 87.3814H61.8235H62.3026H64.0992L70.3157 87.3514L70.2618 87.3994C70.4475 86.3514 70.6451 85.2196 70.8607 84.0459C70.9685 83.4471 71.0703 82.8482 71.1721 82.2853L71.226 82.3512H63.8956H61.7216H63.8956L71.226 82.3213H71.2919V82.3871C71.1961 82.986 71.0883 83.5429 70.9865 84.1477C70.7769 85.3454 70.5792 86.4532 70.3876 87.5012V87.5431H70.3397H64.1232H62.3265H61.6797L61.6558 87.3814Z" fill="#263238"/>
<path id="Path_197" d="M61.6618 87.4951C61.599 87.4951 61.548 87.4442 61.548 87.3814C61.548 87.2796 61.6558 87.2736 61.6918 87.2676H62.2907H64.0873L70.1721 87.2376L71.0105 82.447L60.9671 82.4111C60.9132 82.4111 60.8054 82.4111 60.8054 82.2973C60.8054 82.1835 60.9132 82.1895 60.9611 82.1835H61.7038H65.4049H71.274C71.3071 82.183 71.3384 82.1987 71.3579 82.2254C71.3692 82.2522 71.3692 82.2825 71.3579 82.3093L70.4416 87.5311C70.4327 87.5835 70.387 87.6216 70.3338 87.6209L61.6499 87.585L61.6618 87.4951Z" fill="#263238"/>
<path id="Path_198" d="M64.0154 91.4115C63.9954 91.3467 63.9794 91.2807 63.9675 91.2139C63.9117 91.0393 63.8028 90.8865 63.656 90.7768C63.4131 90.5994 63.0914 90.5728 62.8226 90.7078C62.5539 90.8428 62.3832 91.1168 62.3804 91.4175C62.381 91.7192 62.5519 91.9946 62.822 92.129C63.0921 92.2634 63.415 92.2337 63.656 92.0523C63.8034 91.9431 63.9124 91.7901 63.9675 91.6151C64.0034 91.4894 64.0034 91.4115 64.0154 91.4115C64.0284 91.4828 64.0284 91.5558 64.0154 91.6271C63.974 91.8214 63.866 91.9952 63.7099 92.1181C63.3952 92.3799 62.9451 92.4012 62.607 92.1703C62.269 91.9395 62.1252 91.5124 62.2546 91.1241C62.3841 90.7358 62.7554 90.4804 63.1644 90.4985C63.5733 90.5166 63.9207 90.8037 64.0154 91.2019C64.0286 91.2712 64.0286 91.3423 64.0154 91.4115Z" fill="#263238"/>
<path id="Shape_12" fill-rule="evenodd" clip-rule="evenodd" d="M62.8297 92.3577C62.8914 92.3813 62.9558 92.3974 63.0213 92.4056C63.5307 92.4832 64.0119 92.1493 64.1173 91.6451C64.1297 91.5677 64.1297 91.4889 64.1173 91.4115C64.1298 91.3362 64.1298 91.2593 64.1173 91.184C64.0675 90.9645 63.9451 90.7683 63.77 90.627C63.5039 90.4175 63.1491 90.3587 62.8297 90.4713C62.4307 90.6161 62.1634 90.9931 62.1589 91.4175C62.1624 91.8408 62.4306 92.2166 62.8297 92.3577ZM62.9375 90.7767C63.0459 90.7341 63.1634 90.7197 63.2789 90.7348V90.7169C63.394 90.7387 63.5013 90.7903 63.5903 90.8666C63.72 90.9584 63.8149 91.0914 63.8598 91.2438L63.8957 91.3876V91.4414C63.8718 91.4734 63.8598 91.5213 63.8598 91.5852C63.8125 91.7381 63.7182 91.8722 63.5903 91.9684C63.4004 92.1032 63.1567 92.1367 62.9375 92.0582C62.6704 91.9582 62.4937 91.7027 62.4943 91.4175C62.4919 91.1318 62.6693 90.8754 62.9375 90.7767Z" fill="#263238"/>
<path id="Path_199" d="M69.4415 91.4055C69.4415 91.4055 69.4415 91.3337 69.3876 91.2079C69.3386 91.0316 69.2308 90.8774 69.0821 90.7708C68.8411 90.5893 68.5182 90.5596 68.2481 90.694C67.978 90.8284 67.8071 91.1039 67.8065 91.4055C67.8093 91.7063 67.98 91.9802 68.2487 92.1152C68.5175 92.2502 68.8392 92.2236 69.0821 92.0463C69.2295 91.9371 69.3385 91.7841 69.3935 91.6091C69.4295 91.4834 69.4295 91.4055 69.4415 91.4055C69.4538 91.4748 69.4538 91.5458 69.4415 91.6151C69.4026 91.8104 69.2941 91.985 69.136 92.1062C68.9003 92.2959 68.5831 92.3503 68.2976 92.2499C67.9602 92.1366 67.7223 91.8337 67.6924 91.479C67.6625 91.1244 67.8462 90.7859 68.1598 90.6177C68.4735 90.4495 68.8571 90.4838 69.136 90.7049C69.291 90.8289 69.3987 91.0022 69.4415 91.1959C69.4547 91.2652 69.4547 91.3363 69.4415 91.4055Z" fill="#263238"/>
<path id="Shape_13" fill-rule="evenodd" clip-rule="evenodd" d="M68.2555 92.3517C68.3181 92.3725 68.3821 92.3886 68.4472 92.3996H68.4412C68.9491 92.4711 69.4264 92.1398 69.5371 91.6391C69.5495 91.5617 69.5495 91.4829 69.5371 91.4055C69.5525 91.3284 69.5525 91.2491 69.5371 91.172C69.4923 90.9537 69.3713 90.7584 69.1958 90.621C68.9307 90.4093 68.5747 90.3503 68.2555 90.4653C67.8555 90.6064 67.5879 90.9844 67.5879 91.4085C67.5879 91.8326 67.8555 92.2106 68.2555 92.3517ZM68.3873 90.7528C68.4968 90.715 68.6136 90.7027 68.7286 90.7169C68.8412 90.7362 68.9478 90.7813 69.0401 90.8486C69.1705 90.9423 69.2655 91.0774 69.3096 91.2318C69.3455 91.2917 69.3455 91.3456 69.3455 91.3756V91.4235C69.3364 91.4721 69.3244 91.52 69.3096 91.5672C69.2655 91.7217 69.1705 91.8567 69.0401 91.9504C68.824 92.1107 68.5343 92.1305 68.2985 92.0011C68.0626 91.8717 67.9237 91.6168 67.9427 91.3485C67.9618 91.0801 68.1355 90.8475 68.3873 90.7528Z" fill="#263238"/>
<path id="Path_200" d="M74.3164 83.1297C74.3164 84.6907 73.0508 85.9562 71.4896 85.9562C69.9284 85.9562 68.6628 84.6907 68.6628 83.1297C68.6628 81.5687 69.9284 80.3032 71.4896 80.3032C73.0494 80.3065 74.3131 81.57 74.3164 83.1297Z" fill="#FFC100"/>
<path id="Path_201" d="M69.8726 83.1896L70.2918 82.7644L71.1123 83.489L72.7113 81.95L73.1066 82.3692L71.0524 84.3034L69.8726 83.1896Z" fill="white"/>
</g>
</g>
</svg>
