<svg width="771" height="75" viewBox="0 0 771 75" fill="none" xmlns="http://www.w3.org/2000/svg">
<path opacity="0.3" d="M557.5 0H199.5C178.789 0 162 16.7893 162 37.5C162 58.2107 178.789 75 199.5 75H557.5C578.211 75 595 58.2107 595 37.5C595 16.7893 578.211 0 557.5 0Z" fill="white"/>
<path opacity="0.6" d="M615.5 0H396.5C375.789 0 359 16.7893 359 37.5C359 58.2107 375.789 75 396.5 75H615.5C636.211 75 653 58.2107 653 37.5C653 16.7893 636.211 0 615.5 0Z" fill="white"/>
<path opacity="0.2" d="M557.5 0H37.5C16.7893 0 0 16.7893 0 37.5C0 58.2107 16.7893 75 37.5 75H557.5C578.211 75 595 58.2107 595 37.5C595 16.7893 578.211 0 557.5 0Z" fill="white"/>
<path opacity="0.4" d="M557.5 0H301.5C280.789 0 264 16.7893 264 37.5C264 58.2107 280.789 75 301.5 75H557.5C578.211 75 595 58.2107 595 37.5C595 16.7893 578.211 0 557.5 0Z" fill="white"/>
<path d="M733.5 0H458.5C437.789 0 421 16.7893 421 37.5C421 58.2107 437.789 75 458.5 75H733.5C754.211 75 771 58.2107 771 37.5C771 16.7893 754.211 0 733.5 0Z" fill="white"/>
</svg>
